G75*
%MOIN*%
%OFA0B0*%
%FSLAX24Y24*%
%IPPOS*%
%LPD*%
%AMOC8*
5,1,8,0,0,1.08239X$1,22.5*
%
%ADD10C,0.0000*%
%ADD11OC8,0.0520*%
%ADD12C,0.1000*%
%ADD13OC8,0.0630*%
%ADD14C,0.0630*%
%ADD15C,0.0650*%
%ADD16R,0.0740X0.0740*%
%ADD17C,0.0740*%
%ADD18C,0.0440*%
%ADD19C,0.0600*%
%ADD20C,0.0705*%
%ADD21OC8,0.0600*%
%ADD22C,0.0520*%
%ADD23R,0.0396X0.0396*%
%ADD24C,0.0100*%
%ADD25C,0.0500*%
%ADD26C,0.0400*%
%ADD27C,0.0240*%
D10*
X000000Y000000D02*
X054000Y000000D01*
X054000Y040000D01*
X000000Y040000D01*
X000000Y000000D01*
X001370Y002000D02*
X001372Y002050D01*
X001378Y002100D01*
X001388Y002149D01*
X001402Y002197D01*
X001419Y002244D01*
X001440Y002289D01*
X001465Y002333D01*
X001493Y002374D01*
X001525Y002413D01*
X001559Y002450D01*
X001596Y002484D01*
X001636Y002514D01*
X001678Y002541D01*
X001722Y002565D01*
X001768Y002586D01*
X001815Y002602D01*
X001863Y002615D01*
X001913Y002624D01*
X001962Y002629D01*
X002013Y002630D01*
X002063Y002627D01*
X002112Y002620D01*
X002161Y002609D01*
X002209Y002594D01*
X002255Y002576D01*
X002300Y002554D01*
X002343Y002528D01*
X002384Y002499D01*
X002423Y002467D01*
X002459Y002432D01*
X002491Y002394D01*
X002521Y002354D01*
X002548Y002311D01*
X002571Y002267D01*
X002590Y002221D01*
X002606Y002173D01*
X002618Y002124D01*
X002626Y002075D01*
X002630Y002025D01*
X002630Y001975D01*
X002626Y001925D01*
X002618Y001876D01*
X002606Y001827D01*
X002590Y001779D01*
X002571Y001733D01*
X002548Y001689D01*
X002521Y001646D01*
X002491Y001606D01*
X002459Y001568D01*
X002423Y001533D01*
X002384Y001501D01*
X002343Y001472D01*
X002300Y001446D01*
X002255Y001424D01*
X002209Y001406D01*
X002161Y001391D01*
X002112Y001380D01*
X002063Y001373D01*
X002013Y001370D01*
X001962Y001371D01*
X001913Y001376D01*
X001863Y001385D01*
X001815Y001398D01*
X001768Y001414D01*
X001722Y001435D01*
X001678Y001459D01*
X001636Y001486D01*
X001596Y001516D01*
X001559Y001550D01*
X001525Y001587D01*
X001493Y001626D01*
X001465Y001667D01*
X001440Y001711D01*
X001419Y001756D01*
X001402Y001803D01*
X001388Y001851D01*
X001378Y001900D01*
X001372Y001950D01*
X001370Y002000D01*
X004726Y002027D02*
X004728Y002074D01*
X004734Y002120D01*
X004744Y002166D01*
X004757Y002211D01*
X004775Y002254D01*
X004796Y002296D01*
X004820Y002336D01*
X004848Y002373D01*
X004879Y002408D01*
X004913Y002441D01*
X004949Y002470D01*
X004988Y002496D01*
X005029Y002519D01*
X005072Y002538D01*
X005116Y002554D01*
X005161Y002566D01*
X005207Y002574D01*
X005254Y002578D01*
X005300Y002578D01*
X005347Y002574D01*
X005393Y002566D01*
X005438Y002554D01*
X005482Y002538D01*
X005525Y002519D01*
X005566Y002496D01*
X005605Y002470D01*
X005641Y002441D01*
X005675Y002408D01*
X005706Y002373D01*
X005734Y002336D01*
X005758Y002296D01*
X005779Y002254D01*
X005797Y002211D01*
X005810Y002166D01*
X005820Y002120D01*
X005826Y002074D01*
X005828Y002027D01*
X005826Y001980D01*
X005820Y001934D01*
X005810Y001888D01*
X005797Y001843D01*
X005779Y001800D01*
X005758Y001758D01*
X005734Y001718D01*
X005706Y001681D01*
X005675Y001646D01*
X005641Y001613D01*
X005605Y001584D01*
X005566Y001558D01*
X005525Y001535D01*
X005482Y001516D01*
X005438Y001500D01*
X005393Y001488D01*
X005347Y001480D01*
X005300Y001476D01*
X005254Y001476D01*
X005207Y001480D01*
X005161Y001488D01*
X005116Y001500D01*
X005072Y001516D01*
X005029Y001535D01*
X004988Y001558D01*
X004949Y001584D01*
X004913Y001613D01*
X004879Y001646D01*
X004848Y001681D01*
X004820Y001718D01*
X004796Y001758D01*
X004775Y001800D01*
X004757Y001843D01*
X004744Y001888D01*
X004734Y001934D01*
X004728Y001980D01*
X004726Y002027D01*
X026380Y002027D02*
X026382Y002074D01*
X026388Y002120D01*
X026398Y002166D01*
X026411Y002211D01*
X026429Y002254D01*
X026450Y002296D01*
X026474Y002336D01*
X026502Y002373D01*
X026533Y002408D01*
X026567Y002441D01*
X026603Y002470D01*
X026642Y002496D01*
X026683Y002519D01*
X026726Y002538D01*
X026770Y002554D01*
X026815Y002566D01*
X026861Y002574D01*
X026908Y002578D01*
X026954Y002578D01*
X027001Y002574D01*
X027047Y002566D01*
X027092Y002554D01*
X027136Y002538D01*
X027179Y002519D01*
X027220Y002496D01*
X027259Y002470D01*
X027295Y002441D01*
X027329Y002408D01*
X027360Y002373D01*
X027388Y002336D01*
X027412Y002296D01*
X027433Y002254D01*
X027451Y002211D01*
X027464Y002166D01*
X027474Y002120D01*
X027480Y002074D01*
X027482Y002027D01*
X027480Y001980D01*
X027474Y001934D01*
X027464Y001888D01*
X027451Y001843D01*
X027433Y001800D01*
X027412Y001758D01*
X027388Y001718D01*
X027360Y001681D01*
X027329Y001646D01*
X027295Y001613D01*
X027259Y001584D01*
X027220Y001558D01*
X027179Y001535D01*
X027136Y001516D01*
X027092Y001500D01*
X027047Y001488D01*
X027001Y001480D01*
X026954Y001476D01*
X026908Y001476D01*
X026861Y001480D01*
X026815Y001488D01*
X026770Y001500D01*
X026726Y001516D01*
X026683Y001535D01*
X026642Y001558D01*
X026603Y001584D01*
X026567Y001613D01*
X026533Y001646D01*
X026502Y001681D01*
X026474Y001718D01*
X026450Y001758D01*
X026429Y001800D01*
X026411Y001843D01*
X026398Y001888D01*
X026388Y001934D01*
X026382Y001980D01*
X026380Y002027D01*
X051370Y002000D02*
X051372Y002050D01*
X051378Y002100D01*
X051388Y002149D01*
X051402Y002197D01*
X051419Y002244D01*
X051440Y002289D01*
X051465Y002333D01*
X051493Y002374D01*
X051525Y002413D01*
X051559Y002450D01*
X051596Y002484D01*
X051636Y002514D01*
X051678Y002541D01*
X051722Y002565D01*
X051768Y002586D01*
X051815Y002602D01*
X051863Y002615D01*
X051913Y002624D01*
X051962Y002629D01*
X052013Y002630D01*
X052063Y002627D01*
X052112Y002620D01*
X052161Y002609D01*
X052209Y002594D01*
X052255Y002576D01*
X052300Y002554D01*
X052343Y002528D01*
X052384Y002499D01*
X052423Y002467D01*
X052459Y002432D01*
X052491Y002394D01*
X052521Y002354D01*
X052548Y002311D01*
X052571Y002267D01*
X052590Y002221D01*
X052606Y002173D01*
X052618Y002124D01*
X052626Y002075D01*
X052630Y002025D01*
X052630Y001975D01*
X052626Y001925D01*
X052618Y001876D01*
X052606Y001827D01*
X052590Y001779D01*
X052571Y001733D01*
X052548Y001689D01*
X052521Y001646D01*
X052491Y001606D01*
X052459Y001568D01*
X052423Y001533D01*
X052384Y001501D01*
X052343Y001472D01*
X052300Y001446D01*
X052255Y001424D01*
X052209Y001406D01*
X052161Y001391D01*
X052112Y001380D01*
X052063Y001373D01*
X052013Y001370D01*
X051962Y001371D01*
X051913Y001376D01*
X051863Y001385D01*
X051815Y001398D01*
X051768Y001414D01*
X051722Y001435D01*
X051678Y001459D01*
X051636Y001486D01*
X051596Y001516D01*
X051559Y001550D01*
X051525Y001587D01*
X051493Y001626D01*
X051465Y001667D01*
X051440Y001711D01*
X051419Y001756D01*
X051402Y001803D01*
X051388Y001851D01*
X051378Y001900D01*
X051372Y001950D01*
X051370Y002000D01*
X051370Y038000D02*
X051372Y038050D01*
X051378Y038100D01*
X051388Y038149D01*
X051402Y038197D01*
X051419Y038244D01*
X051440Y038289D01*
X051465Y038333D01*
X051493Y038374D01*
X051525Y038413D01*
X051559Y038450D01*
X051596Y038484D01*
X051636Y038514D01*
X051678Y038541D01*
X051722Y038565D01*
X051768Y038586D01*
X051815Y038602D01*
X051863Y038615D01*
X051913Y038624D01*
X051962Y038629D01*
X052013Y038630D01*
X052063Y038627D01*
X052112Y038620D01*
X052161Y038609D01*
X052209Y038594D01*
X052255Y038576D01*
X052300Y038554D01*
X052343Y038528D01*
X052384Y038499D01*
X052423Y038467D01*
X052459Y038432D01*
X052491Y038394D01*
X052521Y038354D01*
X052548Y038311D01*
X052571Y038267D01*
X052590Y038221D01*
X052606Y038173D01*
X052618Y038124D01*
X052626Y038075D01*
X052630Y038025D01*
X052630Y037975D01*
X052626Y037925D01*
X052618Y037876D01*
X052606Y037827D01*
X052590Y037779D01*
X052571Y037733D01*
X052548Y037689D01*
X052521Y037646D01*
X052491Y037606D01*
X052459Y037568D01*
X052423Y037533D01*
X052384Y037501D01*
X052343Y037472D01*
X052300Y037446D01*
X052255Y037424D01*
X052209Y037406D01*
X052161Y037391D01*
X052112Y037380D01*
X052063Y037373D01*
X052013Y037370D01*
X051962Y037371D01*
X051913Y037376D01*
X051863Y037385D01*
X051815Y037398D01*
X051768Y037414D01*
X051722Y037435D01*
X051678Y037459D01*
X051636Y037486D01*
X051596Y037516D01*
X051559Y037550D01*
X051525Y037587D01*
X051493Y037626D01*
X051465Y037667D01*
X051440Y037711D01*
X051419Y037756D01*
X051402Y037803D01*
X051388Y037851D01*
X051378Y037900D01*
X051372Y037950D01*
X051370Y038000D01*
X026380Y038642D02*
X026382Y038689D01*
X026388Y038735D01*
X026398Y038781D01*
X026411Y038826D01*
X026429Y038869D01*
X026450Y038911D01*
X026474Y038951D01*
X026502Y038988D01*
X026533Y039023D01*
X026567Y039056D01*
X026603Y039085D01*
X026642Y039111D01*
X026683Y039134D01*
X026726Y039153D01*
X026770Y039169D01*
X026815Y039181D01*
X026861Y039189D01*
X026908Y039193D01*
X026954Y039193D01*
X027001Y039189D01*
X027047Y039181D01*
X027092Y039169D01*
X027136Y039153D01*
X027179Y039134D01*
X027220Y039111D01*
X027259Y039085D01*
X027295Y039056D01*
X027329Y039023D01*
X027360Y038988D01*
X027388Y038951D01*
X027412Y038911D01*
X027433Y038869D01*
X027451Y038826D01*
X027464Y038781D01*
X027474Y038735D01*
X027480Y038689D01*
X027482Y038642D01*
X027480Y038595D01*
X027474Y038549D01*
X027464Y038503D01*
X027451Y038458D01*
X027433Y038415D01*
X027412Y038373D01*
X027388Y038333D01*
X027360Y038296D01*
X027329Y038261D01*
X027295Y038228D01*
X027259Y038199D01*
X027220Y038173D01*
X027179Y038150D01*
X027136Y038131D01*
X027092Y038115D01*
X027047Y038103D01*
X027001Y038095D01*
X026954Y038091D01*
X026908Y038091D01*
X026861Y038095D01*
X026815Y038103D01*
X026770Y038115D01*
X026726Y038131D01*
X026683Y038150D01*
X026642Y038173D01*
X026603Y038199D01*
X026567Y038228D01*
X026533Y038261D01*
X026502Y038296D01*
X026474Y038333D01*
X026450Y038373D01*
X026429Y038415D01*
X026411Y038458D01*
X026398Y038503D01*
X026388Y038549D01*
X026382Y038595D01*
X026380Y038642D01*
X004726Y038642D02*
X004728Y038689D01*
X004734Y038735D01*
X004744Y038781D01*
X004757Y038826D01*
X004775Y038869D01*
X004796Y038911D01*
X004820Y038951D01*
X004848Y038988D01*
X004879Y039023D01*
X004913Y039056D01*
X004949Y039085D01*
X004988Y039111D01*
X005029Y039134D01*
X005072Y039153D01*
X005116Y039169D01*
X005161Y039181D01*
X005207Y039189D01*
X005254Y039193D01*
X005300Y039193D01*
X005347Y039189D01*
X005393Y039181D01*
X005438Y039169D01*
X005482Y039153D01*
X005525Y039134D01*
X005566Y039111D01*
X005605Y039085D01*
X005641Y039056D01*
X005675Y039023D01*
X005706Y038988D01*
X005734Y038951D01*
X005758Y038911D01*
X005779Y038869D01*
X005797Y038826D01*
X005810Y038781D01*
X005820Y038735D01*
X005826Y038689D01*
X005828Y038642D01*
X005826Y038595D01*
X005820Y038549D01*
X005810Y038503D01*
X005797Y038458D01*
X005779Y038415D01*
X005758Y038373D01*
X005734Y038333D01*
X005706Y038296D01*
X005675Y038261D01*
X005641Y038228D01*
X005605Y038199D01*
X005566Y038173D01*
X005525Y038150D01*
X005482Y038131D01*
X005438Y038115D01*
X005393Y038103D01*
X005347Y038095D01*
X005300Y038091D01*
X005254Y038091D01*
X005207Y038095D01*
X005161Y038103D01*
X005116Y038115D01*
X005072Y038131D01*
X005029Y038150D01*
X004988Y038173D01*
X004949Y038199D01*
X004913Y038228D01*
X004879Y038261D01*
X004848Y038296D01*
X004820Y038333D01*
X004796Y038373D01*
X004775Y038415D01*
X004757Y038458D01*
X004744Y038503D01*
X004734Y038549D01*
X004728Y038595D01*
X004726Y038642D01*
X001370Y038000D02*
X001372Y038050D01*
X001378Y038100D01*
X001388Y038149D01*
X001402Y038197D01*
X001419Y038244D01*
X001440Y038289D01*
X001465Y038333D01*
X001493Y038374D01*
X001525Y038413D01*
X001559Y038450D01*
X001596Y038484D01*
X001636Y038514D01*
X001678Y038541D01*
X001722Y038565D01*
X001768Y038586D01*
X001815Y038602D01*
X001863Y038615D01*
X001913Y038624D01*
X001962Y038629D01*
X002013Y038630D01*
X002063Y038627D01*
X002112Y038620D01*
X002161Y038609D01*
X002209Y038594D01*
X002255Y038576D01*
X002300Y038554D01*
X002343Y038528D01*
X002384Y038499D01*
X002423Y038467D01*
X002459Y038432D01*
X002491Y038394D01*
X002521Y038354D01*
X002548Y038311D01*
X002571Y038267D01*
X002590Y038221D01*
X002606Y038173D01*
X002618Y038124D01*
X002626Y038075D01*
X002630Y038025D01*
X002630Y037975D01*
X002626Y037925D01*
X002618Y037876D01*
X002606Y037827D01*
X002590Y037779D01*
X002571Y037733D01*
X002548Y037689D01*
X002521Y037646D01*
X002491Y037606D01*
X002459Y037568D01*
X002423Y037533D01*
X002384Y037501D01*
X002343Y037472D01*
X002300Y037446D01*
X002255Y037424D01*
X002209Y037406D01*
X002161Y037391D01*
X002112Y037380D01*
X002063Y037373D01*
X002013Y037370D01*
X001962Y037371D01*
X001913Y037376D01*
X001863Y037385D01*
X001815Y037398D01*
X001768Y037414D01*
X001722Y037435D01*
X001678Y037459D01*
X001636Y037486D01*
X001596Y037516D01*
X001559Y037550D01*
X001525Y037587D01*
X001493Y037626D01*
X001465Y037667D01*
X001440Y037711D01*
X001419Y037756D01*
X001402Y037803D01*
X001388Y037851D01*
X001378Y037900D01*
X001372Y037950D01*
X001370Y038000D01*
D11*
X028750Y015375D03*
X028750Y013375D03*
X038875Y006500D03*
X038875Y002500D03*
X044500Y002500D03*
X044500Y006500D03*
X045625Y011875D03*
X045625Y013875D03*
X047125Y014875D03*
X047125Y015875D03*
X047125Y016875D03*
X043875Y019750D03*
X043125Y016875D03*
X043125Y015875D03*
X043125Y014875D03*
X043875Y023750D03*
X043875Y029000D03*
X045375Y029000D03*
X047375Y029000D03*
X048375Y029000D03*
X049375Y029000D03*
X052000Y027750D03*
X052000Y025750D03*
X043875Y031000D03*
X045375Y033000D03*
X047375Y033000D03*
X048375Y033000D03*
X049375Y033000D03*
X040375Y033750D03*
X038375Y033750D03*
X032875Y034250D03*
X032875Y038250D03*
X002750Y009000D03*
X002750Y007000D03*
D12*
X044395Y034500D03*
X046125Y034500D03*
X047855Y034500D03*
X048625Y018105D03*
X048625Y016375D03*
X048625Y014645D03*
D13*
X043125Y012175D03*
X032250Y011175D03*
X049500Y026300D03*
X039825Y031500D03*
X030625Y038075D03*
D14*
X030625Y036675D03*
X038425Y031500D03*
X049500Y027700D03*
X043125Y013575D03*
X032250Y012575D03*
D15*
X030500Y015350D03*
X030500Y016350D03*
X030500Y017350D03*
X030500Y018350D03*
X030500Y019350D03*
X030500Y020350D03*
X030500Y021350D03*
X030500Y022350D03*
X030500Y023350D03*
X030500Y024350D03*
X030500Y025350D03*
X030500Y026350D03*
X035500Y022350D03*
X035500Y021350D03*
X036500Y021350D03*
X036500Y022350D03*
X036500Y023350D03*
X036500Y024350D03*
X036500Y025350D03*
X036500Y026350D03*
X036500Y020350D03*
X036500Y019350D03*
X036500Y018350D03*
X036500Y017350D03*
X036500Y016350D03*
X036500Y015350D03*
D16*
X006498Y006004D03*
D17*
X006498Y007004D03*
X006498Y008004D03*
X006498Y009004D03*
X006498Y010004D03*
X006498Y011004D03*
X006498Y012004D03*
X006498Y013004D03*
X006498Y014004D03*
X006498Y015004D03*
X006498Y016004D03*
X006498Y017004D03*
X006498Y018004D03*
X006498Y019004D03*
X006498Y020004D03*
X006498Y021004D03*
D18*
X030000Y003500D03*
X031000Y004500D03*
X032000Y003500D03*
D19*
X029425Y017375D02*
X028825Y017375D01*
X028825Y018375D02*
X029425Y018375D01*
X029425Y019375D02*
X028825Y019375D01*
X037575Y019375D02*
X038175Y019375D01*
X038175Y020375D02*
X037575Y020375D01*
X040200Y022375D02*
X040800Y022375D01*
X040800Y023375D02*
X040200Y023375D01*
X040200Y024375D02*
X040800Y024375D01*
X040800Y025375D02*
X040200Y025375D01*
X040200Y026375D02*
X040800Y026375D01*
X040800Y027375D02*
X040200Y027375D01*
X040200Y028375D02*
X040800Y028375D01*
X040800Y029375D02*
X040200Y029375D01*
X036750Y033450D02*
X036750Y034050D01*
X035750Y034050D02*
X035750Y033450D01*
X034750Y033450D02*
X034750Y034050D01*
X030800Y033500D02*
X030200Y033500D01*
X030200Y032500D02*
X030800Y032500D01*
X030800Y031500D02*
X030200Y031500D01*
X030200Y030500D02*
X030800Y030500D01*
D20*
X034781Y037140D02*
X034781Y037845D01*
X036750Y037845D02*
X036750Y037140D01*
X038719Y037140D02*
X038719Y037845D01*
X044156Y037845D02*
X044156Y037140D01*
X046125Y037140D02*
X046125Y037845D01*
X048094Y037845D02*
X048094Y037140D01*
X051265Y018344D02*
X051970Y018344D01*
X051970Y016375D02*
X051265Y016375D01*
X051265Y014406D02*
X051970Y014406D01*
X048109Y002853D02*
X048109Y002148D01*
X046141Y002148D02*
X046141Y002853D01*
X042484Y002853D02*
X042484Y002148D01*
X040516Y002148D02*
X040516Y002853D01*
D21*
X030500Y028500D03*
D22*
X032875Y028990D02*
X032875Y029510D01*
X032875Y032990D02*
X032875Y033510D01*
D23*
X033750Y030625D03*
X029750Y029625D03*
X026750Y031875D03*
X025750Y031875D03*
X025875Y027375D03*
X026750Y027375D03*
X037750Y033000D03*
X045250Y027000D03*
X045250Y026125D03*
X047625Y024750D03*
X049500Y022500D03*
X050500Y022500D03*
X041750Y022375D03*
X039750Y014500D03*
X028750Y012000D03*
X028750Y011125D03*
X035500Y004000D03*
X035500Y003000D03*
X051000Y008500D03*
X052000Y008500D03*
X028500Y037500D03*
X028500Y038500D03*
X008750Y020000D03*
X008750Y007000D03*
X002000Y033500D03*
X002000Y034500D03*
D24*
X000500Y034475D02*
X032245Y034475D01*
X032245Y034511D02*
X032245Y033989D01*
X032255Y033979D01*
X032255Y033659D01*
X032245Y033635D01*
X032245Y033497D01*
X031748Y033000D01*
X031248Y033000D01*
X031180Y033068D01*
X031047Y033123D01*
X031093Y033157D01*
X031143Y033207D01*
X031185Y033264D01*
X031217Y033327D01*
X031239Y033395D01*
X031248Y033450D01*
X030550Y033450D01*
X030550Y033550D01*
X030450Y033550D01*
X030450Y033950D01*
X030165Y033950D01*
X030095Y033939D01*
X030027Y033917D01*
X029964Y033885D01*
X029907Y033843D01*
X029857Y033793D01*
X029815Y033736D01*
X029783Y033673D01*
X029761Y033605D01*
X029752Y033550D01*
X030450Y033550D01*
X030450Y033450D01*
X029752Y033450D01*
X029761Y033395D01*
X029783Y033327D01*
X029815Y033264D01*
X029857Y033207D01*
X029907Y033157D01*
X029953Y033123D01*
X029820Y033068D01*
X029742Y032990D01*
X028653Y032990D01*
X028472Y032915D01*
X028335Y032778D01*
X027835Y032278D01*
X027760Y032097D01*
X027760Y031500D01*
X007000Y031500D01*
X007000Y021140D01*
X006980Y021203D01*
X006942Y021276D01*
X006894Y021343D01*
X006836Y021400D01*
X006770Y021449D01*
X006697Y021486D01*
X006619Y021511D01*
X006548Y021522D01*
X006548Y021054D01*
X006448Y021054D01*
X006448Y021522D01*
X006376Y021511D01*
X006298Y021486D01*
X006225Y021449D01*
X006159Y021400D01*
X006101Y021343D01*
X006053Y021276D01*
X000500Y021276D01*
X000500Y021178D02*
X006007Y021178D01*
X006016Y021203D02*
X005990Y021126D01*
X005979Y021054D01*
X006448Y021054D01*
X006448Y020954D01*
X005979Y020954D01*
X005990Y020882D01*
X000500Y020882D01*
X000500Y020784D02*
X006026Y020784D01*
X006016Y020804D02*
X006053Y020731D01*
X006101Y020665D01*
X006118Y020648D01*
X006078Y020631D01*
X005870Y020423D01*
X005758Y020151D01*
X005758Y019857D01*
X005870Y019585D01*
X005951Y019504D01*
X005870Y019423D01*
X005758Y019151D01*
X005758Y018857D01*
X005870Y018585D01*
X005951Y018504D01*
X005870Y018423D01*
X005758Y018151D01*
X005758Y017857D01*
X005870Y017585D01*
X005951Y017504D01*
X005870Y017423D01*
X005758Y017151D01*
X005758Y016857D01*
X005870Y016585D01*
X005951Y016504D01*
X005870Y016423D01*
X005758Y016151D01*
X005758Y015857D01*
X005870Y015585D01*
X005951Y015504D01*
X005870Y015423D01*
X005758Y015151D01*
X005758Y014857D01*
X005870Y014585D01*
X005951Y014504D01*
X005870Y014423D01*
X005758Y014151D01*
X005758Y013857D01*
X005870Y013585D01*
X005951Y013504D01*
X005870Y013423D01*
X005758Y013151D01*
X005758Y012857D01*
X005870Y012585D01*
X005951Y012504D01*
X005870Y012423D01*
X005758Y012151D01*
X005758Y011857D01*
X005870Y011585D01*
X005951Y011504D01*
X005870Y011423D01*
X005758Y011151D01*
X005758Y010857D01*
X005870Y010585D01*
X006078Y010376D01*
X006118Y010360D01*
X006101Y010343D01*
X006053Y010276D01*
X006016Y010203D01*
X005990Y010126D01*
X005979Y010054D01*
X006448Y010054D01*
X006448Y009954D01*
X005979Y009954D01*
X005990Y009882D01*
X006016Y009804D01*
X006053Y009731D01*
X006101Y009665D01*
X006118Y009648D01*
X006078Y009631D01*
X005870Y009423D01*
X005758Y009151D01*
X005758Y008857D01*
X005870Y008585D01*
X005951Y008504D01*
X005870Y008423D01*
X005758Y008151D01*
X005758Y007857D01*
X005856Y007620D01*
X003021Y007620D01*
X003011Y007630D01*
X002489Y007630D01*
X002120Y007261D01*
X002120Y006739D01*
X002489Y006370D01*
X003011Y006370D01*
X003021Y006380D01*
X005978Y006380D01*
X005978Y006054D01*
X006448Y006054D01*
X006448Y005954D01*
X006548Y005954D01*
X006548Y005484D01*
X006887Y005484D01*
X006926Y005494D01*
X006960Y005514D01*
X006988Y005542D01*
X007000Y005563D01*
X007000Y000500D01*
X004000Y000500D01*
X004000Y004000D01*
X000500Y004000D01*
X000500Y036000D01*
X004000Y036000D01*
X004000Y039500D01*
X004743Y039504D01*
X004710Y039490D01*
X004428Y039209D01*
X004276Y038841D01*
X004276Y038442D01*
X004428Y038074D01*
X004710Y037793D01*
X005078Y037640D01*
X005476Y037640D01*
X005844Y037793D01*
X006126Y038074D01*
X006278Y038442D01*
X006278Y038841D01*
X006126Y039209D01*
X005844Y039490D01*
X005797Y039510D01*
X013200Y039550D01*
X026508Y039550D01*
X026364Y039490D01*
X026082Y039209D01*
X025930Y038841D01*
X025930Y038442D01*
X026082Y038074D01*
X026364Y037793D01*
X026732Y037640D01*
X027130Y037640D01*
X027498Y037793D01*
X027779Y038074D01*
X027932Y038442D01*
X027932Y038841D01*
X027779Y039209D01*
X027498Y039490D01*
X027354Y039550D01*
X050000Y039550D01*
X050000Y036000D01*
X053500Y036000D01*
X053500Y032002D01*
X048725Y036777D01*
X048816Y036996D01*
X048816Y037988D01*
X048706Y038254D01*
X048551Y038409D01*
X048483Y038573D01*
X048323Y038733D01*
X047823Y039233D01*
X047613Y039320D01*
X042637Y039320D01*
X042427Y039233D01*
X042267Y039073D01*
X041256Y038062D01*
X039410Y038062D01*
X039331Y038254D01*
X039128Y038457D01*
X038862Y038567D01*
X038575Y038567D01*
X038309Y038457D01*
X038106Y038254D01*
X037996Y037988D01*
X037996Y036996D01*
X038106Y036730D01*
X038309Y036527D01*
X038575Y036417D01*
X038862Y036417D01*
X039128Y036527D01*
X039331Y036730D01*
X039410Y036922D01*
X041606Y036922D01*
X041815Y037009D01*
X042986Y038180D01*
X043513Y038180D01*
X043434Y037988D01*
X043434Y036996D01*
X043544Y036730D01*
X043747Y036527D01*
X043760Y036522D01*
X043760Y035903D01*
X043835Y035722D01*
X043905Y035652D01*
X043905Y035239D01*
X043902Y035238D01*
X043657Y034993D01*
X043525Y034673D01*
X043525Y034327D01*
X043657Y034007D01*
X043885Y033780D01*
X043885Y033403D01*
X043960Y033222D01*
X044097Y033085D01*
X044597Y032585D01*
X044778Y032510D01*
X044974Y032510D01*
X045114Y032370D01*
X045636Y032370D01*
X046005Y032739D01*
X046005Y033261D01*
X045636Y033630D01*
X045114Y033630D01*
X045026Y033542D01*
X044865Y033703D01*
X044865Y033753D01*
X044888Y033762D01*
X045133Y034007D01*
X045265Y034327D01*
X045265Y034673D01*
X045133Y034993D01*
X044888Y035238D01*
X044885Y035239D01*
X044885Y035952D01*
X044810Y036133D01*
X044740Y036203D01*
X044740Y036701D01*
X044769Y036730D01*
X044879Y036996D01*
X044879Y037988D01*
X044800Y038180D01*
X045482Y038180D01*
X045403Y037988D01*
X045403Y036996D01*
X045512Y036730D01*
X045716Y036527D01*
X045981Y036417D01*
X046140Y036417D01*
X047341Y035216D01*
X047117Y034993D01*
X046985Y034673D01*
X046985Y034327D01*
X047117Y034007D01*
X047362Y033762D01*
X047682Y033630D01*
X047885Y033630D01*
X047885Y033401D01*
X047875Y033391D01*
X047636Y033630D01*
X047114Y033630D01*
X046745Y033261D01*
X046745Y032739D01*
X046885Y032599D01*
X046885Y031278D01*
X046960Y031097D01*
X047760Y030297D01*
X047760Y029276D01*
X047745Y029261D01*
X047745Y029210D01*
X047545Y029410D01*
X047405Y029410D01*
X047405Y029030D01*
X047345Y029030D01*
X047345Y029410D01*
X047205Y029410D01*
X046965Y029170D01*
X046965Y029030D01*
X047345Y029030D01*
X047345Y028970D01*
X047405Y028970D01*
X047405Y028590D01*
X047545Y028590D01*
X047745Y028790D01*
X047745Y028739D01*
X048114Y028370D01*
X048636Y028370D01*
X048875Y028609D01*
X049010Y028474D01*
X049010Y028179D01*
X048919Y028088D01*
X048815Y027836D01*
X048815Y027708D01*
X047960Y026853D01*
X047885Y026672D01*
X047885Y025875D01*
X047125Y025875D01*
X044500Y023375D01*
X044391Y023375D01*
X044505Y023489D01*
X044505Y024011D01*
X044495Y024021D01*
X044495Y028430D01*
X045054Y028430D01*
X045114Y028370D01*
X045636Y028370D01*
X046005Y028739D01*
X046005Y029261D01*
X045636Y029630D01*
X045114Y029630D01*
X045054Y029570D01*
X044445Y029570D01*
X044445Y029738D01*
X044358Y029948D01*
X043716Y030590D01*
X043845Y030590D01*
X043845Y030970D01*
X043465Y030970D01*
X043465Y030841D01*
X042820Y031486D01*
X042820Y034613D01*
X042733Y034823D01*
X042233Y035323D01*
X042073Y035483D01*
X041863Y035570D01*
X034637Y035570D01*
X034427Y035483D01*
X034267Y035323D01*
X034180Y035113D01*
X034180Y034425D01*
X034157Y034370D01*
X033505Y034370D01*
X033505Y034511D01*
X033495Y034521D01*
X033495Y035623D01*
X033401Y035851D01*
X033226Y036026D01*
X032051Y037201D01*
X031823Y037295D01*
X030918Y037295D01*
X030761Y037360D01*
X030489Y037360D01*
X030237Y037256D01*
X030044Y037063D01*
X029940Y036811D01*
X029940Y036539D01*
X030044Y036287D01*
X030237Y036094D01*
X030489Y035990D01*
X030761Y035990D01*
X030918Y036055D01*
X031443Y036055D01*
X032255Y035243D01*
X032255Y034521D01*
X032245Y034511D01*
X032255Y034574D02*
X000500Y034574D01*
X000500Y034672D02*
X032255Y034672D01*
X032255Y034771D02*
X000500Y034771D01*
X000500Y034869D02*
X032255Y034869D01*
X032255Y034968D02*
X000500Y034968D01*
X000500Y035066D02*
X032255Y035066D01*
X032255Y035165D02*
X000500Y035165D01*
X000500Y035263D02*
X032235Y035263D01*
X032137Y035362D02*
X000500Y035362D01*
X000500Y035460D02*
X032038Y035460D01*
X031940Y035559D02*
X000500Y035559D01*
X000500Y035657D02*
X031841Y035657D01*
X031743Y035756D02*
X000500Y035756D01*
X000500Y035854D02*
X031644Y035854D01*
X031546Y035953D02*
X000500Y035953D01*
X000500Y034377D02*
X032245Y034377D01*
X032245Y034278D02*
X000500Y034278D01*
X000500Y034180D02*
X032245Y034180D01*
X032245Y034081D02*
X000500Y034081D01*
X000500Y033983D02*
X032251Y033983D01*
X032255Y033884D02*
X031037Y033884D01*
X031036Y033885D02*
X030973Y033917D01*
X030905Y033939D01*
X030835Y033950D01*
X030550Y033950D01*
X030550Y033550D01*
X031248Y033550D01*
X031239Y033605D01*
X031217Y033673D01*
X031185Y033736D01*
X031143Y033793D01*
X031093Y033843D01*
X031036Y033885D01*
X031149Y033786D02*
X032255Y033786D01*
X032255Y033687D02*
X031210Y033687D01*
X031242Y033589D02*
X032245Y033589D01*
X032238Y033490D02*
X030550Y033490D01*
X030550Y033589D02*
X030450Y033589D01*
X030450Y033687D02*
X030550Y033687D01*
X030550Y033786D02*
X030450Y033786D01*
X030450Y033884D02*
X030550Y033884D01*
X030450Y033490D02*
X000500Y033490D01*
X000500Y033392D02*
X029762Y033392D01*
X029800Y033293D02*
X000500Y033293D01*
X000500Y033195D02*
X029869Y033195D01*
X029888Y033096D02*
X000500Y033096D01*
X000500Y032998D02*
X029750Y032998D01*
X029758Y033589D02*
X000500Y033589D01*
X000500Y033687D02*
X029790Y033687D01*
X029851Y033786D02*
X000500Y033786D01*
X000500Y033884D02*
X029963Y033884D01*
X031131Y033195D02*
X031943Y033195D01*
X032041Y033293D02*
X031200Y033293D01*
X031238Y033392D02*
X032140Y033392D01*
X031844Y033096D02*
X031112Y033096D01*
X032495Y031993D02*
X032752Y032250D01*
X036500Y032250D01*
X036500Y033075D01*
X036514Y033065D01*
X036577Y033033D01*
X036645Y033011D01*
X036700Y033002D01*
X036700Y033700D01*
X036800Y033700D01*
X036800Y033800D01*
X037200Y033800D01*
X037200Y034085D01*
X037189Y034155D01*
X037167Y034223D01*
X037153Y034250D01*
X038125Y034250D01*
X038275Y034160D01*
X038205Y034160D01*
X037965Y033920D01*
X037965Y033780D01*
X038345Y033780D01*
X038345Y033720D01*
X038405Y033720D01*
X038405Y033340D01*
X038545Y033340D01*
X038750Y033545D01*
X038750Y031833D01*
X038728Y031855D01*
X038669Y031898D01*
X038603Y031931D01*
X038534Y031954D01*
X038462Y031965D01*
X038455Y031965D01*
X038455Y031530D01*
X038395Y031530D01*
X038395Y031965D01*
X038388Y031965D01*
X038316Y031954D01*
X038247Y031931D01*
X038181Y031898D01*
X038122Y031855D01*
X038070Y031803D01*
X038027Y031744D01*
X037994Y031678D01*
X037971Y031609D01*
X037960Y031537D01*
X037960Y031530D01*
X038395Y031530D01*
X038395Y031470D01*
X038455Y031470D01*
X038455Y031035D01*
X038462Y031035D01*
X038534Y031046D01*
X038603Y031069D01*
X038669Y031102D01*
X038728Y031145D01*
X038750Y031167D01*
X038750Y028865D01*
X037625Y028865D01*
X037625Y030000D01*
X033276Y030000D01*
X033232Y030044D01*
X033000Y030140D01*
X032750Y030140D01*
X032518Y030044D01*
X032495Y030021D01*
X032495Y031993D01*
X032514Y032013D02*
X038750Y032013D01*
X038750Y032111D02*
X032613Y032111D01*
X032711Y032210D02*
X038750Y032210D01*
X038750Y032308D02*
X036500Y032308D01*
X036500Y032407D02*
X038750Y032407D01*
X038750Y032505D02*
X036500Y032505D01*
X036500Y032604D02*
X038750Y032604D01*
X038750Y032702D02*
X036500Y032702D01*
X036500Y032801D02*
X038750Y032801D01*
X038750Y032899D02*
X036500Y032899D01*
X036500Y032998D02*
X038750Y032998D01*
X038750Y033096D02*
X037028Y033096D01*
X037043Y033107D02*
X037093Y033157D01*
X037135Y033214D01*
X037167Y033277D01*
X037189Y033345D01*
X037200Y033415D01*
X037200Y033700D01*
X036800Y033700D01*
X036800Y033002D01*
X036855Y033011D01*
X036923Y033033D01*
X036986Y033065D01*
X037043Y033107D01*
X037121Y033195D02*
X038750Y033195D01*
X038750Y033293D02*
X037172Y033293D01*
X037196Y033392D02*
X038154Y033392D01*
X038205Y033340D02*
X038345Y033340D01*
X038345Y033720D01*
X037965Y033720D01*
X037965Y033580D01*
X038205Y033340D01*
X038345Y033392D02*
X038405Y033392D01*
X038405Y033490D02*
X038345Y033490D01*
X038345Y033589D02*
X038405Y033589D01*
X038405Y033687D02*
X038345Y033687D01*
X038055Y033490D02*
X037200Y033490D01*
X037200Y033589D02*
X037965Y033589D01*
X037965Y033687D02*
X037200Y033687D01*
X037200Y033884D02*
X037965Y033884D01*
X037965Y033786D02*
X036800Y033786D01*
X036800Y033687D02*
X036700Y033687D01*
X036700Y033589D02*
X036800Y033589D01*
X036800Y033490D02*
X036700Y033490D01*
X036700Y033392D02*
X036800Y033392D01*
X036800Y033293D02*
X036700Y033293D01*
X036700Y033195D02*
X036800Y033195D01*
X036800Y033096D02*
X036700Y033096D01*
X037200Y033983D02*
X038028Y033983D01*
X038126Y034081D02*
X037200Y034081D01*
X037181Y034180D02*
X038242Y034180D01*
X038695Y033490D02*
X038750Y033490D01*
X038750Y033392D02*
X038596Y033392D01*
X039500Y033392D02*
X040154Y033392D01*
X040205Y033340D02*
X040345Y033340D01*
X040345Y033720D01*
X040405Y033720D01*
X040405Y033780D01*
X040785Y033780D01*
X040785Y033920D01*
X040545Y034160D01*
X040405Y034160D01*
X040405Y033780D01*
X040345Y033780D01*
X040345Y034160D01*
X040205Y034160D01*
X039965Y033920D01*
X039965Y033780D01*
X040345Y033780D01*
X040345Y033720D01*
X039965Y033720D01*
X039965Y033580D01*
X040205Y033340D01*
X040345Y033392D02*
X040405Y033392D01*
X040405Y033340D02*
X040545Y033340D01*
X040785Y033580D01*
X040785Y033720D01*
X040405Y033720D01*
X040405Y033340D01*
X040405Y033490D02*
X040345Y033490D01*
X040345Y033589D02*
X040405Y033589D01*
X040405Y033687D02*
X040345Y033687D01*
X040345Y033786D02*
X040405Y033786D01*
X040405Y033884D02*
X040345Y033884D01*
X040345Y033983D02*
X040405Y033983D01*
X040405Y034081D02*
X040345Y034081D01*
X040126Y034081D02*
X039500Y034081D01*
X039500Y033983D02*
X040028Y033983D01*
X039965Y033884D02*
X039500Y033884D01*
X039500Y033786D02*
X039965Y033786D01*
X039965Y033687D02*
X039500Y033687D01*
X039500Y033589D02*
X039965Y033589D01*
X040055Y033490D02*
X039500Y033490D01*
X039500Y033293D02*
X041680Y033293D01*
X041680Y033195D02*
X039500Y033195D01*
X039500Y033096D02*
X041680Y033096D01*
X041680Y032998D02*
X039500Y032998D01*
X039500Y032899D02*
X041680Y032899D01*
X041680Y032801D02*
X039500Y032801D01*
X039500Y032702D02*
X041680Y032702D01*
X041680Y032604D02*
X039500Y032604D01*
X039500Y032505D02*
X041680Y032505D01*
X041680Y032407D02*
X039500Y032407D01*
X039500Y032308D02*
X041680Y032308D01*
X041680Y032210D02*
X039500Y032210D01*
X039500Y032111D02*
X041680Y032111D01*
X041680Y032013D02*
X039500Y032013D01*
X039500Y031914D02*
X039581Y031914D01*
X039632Y031965D02*
X039500Y031833D01*
X039500Y034430D01*
X041514Y034430D01*
X041680Y034264D01*
X041680Y031137D01*
X041767Y030927D01*
X041927Y030767D01*
X043305Y029389D01*
X043305Y029321D01*
X043245Y029261D01*
X043245Y028739D01*
X043255Y028729D01*
X043255Y024021D01*
X043245Y024011D01*
X043245Y023489D01*
X043359Y023375D01*
X041470Y023375D01*
X041470Y023508D01*
X041368Y023755D01*
X041248Y023875D01*
X041368Y023995D01*
X041470Y024242D01*
X041470Y024508D01*
X041368Y024755D01*
X041248Y024875D01*
X041368Y024995D01*
X041470Y025242D01*
X041470Y025508D01*
X041368Y025755D01*
X041248Y025875D01*
X041368Y025995D01*
X041470Y026242D01*
X041470Y026508D01*
X041368Y026755D01*
X041248Y026875D01*
X041368Y026995D01*
X041470Y027242D01*
X041470Y027508D01*
X041368Y027755D01*
X041248Y027875D01*
X041368Y027995D01*
X041470Y028242D01*
X041470Y028508D01*
X041368Y028755D01*
X041180Y028943D01*
X041047Y028998D01*
X041093Y029032D01*
X041143Y029082D01*
X041185Y029139D01*
X041217Y029202D01*
X041239Y029270D01*
X041248Y029325D01*
X040550Y029325D01*
X040550Y029425D01*
X040450Y029425D01*
X040450Y029825D01*
X040165Y029825D01*
X040095Y029814D01*
X040027Y029792D01*
X039964Y029760D01*
X039907Y029718D01*
X039857Y029668D01*
X039815Y029611D01*
X039783Y029548D01*
X039761Y029480D01*
X039752Y029425D01*
X040450Y029425D01*
X040450Y029325D01*
X039752Y029325D01*
X039761Y029270D01*
X039783Y029202D01*
X039815Y029139D01*
X039857Y029082D01*
X039907Y029032D01*
X039953Y028998D01*
X039820Y028943D01*
X039742Y028865D01*
X039500Y028865D01*
X039500Y031167D01*
X039632Y031035D01*
X039795Y031035D01*
X039795Y031470D01*
X039855Y031470D01*
X039855Y031530D01*
X039795Y031530D01*
X039795Y031965D01*
X039632Y031965D01*
X039795Y031914D02*
X039855Y031914D01*
X039855Y031965D02*
X039855Y031530D01*
X040290Y031530D01*
X040290Y031693D01*
X040018Y031965D01*
X039855Y031965D01*
X039855Y031816D02*
X039795Y031816D01*
X039795Y031717D02*
X039855Y031717D01*
X039855Y031619D02*
X039795Y031619D01*
X039855Y031520D02*
X041680Y031520D01*
X041680Y031422D02*
X040290Y031422D01*
X040290Y031470D02*
X039855Y031470D01*
X039855Y031035D01*
X040018Y031035D01*
X040290Y031307D01*
X040290Y031470D01*
X040290Y031323D02*
X041680Y031323D01*
X041680Y031225D02*
X040207Y031225D01*
X040109Y031126D02*
X041684Y031126D01*
X041725Y031028D02*
X039500Y031028D01*
X039500Y031126D02*
X039541Y031126D01*
X039500Y030929D02*
X041766Y030929D01*
X041863Y030831D02*
X039500Y030831D01*
X039500Y030732D02*
X041962Y030732D01*
X041927Y030767D02*
X041927Y030767D01*
X042060Y030634D02*
X039500Y030634D01*
X039500Y030535D02*
X042159Y030535D01*
X042257Y030437D02*
X039500Y030437D01*
X039500Y030338D02*
X042356Y030338D01*
X042454Y030240D02*
X039500Y030240D01*
X039500Y030141D02*
X042553Y030141D01*
X042651Y030043D02*
X039500Y030043D01*
X039500Y029944D02*
X042750Y029944D01*
X042848Y029846D02*
X039500Y029846D01*
X039500Y029747D02*
X039947Y029747D01*
X039843Y029649D02*
X039500Y029649D01*
X039500Y029550D02*
X039784Y029550D01*
X039757Y029452D02*
X039500Y029452D01*
X039500Y029353D02*
X040450Y029353D01*
X040450Y029452D02*
X040550Y029452D01*
X040550Y029425D02*
X040550Y029825D01*
X040835Y029825D01*
X040905Y029814D01*
X040973Y029792D01*
X041036Y029760D01*
X041093Y029718D01*
X041143Y029668D01*
X041185Y029611D01*
X041217Y029548D01*
X041239Y029480D01*
X041248Y029425D01*
X040550Y029425D01*
X040550Y029353D02*
X043305Y029353D01*
X043245Y029255D02*
X041234Y029255D01*
X041193Y029156D02*
X043245Y029156D01*
X043245Y029058D02*
X041119Y029058D01*
X041141Y028959D02*
X043245Y028959D01*
X043245Y028861D02*
X041262Y028861D01*
X041360Y028762D02*
X043245Y028762D01*
X043255Y028664D02*
X041406Y028664D01*
X041446Y028565D02*
X043255Y028565D01*
X043255Y028467D02*
X041470Y028467D01*
X041470Y028368D02*
X043255Y028368D01*
X043255Y028270D02*
X041470Y028270D01*
X041441Y028171D02*
X043255Y028171D01*
X043255Y028073D02*
X041400Y028073D01*
X041347Y027974D02*
X043255Y027974D01*
X043255Y027876D02*
X041248Y027876D01*
X041345Y027777D02*
X043255Y027777D01*
X043255Y027679D02*
X041399Y027679D01*
X041440Y027580D02*
X043255Y027580D01*
X043255Y027482D02*
X041470Y027482D01*
X041470Y027383D02*
X043255Y027383D01*
X043255Y027285D02*
X041470Y027285D01*
X041447Y027186D02*
X043255Y027186D01*
X043255Y027088D02*
X041406Y027088D01*
X041362Y026989D02*
X043255Y026989D01*
X043255Y026891D02*
X041263Y026891D01*
X041330Y026792D02*
X043255Y026792D01*
X043255Y026694D02*
X041393Y026694D01*
X041434Y026595D02*
X043255Y026595D01*
X043255Y026497D02*
X041470Y026497D01*
X041470Y026398D02*
X043255Y026398D01*
X043255Y026300D02*
X041470Y026300D01*
X041453Y026201D02*
X043255Y026201D01*
X043255Y026103D02*
X041412Y026103D01*
X041372Y026004D02*
X043255Y026004D01*
X043255Y025906D02*
X041278Y025906D01*
X041315Y025807D02*
X043255Y025807D01*
X043255Y025709D02*
X041387Y025709D01*
X041428Y025610D02*
X043255Y025610D01*
X043255Y025512D02*
X041469Y025512D01*
X041470Y025413D02*
X043255Y025413D01*
X043255Y025315D02*
X041470Y025315D01*
X041459Y025216D02*
X043255Y025216D01*
X043255Y025118D02*
X041419Y025118D01*
X041378Y025019D02*
X043255Y025019D01*
X043255Y024921D02*
X041293Y024921D01*
X041300Y024822D02*
X043255Y024822D01*
X043255Y024724D02*
X041381Y024724D01*
X041422Y024625D02*
X043255Y024625D01*
X043255Y024527D02*
X041462Y024527D01*
X041470Y024428D02*
X043255Y024428D01*
X043255Y024330D02*
X041470Y024330D01*
X041466Y024231D02*
X043255Y024231D01*
X043255Y024133D02*
X041425Y024133D01*
X041384Y024034D02*
X043255Y024034D01*
X043245Y023936D02*
X041308Y023936D01*
X041285Y023837D02*
X043245Y023837D01*
X043245Y023739D02*
X041375Y023739D01*
X041415Y023640D02*
X043245Y023640D01*
X043245Y023542D02*
X041456Y023542D01*
X041470Y023443D02*
X043291Y023443D01*
X044459Y023443D02*
X044571Y023443D01*
X044505Y023542D02*
X044675Y023542D01*
X044778Y023640D02*
X044505Y023640D01*
X044505Y023739D02*
X044882Y023739D01*
X044985Y023837D02*
X044505Y023837D01*
X044505Y023936D02*
X045089Y023936D01*
X045192Y024034D02*
X044495Y024034D01*
X044495Y024133D02*
X045295Y024133D01*
X045399Y024231D02*
X044495Y024231D01*
X044495Y024330D02*
X045502Y024330D01*
X045606Y024428D02*
X044495Y024428D01*
X044495Y024527D02*
X045709Y024527D01*
X045813Y024625D02*
X044495Y024625D01*
X044495Y024724D02*
X045916Y024724D01*
X046019Y024822D02*
X044495Y024822D01*
X044495Y024921D02*
X046123Y024921D01*
X046226Y025019D02*
X044495Y025019D01*
X044495Y025118D02*
X046330Y025118D01*
X046433Y025216D02*
X044495Y025216D01*
X044495Y025315D02*
X046537Y025315D01*
X046640Y025413D02*
X044495Y025413D01*
X044495Y025512D02*
X046743Y025512D01*
X046847Y025610D02*
X044495Y025610D01*
X044495Y025709D02*
X046950Y025709D01*
X047054Y025807D02*
X044495Y025807D01*
X044495Y025906D02*
X047885Y025906D01*
X047885Y026004D02*
X044495Y026004D01*
X044495Y026103D02*
X047885Y026103D01*
X047885Y026201D02*
X044495Y026201D01*
X044495Y026300D02*
X047885Y026300D01*
X047885Y026398D02*
X044495Y026398D01*
X044495Y026497D02*
X047885Y026497D01*
X047885Y026595D02*
X044495Y026595D01*
X044495Y026694D02*
X047894Y026694D01*
X047935Y026792D02*
X044495Y026792D01*
X044495Y026891D02*
X047998Y026891D01*
X048096Y026989D02*
X044495Y026989D01*
X044495Y027088D02*
X048195Y027088D01*
X048293Y027186D02*
X044495Y027186D01*
X044495Y027285D02*
X048392Y027285D01*
X048490Y027383D02*
X044495Y027383D01*
X044495Y027482D02*
X048589Y027482D01*
X048687Y027580D02*
X044495Y027580D01*
X044495Y027679D02*
X048786Y027679D01*
X048815Y027777D02*
X044495Y027777D01*
X044495Y027876D02*
X048831Y027876D01*
X048872Y027974D02*
X044495Y027974D01*
X044495Y028073D02*
X048913Y028073D01*
X049002Y028171D02*
X044495Y028171D01*
X044495Y028270D02*
X049010Y028270D01*
X049010Y028368D02*
X044495Y028368D01*
X045733Y028467D02*
X048017Y028467D01*
X047919Y028565D02*
X045831Y028565D01*
X045930Y028664D02*
X047132Y028664D01*
X047205Y028590D02*
X047345Y028590D01*
X047345Y028970D01*
X046965Y028970D01*
X046965Y028830D01*
X047205Y028590D01*
X047345Y028664D02*
X047405Y028664D01*
X047405Y028762D02*
X047345Y028762D01*
X047345Y028861D02*
X047405Y028861D01*
X047405Y028959D02*
X047345Y028959D01*
X047345Y029058D02*
X047405Y029058D01*
X047405Y029156D02*
X047345Y029156D01*
X047345Y029255D02*
X047405Y029255D01*
X047405Y029353D02*
X047345Y029353D01*
X047148Y029353D02*
X045913Y029353D01*
X046005Y029255D02*
X047050Y029255D01*
X046965Y029156D02*
X046005Y029156D01*
X046005Y029058D02*
X046965Y029058D01*
X046965Y028959D02*
X046005Y028959D01*
X046005Y028861D02*
X046965Y028861D01*
X047033Y028762D02*
X046005Y028762D01*
X045814Y029452D02*
X047760Y029452D01*
X047760Y029550D02*
X045716Y029550D01*
X044445Y029649D02*
X047760Y029649D01*
X047760Y029747D02*
X044441Y029747D01*
X044401Y029846D02*
X047760Y029846D01*
X047760Y029944D02*
X044360Y029944D01*
X044264Y030043D02*
X047760Y030043D01*
X047760Y030141D02*
X044165Y030141D01*
X044067Y030240D02*
X047760Y030240D01*
X047719Y030338D02*
X043968Y030338D01*
X043870Y030437D02*
X047620Y030437D01*
X047522Y030535D02*
X043771Y030535D01*
X043845Y030634D02*
X043905Y030634D01*
X043905Y030590D02*
X044045Y030590D01*
X044285Y030830D01*
X044285Y030970D01*
X043905Y030970D01*
X043905Y031030D01*
X043845Y031030D01*
X043845Y031410D01*
X043705Y031410D01*
X043465Y031170D01*
X043465Y031030D01*
X043845Y031030D01*
X043845Y030970D01*
X043905Y030970D01*
X043905Y030590D01*
X043905Y030732D02*
X043845Y030732D01*
X043845Y030831D02*
X043905Y030831D01*
X043905Y030929D02*
X043845Y030929D01*
X043845Y031028D02*
X043279Y031028D01*
X043377Y030929D02*
X043465Y030929D01*
X043465Y031126D02*
X043180Y031126D01*
X043082Y031225D02*
X043520Y031225D01*
X043618Y031323D02*
X042983Y031323D01*
X042885Y031422D02*
X046885Y031422D01*
X046885Y031520D02*
X042820Y031520D01*
X042820Y031619D02*
X046885Y031619D01*
X046885Y031717D02*
X042820Y031717D01*
X042820Y031816D02*
X046885Y031816D01*
X046885Y031914D02*
X042820Y031914D01*
X042820Y032013D02*
X046885Y032013D01*
X046885Y032111D02*
X042820Y032111D01*
X042820Y032210D02*
X046885Y032210D01*
X046885Y032308D02*
X042820Y032308D01*
X042820Y032407D02*
X045077Y032407D01*
X044979Y032505D02*
X042820Y032505D01*
X042820Y032604D02*
X044578Y032604D01*
X044480Y032702D02*
X042820Y032702D01*
X042820Y032801D02*
X044381Y032801D01*
X044283Y032899D02*
X042820Y032899D01*
X042820Y032998D02*
X044184Y032998D01*
X044086Y033096D02*
X042820Y033096D01*
X042820Y033195D02*
X043987Y033195D01*
X043930Y033293D02*
X042820Y033293D01*
X042820Y033392D02*
X043890Y033392D01*
X043885Y033490D02*
X042820Y033490D01*
X042820Y033589D02*
X043885Y033589D01*
X043885Y033687D02*
X042820Y033687D01*
X042820Y033786D02*
X043879Y033786D01*
X043781Y033884D02*
X042820Y033884D01*
X042820Y033983D02*
X043682Y033983D01*
X043627Y034081D02*
X042820Y034081D01*
X042820Y034180D02*
X043586Y034180D01*
X043545Y034278D02*
X042820Y034278D01*
X042820Y034377D02*
X043525Y034377D01*
X043525Y034475D02*
X042820Y034475D01*
X042820Y034574D02*
X043525Y034574D01*
X043525Y034672D02*
X042796Y034672D01*
X042755Y034771D02*
X043565Y034771D01*
X043606Y034869D02*
X042687Y034869D01*
X042589Y034968D02*
X043647Y034968D01*
X043731Y035066D02*
X042490Y035066D01*
X042392Y035165D02*
X043829Y035165D01*
X043905Y035263D02*
X042293Y035263D01*
X042195Y035362D02*
X043905Y035362D01*
X043905Y035460D02*
X042096Y035460D01*
X041891Y035559D02*
X043905Y035559D01*
X043900Y035657D02*
X033481Y035657D01*
X033495Y035559D02*
X034609Y035559D01*
X034404Y035460D02*
X033495Y035460D01*
X033495Y035362D02*
X034305Y035362D01*
X034242Y035263D02*
X033495Y035263D01*
X033495Y035165D02*
X034201Y035165D01*
X034180Y035066D02*
X033495Y035066D01*
X033495Y034968D02*
X034180Y034968D01*
X034180Y034869D02*
X033495Y034869D01*
X033495Y034771D02*
X034180Y034771D01*
X034180Y034672D02*
X033495Y034672D01*
X033495Y034574D02*
X034180Y034574D01*
X034180Y034475D02*
X033505Y034475D01*
X033505Y034377D02*
X034160Y034377D01*
X033440Y035756D02*
X043821Y035756D01*
X043780Y035854D02*
X033398Y035854D01*
X033299Y035953D02*
X043760Y035953D01*
X043760Y036051D02*
X033201Y036051D01*
X033102Y036150D02*
X043760Y036150D01*
X043760Y036248D02*
X033004Y036248D01*
X032905Y036347D02*
X043760Y036347D01*
X043760Y036445D02*
X038930Y036445D01*
X039144Y036544D02*
X043731Y036544D01*
X043632Y036642D02*
X039243Y036642D01*
X039335Y036741D02*
X043540Y036741D01*
X043499Y036839D02*
X039376Y036839D01*
X038507Y036445D02*
X034993Y036445D01*
X034925Y036417D02*
X035191Y036527D01*
X035394Y036730D01*
X035504Y036996D01*
X035504Y037988D01*
X035394Y038254D01*
X035191Y038457D01*
X034925Y038567D01*
X034638Y038567D01*
X034599Y038551D01*
X034375Y038776D01*
X034147Y038870D01*
X033146Y038870D01*
X033136Y038880D01*
X032614Y038880D01*
X032245Y038511D01*
X032245Y037989D01*
X032614Y037620D01*
X033136Y037620D01*
X033146Y037630D01*
X033767Y037630D01*
X034059Y037338D01*
X034059Y036996D01*
X034169Y036730D01*
X034372Y036527D01*
X034638Y036417D01*
X034925Y036417D01*
X035207Y036544D02*
X038293Y036544D01*
X038194Y036642D02*
X036821Y036642D01*
X036800Y036642D02*
X036700Y036642D01*
X036700Y036639D02*
X036700Y037442D01*
X036800Y037442D01*
X036800Y036639D01*
X036868Y036649D01*
X036943Y036674D01*
X037013Y036710D01*
X037077Y036756D01*
X037133Y036812D01*
X037180Y036876D01*
X037216Y036947D01*
X037240Y037022D01*
X037252Y037100D01*
X037252Y037442D01*
X036800Y037442D01*
X036800Y037542D01*
X037252Y037542D01*
X037252Y037884D01*
X037240Y037962D01*
X037216Y038038D01*
X037180Y038108D01*
X037133Y038172D01*
X037077Y038228D01*
X037013Y038274D01*
X036943Y038310D01*
X036868Y038335D01*
X036800Y038345D01*
X036800Y037542D01*
X036700Y037542D01*
X036700Y037442D01*
X036248Y037442D01*
X036248Y037100D01*
X036260Y037022D01*
X036284Y036947D01*
X036320Y036876D01*
X036367Y036812D01*
X036423Y036756D01*
X036487Y036710D01*
X036557Y036674D01*
X036632Y036649D01*
X036700Y036639D01*
X036679Y036642D02*
X035306Y036642D01*
X035398Y036741D02*
X036444Y036741D01*
X036347Y036839D02*
X035439Y036839D01*
X035480Y036938D02*
X036289Y036938D01*
X036258Y037036D02*
X035504Y037036D01*
X035504Y037135D02*
X036248Y037135D01*
X036248Y037233D02*
X035504Y037233D01*
X035504Y037332D02*
X036248Y037332D01*
X036248Y037430D02*
X035504Y037430D01*
X035504Y037529D02*
X036700Y037529D01*
X036700Y037542D02*
X036248Y037542D01*
X036248Y037884D01*
X036260Y037962D01*
X036284Y038038D01*
X036320Y038108D01*
X036367Y038172D01*
X036423Y038228D01*
X036487Y038274D01*
X036557Y038310D01*
X036632Y038335D01*
X036700Y038345D01*
X036700Y037542D01*
X036700Y037627D02*
X036800Y037627D01*
X036800Y037529D02*
X037996Y037529D01*
X037996Y037627D02*
X037252Y037627D01*
X037252Y037726D02*
X037996Y037726D01*
X037996Y037824D02*
X037252Y037824D01*
X037246Y037923D02*
X037996Y037923D01*
X038010Y038021D02*
X037221Y038021D01*
X037171Y038120D02*
X038050Y038120D01*
X038091Y038218D02*
X037087Y038218D01*
X036924Y038317D02*
X038169Y038317D01*
X038267Y038415D02*
X035233Y038415D01*
X035331Y038317D02*
X036576Y038317D01*
X036700Y038317D02*
X036800Y038317D01*
X036800Y038218D02*
X036700Y038218D01*
X036700Y038120D02*
X036800Y038120D01*
X036800Y038021D02*
X036700Y038021D01*
X036700Y037923D02*
X036800Y037923D01*
X036800Y037824D02*
X036700Y037824D01*
X036700Y037726D02*
X036800Y037726D01*
X036800Y037430D02*
X036700Y037430D01*
X036700Y037332D02*
X036800Y037332D01*
X036800Y037233D02*
X036700Y037233D01*
X036700Y037135D02*
X036800Y037135D01*
X036800Y037036D02*
X036700Y037036D01*
X036700Y036938D02*
X036800Y036938D01*
X036800Y036839D02*
X036700Y036839D01*
X036700Y036741D02*
X036800Y036741D01*
X037056Y036741D02*
X038102Y036741D01*
X038061Y036839D02*
X037153Y036839D01*
X037211Y036938D02*
X038020Y036938D01*
X037996Y037036D02*
X037242Y037036D01*
X037252Y037135D02*
X037996Y037135D01*
X037996Y037233D02*
X037252Y037233D01*
X037252Y037332D02*
X037996Y037332D01*
X037996Y037430D02*
X037252Y037430D01*
X036248Y037627D02*
X035504Y037627D01*
X035504Y037726D02*
X036248Y037726D01*
X036248Y037824D02*
X035504Y037824D01*
X035504Y037923D02*
X036254Y037923D01*
X036279Y038021D02*
X035490Y038021D01*
X035450Y038120D02*
X036329Y038120D01*
X036413Y038218D02*
X035409Y038218D01*
X035054Y038514D02*
X038446Y038514D01*
X038991Y038514D02*
X041707Y038514D01*
X041609Y038415D02*
X039170Y038415D01*
X039268Y038317D02*
X041510Y038317D01*
X041412Y038218D02*
X039346Y038218D01*
X039387Y038120D02*
X041313Y038120D01*
X041806Y038612D02*
X034538Y038612D01*
X034440Y038711D02*
X041904Y038711D01*
X042003Y038809D02*
X034294Y038809D01*
X033770Y037627D02*
X033143Y037627D01*
X032607Y037627D02*
X030835Y037627D01*
X030818Y037610D02*
X031090Y037882D01*
X031090Y038045D01*
X030655Y038045D01*
X030655Y038105D01*
X030595Y038105D01*
X030595Y038540D01*
X030432Y038540D01*
X030160Y038268D01*
X030160Y038105D01*
X030595Y038105D01*
X030595Y038045D01*
X030160Y038045D01*
X030160Y037882D01*
X030432Y037610D01*
X030595Y037610D01*
X030595Y038045D01*
X030655Y038045D01*
X030655Y037610D01*
X030818Y037610D01*
X030933Y037726D02*
X032508Y037726D01*
X032410Y037824D02*
X031032Y037824D01*
X031090Y037923D02*
X032311Y037923D01*
X032245Y038021D02*
X031090Y038021D01*
X031090Y038105D02*
X030655Y038105D01*
X030655Y038540D01*
X030818Y038540D01*
X031090Y038268D01*
X031090Y038105D01*
X031090Y038120D02*
X032245Y038120D01*
X032245Y038218D02*
X031090Y038218D01*
X031041Y038317D02*
X032245Y038317D01*
X032245Y038415D02*
X030943Y038415D01*
X030844Y038514D02*
X032248Y038514D01*
X032346Y038612D02*
X027932Y038612D01*
X027932Y038514D02*
X030406Y038514D01*
X030307Y038415D02*
X027921Y038415D01*
X027880Y038317D02*
X030209Y038317D01*
X030160Y038218D02*
X027839Y038218D01*
X027798Y038120D02*
X030160Y038120D01*
X030160Y038021D02*
X027726Y038021D01*
X027628Y037923D02*
X030160Y037923D01*
X030218Y037824D02*
X027529Y037824D01*
X027336Y037726D02*
X030317Y037726D01*
X030415Y037627D02*
X004000Y037627D01*
X004000Y037529D02*
X033868Y037529D01*
X033967Y037430D02*
X004000Y037430D01*
X004000Y037332D02*
X030420Y037332D01*
X030214Y037233D02*
X004000Y037233D01*
X004000Y037135D02*
X030116Y037135D01*
X030033Y037036D02*
X004000Y037036D01*
X004000Y036938D02*
X029992Y036938D01*
X029952Y036839D02*
X004000Y036839D01*
X004000Y036741D02*
X029940Y036741D01*
X029940Y036642D02*
X004000Y036642D01*
X004000Y036544D02*
X029940Y036544D01*
X029979Y036445D02*
X004000Y036445D01*
X004000Y036347D02*
X030020Y036347D01*
X030083Y036248D02*
X004000Y036248D01*
X004000Y036150D02*
X030182Y036150D01*
X030341Y036051D02*
X004000Y036051D01*
X004000Y037726D02*
X004872Y037726D01*
X004679Y037824D02*
X004000Y037824D01*
X004000Y037923D02*
X004580Y037923D01*
X004482Y038021D02*
X004000Y038021D01*
X004000Y038120D02*
X004410Y038120D01*
X004369Y038218D02*
X004000Y038218D01*
X004000Y038317D02*
X004328Y038317D01*
X004287Y038415D02*
X004000Y038415D01*
X004000Y038514D02*
X004276Y038514D01*
X004276Y038612D02*
X004000Y038612D01*
X004000Y038711D02*
X004276Y038711D01*
X004276Y038809D02*
X004000Y038809D01*
X004000Y038908D02*
X004304Y038908D01*
X004344Y039006D02*
X004000Y039006D01*
X004000Y039105D02*
X004385Y039105D01*
X004426Y039203D02*
X004000Y039203D01*
X004000Y039302D02*
X004521Y039302D01*
X004620Y039400D02*
X004000Y039400D01*
X004000Y039499D02*
X004730Y039499D01*
X005824Y039499D02*
X026384Y039499D01*
X026273Y039400D02*
X005935Y039400D01*
X006033Y039302D02*
X026175Y039302D01*
X026080Y039203D02*
X006128Y039203D01*
X006169Y039105D02*
X026039Y039105D01*
X025998Y039006D02*
X006210Y039006D01*
X006251Y038908D02*
X025957Y038908D01*
X025930Y038809D02*
X006278Y038809D01*
X006278Y038711D02*
X025930Y038711D01*
X025930Y038612D02*
X006278Y038612D01*
X006278Y038514D02*
X025930Y038514D01*
X025941Y038415D02*
X006267Y038415D01*
X006226Y038317D02*
X025982Y038317D01*
X026022Y038218D02*
X006185Y038218D01*
X006145Y038120D02*
X026063Y038120D01*
X026135Y038021D02*
X006073Y038021D01*
X005974Y037923D02*
X026234Y037923D01*
X026332Y037824D02*
X005876Y037824D01*
X005682Y037726D02*
X026526Y037726D01*
X027932Y038711D02*
X032445Y038711D01*
X032543Y038809D02*
X027932Y038809D01*
X027904Y038908D02*
X042101Y038908D01*
X042200Y039006D02*
X027863Y039006D01*
X027823Y039105D02*
X042298Y039105D01*
X042397Y039203D02*
X027782Y039203D01*
X027687Y039302D02*
X042592Y039302D01*
X042926Y038120D02*
X043488Y038120D01*
X043448Y038021D02*
X042827Y038021D01*
X042729Y037923D02*
X043434Y037923D01*
X043434Y037824D02*
X042630Y037824D01*
X042532Y037726D02*
X043434Y037726D01*
X043434Y037627D02*
X042433Y037627D01*
X042335Y037529D02*
X043434Y037529D01*
X043434Y037430D02*
X042236Y037430D01*
X042138Y037332D02*
X043434Y037332D01*
X043434Y037233D02*
X042039Y037233D01*
X041941Y037135D02*
X043434Y037135D01*
X043434Y037036D02*
X041842Y037036D01*
X041643Y036938D02*
X043458Y036938D01*
X044740Y036642D02*
X045601Y036642D01*
X045508Y036741D02*
X044773Y036741D01*
X044814Y036839D02*
X045467Y036839D01*
X045427Y036938D02*
X044855Y036938D01*
X044879Y037036D02*
X045403Y037036D01*
X045403Y037135D02*
X044879Y037135D01*
X044879Y037233D02*
X045403Y037233D01*
X045403Y037332D02*
X044879Y037332D01*
X044879Y037430D02*
X045403Y037430D01*
X045403Y037529D02*
X044879Y037529D01*
X044879Y037627D02*
X045403Y037627D01*
X045403Y037726D02*
X044879Y037726D01*
X044879Y037824D02*
X045403Y037824D01*
X045403Y037923D02*
X044879Y037923D01*
X044865Y038021D02*
X045416Y038021D01*
X045457Y038120D02*
X044825Y038120D01*
X044740Y036544D02*
X045699Y036544D01*
X045914Y036445D02*
X044740Y036445D01*
X044740Y036347D02*
X046210Y036347D01*
X046309Y036248D02*
X044740Y036248D01*
X044793Y036150D02*
X046407Y036150D01*
X046506Y036051D02*
X044844Y036051D01*
X044885Y035953D02*
X046604Y035953D01*
X046703Y035854D02*
X044885Y035854D01*
X044885Y035756D02*
X046801Y035756D01*
X046900Y035657D02*
X044885Y035657D01*
X044885Y035559D02*
X046998Y035559D01*
X047097Y035460D02*
X044885Y035460D01*
X044885Y035362D02*
X047195Y035362D01*
X047294Y035263D02*
X044885Y035263D01*
X044961Y035165D02*
X047289Y035165D01*
X047191Y035066D02*
X046445Y035066D01*
X046413Y035084D02*
X046334Y035117D01*
X046252Y035139D01*
X046168Y035150D01*
X046164Y035150D01*
X046164Y034539D01*
X046775Y034539D01*
X046775Y034543D01*
X046764Y034627D01*
X046742Y034709D01*
X046709Y034788D01*
X046667Y034862D01*
X046615Y034929D01*
X046554Y034990D01*
X046487Y035042D01*
X046413Y035084D01*
X046577Y034968D02*
X047107Y034968D01*
X047066Y034869D02*
X046661Y034869D01*
X046716Y034771D02*
X047025Y034771D01*
X046985Y034672D02*
X046752Y034672D01*
X046771Y034574D02*
X046985Y034574D01*
X046985Y034475D02*
X046164Y034475D01*
X046164Y034461D02*
X046164Y034539D01*
X046086Y034539D01*
X046086Y035150D01*
X046082Y035150D01*
X045998Y035139D01*
X045916Y035117D01*
X045837Y035084D01*
X045763Y035042D01*
X045696Y034990D01*
X045635Y034929D01*
X045583Y034862D01*
X045541Y034788D01*
X045508Y034709D01*
X045486Y034627D01*
X045475Y034543D01*
X045475Y034539D01*
X046086Y034539D01*
X046086Y034461D01*
X046164Y034461D01*
X046775Y034461D01*
X046775Y034457D01*
X046764Y034373D01*
X046742Y034291D01*
X046709Y034212D01*
X046667Y034138D01*
X046615Y034071D01*
X046554Y034010D01*
X046487Y033958D01*
X046413Y033916D01*
X046334Y033883D01*
X046252Y033861D01*
X046168Y033850D01*
X046164Y033850D01*
X046164Y034461D01*
X046086Y034461D02*
X046086Y033850D01*
X046082Y033850D01*
X045998Y033861D01*
X045916Y033883D01*
X045837Y033916D01*
X045763Y033958D01*
X045696Y034010D01*
X045635Y034071D01*
X045583Y034138D01*
X045541Y034212D01*
X045508Y034291D01*
X045486Y034373D01*
X045475Y034457D01*
X045475Y034461D01*
X046086Y034461D01*
X046086Y034475D02*
X045265Y034475D01*
X045265Y034377D02*
X045486Y034377D01*
X045513Y034278D02*
X045245Y034278D01*
X045204Y034180D02*
X045559Y034180D01*
X045627Y034081D02*
X045163Y034081D01*
X045108Y033983D02*
X045732Y033983D01*
X045913Y033884D02*
X045009Y033884D01*
X044911Y033786D02*
X047339Y033786D01*
X047241Y033884D02*
X046337Y033884D01*
X046164Y033884D02*
X046086Y033884D01*
X046086Y033983D02*
X046164Y033983D01*
X046164Y034081D02*
X046086Y034081D01*
X046086Y034180D02*
X046164Y034180D01*
X046164Y034278D02*
X046086Y034278D01*
X046086Y034377D02*
X046164Y034377D01*
X046164Y034574D02*
X046086Y034574D01*
X046086Y034672D02*
X046164Y034672D01*
X046164Y034771D02*
X046086Y034771D01*
X046086Y034869D02*
X046164Y034869D01*
X046164Y034968D02*
X046086Y034968D01*
X046086Y035066D02*
X046164Y035066D01*
X045805Y035066D02*
X045059Y035066D01*
X045143Y034968D02*
X045673Y034968D01*
X045589Y034869D02*
X045184Y034869D01*
X045225Y034771D02*
X045534Y034771D01*
X045498Y034672D02*
X045265Y034672D01*
X045265Y034574D02*
X045479Y034574D01*
X044881Y033687D02*
X047544Y033687D01*
X047677Y033589D02*
X047885Y033589D01*
X047885Y033490D02*
X047776Y033490D01*
X047874Y033392D02*
X047876Y033392D01*
X047073Y033589D02*
X045677Y033589D01*
X045776Y033490D02*
X046974Y033490D01*
X046876Y033392D02*
X045874Y033392D01*
X045973Y033293D02*
X046777Y033293D01*
X046745Y033195D02*
X046005Y033195D01*
X046005Y033096D02*
X046745Y033096D01*
X046745Y032998D02*
X046005Y032998D01*
X046005Y032899D02*
X046745Y032899D01*
X046745Y032801D02*
X046005Y032801D01*
X045968Y032702D02*
X046782Y032702D01*
X046880Y032604D02*
X045870Y032604D01*
X045771Y032505D02*
X046885Y032505D01*
X046885Y032407D02*
X045673Y032407D01*
X046885Y031323D02*
X044132Y031323D01*
X044045Y031410D02*
X043905Y031410D01*
X043905Y031030D01*
X044285Y031030D01*
X044285Y031170D01*
X044045Y031410D01*
X043905Y031323D02*
X043845Y031323D01*
X043845Y031225D02*
X043905Y031225D01*
X043905Y031126D02*
X043845Y031126D01*
X043905Y031028D02*
X047029Y031028D01*
X046948Y031126D02*
X044285Y031126D01*
X044230Y031225D02*
X046907Y031225D01*
X047128Y030929D02*
X044285Y030929D01*
X044285Y030831D02*
X047226Y030831D01*
X047325Y030732D02*
X044187Y030732D01*
X044088Y030634D02*
X047423Y030634D01*
X048120Y031323D02*
X052425Y031323D01*
X052327Y031422D02*
X048021Y031422D01*
X047923Y031520D02*
X052228Y031520D01*
X052130Y031619D02*
X047865Y031619D01*
X047865Y031578D02*
X047865Y032599D01*
X047875Y032609D01*
X048114Y032370D01*
X048636Y032370D01*
X048776Y032510D01*
X048974Y032510D01*
X049114Y032370D01*
X049636Y032370D01*
X050005Y032739D01*
X050005Y033261D01*
X049636Y033630D01*
X049114Y033630D01*
X048974Y033490D01*
X048865Y033490D01*
X048865Y034077D01*
X048790Y034258D01*
X048724Y034324D01*
X048725Y034327D01*
X048725Y034673D01*
X048593Y034993D01*
X048348Y035237D01*
X048365Y035278D01*
X048365Y035383D01*
X052680Y031068D01*
X052680Y018516D01*
X052582Y018753D01*
X052379Y018956D01*
X052113Y019066D01*
X051121Y019066D01*
X050855Y018956D01*
X050733Y018834D01*
X049127Y018834D01*
X049118Y018843D01*
X048798Y018975D01*
X048452Y018975D01*
X048186Y018865D01*
X045453Y018865D01*
X044505Y019813D01*
X044505Y020011D01*
X044136Y020380D01*
X043614Y020380D01*
X043245Y020011D01*
X043245Y019489D01*
X043614Y019120D01*
X043812Y019120D01*
X044972Y017960D01*
X045153Y017885D01*
X047774Y017885D01*
X047887Y017612D01*
X048132Y017367D01*
X048452Y017235D01*
X048798Y017235D01*
X049118Y017367D01*
X049363Y017612D01*
X049463Y017854D01*
X050733Y017854D01*
X050855Y017731D01*
X051121Y017621D01*
X052113Y017621D01*
X052379Y017731D01*
X052582Y017934D01*
X052680Y018171D01*
X052680Y016548D01*
X052582Y016784D01*
X052379Y016988D01*
X052113Y017097D01*
X051121Y017097D01*
X050855Y016988D01*
X050652Y016784D01*
X050598Y016654D01*
X049222Y015278D01*
X049118Y015383D01*
X048798Y015515D01*
X048452Y015515D01*
X048132Y015383D01*
X048115Y015365D01*
X047615Y015365D01*
X047615Y015474D01*
X047755Y015614D01*
X047755Y016136D01*
X047516Y016375D01*
X047755Y016614D01*
X047755Y017136D01*
X047386Y017505D01*
X046864Y017505D01*
X046724Y017365D01*
X045528Y017365D01*
X045347Y017290D01*
X045210Y017153D01*
X044422Y016365D01*
X043526Y016365D01*
X043386Y016505D01*
X043335Y016505D01*
X043535Y016705D01*
X043535Y016845D01*
X043155Y016845D01*
X043155Y016905D01*
X043095Y016905D01*
X043095Y017285D01*
X042955Y017285D01*
X042715Y017045D01*
X042715Y016905D01*
X043095Y016905D01*
X043095Y016845D01*
X042715Y016845D01*
X042715Y016705D01*
X042915Y016505D01*
X042864Y016505D01*
X042615Y016256D01*
X042615Y017597D01*
X042540Y017778D01*
X042500Y017818D01*
X042500Y020385D01*
X045722Y020385D01*
X045903Y020460D01*
X046040Y020597D01*
X046040Y020597D01*
X048653Y023210D01*
X048790Y023347D01*
X048865Y023528D01*
X048865Y026372D01*
X049508Y027015D01*
X049636Y027015D01*
X049888Y027119D01*
X049979Y027210D01*
X051649Y027210D01*
X051739Y027120D01*
X052261Y027120D01*
X052630Y027489D01*
X052630Y028011D01*
X052261Y028380D01*
X051739Y028380D01*
X051549Y028190D01*
X049990Y028190D01*
X049990Y028724D01*
X050005Y028739D01*
X050005Y029261D01*
X049636Y029630D01*
X049114Y029630D01*
X048875Y029391D01*
X048740Y029526D01*
X048740Y030597D01*
X048665Y030778D01*
X048528Y030915D01*
X047865Y031578D01*
X047865Y031717D02*
X052031Y031717D01*
X051933Y031816D02*
X047865Y031816D01*
X047865Y031914D02*
X051834Y031914D01*
X051736Y032013D02*
X047865Y032013D01*
X047865Y032111D02*
X051637Y032111D01*
X051539Y032210D02*
X047865Y032210D01*
X047865Y032308D02*
X051440Y032308D01*
X051342Y032407D02*
X049673Y032407D01*
X049771Y032505D02*
X051243Y032505D01*
X051145Y032604D02*
X049870Y032604D01*
X049968Y032702D02*
X051046Y032702D01*
X050948Y032801D02*
X050005Y032801D01*
X050005Y032899D02*
X050849Y032899D01*
X050751Y032998D02*
X050005Y032998D01*
X050005Y033096D02*
X050652Y033096D01*
X050554Y033195D02*
X050005Y033195D01*
X049973Y033293D02*
X050455Y033293D01*
X050357Y033392D02*
X049874Y033392D01*
X049776Y033490D02*
X050258Y033490D01*
X050160Y033589D02*
X049677Y033589D01*
X049963Y033786D02*
X048865Y033786D01*
X048865Y033884D02*
X049864Y033884D01*
X049766Y033983D02*
X048865Y033983D01*
X048864Y034081D02*
X049667Y034081D01*
X049569Y034180D02*
X048823Y034180D01*
X048770Y034278D02*
X049470Y034278D01*
X049372Y034377D02*
X048725Y034377D01*
X048725Y034475D02*
X049273Y034475D01*
X049175Y034574D02*
X048725Y034574D01*
X048725Y034672D02*
X049076Y034672D01*
X048978Y034771D02*
X048685Y034771D01*
X048644Y034869D02*
X048879Y034869D01*
X048781Y034968D02*
X048603Y034968D01*
X048682Y035066D02*
X048519Y035066D01*
X048584Y035165D02*
X048421Y035165D01*
X048359Y035263D02*
X048485Y035263D01*
X048387Y035362D02*
X048365Y035362D01*
X049254Y036248D02*
X050000Y036248D01*
X050000Y036150D02*
X049352Y036150D01*
X049451Y036051D02*
X050000Y036051D01*
X050000Y036347D02*
X049155Y036347D01*
X049057Y036445D02*
X050000Y036445D01*
X050000Y036544D02*
X048958Y036544D01*
X048860Y036642D02*
X050000Y036642D01*
X050000Y036741D02*
X048761Y036741D01*
X048751Y036839D02*
X050000Y036839D01*
X050000Y036938D02*
X048792Y036938D01*
X048816Y037036D02*
X050000Y037036D01*
X050000Y037135D02*
X048816Y037135D01*
X048816Y037233D02*
X050000Y037233D01*
X050000Y037332D02*
X048816Y037332D01*
X048816Y037430D02*
X050000Y037430D01*
X050000Y037529D02*
X048816Y037529D01*
X048816Y037627D02*
X050000Y037627D01*
X050000Y037726D02*
X048816Y037726D01*
X048816Y037824D02*
X050000Y037824D01*
X050000Y037923D02*
X048816Y037923D01*
X048802Y038021D02*
X050000Y038021D01*
X050000Y038120D02*
X048762Y038120D01*
X048721Y038218D02*
X050000Y038218D01*
X050000Y038317D02*
X048643Y038317D01*
X048549Y038415D02*
X050000Y038415D01*
X050000Y038514D02*
X048508Y038514D01*
X048444Y038612D02*
X050000Y038612D01*
X050000Y038711D02*
X048346Y038711D01*
X048247Y038809D02*
X050000Y038809D01*
X050000Y038908D02*
X048149Y038908D01*
X048050Y039006D02*
X050000Y039006D01*
X050000Y039105D02*
X047952Y039105D01*
X047853Y039203D02*
X050000Y039203D01*
X050000Y039302D02*
X047658Y039302D01*
X050000Y039400D02*
X027588Y039400D01*
X027478Y039499D02*
X050000Y039499D01*
X049549Y035953D02*
X053500Y035953D01*
X053500Y035854D02*
X049648Y035854D01*
X049746Y035756D02*
X053500Y035756D01*
X053500Y035657D02*
X049845Y035657D01*
X049943Y035559D02*
X053500Y035559D01*
X053500Y035460D02*
X050042Y035460D01*
X050140Y035362D02*
X053500Y035362D01*
X053500Y035263D02*
X050239Y035263D01*
X050337Y035165D02*
X053500Y035165D01*
X053500Y035066D02*
X050436Y035066D01*
X050534Y034968D02*
X053500Y034968D01*
X053500Y034869D02*
X050633Y034869D01*
X050731Y034771D02*
X053500Y034771D01*
X053500Y034672D02*
X050830Y034672D01*
X050928Y034574D02*
X053500Y034574D01*
X053500Y034475D02*
X051027Y034475D01*
X051125Y034377D02*
X053500Y034377D01*
X053500Y034278D02*
X051224Y034278D01*
X051322Y034180D02*
X053500Y034180D01*
X053500Y034081D02*
X051421Y034081D01*
X051519Y033983D02*
X053500Y033983D01*
X053500Y033884D02*
X051618Y033884D01*
X051716Y033786D02*
X053500Y033786D01*
X053500Y033687D02*
X051815Y033687D01*
X051913Y033589D02*
X053500Y033589D01*
X053500Y033490D02*
X052012Y033490D01*
X052110Y033392D02*
X053500Y033392D01*
X053500Y033293D02*
X052209Y033293D01*
X052307Y033195D02*
X053500Y033195D01*
X053500Y033096D02*
X052406Y033096D01*
X052504Y032998D02*
X053500Y032998D01*
X053500Y032899D02*
X052603Y032899D01*
X052701Y032801D02*
X053500Y032801D01*
X053500Y032702D02*
X052800Y032702D01*
X052898Y032604D02*
X053500Y032604D01*
X053500Y032505D02*
X052997Y032505D01*
X053095Y032407D02*
X053500Y032407D01*
X053500Y032308D02*
X053194Y032308D01*
X053292Y032210D02*
X053500Y032210D01*
X053500Y032111D02*
X053391Y032111D01*
X053489Y032013D02*
X053500Y032013D01*
X052622Y031126D02*
X048317Y031126D01*
X048415Y031028D02*
X052680Y031028D01*
X052680Y030929D02*
X048514Y030929D01*
X048612Y030831D02*
X052680Y030831D01*
X052680Y030732D02*
X048684Y030732D01*
X048725Y030634D02*
X052680Y030634D01*
X052680Y030535D02*
X048740Y030535D01*
X048740Y030437D02*
X052680Y030437D01*
X052680Y030338D02*
X048740Y030338D01*
X048740Y030240D02*
X052680Y030240D01*
X052680Y030141D02*
X048740Y030141D01*
X048740Y030043D02*
X052680Y030043D01*
X052680Y029944D02*
X048740Y029944D01*
X048740Y029846D02*
X052680Y029846D01*
X052680Y029747D02*
X048740Y029747D01*
X048740Y029649D02*
X052680Y029649D01*
X052680Y029550D02*
X049716Y029550D01*
X049814Y029452D02*
X052680Y029452D01*
X052680Y029353D02*
X049913Y029353D01*
X050005Y029255D02*
X052680Y029255D01*
X052680Y029156D02*
X050005Y029156D01*
X050005Y029058D02*
X052680Y029058D01*
X052680Y028959D02*
X050005Y028959D01*
X050005Y028861D02*
X052680Y028861D01*
X052680Y028762D02*
X050005Y028762D01*
X049990Y028664D02*
X052680Y028664D01*
X052680Y028565D02*
X049990Y028565D01*
X049990Y028467D02*
X052680Y028467D01*
X052680Y028368D02*
X052273Y028368D01*
X052371Y028270D02*
X052680Y028270D01*
X052680Y028171D02*
X052470Y028171D01*
X052568Y028073D02*
X052680Y028073D01*
X052680Y027974D02*
X052630Y027974D01*
X052630Y027876D02*
X052680Y027876D01*
X052680Y027777D02*
X052630Y027777D01*
X052630Y027679D02*
X052680Y027679D01*
X052680Y027580D02*
X052630Y027580D01*
X052623Y027482D02*
X052680Y027482D01*
X052680Y027383D02*
X052524Y027383D01*
X052426Y027285D02*
X052680Y027285D01*
X052680Y027186D02*
X052327Y027186D01*
X052680Y027088D02*
X049811Y027088D01*
X049955Y027186D02*
X051673Y027186D01*
X052680Y026989D02*
X049482Y026989D01*
X049384Y026891D02*
X052680Y026891D01*
X052680Y026792D02*
X049285Y026792D01*
X049307Y026765D02*
X049035Y026493D01*
X049035Y026330D01*
X049470Y026330D01*
X049470Y026765D01*
X049307Y026765D01*
X049236Y026694D02*
X049187Y026694D01*
X049137Y026595D02*
X049088Y026595D01*
X049039Y026497D02*
X048990Y026497D01*
X049035Y026398D02*
X048891Y026398D01*
X048865Y026300D02*
X049470Y026300D01*
X049470Y026330D02*
X049470Y026270D01*
X049035Y026270D01*
X049035Y026107D01*
X049307Y025835D01*
X049470Y025835D01*
X049470Y026270D01*
X049530Y026270D01*
X049530Y026330D01*
X049470Y026330D01*
X049530Y026330D02*
X049530Y026765D01*
X049693Y026765D01*
X049965Y026493D01*
X049965Y026330D01*
X049530Y026330D01*
X049530Y026300D02*
X052680Y026300D01*
X052680Y026398D02*
X049965Y026398D01*
X049961Y026497D02*
X052680Y026497D01*
X052680Y026595D02*
X049863Y026595D01*
X049764Y026694D02*
X052680Y026694D01*
X052680Y026201D02*
X049965Y026201D01*
X049965Y026270D02*
X049530Y026270D01*
X049530Y025835D01*
X049693Y025835D01*
X049965Y026107D01*
X049965Y026270D01*
X049960Y026103D02*
X051773Y026103D01*
X051830Y026160D02*
X051590Y025920D01*
X051590Y025780D01*
X051970Y025780D01*
X051970Y026160D01*
X051830Y026160D01*
X051970Y026103D02*
X052030Y026103D01*
X052030Y026160D02*
X052030Y025780D01*
X051970Y025780D01*
X051970Y025720D01*
X051590Y025720D01*
X051590Y025580D01*
X051830Y025340D01*
X051970Y025340D01*
X051970Y025720D01*
X052030Y025720D01*
X052030Y025780D01*
X052410Y025780D01*
X052410Y025920D01*
X052170Y026160D01*
X052030Y026160D01*
X052030Y026004D02*
X051970Y026004D01*
X051970Y025906D02*
X052030Y025906D01*
X052030Y025807D02*
X051970Y025807D01*
X051970Y025709D02*
X052030Y025709D01*
X052030Y025720D02*
X052030Y025340D01*
X052170Y025340D01*
X052410Y025580D01*
X052410Y025720D01*
X052030Y025720D01*
X052030Y025610D02*
X051970Y025610D01*
X051970Y025512D02*
X052030Y025512D01*
X052030Y025413D02*
X051970Y025413D01*
X051757Y025413D02*
X048865Y025413D01*
X048865Y025315D02*
X052680Y025315D01*
X052680Y025413D02*
X052243Y025413D01*
X052341Y025512D02*
X052680Y025512D01*
X052680Y025610D02*
X052410Y025610D01*
X052410Y025709D02*
X052680Y025709D01*
X052680Y025807D02*
X052410Y025807D01*
X052410Y025906D02*
X052680Y025906D01*
X052680Y026004D02*
X052326Y026004D01*
X052227Y026103D02*
X052680Y026103D01*
X051674Y026004D02*
X049862Y026004D01*
X049763Y025906D02*
X051590Y025906D01*
X051590Y025807D02*
X048865Y025807D01*
X048865Y025709D02*
X051590Y025709D01*
X051590Y025610D02*
X048865Y025610D01*
X048865Y025512D02*
X051659Y025512D01*
X052680Y025216D02*
X048865Y025216D01*
X048865Y025118D02*
X052680Y025118D01*
X052680Y025019D02*
X048865Y025019D01*
X048865Y024921D02*
X052680Y024921D01*
X052680Y024822D02*
X048865Y024822D01*
X048865Y024724D02*
X052680Y024724D01*
X052680Y024625D02*
X048865Y024625D01*
X048865Y024527D02*
X052680Y024527D01*
X052680Y024428D02*
X048865Y024428D01*
X048865Y024330D02*
X052680Y024330D01*
X052680Y024231D02*
X048865Y024231D01*
X048865Y024133D02*
X052680Y024133D01*
X052680Y024034D02*
X048865Y024034D01*
X048865Y023936D02*
X052680Y023936D01*
X052680Y023837D02*
X048865Y023837D01*
X048865Y023739D02*
X052680Y023739D01*
X052680Y023640D02*
X048865Y023640D01*
X048865Y023542D02*
X052680Y023542D01*
X052680Y023443D02*
X048830Y023443D01*
X048788Y023345D02*
X052680Y023345D01*
X052680Y023246D02*
X048689Y023246D01*
X048653Y023210D02*
X048653Y023210D01*
X048591Y023148D02*
X052680Y023148D01*
X052680Y023049D02*
X048492Y023049D01*
X048394Y022951D02*
X052680Y022951D01*
X052680Y022852D02*
X048295Y022852D01*
X048197Y022754D02*
X052680Y022754D01*
X052680Y022655D02*
X048098Y022655D01*
X048000Y022557D02*
X052680Y022557D01*
X052680Y022458D02*
X047901Y022458D01*
X047803Y022360D02*
X052680Y022360D01*
X052680Y022261D02*
X047704Y022261D01*
X047606Y022163D02*
X052680Y022163D01*
X052680Y022064D02*
X047507Y022064D01*
X047409Y021966D02*
X052680Y021966D01*
X052680Y021867D02*
X047310Y021867D01*
X047212Y021769D02*
X052680Y021769D01*
X052680Y021670D02*
X047113Y021670D01*
X047015Y021572D02*
X052680Y021572D01*
X052680Y021473D02*
X046916Y021473D01*
X046818Y021375D02*
X052680Y021375D01*
X052680Y021276D02*
X046719Y021276D01*
X046621Y021178D02*
X052680Y021178D01*
X052680Y021079D02*
X046522Y021079D01*
X046424Y020981D02*
X052680Y020981D01*
X052680Y020882D02*
X046325Y020882D01*
X046227Y020784D02*
X052680Y020784D01*
X052680Y020685D02*
X046128Y020685D01*
X046030Y020587D02*
X052680Y020587D01*
X052680Y020488D02*
X045931Y020488D01*
X045733Y020390D02*
X052680Y020390D01*
X052680Y020291D02*
X044225Y020291D01*
X044323Y020193D02*
X052680Y020193D01*
X052680Y020094D02*
X044422Y020094D01*
X044505Y019996D02*
X052680Y019996D01*
X052680Y019897D02*
X044505Y019897D01*
X044519Y019799D02*
X052680Y019799D01*
X052680Y019700D02*
X044618Y019700D01*
X044716Y019602D02*
X052680Y019602D01*
X052680Y019503D02*
X044815Y019503D01*
X044913Y019405D02*
X052680Y019405D01*
X052680Y019306D02*
X045012Y019306D01*
X045110Y019208D02*
X052680Y019208D01*
X052680Y019109D02*
X045209Y019109D01*
X045307Y019011D02*
X050987Y019011D01*
X050811Y018912D02*
X048950Y018912D01*
X048300Y018912D02*
X045406Y018912D01*
X044512Y018420D02*
X042500Y018420D01*
X042500Y018518D02*
X044414Y018518D01*
X044315Y018617D02*
X042500Y018617D01*
X042500Y018715D02*
X044217Y018715D01*
X044118Y018814D02*
X042500Y018814D01*
X042500Y018912D02*
X044020Y018912D01*
X043921Y019011D02*
X042500Y019011D01*
X042500Y019109D02*
X043823Y019109D01*
X043526Y019208D02*
X042500Y019208D01*
X042500Y019306D02*
X043428Y019306D01*
X043329Y019405D02*
X042500Y019405D01*
X042500Y019503D02*
X043245Y019503D01*
X043245Y019602D02*
X042500Y019602D01*
X042500Y019700D02*
X043245Y019700D01*
X043245Y019799D02*
X042500Y019799D01*
X042500Y019897D02*
X043245Y019897D01*
X043245Y019996D02*
X042500Y019996D01*
X042500Y020094D02*
X043328Y020094D01*
X043427Y020193D02*
X042500Y020193D01*
X042500Y020291D02*
X043525Y020291D01*
X045375Y021375D02*
X040500Y021375D01*
X040500Y021365D01*
X040203Y021365D01*
X039068Y022500D01*
X039767Y022500D01*
X039761Y022480D01*
X039752Y022425D01*
X040450Y022425D01*
X040450Y022325D01*
X040550Y022325D01*
X040550Y022425D01*
X041248Y022425D01*
X041239Y022480D01*
X041233Y022500D01*
X044500Y022500D01*
X047250Y025250D01*
X047885Y025250D01*
X047885Y023870D01*
X047881Y023824D01*
X046516Y022459D01*
X045375Y021375D01*
X045478Y021473D02*
X040095Y021473D01*
X040193Y021375D02*
X040500Y021375D01*
X039996Y021572D02*
X045582Y021572D01*
X045686Y021670D02*
X039898Y021670D01*
X039799Y021769D02*
X045789Y021769D01*
X045893Y021867D02*
X039701Y021867D01*
X039602Y021966D02*
X040012Y021966D01*
X040027Y021958D02*
X040095Y021936D01*
X040165Y021925D01*
X040450Y021925D01*
X040450Y022325D01*
X039752Y022325D01*
X039761Y022270D01*
X039783Y022202D01*
X039815Y022139D01*
X039857Y022082D01*
X039907Y022032D01*
X039964Y021990D01*
X040027Y021958D01*
X039875Y022064D02*
X039504Y022064D01*
X039405Y022163D02*
X039803Y022163D01*
X039764Y022261D02*
X039307Y022261D01*
X039208Y022360D02*
X040450Y022360D01*
X040450Y022261D02*
X040550Y022261D01*
X040550Y022325D02*
X040550Y021925D01*
X040835Y021925D01*
X040905Y021936D01*
X040973Y021958D01*
X041036Y021990D01*
X041093Y022032D01*
X041143Y022082D01*
X041185Y022139D01*
X041217Y022202D01*
X041239Y022270D01*
X041248Y022325D01*
X040550Y022325D01*
X040550Y022360D02*
X046411Y022360D01*
X046515Y022458D02*
X041242Y022458D01*
X041236Y022261D02*
X046308Y022261D01*
X046204Y022163D02*
X041197Y022163D01*
X041125Y022064D02*
X046100Y022064D01*
X045997Y021966D02*
X040988Y021966D01*
X040550Y021966D02*
X040450Y021966D01*
X040450Y022064D02*
X040550Y022064D01*
X040550Y022163D02*
X040450Y022163D01*
X039758Y022458D02*
X039110Y022458D01*
X036017Y020850D02*
X035911Y020744D01*
X035805Y020488D01*
X032870Y020488D01*
X032870Y020390D02*
X035805Y020390D01*
X035805Y020488D02*
X035805Y020212D01*
X035911Y019956D01*
X036017Y019850D01*
X035911Y019744D01*
X035805Y019488D01*
X035805Y019212D01*
X035911Y018956D01*
X036017Y018850D01*
X035911Y018744D01*
X035805Y018488D01*
X035805Y018212D01*
X035911Y017956D01*
X036017Y017850D01*
X035911Y017744D01*
X035805Y017488D01*
X035805Y017212D01*
X035911Y016956D01*
X036017Y016850D01*
X035911Y016744D01*
X035805Y016488D01*
X035805Y016212D01*
X035911Y015956D01*
X036017Y015850D01*
X036007Y015840D01*
X035753Y015840D01*
X035572Y015765D01*
X033972Y014165D01*
X033835Y014028D01*
X033760Y013847D01*
X033760Y010328D01*
X033047Y009615D01*
X028203Y009615D01*
X026399Y011419D01*
X026219Y011494D01*
X007875Y011494D01*
X007875Y015510D01*
X011847Y015510D01*
X012028Y015585D01*
X012165Y015722D01*
X016303Y019860D01*
X028362Y019860D01*
X028257Y019755D01*
X028155Y019508D01*
X028155Y019242D01*
X028257Y018995D01*
X028377Y018875D01*
X028257Y018755D01*
X028155Y018508D01*
X028155Y018242D01*
X028257Y017995D01*
X028377Y017875D01*
X028257Y017755D01*
X028155Y017508D01*
X028155Y017242D01*
X028257Y016995D01*
X028445Y016807D01*
X028692Y016705D01*
X029558Y016705D01*
X029805Y016807D01*
X029883Y016885D01*
X029982Y016885D01*
X030106Y016761D01*
X030203Y016721D01*
X030191Y016712D01*
X030138Y016659D01*
X030094Y016599D01*
X030060Y016532D01*
X030037Y016461D01*
X030027Y016400D01*
X030450Y016400D01*
X030450Y016300D01*
X030027Y016300D01*
X030037Y016239D01*
X030060Y016168D01*
X030094Y016101D01*
X030138Y016041D01*
X030184Y015995D01*
X029021Y015995D01*
X029011Y016005D01*
X028489Y016005D01*
X028120Y015636D01*
X028120Y015114D01*
X028489Y014745D01*
X029011Y014745D01*
X029021Y014755D01*
X030121Y014755D01*
X030362Y014655D01*
X030638Y014655D01*
X030819Y014730D01*
X031630Y014730D01*
X031630Y012868D01*
X031565Y012711D01*
X031565Y012439D01*
X031669Y012187D01*
X031862Y011994D01*
X032114Y011890D01*
X032386Y011890D01*
X032638Y011994D01*
X032831Y012187D01*
X032935Y012439D01*
X032935Y012711D01*
X032870Y012868D01*
X032870Y028000D01*
X035432Y028000D01*
X034335Y026903D01*
X034260Y026722D01*
X034260Y021778D01*
X034335Y021597D01*
X034472Y021460D01*
X034865Y021067D01*
X034911Y020956D01*
X035106Y020761D01*
X035362Y020655D01*
X035638Y020655D01*
X035894Y020761D01*
X036000Y020867D01*
X036017Y020850D01*
X035951Y020784D02*
X035916Y020784D01*
X035887Y020685D02*
X035710Y020685D01*
X035846Y020587D02*
X032870Y020587D01*
X032870Y020685D02*
X035290Y020685D01*
X035084Y020784D02*
X032870Y020784D01*
X032870Y020882D02*
X034985Y020882D01*
X034901Y020981D02*
X032870Y020981D01*
X032870Y021079D02*
X034853Y021079D01*
X034754Y021178D02*
X032870Y021178D01*
X032870Y021276D02*
X034656Y021276D01*
X034557Y021375D02*
X032870Y021375D01*
X032870Y021473D02*
X034459Y021473D01*
X034360Y021572D02*
X032870Y021572D01*
X032870Y021670D02*
X034305Y021670D01*
X034264Y021769D02*
X032870Y021769D01*
X032870Y021867D02*
X034260Y021867D01*
X034260Y021966D02*
X032870Y021966D01*
X032870Y022064D02*
X034260Y022064D01*
X034260Y022163D02*
X032870Y022163D01*
X032870Y022261D02*
X034260Y022261D01*
X034260Y022360D02*
X032870Y022360D01*
X032870Y022458D02*
X034260Y022458D01*
X034260Y022557D02*
X032870Y022557D01*
X032870Y022655D02*
X034260Y022655D01*
X034260Y022754D02*
X032870Y022754D01*
X032870Y022852D02*
X034260Y022852D01*
X034260Y022951D02*
X032870Y022951D01*
X032870Y023049D02*
X034260Y023049D01*
X034260Y023148D02*
X032870Y023148D01*
X032870Y023246D02*
X034260Y023246D01*
X034260Y023345D02*
X032870Y023345D01*
X032870Y023443D02*
X034260Y023443D01*
X034260Y023542D02*
X032870Y023542D01*
X032870Y023640D02*
X034260Y023640D01*
X034260Y023739D02*
X032870Y023739D01*
X032870Y023837D02*
X034260Y023837D01*
X034260Y023936D02*
X032870Y023936D01*
X032870Y024034D02*
X034260Y024034D01*
X034260Y024133D02*
X032870Y024133D01*
X032870Y024231D02*
X034260Y024231D01*
X034260Y024330D02*
X032870Y024330D01*
X032870Y024428D02*
X034260Y024428D01*
X034260Y024527D02*
X032870Y024527D01*
X032870Y024625D02*
X034260Y024625D01*
X034260Y024724D02*
X032870Y024724D01*
X032870Y024822D02*
X034260Y024822D01*
X034260Y024921D02*
X032870Y024921D01*
X032870Y025019D02*
X034260Y025019D01*
X034260Y025118D02*
X032870Y025118D01*
X032870Y025216D02*
X034260Y025216D01*
X034260Y025315D02*
X032870Y025315D01*
X032870Y025413D02*
X034260Y025413D01*
X034260Y025512D02*
X032870Y025512D01*
X032870Y025610D02*
X034260Y025610D01*
X034260Y025709D02*
X032870Y025709D01*
X032870Y025807D02*
X034260Y025807D01*
X034260Y025906D02*
X032870Y025906D01*
X032870Y026004D02*
X034260Y026004D01*
X034260Y026103D02*
X032870Y026103D01*
X032870Y026201D02*
X034260Y026201D01*
X034260Y026300D02*
X032870Y026300D01*
X032870Y026398D02*
X034260Y026398D01*
X034260Y026497D02*
X032870Y026497D01*
X032870Y026595D02*
X034260Y026595D01*
X034260Y026694D02*
X032870Y026694D01*
X032870Y026792D02*
X034289Y026792D01*
X034330Y026891D02*
X032870Y026891D01*
X032870Y026989D02*
X034421Y026989D01*
X034520Y027088D02*
X032870Y027088D01*
X032870Y027186D02*
X034618Y027186D01*
X034717Y027285D02*
X032870Y027285D01*
X032870Y027383D02*
X034815Y027383D01*
X034914Y027482D02*
X032870Y027482D01*
X032870Y027580D02*
X035012Y027580D01*
X035111Y027679D02*
X032870Y027679D01*
X032870Y027777D02*
X035209Y027777D01*
X035308Y027876D02*
X032870Y027876D01*
X032870Y027974D02*
X035406Y027974D01*
X037625Y028959D02*
X038750Y028959D01*
X038750Y029058D02*
X037625Y029058D01*
X037625Y029156D02*
X038750Y029156D01*
X038750Y029255D02*
X037625Y029255D01*
X037625Y029353D02*
X038750Y029353D01*
X038750Y029452D02*
X037625Y029452D01*
X037625Y029550D02*
X038750Y029550D01*
X038750Y029649D02*
X037625Y029649D01*
X037625Y029747D02*
X038750Y029747D01*
X038750Y029846D02*
X037625Y029846D01*
X037625Y029944D02*
X038750Y029944D01*
X038750Y030043D02*
X033233Y030043D01*
X032517Y030043D02*
X032495Y030043D01*
X032495Y030141D02*
X038750Y030141D01*
X038750Y030240D02*
X032495Y030240D01*
X032495Y030338D02*
X038750Y030338D01*
X038750Y030437D02*
X032495Y030437D01*
X032495Y030535D02*
X038750Y030535D01*
X038750Y030634D02*
X032495Y030634D01*
X032495Y030732D02*
X038750Y030732D01*
X038750Y030831D02*
X032495Y030831D01*
X032495Y030929D02*
X038750Y030929D01*
X038750Y031028D02*
X032495Y031028D01*
X032495Y031126D02*
X038149Y031126D01*
X038122Y031145D02*
X038181Y031102D01*
X038247Y031069D01*
X038316Y031046D01*
X038388Y031035D01*
X038395Y031035D01*
X038395Y031470D01*
X037960Y031470D01*
X037960Y031463D01*
X037971Y031391D01*
X037994Y031322D01*
X038027Y031256D01*
X038070Y031197D01*
X038122Y031145D01*
X038050Y031225D02*
X032495Y031225D01*
X032495Y031323D02*
X037994Y031323D01*
X037967Y031422D02*
X032495Y031422D01*
X032495Y031520D02*
X038395Y031520D01*
X038395Y031422D02*
X038455Y031422D01*
X038455Y031323D02*
X038395Y031323D01*
X038395Y031225D02*
X038455Y031225D01*
X038455Y031126D02*
X038395Y031126D01*
X038701Y031126D02*
X038750Y031126D01*
X038455Y031619D02*
X038395Y031619D01*
X038395Y031717D02*
X038455Y031717D01*
X038455Y031816D02*
X038395Y031816D01*
X038395Y031914D02*
X038455Y031914D01*
X038637Y031914D02*
X038750Y031914D01*
X038213Y031914D02*
X032495Y031914D01*
X032495Y031816D02*
X038083Y031816D01*
X038014Y031717D02*
X032495Y031717D01*
X032495Y031619D02*
X037975Y031619D01*
X039795Y031422D02*
X039855Y031422D01*
X039855Y031323D02*
X039795Y031323D01*
X039795Y031225D02*
X039855Y031225D01*
X039855Y031126D02*
X039795Y031126D01*
X040290Y031619D02*
X041680Y031619D01*
X041680Y031717D02*
X040266Y031717D01*
X040167Y031816D02*
X041680Y031816D01*
X041680Y031914D02*
X040069Y031914D01*
X040596Y033392D02*
X041680Y033392D01*
X041680Y033490D02*
X040695Y033490D01*
X040785Y033589D02*
X041680Y033589D01*
X041680Y033687D02*
X040785Y033687D01*
X040785Y033786D02*
X041680Y033786D01*
X041680Y033884D02*
X040785Y033884D01*
X040722Y033983D02*
X041680Y033983D01*
X041680Y034081D02*
X040624Y034081D01*
X041567Y034377D02*
X039500Y034377D01*
X039500Y034278D02*
X041666Y034278D01*
X041680Y034180D02*
X039500Y034180D01*
X034570Y036445D02*
X032807Y036445D01*
X032708Y036544D02*
X034356Y036544D01*
X034257Y036642D02*
X032610Y036642D01*
X032511Y036741D02*
X034165Y036741D01*
X034124Y036839D02*
X032413Y036839D01*
X032314Y036938D02*
X034083Y036938D01*
X034059Y037036D02*
X032216Y037036D01*
X032117Y037135D02*
X034059Y037135D01*
X034059Y037233D02*
X031973Y037233D01*
X030830Y037332D02*
X034059Y037332D01*
X031447Y036051D02*
X030909Y036051D01*
X030655Y037627D02*
X030595Y037627D01*
X030595Y037726D02*
X030655Y037726D01*
X030655Y037824D02*
X030595Y037824D01*
X030595Y037923D02*
X030655Y037923D01*
X030655Y038021D02*
X030595Y038021D01*
X030595Y038120D02*
X030655Y038120D01*
X030655Y038218D02*
X030595Y038218D01*
X030595Y038317D02*
X030655Y038317D01*
X030655Y038415D02*
X030595Y038415D01*
X030595Y038514D02*
X030655Y038514D01*
X028456Y032899D02*
X000500Y032899D01*
X000500Y032801D02*
X028358Y032801D01*
X028259Y032702D02*
X000500Y032702D01*
X000500Y032604D02*
X028161Y032604D01*
X028062Y032505D02*
X000500Y032505D01*
X000500Y032407D02*
X027964Y032407D01*
X027865Y032308D02*
X000500Y032308D01*
X000500Y032210D02*
X027806Y032210D01*
X027766Y032111D02*
X000500Y032111D01*
X000500Y032013D02*
X027760Y032013D01*
X027760Y031914D02*
X000500Y031914D01*
X000500Y031816D02*
X027760Y031816D01*
X027760Y031717D02*
X000500Y031717D01*
X000500Y031619D02*
X027760Y031619D01*
X027760Y031520D02*
X000500Y031520D01*
X000500Y031422D02*
X007000Y031422D01*
X007000Y031323D02*
X000500Y031323D01*
X000500Y031225D02*
X007000Y031225D01*
X007000Y031126D02*
X000500Y031126D01*
X000500Y031028D02*
X007000Y031028D01*
X007000Y030929D02*
X000500Y030929D01*
X000500Y030831D02*
X007000Y030831D01*
X007000Y030732D02*
X000500Y030732D01*
X000500Y030634D02*
X007000Y030634D01*
X007000Y030535D02*
X000500Y030535D01*
X000500Y030437D02*
X007000Y030437D01*
X007000Y030338D02*
X000500Y030338D01*
X000500Y030240D02*
X007000Y030240D01*
X007000Y030141D02*
X000500Y030141D01*
X000500Y030043D02*
X007000Y030043D01*
X007000Y029944D02*
X000500Y029944D01*
X000500Y029846D02*
X007000Y029846D01*
X007000Y029747D02*
X000500Y029747D01*
X000500Y029649D02*
X007000Y029649D01*
X007000Y029550D02*
X000500Y029550D01*
X000500Y029452D02*
X007000Y029452D01*
X007000Y029353D02*
X000500Y029353D01*
X000500Y029255D02*
X007000Y029255D01*
X007000Y029156D02*
X000500Y029156D01*
X000500Y029058D02*
X007000Y029058D01*
X007000Y028959D02*
X000500Y028959D01*
X000500Y028861D02*
X007000Y028861D01*
X007000Y028762D02*
X000500Y028762D01*
X000500Y028664D02*
X007000Y028664D01*
X007000Y028565D02*
X000500Y028565D01*
X000500Y028467D02*
X007000Y028467D01*
X007000Y028368D02*
X000500Y028368D01*
X000500Y028270D02*
X007000Y028270D01*
X007000Y028171D02*
X000500Y028171D01*
X000500Y028073D02*
X007000Y028073D01*
X007000Y027974D02*
X000500Y027974D01*
X000500Y027876D02*
X007000Y027876D01*
X007000Y027777D02*
X000500Y027777D01*
X000500Y027679D02*
X007000Y027679D01*
X007000Y027580D02*
X000500Y027580D01*
X000500Y027482D02*
X007000Y027482D01*
X007000Y027383D02*
X000500Y027383D01*
X000500Y027285D02*
X007000Y027285D01*
X007000Y027186D02*
X000500Y027186D01*
X000500Y027088D02*
X007000Y027088D01*
X007000Y026989D02*
X000500Y026989D01*
X000500Y026891D02*
X007000Y026891D01*
X007000Y026792D02*
X000500Y026792D01*
X000500Y026694D02*
X007000Y026694D01*
X007000Y026595D02*
X000500Y026595D01*
X000500Y026497D02*
X007000Y026497D01*
X007000Y026398D02*
X000500Y026398D01*
X000500Y026300D02*
X007000Y026300D01*
X007000Y026201D02*
X000500Y026201D01*
X000500Y026103D02*
X007000Y026103D01*
X007000Y026004D02*
X000500Y026004D01*
X000500Y025906D02*
X007000Y025906D01*
X007000Y025807D02*
X000500Y025807D01*
X000500Y025709D02*
X007000Y025709D01*
X007000Y025610D02*
X000500Y025610D01*
X000500Y025512D02*
X007000Y025512D01*
X007000Y025413D02*
X000500Y025413D01*
X000500Y025315D02*
X007000Y025315D01*
X007000Y025216D02*
X000500Y025216D01*
X000500Y025118D02*
X007000Y025118D01*
X007000Y025019D02*
X000500Y025019D01*
X000500Y024921D02*
X007000Y024921D01*
X007000Y024822D02*
X000500Y024822D01*
X000500Y024724D02*
X007000Y024724D01*
X007000Y024625D02*
X000500Y024625D01*
X000500Y024527D02*
X007000Y024527D01*
X007000Y024428D02*
X000500Y024428D01*
X000500Y024330D02*
X007000Y024330D01*
X007000Y024231D02*
X000500Y024231D01*
X000500Y024133D02*
X007000Y024133D01*
X007000Y024034D02*
X000500Y024034D01*
X000500Y023936D02*
X007000Y023936D01*
X007000Y023837D02*
X000500Y023837D01*
X000500Y023739D02*
X007000Y023739D01*
X007000Y023640D02*
X000500Y023640D01*
X000500Y023542D02*
X007000Y023542D01*
X007000Y023443D02*
X000500Y023443D01*
X000500Y023345D02*
X007000Y023345D01*
X007000Y023246D02*
X000500Y023246D01*
X000500Y023148D02*
X007000Y023148D01*
X007000Y023049D02*
X000500Y023049D01*
X000500Y022951D02*
X007000Y022951D01*
X007000Y022852D02*
X000500Y022852D01*
X000500Y022754D02*
X007000Y022754D01*
X007000Y022655D02*
X000500Y022655D01*
X000500Y022557D02*
X007000Y022557D01*
X007000Y022458D02*
X000500Y022458D01*
X000500Y022360D02*
X007000Y022360D01*
X007000Y022261D02*
X000500Y022261D01*
X000500Y022163D02*
X007000Y022163D01*
X007000Y022064D02*
X000500Y022064D01*
X000500Y021966D02*
X007000Y021966D01*
X007000Y021867D02*
X000500Y021867D01*
X000500Y021769D02*
X007000Y021769D01*
X007000Y021670D02*
X000500Y021670D01*
X000500Y021572D02*
X007000Y021572D01*
X007000Y021473D02*
X006722Y021473D01*
X006862Y021375D02*
X007000Y021375D01*
X007000Y021276D02*
X006943Y021276D01*
X006988Y021178D02*
X007000Y021178D01*
X006548Y021178D02*
X006448Y021178D01*
X006448Y021276D02*
X006548Y021276D01*
X006548Y021375D02*
X006448Y021375D01*
X006448Y021473D02*
X006548Y021473D01*
X006273Y021473D02*
X000500Y021473D01*
X000500Y021375D02*
X006133Y021375D01*
X006053Y021276D02*
X006016Y021203D01*
X005983Y021079D02*
X000500Y021079D01*
X000500Y020981D02*
X006448Y020981D01*
X006448Y021079D02*
X006548Y021079D01*
X005990Y020882D02*
X006016Y020804D01*
X006086Y020685D02*
X000500Y020685D01*
X000500Y020587D02*
X006034Y020587D01*
X005935Y020488D02*
X000500Y020488D01*
X000500Y020390D02*
X005856Y020390D01*
X005816Y020291D02*
X000500Y020291D01*
X000500Y020193D02*
X005775Y020193D01*
X005758Y020094D02*
X000500Y020094D01*
X000500Y019996D02*
X005758Y019996D01*
X005758Y019897D02*
X000500Y019897D01*
X000500Y019799D02*
X005782Y019799D01*
X005822Y019700D02*
X000500Y019700D01*
X000500Y019602D02*
X005863Y019602D01*
X005950Y019503D02*
X000500Y019503D01*
X000500Y019405D02*
X005863Y019405D01*
X005822Y019306D02*
X000500Y019306D01*
X000500Y019208D02*
X005781Y019208D01*
X005758Y019109D02*
X000500Y019109D01*
X000500Y019011D02*
X005758Y019011D01*
X005758Y018912D02*
X000500Y018912D01*
X000500Y018814D02*
X005775Y018814D01*
X005816Y018715D02*
X000500Y018715D01*
X000500Y018617D02*
X005857Y018617D01*
X005937Y018518D02*
X000500Y018518D01*
X000500Y018420D02*
X005869Y018420D01*
X005828Y018321D02*
X000500Y018321D01*
X000500Y018223D02*
X005787Y018223D01*
X005758Y018124D02*
X000500Y018124D01*
X000500Y018026D02*
X005758Y018026D01*
X005758Y017927D02*
X000500Y017927D01*
X000500Y017829D02*
X005769Y017829D01*
X005810Y017730D02*
X000500Y017730D01*
X000500Y017632D02*
X005851Y017632D01*
X005922Y017533D02*
X000500Y017533D01*
X000500Y017435D02*
X005882Y017435D01*
X005834Y017336D02*
X000500Y017336D01*
X000500Y017238D02*
X005793Y017238D01*
X005758Y017139D02*
X000500Y017139D01*
X000500Y017041D02*
X005758Y017041D01*
X005758Y016942D02*
X000500Y016942D01*
X000500Y016844D02*
X005763Y016844D01*
X005804Y016745D02*
X000500Y016745D01*
X000500Y016647D02*
X005845Y016647D01*
X005907Y016548D02*
X000500Y016548D01*
X000500Y016450D02*
X005897Y016450D01*
X005841Y016351D02*
X000500Y016351D01*
X000500Y016253D02*
X005800Y016253D01*
X005759Y016154D02*
X000500Y016154D01*
X000500Y016056D02*
X005758Y016056D01*
X005758Y015957D02*
X000500Y015957D01*
X000500Y015859D02*
X005758Y015859D01*
X005798Y015760D02*
X000500Y015760D01*
X000500Y015662D02*
X005838Y015662D01*
X005892Y015563D02*
X000500Y015563D01*
X000500Y015465D02*
X005912Y015465D01*
X005847Y015366D02*
X000500Y015366D01*
X000500Y015268D02*
X005806Y015268D01*
X005765Y015169D02*
X000500Y015169D01*
X000500Y015071D02*
X005758Y015071D01*
X005758Y014972D02*
X000500Y014972D01*
X000500Y014874D02*
X005758Y014874D01*
X005791Y014775D02*
X000500Y014775D01*
X000500Y014677D02*
X005832Y014677D01*
X005877Y014578D02*
X000500Y014578D01*
X000500Y014480D02*
X005927Y014480D01*
X005853Y014381D02*
X000500Y014381D01*
X000500Y014283D02*
X005812Y014283D01*
X005771Y014184D02*
X000500Y014184D01*
X000500Y014086D02*
X005758Y014086D01*
X005758Y013987D02*
X000500Y013987D01*
X000500Y013889D02*
X005758Y013889D01*
X005785Y013790D02*
X000500Y013790D01*
X000500Y013692D02*
X005826Y013692D01*
X005867Y013593D02*
X000500Y013593D01*
X000500Y013495D02*
X005942Y013495D01*
X005859Y013396D02*
X000500Y013396D01*
X000500Y013298D02*
X005818Y013298D01*
X005778Y013199D02*
X000500Y013199D01*
X000500Y013101D02*
X005758Y013101D01*
X005758Y013002D02*
X000500Y013002D01*
X000500Y012904D02*
X005758Y012904D01*
X005779Y012805D02*
X000500Y012805D01*
X000500Y012707D02*
X005820Y012707D01*
X005861Y012608D02*
X000500Y012608D01*
X000500Y012510D02*
X005945Y012510D01*
X005865Y012411D02*
X000500Y012411D01*
X000500Y012313D02*
X005825Y012313D01*
X005784Y012214D02*
X000500Y012214D01*
X000500Y012116D02*
X005758Y012116D01*
X005758Y012017D02*
X000500Y012017D01*
X000500Y011919D02*
X005758Y011919D01*
X005773Y011820D02*
X000500Y011820D01*
X000500Y011722D02*
X005814Y011722D01*
X005854Y011623D02*
X000500Y011623D01*
X000500Y011525D02*
X005930Y011525D01*
X005873Y011426D02*
X000500Y011426D01*
X000500Y011328D02*
X005831Y011328D01*
X005790Y011229D02*
X000500Y011229D01*
X000500Y011131D02*
X005758Y011131D01*
X005758Y011032D02*
X000500Y011032D01*
X000500Y010934D02*
X005758Y010934D01*
X005767Y010835D02*
X000500Y010835D01*
X000500Y010737D02*
X005807Y010737D01*
X005848Y010638D02*
X000500Y010638D01*
X000500Y010540D02*
X005915Y010540D01*
X006014Y010441D02*
X000500Y010441D01*
X000500Y010343D02*
X006101Y010343D01*
X006036Y010244D02*
X000500Y010244D01*
X000500Y010146D02*
X005997Y010146D01*
X005980Y009949D02*
X000500Y009949D01*
X000500Y010047D02*
X006448Y010047D01*
X006001Y009850D02*
X000500Y009850D01*
X000500Y009752D02*
X006043Y009752D01*
X006113Y009653D02*
X000500Y009653D01*
X000500Y009555D02*
X006002Y009555D01*
X005903Y009456D02*
X000500Y009456D01*
X000500Y009358D02*
X002528Y009358D01*
X002580Y009410D02*
X002340Y009170D01*
X002340Y009030D01*
X002720Y009030D01*
X002720Y009410D01*
X002580Y009410D01*
X002720Y009358D02*
X002780Y009358D01*
X002780Y009410D02*
X002780Y009030D01*
X002720Y009030D01*
X002720Y008970D01*
X002340Y008970D01*
X002340Y008830D01*
X002580Y008590D01*
X002720Y008590D01*
X002720Y008970D01*
X002780Y008970D01*
X002780Y009030D01*
X003160Y009030D01*
X003160Y009170D01*
X002920Y009410D01*
X002780Y009410D01*
X002780Y009259D02*
X002720Y009259D01*
X002720Y009161D02*
X002780Y009161D01*
X002780Y009062D02*
X002720Y009062D01*
X002720Y008964D02*
X002780Y008964D01*
X002780Y008970D02*
X002780Y008590D01*
X002920Y008590D01*
X003160Y008830D01*
X003160Y008970D01*
X002780Y008970D01*
X002780Y008865D02*
X002720Y008865D01*
X002720Y008767D02*
X002780Y008767D01*
X002780Y008668D02*
X002720Y008668D01*
X002502Y008668D02*
X000500Y008668D01*
X000500Y008570D02*
X005885Y008570D01*
X005918Y008471D02*
X000500Y008471D01*
X000500Y008373D02*
X005849Y008373D01*
X005809Y008274D02*
X000500Y008274D01*
X000500Y008176D02*
X005768Y008176D01*
X005758Y008077D02*
X000500Y008077D01*
X000500Y007979D02*
X005758Y007979D01*
X005758Y007880D02*
X000500Y007880D01*
X000500Y007782D02*
X005789Y007782D01*
X005830Y007683D02*
X000500Y007683D01*
X000500Y007585D02*
X002444Y007585D01*
X002345Y007486D02*
X000500Y007486D01*
X000500Y007388D02*
X002247Y007388D01*
X002148Y007289D02*
X000500Y007289D01*
X000500Y007191D02*
X002120Y007191D01*
X002120Y007092D02*
X000500Y007092D01*
X000500Y006994D02*
X002120Y006994D01*
X002120Y006895D02*
X000500Y006895D01*
X000500Y006797D02*
X002120Y006797D01*
X002161Y006698D02*
X000500Y006698D01*
X000500Y006600D02*
X002260Y006600D01*
X002358Y006501D02*
X000500Y006501D01*
X000500Y006403D02*
X002457Y006403D01*
X000500Y006304D02*
X005978Y006304D01*
X005978Y006206D02*
X000500Y006206D01*
X000500Y006107D02*
X005978Y006107D01*
X005978Y005954D02*
X005978Y005614D01*
X005988Y005576D01*
X006008Y005542D01*
X006036Y005514D01*
X006070Y005494D01*
X006108Y005484D01*
X006448Y005484D01*
X006448Y005954D01*
X005978Y005954D01*
X005978Y005910D02*
X000500Y005910D01*
X000500Y005812D02*
X005978Y005812D01*
X005978Y005713D02*
X000500Y005713D01*
X000500Y005615D02*
X005978Y005615D01*
X006033Y005516D02*
X000500Y005516D01*
X000500Y005418D02*
X007000Y005418D01*
X007000Y005516D02*
X006962Y005516D01*
X007000Y005319D02*
X000500Y005319D01*
X000500Y005221D02*
X007000Y005221D01*
X007000Y005122D02*
X000500Y005122D01*
X000500Y005024D02*
X007000Y005024D01*
X007000Y004925D02*
X000500Y004925D01*
X000500Y004827D02*
X007000Y004827D01*
X007000Y004728D02*
X000500Y004728D01*
X000500Y004630D02*
X007000Y004630D01*
X007000Y004531D02*
X000500Y004531D01*
X000500Y004433D02*
X007000Y004433D01*
X007000Y004334D02*
X000500Y004334D01*
X000500Y004236D02*
X007000Y004236D01*
X007000Y004137D02*
X000500Y004137D01*
X000500Y004039D02*
X007000Y004039D01*
X007000Y003940D02*
X004000Y003940D01*
X004000Y003842D02*
X007000Y003842D01*
X007000Y003743D02*
X004000Y003743D01*
X004000Y003645D02*
X007000Y003645D01*
X007000Y003546D02*
X004000Y003546D01*
X004000Y003448D02*
X007000Y003448D01*
X007000Y003349D02*
X004000Y003349D01*
X004000Y003251D02*
X007000Y003251D01*
X007000Y003152D02*
X004000Y003152D01*
X004000Y003054D02*
X007000Y003054D01*
X007000Y002955D02*
X005654Y002955D01*
X005476Y003029D02*
X005078Y003029D01*
X004710Y002876D01*
X004428Y002595D01*
X004276Y002227D01*
X004276Y001828D01*
X004428Y001460D01*
X004710Y001179D01*
X005078Y001026D01*
X005476Y001026D01*
X005844Y001179D01*
X006126Y001460D01*
X006278Y001828D01*
X006278Y002227D01*
X006126Y002595D01*
X005844Y002876D01*
X005476Y003029D01*
X005864Y002857D02*
X007000Y002857D01*
X007000Y002758D02*
X005962Y002758D01*
X006061Y002660D02*
X007000Y002660D01*
X007000Y002561D02*
X006140Y002561D01*
X006181Y002463D02*
X007000Y002463D01*
X007000Y002364D02*
X006221Y002364D01*
X006262Y002266D02*
X007000Y002266D01*
X007000Y002167D02*
X006278Y002167D01*
X006278Y002069D02*
X007000Y002069D01*
X007000Y001970D02*
X006278Y001970D01*
X006278Y001872D02*
X007000Y001872D01*
X007000Y001773D02*
X006255Y001773D01*
X006215Y001675D02*
X007000Y001675D01*
X007000Y001576D02*
X006174Y001576D01*
X006133Y001478D02*
X007000Y001478D01*
X007000Y001379D02*
X006045Y001379D01*
X005946Y001281D02*
X007000Y001281D01*
X007000Y001182D02*
X005848Y001182D01*
X005615Y001084D02*
X007000Y001084D01*
X007000Y000985D02*
X004000Y000985D01*
X004000Y000887D02*
X007000Y000887D01*
X007000Y000788D02*
X004000Y000788D01*
X004000Y000690D02*
X007000Y000690D01*
X007000Y000591D02*
X004000Y000591D01*
X004000Y001084D02*
X004940Y001084D01*
X004707Y001182D02*
X004000Y001182D01*
X004000Y001281D02*
X004608Y001281D01*
X004510Y001379D02*
X004000Y001379D01*
X004000Y001478D02*
X004421Y001478D01*
X004380Y001576D02*
X004000Y001576D01*
X004000Y001675D02*
X004340Y001675D01*
X004299Y001773D02*
X004000Y001773D01*
X004000Y001872D02*
X004276Y001872D01*
X004276Y001970D02*
X004000Y001970D01*
X004000Y002069D02*
X004276Y002069D01*
X004276Y002167D02*
X004000Y002167D01*
X004000Y002266D02*
X004292Y002266D01*
X004333Y002364D02*
X004000Y002364D01*
X004000Y002463D02*
X004374Y002463D01*
X004415Y002561D02*
X004000Y002561D01*
X004000Y002660D02*
X004493Y002660D01*
X004592Y002758D02*
X004000Y002758D01*
X004000Y002857D02*
X004690Y002857D01*
X004900Y002955D02*
X004000Y002955D01*
X006448Y005516D02*
X006548Y005516D01*
X006548Y005615D02*
X006448Y005615D01*
X006448Y005713D02*
X006548Y005713D01*
X006548Y005812D02*
X006448Y005812D01*
X006448Y005910D02*
X006548Y005910D01*
X006448Y006009D02*
X000500Y006009D01*
X002998Y008668D02*
X005836Y008668D01*
X005795Y008767D02*
X003096Y008767D01*
X003160Y008865D02*
X005758Y008865D01*
X005758Y008964D02*
X003160Y008964D01*
X003160Y009062D02*
X005758Y009062D01*
X005762Y009161D02*
X003160Y009161D01*
X003071Y009259D02*
X005802Y009259D01*
X005843Y009358D02*
X002972Y009358D01*
X002429Y009259D02*
X000500Y009259D01*
X000500Y009161D02*
X002340Y009161D01*
X002340Y009062D02*
X000500Y009062D01*
X000500Y008964D02*
X002340Y008964D01*
X002340Y008865D02*
X000500Y008865D01*
X000500Y008767D02*
X002404Y008767D01*
X007875Y008514D02*
X026043Y008514D01*
X026710Y007847D01*
X026847Y007710D01*
X027028Y007635D01*
X034097Y007635D01*
X034278Y007710D01*
X037510Y010942D01*
X037510Y007278D01*
X037585Y007097D01*
X038245Y006437D01*
X038245Y006239D01*
X038614Y005870D01*
X039136Y005870D01*
X039505Y006239D01*
X039505Y006677D01*
X039960Y006222D01*
X040097Y006085D01*
X040278Y006010D01*
X044099Y006010D01*
X044239Y005870D01*
X044761Y005870D01*
X045130Y006239D01*
X045130Y006761D01*
X044761Y007130D01*
X044239Y007130D01*
X044099Y006990D01*
X040578Y006990D01*
X039115Y008453D01*
X039115Y013000D01*
X042500Y013000D01*
X042500Y013294D01*
X042544Y013187D01*
X042737Y012994D01*
X042989Y012890D01*
X043261Y012890D01*
X043513Y012994D01*
X043604Y013085D01*
X044797Y013085D01*
X044978Y013160D01*
X045203Y013385D01*
X045224Y013385D01*
X045364Y013245D01*
X045886Y013245D01*
X046255Y013614D01*
X046255Y014136D01*
X045886Y014505D01*
X045364Y014505D01*
X045224Y014365D01*
X044903Y014365D01*
X044722Y014290D01*
X044585Y014153D01*
X044497Y014065D01*
X043615Y014065D01*
X043615Y014474D01*
X043755Y014614D01*
X043755Y015136D01*
X043516Y015375D01*
X043526Y015385D01*
X044722Y015385D01*
X044903Y015460D01*
X045828Y016385D01*
X046724Y016385D01*
X046734Y016375D01*
X046495Y016136D01*
X046495Y015614D01*
X046635Y015474D01*
X046635Y015276D01*
X046495Y015136D01*
X046495Y014614D01*
X046864Y014245D01*
X047386Y014245D01*
X047526Y014385D01*
X047791Y014385D01*
X047887Y014152D01*
X048132Y013907D01*
X048452Y013775D01*
X048798Y013775D01*
X049118Y013907D01*
X049285Y014075D01*
X049508Y014075D01*
X049718Y014162D01*
X051209Y015653D01*
X052057Y015653D01*
X051534Y015129D01*
X051121Y015129D01*
X050855Y015019D01*
X050652Y014816D01*
X050542Y014550D01*
X050542Y014263D01*
X050652Y013997D01*
X050855Y013794D01*
X051121Y013684D01*
X052113Y013684D01*
X052379Y013794D01*
X052582Y013997D01*
X052692Y014263D01*
X052692Y014550D01*
X052655Y014639D01*
X053500Y015483D01*
X053500Y004000D01*
X050000Y004000D01*
X050000Y000500D01*
X007875Y000500D01*
X007875Y006384D01*
X008618Y006384D01*
X008627Y006380D01*
X008873Y006380D01*
X008882Y006384D01*
X022239Y006384D01*
X025649Y002974D01*
X025877Y002880D01*
X026373Y002880D01*
X026364Y002876D01*
X026082Y002595D01*
X025930Y002227D01*
X025930Y001828D01*
X026082Y001460D01*
X026364Y001179D01*
X026732Y001026D01*
X027130Y001026D01*
X027498Y001179D01*
X027779Y001460D01*
X027932Y001828D01*
X027932Y002227D01*
X027779Y002595D01*
X027498Y002876D01*
X027489Y002880D01*
X030123Y002880D01*
X030351Y002974D01*
X030526Y003149D01*
X030620Y003377D01*
X030620Y003623D01*
X030526Y003851D01*
X030367Y004010D01*
X030656Y004010D01*
X030666Y004000D01*
X030883Y003910D01*
X031117Y003910D01*
X031334Y004000D01*
X031500Y004166D01*
X031590Y004383D01*
X031590Y004617D01*
X031500Y004834D01*
X031334Y005000D01*
X031117Y005090D01*
X030883Y005090D01*
X030666Y005000D01*
X030656Y004990D01*
X027578Y004990D01*
X024149Y008419D01*
X023969Y008494D01*
X007875Y008494D01*
X007875Y008514D01*
X007875Y006304D02*
X022319Y006304D01*
X022418Y006206D02*
X007875Y006206D01*
X007875Y006107D02*
X022516Y006107D01*
X022615Y006009D02*
X007875Y006009D01*
X007875Y005910D02*
X022713Y005910D01*
X022812Y005812D02*
X007875Y005812D01*
X007875Y005713D02*
X022910Y005713D01*
X023009Y005615D02*
X007875Y005615D01*
X007875Y005516D02*
X023107Y005516D01*
X023206Y005418D02*
X007875Y005418D01*
X007875Y005319D02*
X023304Y005319D01*
X023403Y005221D02*
X007875Y005221D01*
X007875Y005122D02*
X023501Y005122D01*
X023600Y005024D02*
X007875Y005024D01*
X007875Y004925D02*
X023698Y004925D01*
X023797Y004827D02*
X007875Y004827D01*
X007875Y004728D02*
X023895Y004728D01*
X023994Y004630D02*
X007875Y004630D01*
X007875Y004531D02*
X024092Y004531D01*
X024191Y004433D02*
X007875Y004433D01*
X007875Y004334D02*
X024289Y004334D01*
X024388Y004236D02*
X007875Y004236D01*
X007875Y004137D02*
X024486Y004137D01*
X024585Y004039D02*
X007875Y004039D01*
X007875Y003940D02*
X024683Y003940D01*
X024782Y003842D02*
X007875Y003842D01*
X007875Y003743D02*
X024880Y003743D01*
X024979Y003645D02*
X007875Y003645D01*
X007875Y003546D02*
X025077Y003546D01*
X025176Y003448D02*
X007875Y003448D01*
X007875Y003349D02*
X025274Y003349D01*
X025373Y003251D02*
X007875Y003251D01*
X007875Y003152D02*
X025471Y003152D01*
X025570Y003054D02*
X007875Y003054D01*
X007875Y002955D02*
X025696Y002955D01*
X026147Y002660D02*
X007875Y002660D01*
X007875Y002758D02*
X026245Y002758D01*
X026344Y002857D02*
X007875Y002857D01*
X007875Y002561D02*
X026068Y002561D01*
X026027Y002463D02*
X007875Y002463D01*
X007875Y002364D02*
X025986Y002364D01*
X025946Y002266D02*
X007875Y002266D01*
X007875Y002167D02*
X025930Y002167D01*
X025930Y002069D02*
X007875Y002069D01*
X007875Y001970D02*
X025930Y001970D01*
X025930Y001872D02*
X007875Y001872D01*
X007875Y001773D02*
X025952Y001773D01*
X025993Y001675D02*
X007875Y001675D01*
X007875Y001576D02*
X026034Y001576D01*
X026075Y001478D02*
X007875Y001478D01*
X007875Y001379D02*
X026163Y001379D01*
X026262Y001281D02*
X007875Y001281D01*
X007875Y001182D02*
X026360Y001182D01*
X026593Y001084D02*
X007875Y001084D01*
X007875Y000985D02*
X050000Y000985D01*
X050000Y000887D02*
X007875Y000887D01*
X007875Y000788D02*
X050000Y000788D01*
X050000Y000690D02*
X007875Y000690D01*
X007875Y000591D02*
X050000Y000591D01*
X050000Y001084D02*
X027268Y001084D01*
X027501Y001182D02*
X050000Y001182D01*
X050000Y001281D02*
X027600Y001281D01*
X027698Y001379D02*
X050000Y001379D01*
X050000Y001478D02*
X046411Y001478D01*
X046284Y001425D02*
X046550Y001535D01*
X046753Y001738D01*
X046863Y002004D01*
X046863Y002273D01*
X046865Y002278D01*
X046865Y002472D01*
X046863Y002477D01*
X046863Y002996D01*
X046753Y003262D01*
X046550Y003465D01*
X046284Y003575D01*
X045997Y003575D01*
X045731Y003465D01*
X045528Y003262D01*
X045418Y002996D01*
X045418Y002990D01*
X044901Y002990D01*
X044761Y003130D01*
X044239Y003130D01*
X043870Y002761D01*
X043870Y002239D01*
X044239Y001870D01*
X044761Y001870D01*
X044901Y002010D01*
X045418Y002010D01*
X045418Y002004D01*
X045528Y001738D01*
X045731Y001535D01*
X045997Y001425D01*
X046284Y001425D01*
X046591Y001576D02*
X050000Y001576D01*
X050000Y001675D02*
X048280Y001675D01*
X048302Y001682D02*
X048373Y001718D01*
X048437Y001764D01*
X048493Y001820D01*
X048539Y001884D01*
X048575Y001955D01*
X048599Y002030D01*
X048612Y002108D01*
X048612Y002450D01*
X048159Y002450D01*
X048159Y001647D01*
X048227Y001657D01*
X048302Y001682D01*
X048159Y001675D02*
X048059Y001675D01*
X048059Y001647D02*
X048059Y002450D01*
X047607Y002450D01*
X047607Y002108D01*
X047619Y002030D01*
X047644Y001955D01*
X047679Y001884D01*
X047726Y001820D01*
X047782Y001764D01*
X047846Y001718D01*
X047916Y001682D01*
X047992Y001657D01*
X048059Y001647D01*
X047939Y001675D02*
X046690Y001675D01*
X046768Y001773D02*
X047773Y001773D01*
X047689Y001872D02*
X046808Y001872D01*
X046849Y001970D02*
X047639Y001970D01*
X047613Y002069D02*
X046863Y002069D01*
X046863Y002167D02*
X047607Y002167D01*
X047607Y002266D02*
X046863Y002266D01*
X046865Y002364D02*
X047607Y002364D01*
X047607Y002550D02*
X048059Y002550D01*
X048059Y002450D01*
X048159Y002450D01*
X048159Y002550D01*
X048059Y002550D01*
X048059Y003353D01*
X047992Y003343D01*
X047916Y003318D01*
X047846Y003282D01*
X047782Y003236D01*
X047726Y003180D01*
X047679Y003116D01*
X047644Y003045D01*
X047619Y002970D01*
X047607Y002892D01*
X047607Y002550D01*
X047607Y002561D02*
X046863Y002561D01*
X046863Y002660D02*
X047607Y002660D01*
X047607Y002758D02*
X046863Y002758D01*
X046863Y002857D02*
X047607Y002857D01*
X047617Y002955D02*
X046863Y002955D01*
X046840Y003054D02*
X047648Y003054D01*
X047706Y003152D02*
X046799Y003152D01*
X046758Y003251D02*
X047802Y003251D01*
X048032Y003349D02*
X046666Y003349D01*
X046568Y003448D02*
X050000Y003448D01*
X050000Y003546D02*
X046354Y003546D01*
X045927Y003546D02*
X040729Y003546D01*
X040659Y003575D02*
X040372Y003575D01*
X040106Y003465D01*
X039903Y003262D01*
X039793Y002996D01*
X039793Y002990D01*
X039276Y002990D01*
X039136Y003130D01*
X038614Y003130D01*
X038245Y002761D01*
X038245Y002239D01*
X038614Y001870D01*
X039136Y001870D01*
X039276Y002010D01*
X039793Y002010D01*
X039793Y002004D01*
X039903Y001738D01*
X040106Y001535D01*
X040372Y001425D01*
X040659Y001425D01*
X040925Y001535D01*
X041128Y001738D01*
X041238Y002004D01*
X041238Y002996D01*
X041128Y003262D01*
X040925Y003465D01*
X040659Y003575D01*
X040943Y003448D02*
X045714Y003448D01*
X045615Y003349D02*
X042562Y003349D01*
X042534Y003349D02*
X042434Y003349D01*
X042434Y003353D02*
X042367Y003343D01*
X042291Y003318D01*
X042221Y003282D01*
X042157Y003236D01*
X042101Y003180D01*
X042054Y003116D01*
X042019Y003045D01*
X041994Y002970D01*
X041982Y002892D01*
X041982Y002550D01*
X042434Y002550D01*
X042434Y002450D01*
X041982Y002450D01*
X041982Y002108D01*
X041994Y002030D01*
X042019Y001955D01*
X042054Y001884D01*
X042101Y001820D01*
X042157Y001764D01*
X042221Y001718D01*
X042291Y001682D01*
X042367Y001657D01*
X042434Y001647D01*
X042434Y002450D01*
X042534Y002450D01*
X042534Y001647D01*
X042602Y001657D01*
X042677Y001682D01*
X042748Y001718D01*
X042812Y001764D01*
X042868Y001820D01*
X042914Y001884D01*
X042950Y001955D01*
X042974Y002030D01*
X042987Y002108D01*
X042987Y002450D01*
X042534Y002450D01*
X042534Y002550D01*
X042434Y002550D01*
X042434Y003353D01*
X042407Y003349D02*
X041041Y003349D01*
X041133Y003251D02*
X042177Y003251D01*
X042081Y003152D02*
X041174Y003152D01*
X041215Y003054D02*
X042023Y003054D01*
X041992Y002955D02*
X041238Y002955D01*
X041238Y002857D02*
X041982Y002857D01*
X041982Y002758D02*
X041238Y002758D01*
X041238Y002660D02*
X041982Y002660D01*
X041982Y002561D02*
X041238Y002561D01*
X041238Y002463D02*
X042434Y002463D01*
X042434Y002561D02*
X042534Y002561D01*
X042534Y002550D02*
X042534Y003353D01*
X042602Y003343D01*
X042677Y003318D01*
X042748Y003282D01*
X042812Y003236D01*
X042868Y003180D01*
X042914Y003116D01*
X042950Y003045D01*
X042974Y002970D01*
X042987Y002892D01*
X042987Y002550D01*
X042534Y002550D01*
X042534Y002463D02*
X043870Y002463D01*
X043870Y002561D02*
X042987Y002561D01*
X042987Y002660D02*
X043870Y002660D01*
X043870Y002758D02*
X042987Y002758D01*
X042987Y002857D02*
X043966Y002857D01*
X044064Y002955D02*
X042977Y002955D01*
X042946Y003054D02*
X044163Y003054D01*
X044837Y003054D02*
X045442Y003054D01*
X045483Y003152D02*
X042888Y003152D01*
X042791Y003251D02*
X045524Y003251D01*
X046865Y002463D02*
X048059Y002463D01*
X048059Y002561D02*
X048159Y002561D01*
X048159Y002550D02*
X048159Y003353D01*
X048227Y003343D01*
X048302Y003318D01*
X048373Y003282D01*
X048437Y003236D01*
X048493Y003180D01*
X048539Y003116D01*
X048575Y003045D01*
X048599Y002970D01*
X048612Y002892D01*
X048612Y002550D01*
X048159Y002550D01*
X048159Y002463D02*
X050000Y002463D01*
X050000Y002561D02*
X048612Y002561D01*
X048612Y002660D02*
X050000Y002660D01*
X050000Y002758D02*
X048612Y002758D01*
X048612Y002857D02*
X050000Y002857D01*
X050000Y002955D02*
X048602Y002955D01*
X048571Y003054D02*
X050000Y003054D01*
X050000Y003152D02*
X048513Y003152D01*
X048416Y003251D02*
X050000Y003251D01*
X050000Y003349D02*
X048187Y003349D01*
X048159Y003349D02*
X048059Y003349D01*
X048059Y003251D02*
X048159Y003251D01*
X048159Y003152D02*
X048059Y003152D01*
X048059Y003054D02*
X048159Y003054D01*
X048159Y002955D02*
X048059Y002955D01*
X048059Y002857D02*
X048159Y002857D01*
X048159Y002758D02*
X048059Y002758D01*
X048059Y002660D02*
X048159Y002660D01*
X048159Y002364D02*
X048059Y002364D01*
X048059Y002266D02*
X048159Y002266D01*
X048159Y002167D02*
X048059Y002167D01*
X048059Y002069D02*
X048159Y002069D01*
X048159Y001970D02*
X048059Y001970D01*
X048059Y001872D02*
X048159Y001872D01*
X048159Y001773D02*
X048059Y001773D01*
X048445Y001773D02*
X050000Y001773D01*
X050000Y001872D02*
X048530Y001872D01*
X048580Y001970D02*
X050000Y001970D01*
X050000Y002069D02*
X048606Y002069D01*
X048612Y002167D02*
X050000Y002167D01*
X050000Y002266D02*
X048612Y002266D01*
X048612Y002364D02*
X050000Y002364D01*
X050000Y003645D02*
X032341Y003645D01*
X032328Y003675D02*
X032287Y003736D01*
X032236Y003787D01*
X032175Y003828D01*
X032108Y003856D01*
X032036Y003870D01*
X032010Y003870D01*
X032010Y003510D01*
X031990Y003510D01*
X031990Y003870D01*
X031964Y003870D01*
X031892Y003856D01*
X031825Y003828D01*
X031764Y003787D01*
X031713Y003736D01*
X031672Y003675D01*
X031644Y003608D01*
X031630Y003536D01*
X031630Y003510D01*
X031990Y003510D01*
X031990Y003490D01*
X031630Y003490D01*
X031630Y003464D01*
X031644Y003392D01*
X031672Y003325D01*
X031713Y003264D01*
X031764Y003213D01*
X031825Y003172D01*
X031892Y003144D01*
X031964Y003130D01*
X031990Y003130D01*
X031990Y003490D01*
X032010Y003490D01*
X032010Y003510D01*
X032370Y003510D01*
X032370Y003536D01*
X032356Y003608D01*
X032328Y003675D01*
X032280Y003743D02*
X050000Y003743D01*
X050000Y003842D02*
X032142Y003842D01*
X032010Y003842D02*
X031990Y003842D01*
X031990Y003743D02*
X032010Y003743D01*
X032010Y003645D02*
X031990Y003645D01*
X031990Y003546D02*
X032010Y003546D01*
X032010Y003490D02*
X032370Y003490D01*
X032370Y003464D01*
X032356Y003392D01*
X032328Y003325D01*
X032287Y003264D01*
X032236Y003213D01*
X032175Y003172D01*
X032108Y003144D01*
X032036Y003130D01*
X032010Y003130D01*
X032010Y003490D01*
X032010Y003448D02*
X031990Y003448D01*
X031990Y003349D02*
X032010Y003349D01*
X032010Y003251D02*
X031990Y003251D01*
X031990Y003152D02*
X032010Y003152D01*
X032127Y003152D02*
X039858Y003152D01*
X039899Y003251D02*
X032274Y003251D01*
X032338Y003349D02*
X039990Y003349D01*
X040089Y003448D02*
X032367Y003448D01*
X032368Y003546D02*
X040302Y003546D01*
X039817Y003054D02*
X039212Y003054D01*
X038538Y003054D02*
X030430Y003054D01*
X030527Y003152D02*
X031873Y003152D01*
X031726Y003251D02*
X030568Y003251D01*
X030609Y003349D02*
X031662Y003349D01*
X031633Y003448D02*
X030620Y003448D01*
X030620Y003546D02*
X031632Y003546D01*
X031659Y003645D02*
X030611Y003645D01*
X030570Y003743D02*
X031720Y003743D01*
X031858Y003842D02*
X030530Y003842D01*
X030437Y003940D02*
X030810Y003940D01*
X031190Y003940D02*
X050000Y003940D01*
X053500Y004039D02*
X031373Y004039D01*
X031471Y004137D02*
X053500Y004137D01*
X053500Y004236D02*
X031529Y004236D01*
X031570Y004334D02*
X053500Y004334D01*
X053500Y004433D02*
X031590Y004433D01*
X031590Y004531D02*
X053500Y004531D01*
X053500Y004630D02*
X031585Y004630D01*
X031544Y004728D02*
X053500Y004728D01*
X053500Y004827D02*
X031503Y004827D01*
X031409Y004925D02*
X053500Y004925D01*
X053500Y005024D02*
X031278Y005024D01*
X030722Y005024D02*
X027544Y005024D01*
X027446Y005122D02*
X053500Y005122D01*
X053500Y005221D02*
X027347Y005221D01*
X027249Y005319D02*
X053500Y005319D01*
X053500Y005418D02*
X027150Y005418D01*
X027052Y005516D02*
X053500Y005516D01*
X053500Y005615D02*
X026953Y005615D01*
X026855Y005713D02*
X053500Y005713D01*
X053500Y005812D02*
X026756Y005812D01*
X026658Y005910D02*
X038574Y005910D01*
X038476Y006009D02*
X026559Y006009D01*
X026461Y006107D02*
X038377Y006107D01*
X038279Y006206D02*
X026362Y006206D01*
X026264Y006304D02*
X038245Y006304D01*
X038245Y006403D02*
X026165Y006403D01*
X026067Y006501D02*
X038181Y006501D01*
X038083Y006600D02*
X025968Y006600D01*
X025870Y006698D02*
X037984Y006698D01*
X037886Y006797D02*
X025771Y006797D01*
X025673Y006895D02*
X037787Y006895D01*
X037689Y006994D02*
X025574Y006994D01*
X025476Y007092D02*
X037590Y007092D01*
X037546Y007191D02*
X025377Y007191D01*
X025279Y007289D02*
X037510Y007289D01*
X037510Y007388D02*
X025180Y007388D01*
X025082Y007486D02*
X037510Y007486D01*
X037510Y007585D02*
X024983Y007585D01*
X024885Y007683D02*
X026912Y007683D01*
X026776Y007782D02*
X024786Y007782D01*
X024688Y007880D02*
X026677Y007880D01*
X026579Y007979D02*
X024589Y007979D01*
X024491Y008077D02*
X026480Y008077D01*
X026382Y008176D02*
X024392Y008176D01*
X024294Y008274D02*
X026283Y008274D01*
X026185Y008373D02*
X024195Y008373D01*
X024024Y008471D02*
X026086Y008471D01*
X027869Y009949D02*
X033381Y009949D01*
X033479Y010047D02*
X027771Y010047D01*
X027672Y010146D02*
X033578Y010146D01*
X033676Y010244D02*
X027574Y010244D01*
X027475Y010343D02*
X033760Y010343D01*
X033760Y010441D02*
X027377Y010441D01*
X027278Y010540D02*
X033760Y010540D01*
X033760Y010638D02*
X027180Y010638D01*
X027081Y010737D02*
X032031Y010737D01*
X032057Y010710D02*
X031785Y010982D01*
X031785Y011145D01*
X032220Y011145D01*
X032220Y011205D01*
X032220Y011640D01*
X032057Y011640D01*
X031785Y011368D01*
X031785Y011205D01*
X032220Y011205D01*
X032280Y011205D01*
X032280Y011640D01*
X032443Y011640D01*
X032715Y011368D01*
X032715Y011205D01*
X032280Y011205D01*
X032280Y011145D01*
X032715Y011145D01*
X032715Y010982D01*
X032443Y010710D01*
X032280Y010710D01*
X032280Y011145D01*
X032220Y011145D01*
X032220Y010710D01*
X032057Y010710D01*
X032220Y010737D02*
X032280Y010737D01*
X032280Y010835D02*
X032220Y010835D01*
X032220Y010934D02*
X032280Y010934D01*
X032280Y011032D02*
X032220Y011032D01*
X032220Y011131D02*
X032280Y011131D01*
X032280Y011229D02*
X032220Y011229D01*
X032220Y011328D02*
X032280Y011328D01*
X032280Y011426D02*
X032220Y011426D01*
X032220Y011525D02*
X032280Y011525D01*
X032280Y011623D02*
X032220Y011623D01*
X032040Y011623D02*
X007875Y011623D01*
X007875Y011525D02*
X031942Y011525D01*
X031843Y011426D02*
X026382Y011426D01*
X026490Y011328D02*
X031785Y011328D01*
X031785Y011229D02*
X026589Y011229D01*
X026687Y011131D02*
X031785Y011131D01*
X031785Y011032D02*
X026786Y011032D01*
X026884Y010934D02*
X031834Y010934D01*
X031932Y010835D02*
X026983Y010835D01*
X027968Y009850D02*
X033282Y009850D01*
X033184Y009752D02*
X028066Y009752D01*
X028165Y009653D02*
X033085Y009653D01*
X032469Y010737D02*
X033760Y010737D01*
X033760Y010835D02*
X032568Y010835D01*
X032666Y010934D02*
X033760Y010934D01*
X033760Y011032D02*
X032715Y011032D01*
X032715Y011131D02*
X033760Y011131D01*
X033760Y011229D02*
X032715Y011229D01*
X032715Y011328D02*
X033760Y011328D01*
X033760Y011426D02*
X032657Y011426D01*
X032558Y011525D02*
X033760Y011525D01*
X033760Y011623D02*
X032460Y011623D01*
X032455Y011919D02*
X033760Y011919D01*
X033760Y012017D02*
X032661Y012017D01*
X032759Y012116D02*
X033760Y012116D01*
X033760Y012214D02*
X032842Y012214D01*
X032883Y012313D02*
X033760Y012313D01*
X033760Y012411D02*
X032924Y012411D01*
X032935Y012510D02*
X033760Y012510D01*
X033760Y012608D02*
X032935Y012608D01*
X032935Y012707D02*
X033760Y012707D01*
X033760Y012805D02*
X032896Y012805D01*
X032870Y012904D02*
X033760Y012904D01*
X033760Y013002D02*
X032870Y013002D01*
X032870Y013101D02*
X033760Y013101D01*
X033760Y013199D02*
X032870Y013199D01*
X032870Y013298D02*
X033760Y013298D01*
X033760Y013396D02*
X032870Y013396D01*
X032870Y013495D02*
X033760Y013495D01*
X033760Y013593D02*
X032870Y013593D01*
X032870Y013692D02*
X033760Y013692D01*
X033760Y013790D02*
X032870Y013790D01*
X032870Y013889D02*
X033777Y013889D01*
X033818Y013987D02*
X032870Y013987D01*
X032870Y014086D02*
X033893Y014086D01*
X033991Y014184D02*
X032870Y014184D01*
X032870Y014283D02*
X034090Y014283D01*
X034188Y014381D02*
X032870Y014381D01*
X032870Y014480D02*
X034287Y014480D01*
X034385Y014578D02*
X032870Y014578D01*
X032870Y014677D02*
X034484Y014677D01*
X034582Y014775D02*
X032870Y014775D01*
X032870Y014874D02*
X034681Y014874D01*
X034779Y014972D02*
X032870Y014972D01*
X032870Y015071D02*
X034878Y015071D01*
X034976Y015169D02*
X032870Y015169D01*
X032870Y015268D02*
X035075Y015268D01*
X035173Y015366D02*
X032870Y015366D01*
X032870Y015465D02*
X035272Y015465D01*
X035370Y015563D02*
X032870Y015563D01*
X032870Y015662D02*
X035469Y015662D01*
X035567Y015760D02*
X032870Y015760D01*
X032870Y015859D02*
X036009Y015859D01*
X035911Y015957D02*
X032870Y015957D01*
X032870Y016056D02*
X035870Y016056D01*
X035829Y016154D02*
X032870Y016154D01*
X032870Y016253D02*
X035805Y016253D01*
X035805Y016351D02*
X032870Y016351D01*
X032870Y016450D02*
X035805Y016450D01*
X035830Y016548D02*
X032870Y016548D01*
X032870Y016647D02*
X035871Y016647D01*
X035912Y016745D02*
X032870Y016745D01*
X032870Y016844D02*
X036011Y016844D01*
X035925Y016942D02*
X032870Y016942D01*
X032870Y017041D02*
X035876Y017041D01*
X035835Y017139D02*
X032870Y017139D01*
X032870Y017238D02*
X035805Y017238D01*
X035805Y017336D02*
X032870Y017336D01*
X032870Y017435D02*
X035805Y017435D01*
X035824Y017533D02*
X032870Y017533D01*
X032870Y017632D02*
X035865Y017632D01*
X035905Y017730D02*
X032870Y017730D01*
X032870Y017829D02*
X035996Y017829D01*
X035940Y017927D02*
X032870Y017927D01*
X032870Y018026D02*
X035882Y018026D01*
X035842Y018124D02*
X032870Y018124D01*
X032870Y018223D02*
X035805Y018223D01*
X035805Y018321D02*
X032870Y018321D01*
X032870Y018420D02*
X035805Y018420D01*
X035818Y018518D02*
X032870Y018518D01*
X032870Y018617D02*
X035858Y018617D01*
X035899Y018715D02*
X032870Y018715D01*
X032870Y018814D02*
X035981Y018814D01*
X035955Y018912D02*
X032870Y018912D01*
X032870Y019011D02*
X035889Y019011D01*
X035848Y019109D02*
X032870Y019109D01*
X032870Y019208D02*
X035807Y019208D01*
X035805Y019306D02*
X032870Y019306D01*
X032870Y019405D02*
X035805Y019405D01*
X035811Y019503D02*
X032870Y019503D01*
X032870Y019602D02*
X035852Y019602D01*
X035893Y019700D02*
X032870Y019700D01*
X032870Y019799D02*
X035966Y019799D01*
X035970Y019897D02*
X032870Y019897D01*
X032870Y019996D02*
X035895Y019996D01*
X035854Y020094D02*
X032870Y020094D01*
X032870Y020193D02*
X035813Y020193D01*
X035805Y020291D02*
X032870Y020291D01*
X031630Y020291D02*
X031195Y020291D01*
X031195Y020212D02*
X031195Y020488D01*
X031630Y020488D01*
X031630Y020390D02*
X031195Y020390D01*
X031195Y020488D02*
X031089Y020744D01*
X030983Y020850D01*
X031089Y020956D01*
X031195Y021212D01*
X031195Y021488D01*
X031089Y021744D01*
X030983Y021850D01*
X031089Y021956D01*
X031195Y022212D01*
X031195Y022488D01*
X031089Y022744D01*
X030983Y022850D01*
X031089Y022956D01*
X031195Y023212D01*
X031195Y023488D01*
X031089Y023744D01*
X030983Y023850D01*
X031089Y023956D01*
X031195Y024212D01*
X031195Y024488D01*
X031089Y024744D01*
X030983Y024850D01*
X031089Y024956D01*
X031195Y025212D01*
X031195Y025488D01*
X031089Y025744D01*
X030983Y025850D01*
X031089Y025956D01*
X031195Y026212D01*
X031195Y026488D01*
X031089Y026744D01*
X030990Y026843D01*
X030990Y028000D01*
X031623Y028000D01*
X031630Y027993D01*
X031630Y015970D01*
X030819Y015970D01*
X030797Y015979D01*
X030809Y015988D01*
X030862Y016041D01*
X030906Y016101D01*
X030940Y016168D01*
X030963Y016239D01*
X030973Y016300D01*
X030550Y016300D01*
X030550Y016400D01*
X030973Y016400D01*
X030963Y016461D01*
X030940Y016532D01*
X030906Y016599D01*
X030862Y016659D01*
X030809Y016712D01*
X030797Y016721D01*
X030894Y016761D01*
X031089Y016956D01*
X031195Y017212D01*
X031195Y017488D01*
X031089Y017744D01*
X030983Y017850D01*
X031089Y017956D01*
X031195Y018212D01*
X031195Y018488D01*
X031089Y018744D01*
X030983Y018850D01*
X031089Y018956D01*
X031195Y019212D01*
X031195Y019488D01*
X031089Y019744D01*
X030983Y019850D01*
X031089Y019956D01*
X031195Y020212D01*
X031187Y020193D02*
X031630Y020193D01*
X031630Y020094D02*
X031146Y020094D01*
X031105Y019996D02*
X031630Y019996D01*
X031630Y019897D02*
X031030Y019897D01*
X031034Y019799D02*
X031630Y019799D01*
X031630Y019700D02*
X031107Y019700D01*
X031148Y019602D02*
X031630Y019602D01*
X031630Y019503D02*
X031189Y019503D01*
X031195Y019405D02*
X031630Y019405D01*
X031630Y019306D02*
X031195Y019306D01*
X031193Y019208D02*
X031630Y019208D01*
X031630Y019109D02*
X031152Y019109D01*
X031111Y019011D02*
X031630Y019011D01*
X031630Y018912D02*
X031045Y018912D01*
X031019Y018814D02*
X031630Y018814D01*
X031630Y018715D02*
X031101Y018715D01*
X031142Y018617D02*
X031630Y018617D01*
X031630Y018518D02*
X031182Y018518D01*
X031195Y018420D02*
X031630Y018420D01*
X031630Y018321D02*
X031195Y018321D01*
X031195Y018223D02*
X031630Y018223D01*
X031630Y018124D02*
X031158Y018124D01*
X031118Y018026D02*
X031630Y018026D01*
X031630Y017927D02*
X031060Y017927D01*
X031004Y017829D02*
X031630Y017829D01*
X031630Y017730D02*
X031095Y017730D01*
X031135Y017632D02*
X031630Y017632D01*
X031630Y017533D02*
X031176Y017533D01*
X031195Y017435D02*
X031630Y017435D01*
X031630Y017336D02*
X031195Y017336D01*
X031195Y017238D02*
X031630Y017238D01*
X031630Y017139D02*
X031165Y017139D01*
X031124Y017041D02*
X031630Y017041D01*
X031630Y016942D02*
X031075Y016942D01*
X030976Y016844D02*
X031630Y016844D01*
X031630Y016745D02*
X030855Y016745D01*
X030871Y016647D02*
X031630Y016647D01*
X031630Y016548D02*
X030932Y016548D01*
X030965Y016450D02*
X031630Y016450D01*
X031630Y016351D02*
X030550Y016351D01*
X030450Y016351D02*
X012794Y016351D01*
X012696Y016253D02*
X030035Y016253D01*
X030067Y016154D02*
X012597Y016154D01*
X012499Y016056D02*
X030127Y016056D01*
X030035Y016450D02*
X012893Y016450D01*
X012991Y016548D02*
X030068Y016548D01*
X030129Y016647D02*
X013090Y016647D01*
X013188Y016745D02*
X028595Y016745D01*
X028409Y016844D02*
X013287Y016844D01*
X013385Y016942D02*
X028310Y016942D01*
X028238Y017041D02*
X013484Y017041D01*
X013582Y017139D02*
X028198Y017139D01*
X028157Y017238D02*
X013681Y017238D01*
X013779Y017336D02*
X028155Y017336D01*
X028155Y017435D02*
X013878Y017435D01*
X013976Y017533D02*
X028165Y017533D01*
X028206Y017632D02*
X014075Y017632D01*
X014173Y017730D02*
X028247Y017730D01*
X028331Y017829D02*
X014272Y017829D01*
X014370Y017927D02*
X028325Y017927D01*
X028245Y018026D02*
X014469Y018026D01*
X014567Y018124D02*
X028204Y018124D01*
X028163Y018223D02*
X014666Y018223D01*
X014764Y018321D02*
X028155Y018321D01*
X028155Y018420D02*
X014863Y018420D01*
X014961Y018518D02*
X028159Y018518D01*
X028200Y018617D02*
X015060Y018617D01*
X015158Y018715D02*
X028241Y018715D01*
X028316Y018814D02*
X015257Y018814D01*
X015355Y018912D02*
X028340Y018912D01*
X028251Y019011D02*
X015454Y019011D01*
X015552Y019109D02*
X028210Y019109D01*
X028169Y019208D02*
X015651Y019208D01*
X015749Y019306D02*
X028155Y019306D01*
X028155Y019405D02*
X015848Y019405D01*
X015946Y019503D02*
X028155Y019503D01*
X028194Y019602D02*
X016045Y019602D01*
X016143Y019700D02*
X028234Y019700D01*
X028301Y019799D02*
X016242Y019799D01*
X012811Y022754D02*
X011500Y022754D01*
X011500Y022852D02*
X012909Y022852D01*
X013008Y022951D02*
X011500Y022951D01*
X011500Y023049D02*
X013106Y023049D01*
X013205Y023148D02*
X011500Y023148D01*
X011500Y023246D02*
X013303Y023246D01*
X013402Y023345D02*
X011500Y023345D01*
X011500Y023443D02*
X013500Y023443D01*
X013599Y023542D02*
X011500Y023542D01*
X011500Y023640D02*
X013697Y023640D01*
X013796Y023739D02*
X011500Y023739D01*
X011500Y023837D02*
X013995Y023837D01*
X014003Y023840D02*
X013822Y023765D01*
X011500Y021443D01*
X011500Y028000D01*
X027760Y028000D01*
X027760Y025403D01*
X027835Y025222D01*
X027972Y025085D01*
X029122Y023935D01*
X029303Y023860D01*
X030007Y023860D01*
X030017Y023850D01*
X030007Y023840D01*
X014003Y023840D01*
X012712Y022655D02*
X011500Y022655D01*
X011500Y022557D02*
X012614Y022557D01*
X012515Y022458D02*
X011500Y022458D01*
X011500Y022360D02*
X012417Y022360D01*
X012318Y022261D02*
X011500Y022261D01*
X011500Y022163D02*
X012220Y022163D01*
X012121Y022064D02*
X011500Y022064D01*
X011500Y021966D02*
X012023Y021966D01*
X011924Y021867D02*
X011500Y021867D01*
X011500Y021769D02*
X011826Y021769D01*
X011727Y021670D02*
X011500Y021670D01*
X011500Y021572D02*
X011629Y021572D01*
X011530Y021473D02*
X011500Y021473D01*
X010750Y021473D02*
X007875Y021473D01*
X007875Y021375D02*
X010750Y021375D01*
X010750Y021276D02*
X007875Y021276D01*
X007875Y021178D02*
X010750Y021178D01*
X010750Y021079D02*
X007875Y021079D01*
X007875Y020981D02*
X010750Y020981D01*
X010750Y020882D02*
X007875Y020882D01*
X007875Y020784D02*
X010750Y020784D01*
X010750Y020693D02*
X009557Y019500D01*
X007875Y019500D01*
X007875Y030750D01*
X027760Y030750D01*
X027760Y028750D01*
X010750Y028750D01*
X010750Y020693D01*
X010742Y020685D02*
X007875Y020685D01*
X007875Y020587D02*
X010644Y020587D01*
X010545Y020488D02*
X007875Y020488D01*
X007875Y020390D02*
X010447Y020390D01*
X010348Y020291D02*
X007875Y020291D01*
X007875Y020193D02*
X010250Y020193D01*
X010151Y020094D02*
X007875Y020094D01*
X007875Y019996D02*
X010053Y019996D01*
X009954Y019897D02*
X007875Y019897D01*
X007875Y019799D02*
X009856Y019799D01*
X009757Y019700D02*
X007875Y019700D01*
X007875Y019602D02*
X009659Y019602D01*
X009560Y019503D02*
X007875Y019503D01*
X007875Y021572D02*
X010750Y021572D01*
X010750Y021670D02*
X007875Y021670D01*
X007875Y021769D02*
X010750Y021769D01*
X010750Y021867D02*
X007875Y021867D01*
X007875Y021966D02*
X010750Y021966D01*
X010750Y022064D02*
X007875Y022064D01*
X007875Y022163D02*
X010750Y022163D01*
X010750Y022261D02*
X007875Y022261D01*
X007875Y022360D02*
X010750Y022360D01*
X010750Y022458D02*
X007875Y022458D01*
X007875Y022557D02*
X010750Y022557D01*
X010750Y022655D02*
X007875Y022655D01*
X007875Y022754D02*
X010750Y022754D01*
X010750Y022852D02*
X007875Y022852D01*
X007875Y022951D02*
X010750Y022951D01*
X010750Y023049D02*
X007875Y023049D01*
X007875Y023148D02*
X010750Y023148D01*
X010750Y023246D02*
X007875Y023246D01*
X007875Y023345D02*
X010750Y023345D01*
X010750Y023443D02*
X007875Y023443D01*
X007875Y023542D02*
X010750Y023542D01*
X010750Y023640D02*
X007875Y023640D01*
X007875Y023739D02*
X010750Y023739D01*
X010750Y023837D02*
X007875Y023837D01*
X007875Y023936D02*
X010750Y023936D01*
X010750Y024034D02*
X007875Y024034D01*
X007875Y024133D02*
X010750Y024133D01*
X010750Y024231D02*
X007875Y024231D01*
X007875Y024330D02*
X010750Y024330D01*
X010750Y024428D02*
X007875Y024428D01*
X007875Y024527D02*
X010750Y024527D01*
X010750Y024625D02*
X007875Y024625D01*
X007875Y024724D02*
X010750Y024724D01*
X010750Y024822D02*
X007875Y024822D01*
X007875Y024921D02*
X010750Y024921D01*
X010750Y025019D02*
X007875Y025019D01*
X007875Y025118D02*
X010750Y025118D01*
X010750Y025216D02*
X007875Y025216D01*
X007875Y025315D02*
X010750Y025315D01*
X010750Y025413D02*
X007875Y025413D01*
X007875Y025512D02*
X010750Y025512D01*
X010750Y025610D02*
X007875Y025610D01*
X007875Y025709D02*
X010750Y025709D01*
X010750Y025807D02*
X007875Y025807D01*
X007875Y025906D02*
X010750Y025906D01*
X010750Y026004D02*
X007875Y026004D01*
X007875Y026103D02*
X010750Y026103D01*
X010750Y026201D02*
X007875Y026201D01*
X007875Y026300D02*
X010750Y026300D01*
X010750Y026398D02*
X007875Y026398D01*
X007875Y026497D02*
X010750Y026497D01*
X010750Y026595D02*
X007875Y026595D01*
X007875Y026694D02*
X010750Y026694D01*
X010750Y026792D02*
X007875Y026792D01*
X007875Y026891D02*
X010750Y026891D01*
X010750Y026989D02*
X007875Y026989D01*
X007875Y027088D02*
X010750Y027088D01*
X010750Y027186D02*
X007875Y027186D01*
X007875Y027285D02*
X010750Y027285D01*
X010750Y027383D02*
X007875Y027383D01*
X007875Y027482D02*
X010750Y027482D01*
X010750Y027580D02*
X007875Y027580D01*
X007875Y027679D02*
X010750Y027679D01*
X010750Y027777D02*
X007875Y027777D01*
X007875Y027876D02*
X010750Y027876D01*
X010750Y027974D02*
X007875Y027974D01*
X007875Y028073D02*
X010750Y028073D01*
X010750Y028171D02*
X007875Y028171D01*
X007875Y028270D02*
X010750Y028270D01*
X010750Y028368D02*
X007875Y028368D01*
X007875Y028467D02*
X010750Y028467D01*
X010750Y028565D02*
X007875Y028565D01*
X007875Y028664D02*
X010750Y028664D01*
X011500Y027974D02*
X027760Y027974D01*
X027760Y027876D02*
X011500Y027876D01*
X011500Y027777D02*
X027760Y027777D01*
X027760Y027679D02*
X011500Y027679D01*
X011500Y027580D02*
X027760Y027580D01*
X027760Y027482D02*
X011500Y027482D01*
X011500Y027383D02*
X027760Y027383D01*
X027760Y027285D02*
X011500Y027285D01*
X011500Y027186D02*
X027760Y027186D01*
X027760Y027088D02*
X011500Y027088D01*
X011500Y026989D02*
X027760Y026989D01*
X027760Y026891D02*
X011500Y026891D01*
X011500Y026792D02*
X027760Y026792D01*
X027760Y026694D02*
X011500Y026694D01*
X011500Y026595D02*
X027760Y026595D01*
X027760Y026497D02*
X011500Y026497D01*
X011500Y026398D02*
X027760Y026398D01*
X027760Y026300D02*
X011500Y026300D01*
X011500Y026201D02*
X027760Y026201D01*
X027760Y026103D02*
X011500Y026103D01*
X011500Y026004D02*
X027760Y026004D01*
X027760Y025906D02*
X011500Y025906D01*
X011500Y025807D02*
X027760Y025807D01*
X027760Y025709D02*
X011500Y025709D01*
X011500Y025610D02*
X027760Y025610D01*
X027760Y025512D02*
X011500Y025512D01*
X011500Y025413D02*
X027760Y025413D01*
X027796Y025315D02*
X011500Y025315D01*
X011500Y025216D02*
X027841Y025216D01*
X027939Y025118D02*
X011500Y025118D01*
X011500Y025019D02*
X028038Y025019D01*
X028136Y024921D02*
X011500Y024921D01*
X011500Y024822D02*
X028235Y024822D01*
X028333Y024724D02*
X011500Y024724D01*
X011500Y024625D02*
X028432Y024625D01*
X028530Y024527D02*
X011500Y024527D01*
X011500Y024428D02*
X028629Y024428D01*
X028727Y024330D02*
X011500Y024330D01*
X011500Y024231D02*
X028826Y024231D01*
X028924Y024133D02*
X011500Y024133D01*
X011500Y024034D02*
X029023Y024034D01*
X029121Y023936D02*
X011500Y023936D01*
X007875Y028762D02*
X027760Y028762D01*
X027760Y028861D02*
X007875Y028861D01*
X007875Y028959D02*
X027760Y028959D01*
X027760Y029058D02*
X007875Y029058D01*
X007875Y029156D02*
X027760Y029156D01*
X027760Y029255D02*
X007875Y029255D01*
X007875Y029353D02*
X027760Y029353D01*
X027760Y029452D02*
X007875Y029452D01*
X007875Y029550D02*
X027760Y029550D01*
X027760Y029649D02*
X007875Y029649D01*
X007875Y029747D02*
X027760Y029747D01*
X027760Y029846D02*
X007875Y029846D01*
X007875Y029944D02*
X027760Y029944D01*
X027760Y030043D02*
X007875Y030043D01*
X007875Y030141D02*
X027760Y030141D01*
X027760Y030240D02*
X007875Y030240D01*
X007875Y030338D02*
X027760Y030338D01*
X027760Y030437D02*
X007875Y030437D01*
X007875Y030535D02*
X027760Y030535D01*
X027760Y030634D02*
X007875Y030634D01*
X007875Y030732D02*
X027760Y030732D01*
X029490Y030732D02*
X029813Y030732D01*
X029815Y030736D02*
X029783Y030673D01*
X029761Y030605D01*
X029752Y030550D01*
X030450Y030550D01*
X030450Y030450D01*
X030550Y030450D01*
X030550Y030550D01*
X031248Y030550D01*
X031239Y030605D01*
X031217Y030673D01*
X031185Y030736D01*
X031175Y030750D01*
X031255Y030750D01*
X031255Y029500D01*
X030250Y029500D01*
X029500Y028750D01*
X029490Y028750D01*
X029490Y030750D01*
X029825Y030750D01*
X029815Y030736D01*
X029770Y030634D02*
X029490Y030634D01*
X029490Y030535D02*
X030450Y030535D01*
X030450Y030450D02*
X029752Y030450D01*
X029761Y030395D01*
X029783Y030327D01*
X029815Y030264D01*
X029857Y030207D01*
X029907Y030157D01*
X029964Y030115D01*
X030027Y030083D01*
X030095Y030061D01*
X030165Y030050D01*
X030450Y030050D01*
X030450Y030450D01*
X030450Y030437D02*
X030550Y030437D01*
X030550Y030450D02*
X030550Y030050D01*
X030835Y030050D01*
X030905Y030061D01*
X030973Y030083D01*
X031036Y030115D01*
X031093Y030157D01*
X031143Y030207D01*
X031185Y030264D01*
X031217Y030327D01*
X031239Y030395D01*
X031248Y030450D01*
X030550Y030450D01*
X030550Y030535D02*
X031255Y030535D01*
X031246Y030437D02*
X031255Y030437D01*
X031255Y030338D02*
X031221Y030338D01*
X031255Y030240D02*
X031167Y030240D01*
X031255Y030141D02*
X031072Y030141D01*
X031255Y030043D02*
X029490Y030043D01*
X029490Y030141D02*
X029928Y030141D01*
X029833Y030240D02*
X029490Y030240D01*
X029490Y030338D02*
X029779Y030338D01*
X029754Y030437D02*
X029490Y030437D01*
X029490Y029944D02*
X031255Y029944D01*
X031255Y029846D02*
X029490Y029846D01*
X029490Y029747D02*
X031255Y029747D01*
X031255Y029649D02*
X029490Y029649D01*
X029490Y029550D02*
X031255Y029550D01*
X030550Y030141D02*
X030450Y030141D01*
X030450Y030240D02*
X030550Y030240D01*
X030550Y030338D02*
X030450Y030338D01*
X031230Y030634D02*
X031255Y030634D01*
X031255Y030732D02*
X031187Y030732D01*
X030202Y029452D02*
X029490Y029452D01*
X029490Y029353D02*
X030103Y029353D01*
X030005Y029255D02*
X029490Y029255D01*
X029490Y029156D02*
X029906Y029156D01*
X029808Y029058D02*
X029490Y029058D01*
X029490Y028959D02*
X029709Y028959D01*
X029611Y028861D02*
X029490Y028861D01*
X029490Y028762D02*
X029512Y028762D01*
X030990Y027974D02*
X031630Y027974D01*
X031630Y027876D02*
X030990Y027876D01*
X030990Y027777D02*
X031630Y027777D01*
X031630Y027679D02*
X030990Y027679D01*
X030990Y027580D02*
X031630Y027580D01*
X031630Y027482D02*
X030990Y027482D01*
X030990Y027383D02*
X031630Y027383D01*
X031630Y027285D02*
X030990Y027285D01*
X030990Y027186D02*
X031630Y027186D01*
X031630Y027088D02*
X030990Y027088D01*
X030990Y026989D02*
X031630Y026989D01*
X031630Y026891D02*
X030990Y026891D01*
X031041Y026792D02*
X031630Y026792D01*
X031630Y026694D02*
X031110Y026694D01*
X031151Y026595D02*
X031630Y026595D01*
X031630Y026497D02*
X031191Y026497D01*
X031195Y026398D02*
X031630Y026398D01*
X031630Y026300D02*
X031195Y026300D01*
X031190Y026201D02*
X031630Y026201D01*
X031630Y026103D02*
X031150Y026103D01*
X031109Y026004D02*
X031630Y026004D01*
X031630Y025906D02*
X031038Y025906D01*
X031026Y025807D02*
X031630Y025807D01*
X031630Y025709D02*
X031104Y025709D01*
X031144Y025610D02*
X031630Y025610D01*
X031630Y025512D02*
X031185Y025512D01*
X031195Y025413D02*
X031630Y025413D01*
X031630Y025315D02*
X031195Y025315D01*
X031195Y025216D02*
X031630Y025216D01*
X031630Y025118D02*
X031156Y025118D01*
X031115Y025019D02*
X031630Y025019D01*
X031630Y024921D02*
X031053Y024921D01*
X031011Y024822D02*
X031630Y024822D01*
X031630Y024724D02*
X031097Y024724D01*
X031138Y024625D02*
X031630Y024625D01*
X031630Y024527D02*
X031179Y024527D01*
X031195Y024428D02*
X031630Y024428D01*
X031630Y024330D02*
X031195Y024330D01*
X031195Y024231D02*
X031630Y024231D01*
X031630Y024133D02*
X031162Y024133D01*
X031121Y024034D02*
X031630Y024034D01*
X031630Y023936D02*
X031068Y023936D01*
X030996Y023837D02*
X031630Y023837D01*
X031630Y023739D02*
X031091Y023739D01*
X031132Y023640D02*
X031630Y023640D01*
X031630Y023542D02*
X031173Y023542D01*
X031195Y023443D02*
X031630Y023443D01*
X031630Y023345D02*
X031195Y023345D01*
X031195Y023246D02*
X031630Y023246D01*
X031630Y023148D02*
X031168Y023148D01*
X031127Y023049D02*
X031630Y023049D01*
X031630Y022951D02*
X031083Y022951D01*
X030985Y022852D02*
X031630Y022852D01*
X031630Y022754D02*
X031079Y022754D01*
X031126Y022655D02*
X031630Y022655D01*
X031630Y022557D02*
X031166Y022557D01*
X031195Y022458D02*
X031630Y022458D01*
X031630Y022360D02*
X031195Y022360D01*
X031195Y022261D02*
X031630Y022261D01*
X031630Y022163D02*
X031174Y022163D01*
X031134Y022064D02*
X031630Y022064D01*
X031630Y021966D02*
X031093Y021966D01*
X031000Y021867D02*
X031630Y021867D01*
X031630Y021769D02*
X031064Y021769D01*
X031119Y021670D02*
X031630Y021670D01*
X031630Y021572D02*
X031160Y021572D01*
X031195Y021473D02*
X031630Y021473D01*
X031630Y021375D02*
X031195Y021375D01*
X031195Y021276D02*
X031630Y021276D01*
X031630Y021178D02*
X031181Y021178D01*
X031140Y021079D02*
X031630Y021079D01*
X031630Y020981D02*
X031099Y020981D01*
X031015Y020882D02*
X031630Y020882D01*
X031630Y020784D02*
X031049Y020784D01*
X031113Y020685D02*
X031630Y020685D01*
X031630Y020587D02*
X031154Y020587D01*
X030024Y016844D02*
X029841Y016844D01*
X029655Y016745D02*
X030145Y016745D01*
X030965Y016253D02*
X031630Y016253D01*
X031630Y016154D02*
X030933Y016154D01*
X030873Y016056D02*
X031630Y016056D01*
X031630Y014677D02*
X030690Y014677D01*
X030310Y014677D02*
X007875Y014677D01*
X007875Y014775D02*
X028459Y014775D01*
X028361Y014874D02*
X007875Y014874D01*
X007875Y014972D02*
X028262Y014972D01*
X028164Y015071D02*
X007875Y015071D01*
X007875Y015169D02*
X028120Y015169D01*
X028120Y015268D02*
X007875Y015268D01*
X007875Y015366D02*
X028120Y015366D01*
X028120Y015465D02*
X007875Y015465D01*
X007875Y014578D02*
X031630Y014578D01*
X031630Y014480D02*
X007875Y014480D01*
X007875Y014381D02*
X031630Y014381D01*
X031630Y014283D02*
X007875Y014283D01*
X007875Y014184D02*
X031630Y014184D01*
X031630Y014086D02*
X007875Y014086D01*
X007875Y013987D02*
X031630Y013987D01*
X031630Y013889D02*
X007875Y013889D01*
X007875Y013790D02*
X031630Y013790D01*
X031630Y013692D02*
X029013Y013692D01*
X028920Y013785D02*
X028780Y013785D01*
X028780Y013405D01*
X028720Y013405D01*
X028720Y013785D01*
X028580Y013785D01*
X028340Y013545D01*
X028340Y013405D01*
X028720Y013405D01*
X028720Y013345D01*
X028340Y013345D01*
X028340Y013205D01*
X028580Y012965D01*
X028720Y012965D01*
X028720Y013345D01*
X028780Y013345D01*
X028780Y013405D01*
X029160Y013405D01*
X029160Y013545D01*
X028920Y013785D01*
X028780Y013692D02*
X028720Y013692D01*
X028720Y013593D02*
X028780Y013593D01*
X028780Y013495D02*
X028720Y013495D01*
X028720Y013396D02*
X007875Y013396D01*
X007875Y013298D02*
X028340Y013298D01*
X028346Y013199D02*
X007875Y013199D01*
X007875Y013101D02*
X028445Y013101D01*
X028543Y013002D02*
X007875Y013002D01*
X007875Y012904D02*
X031630Y012904D01*
X031630Y013002D02*
X028957Y013002D01*
X028920Y012965D02*
X029160Y013205D01*
X029160Y013345D01*
X028780Y013345D01*
X028780Y012965D01*
X028920Y012965D01*
X028780Y013002D02*
X028720Y013002D01*
X028720Y013101D02*
X028780Y013101D01*
X028780Y013199D02*
X028720Y013199D01*
X028720Y013298D02*
X028780Y013298D01*
X028780Y013396D02*
X031630Y013396D01*
X031630Y013298D02*
X029160Y013298D01*
X029154Y013199D02*
X031630Y013199D01*
X031630Y013101D02*
X029055Y013101D01*
X029160Y013495D02*
X031630Y013495D01*
X031630Y013593D02*
X029112Y013593D01*
X028487Y013692D02*
X007875Y013692D01*
X007875Y013593D02*
X028388Y013593D01*
X028340Y013495D02*
X007875Y013495D01*
X007875Y012805D02*
X031604Y012805D01*
X031565Y012707D02*
X007875Y012707D01*
X007875Y012608D02*
X031565Y012608D01*
X031565Y012510D02*
X007875Y012510D01*
X007875Y012411D02*
X031576Y012411D01*
X031617Y012313D02*
X007875Y012313D01*
X007875Y012214D02*
X031658Y012214D01*
X031741Y012116D02*
X007875Y012116D01*
X007875Y012017D02*
X031839Y012017D01*
X032045Y011919D02*
X007875Y011919D01*
X007875Y011820D02*
X033760Y011820D01*
X033760Y011722D02*
X007875Y011722D01*
X011976Y015563D02*
X028120Y015563D01*
X028146Y015662D02*
X012105Y015662D01*
X012203Y015760D02*
X028244Y015760D01*
X028343Y015859D02*
X012302Y015859D01*
X012400Y015957D02*
X028441Y015957D01*
X036122Y009555D02*
X037510Y009555D01*
X037510Y009653D02*
X036221Y009653D01*
X036319Y009752D02*
X037510Y009752D01*
X037510Y009850D02*
X036418Y009850D01*
X036516Y009949D02*
X037510Y009949D01*
X037510Y010047D02*
X036615Y010047D01*
X036713Y010146D02*
X037510Y010146D01*
X037510Y010244D02*
X036812Y010244D01*
X036910Y010343D02*
X037510Y010343D01*
X037510Y010441D02*
X037009Y010441D01*
X037107Y010540D02*
X037510Y010540D01*
X037510Y010638D02*
X037206Y010638D01*
X037304Y010737D02*
X037510Y010737D01*
X037510Y010835D02*
X037403Y010835D01*
X037501Y010934D02*
X037510Y010934D01*
X039115Y010934D02*
X053500Y010934D01*
X053500Y011032D02*
X039115Y011032D01*
X039115Y011131D02*
X053500Y011131D01*
X053500Y011229D02*
X039115Y011229D01*
X039115Y011328D02*
X053500Y011328D01*
X053500Y011426D02*
X039115Y011426D01*
X039115Y011525D02*
X045396Y011525D01*
X045455Y011465D02*
X045215Y011705D01*
X045215Y011845D01*
X045595Y011845D01*
X045595Y011905D01*
X045595Y012285D01*
X045455Y012285D01*
X045215Y012045D01*
X045215Y011905D01*
X045595Y011905D01*
X045655Y011905D01*
X045655Y012285D01*
X045795Y012285D01*
X046035Y012045D01*
X046035Y011905D01*
X045655Y011905D01*
X045655Y011845D01*
X046035Y011845D01*
X046035Y011705D01*
X045795Y011465D01*
X045655Y011465D01*
X045655Y011845D01*
X045595Y011845D01*
X045595Y011465D01*
X045455Y011465D01*
X045595Y011525D02*
X045655Y011525D01*
X045655Y011623D02*
X045595Y011623D01*
X045595Y011722D02*
X045655Y011722D01*
X045655Y011820D02*
X045595Y011820D01*
X045595Y011919D02*
X045655Y011919D01*
X045655Y012017D02*
X045595Y012017D01*
X045595Y012116D02*
X045655Y012116D01*
X045655Y012214D02*
X045595Y012214D01*
X045384Y012214D02*
X043590Y012214D01*
X043590Y012205D02*
X043590Y012368D01*
X043318Y012640D01*
X043155Y012640D01*
X043155Y012205D01*
X043095Y012205D01*
X043095Y012640D01*
X042932Y012640D01*
X042660Y012368D01*
X042660Y012205D01*
X043095Y012205D01*
X043095Y012145D01*
X042660Y012145D01*
X042660Y011982D01*
X042932Y011710D01*
X043095Y011710D01*
X043095Y012145D01*
X043155Y012145D01*
X043155Y012205D01*
X043590Y012205D01*
X043590Y012145D02*
X043155Y012145D01*
X043155Y011710D01*
X043318Y011710D01*
X043590Y011982D01*
X043590Y012145D01*
X043590Y012116D02*
X045286Y012116D01*
X045215Y012017D02*
X043590Y012017D01*
X043526Y011919D02*
X045215Y011919D01*
X045215Y011820D02*
X043428Y011820D01*
X043329Y011722D02*
X045215Y011722D01*
X045297Y011623D02*
X039115Y011623D01*
X039115Y011722D02*
X042921Y011722D01*
X042822Y011820D02*
X039115Y011820D01*
X039115Y011919D02*
X042724Y011919D01*
X042660Y012017D02*
X039115Y012017D01*
X039115Y012116D02*
X042660Y012116D01*
X042660Y012214D02*
X039115Y012214D01*
X039115Y012313D02*
X042660Y012313D01*
X042703Y012411D02*
X039115Y012411D01*
X039115Y012510D02*
X042802Y012510D01*
X042900Y012608D02*
X039115Y012608D01*
X039115Y012707D02*
X053500Y012707D01*
X053500Y012805D02*
X039115Y012805D01*
X039115Y012904D02*
X042956Y012904D01*
X042729Y013002D02*
X042500Y013002D01*
X042500Y013101D02*
X042631Y013101D01*
X042539Y013199D02*
X042500Y013199D01*
X043095Y012608D02*
X043155Y012608D01*
X043155Y012510D02*
X043095Y012510D01*
X043095Y012411D02*
X043155Y012411D01*
X043155Y012313D02*
X043095Y012313D01*
X043095Y012214D02*
X043155Y012214D01*
X043155Y012116D02*
X043095Y012116D01*
X043095Y012017D02*
X043155Y012017D01*
X043155Y011919D02*
X043095Y011919D01*
X043095Y011820D02*
X043155Y011820D01*
X043155Y011722D02*
X043095Y011722D01*
X043590Y012313D02*
X053500Y012313D01*
X053500Y012411D02*
X043547Y012411D01*
X043448Y012510D02*
X053500Y012510D01*
X053500Y012608D02*
X043350Y012608D01*
X043294Y012904D02*
X053500Y012904D01*
X053500Y013002D02*
X043521Y013002D01*
X044835Y013101D02*
X053500Y013101D01*
X053500Y013199D02*
X045017Y013199D01*
X045115Y013298D02*
X045312Y013298D01*
X045938Y013298D02*
X053500Y013298D01*
X053500Y013396D02*
X046037Y013396D01*
X046135Y013495D02*
X053500Y013495D01*
X053500Y013593D02*
X046234Y013593D01*
X046255Y013692D02*
X051103Y013692D01*
X050865Y013790D02*
X048834Y013790D01*
X049072Y013889D02*
X050761Y013889D01*
X050662Y013987D02*
X049197Y013987D01*
X049534Y014086D02*
X050616Y014086D01*
X050575Y014184D02*
X049740Y014184D01*
X049839Y014283D02*
X050542Y014283D01*
X050542Y014381D02*
X049937Y014381D01*
X050036Y014480D02*
X050542Y014480D01*
X050554Y014578D02*
X050134Y014578D01*
X050233Y014677D02*
X050594Y014677D01*
X050635Y014775D02*
X050331Y014775D01*
X050430Y014874D02*
X050710Y014874D01*
X050808Y014972D02*
X050528Y014972D01*
X050627Y015071D02*
X050980Y015071D01*
X050824Y015268D02*
X051672Y015268D01*
X051771Y015366D02*
X050922Y015366D01*
X051021Y015465D02*
X051869Y015465D01*
X051968Y015563D02*
X051119Y015563D01*
X050725Y015169D02*
X051574Y015169D01*
X052693Y014677D02*
X053500Y014677D01*
X053500Y014775D02*
X052792Y014775D01*
X052890Y014874D02*
X053500Y014874D01*
X053500Y014972D02*
X052989Y014972D01*
X053087Y015071D02*
X053500Y015071D01*
X053500Y015169D02*
X053186Y015169D01*
X053284Y015268D02*
X053500Y015268D01*
X053500Y015366D02*
X053383Y015366D01*
X053481Y015465D02*
X053500Y015465D01*
X053500Y014578D02*
X052681Y014578D01*
X052692Y014480D02*
X053500Y014480D01*
X053500Y014381D02*
X052692Y014381D01*
X052692Y014283D02*
X053500Y014283D01*
X053500Y014184D02*
X052660Y014184D01*
X052619Y014086D02*
X053500Y014086D01*
X053500Y013987D02*
X052572Y013987D01*
X052473Y013889D02*
X053500Y013889D01*
X053500Y013790D02*
X052369Y013790D01*
X052132Y013692D02*
X053500Y013692D01*
X053500Y012214D02*
X045866Y012214D01*
X045964Y012116D02*
X053500Y012116D01*
X053500Y012017D02*
X046035Y012017D01*
X046035Y011919D02*
X053500Y011919D01*
X053500Y011820D02*
X046035Y011820D01*
X046035Y011722D02*
X053500Y011722D01*
X053500Y011623D02*
X045953Y011623D01*
X045854Y011525D02*
X053500Y011525D01*
X053500Y010835D02*
X039115Y010835D01*
X039115Y010737D02*
X053500Y010737D01*
X053500Y010638D02*
X039115Y010638D01*
X039115Y010540D02*
X053500Y010540D01*
X053500Y010441D02*
X039115Y010441D01*
X039115Y010343D02*
X053500Y010343D01*
X053500Y010244D02*
X039115Y010244D01*
X039115Y010146D02*
X053500Y010146D01*
X053500Y010047D02*
X039115Y010047D01*
X039115Y009949D02*
X053500Y009949D01*
X053500Y009850D02*
X039115Y009850D01*
X039115Y009752D02*
X053500Y009752D01*
X053500Y009653D02*
X039115Y009653D01*
X039115Y009555D02*
X053500Y009555D01*
X053500Y009456D02*
X039115Y009456D01*
X039115Y009358D02*
X053500Y009358D01*
X053500Y009259D02*
X039115Y009259D01*
X039115Y009161D02*
X053500Y009161D01*
X053500Y009062D02*
X039115Y009062D01*
X039115Y008964D02*
X053500Y008964D01*
X053500Y008865D02*
X039115Y008865D01*
X039115Y008767D02*
X053500Y008767D01*
X053500Y008668D02*
X039115Y008668D01*
X039115Y008570D02*
X053500Y008570D01*
X053500Y008471D02*
X039115Y008471D01*
X039195Y008373D02*
X053500Y008373D01*
X053500Y008274D02*
X039294Y008274D01*
X039392Y008176D02*
X053500Y008176D01*
X053500Y008077D02*
X039491Y008077D01*
X039589Y007979D02*
X053500Y007979D01*
X053500Y007880D02*
X039688Y007880D01*
X039786Y007782D02*
X053500Y007782D01*
X053500Y007683D02*
X039885Y007683D01*
X039983Y007585D02*
X053500Y007585D01*
X053500Y007486D02*
X040082Y007486D01*
X040180Y007388D02*
X053500Y007388D01*
X053500Y007289D02*
X040279Y007289D01*
X040377Y007191D02*
X053500Y007191D01*
X053500Y007092D02*
X044799Y007092D01*
X044897Y006994D02*
X053500Y006994D01*
X053500Y006895D02*
X044996Y006895D01*
X045094Y006797D02*
X053500Y006797D01*
X053500Y006698D02*
X045130Y006698D01*
X045130Y006600D02*
X053500Y006600D01*
X053500Y006501D02*
X045130Y006501D01*
X045130Y006403D02*
X053500Y006403D01*
X053500Y006304D02*
X045130Y006304D01*
X045096Y006206D02*
X053500Y006206D01*
X053500Y006107D02*
X044998Y006107D01*
X044899Y006009D02*
X053500Y006009D01*
X053500Y005910D02*
X044801Y005910D01*
X044199Y005910D02*
X039176Y005910D01*
X039274Y006009D02*
X044101Y006009D01*
X044103Y006994D02*
X040574Y006994D01*
X040476Y007092D02*
X044201Y007092D01*
X040075Y006107D02*
X039373Y006107D01*
X039471Y006206D02*
X039977Y006206D01*
X039878Y006304D02*
X039505Y006304D01*
X039505Y006403D02*
X039780Y006403D01*
X039681Y006501D02*
X039505Y006501D01*
X039505Y006600D02*
X039583Y006600D01*
X037510Y007683D02*
X034213Y007683D01*
X034349Y007782D02*
X037510Y007782D01*
X037510Y007880D02*
X034448Y007880D01*
X034546Y007979D02*
X037510Y007979D01*
X037510Y008077D02*
X034645Y008077D01*
X034743Y008176D02*
X037510Y008176D01*
X037510Y008274D02*
X034842Y008274D01*
X034940Y008373D02*
X037510Y008373D01*
X037510Y008471D02*
X035039Y008471D01*
X035137Y008570D02*
X037510Y008570D01*
X037510Y008668D02*
X035236Y008668D01*
X035334Y008767D02*
X037510Y008767D01*
X037510Y008865D02*
X035433Y008865D01*
X035531Y008964D02*
X037510Y008964D01*
X037510Y009062D02*
X035630Y009062D01*
X035728Y009161D02*
X037510Y009161D01*
X037510Y009259D02*
X035827Y009259D01*
X035925Y009358D02*
X037510Y009358D01*
X037510Y009456D02*
X036024Y009456D01*
X039115Y013750D02*
X039115Y016972D01*
X039040Y017153D01*
X039000Y017193D01*
X039000Y019932D01*
X040500Y018432D01*
X040500Y014625D01*
X041500Y014625D01*
X041500Y013875D01*
X041375Y013750D01*
X039115Y013750D01*
X039115Y013790D02*
X041415Y013790D01*
X041500Y013889D02*
X039115Y013889D01*
X039115Y013987D02*
X041500Y013987D01*
X041500Y014086D02*
X039115Y014086D01*
X039115Y014184D02*
X041500Y014184D01*
X041500Y014283D02*
X039115Y014283D01*
X039115Y014381D02*
X041500Y014381D01*
X041500Y014480D02*
X039115Y014480D01*
X039115Y014578D02*
X041500Y014578D01*
X040500Y014677D02*
X039115Y014677D01*
X039115Y014775D02*
X040500Y014775D01*
X040500Y014874D02*
X039115Y014874D01*
X039115Y014972D02*
X040500Y014972D01*
X040500Y015071D02*
X039115Y015071D01*
X039115Y015169D02*
X040500Y015169D01*
X040500Y015268D02*
X039115Y015268D01*
X039115Y015366D02*
X040500Y015366D01*
X040500Y015465D02*
X039115Y015465D01*
X039115Y015563D02*
X040500Y015563D01*
X040500Y015662D02*
X039115Y015662D01*
X039115Y015760D02*
X040500Y015760D01*
X040500Y015859D02*
X039115Y015859D01*
X039115Y015957D02*
X040500Y015957D01*
X040500Y016056D02*
X039115Y016056D01*
X039115Y016154D02*
X040500Y016154D01*
X040500Y016253D02*
X039115Y016253D01*
X039115Y016351D02*
X040500Y016351D01*
X040500Y016450D02*
X039115Y016450D01*
X039115Y016548D02*
X040500Y016548D01*
X040500Y016647D02*
X039115Y016647D01*
X039115Y016745D02*
X040500Y016745D01*
X040500Y016844D02*
X039115Y016844D01*
X039115Y016942D02*
X040500Y016942D01*
X040500Y017041D02*
X039087Y017041D01*
X039046Y017139D02*
X040500Y017139D01*
X040500Y017238D02*
X039000Y017238D01*
X039000Y017336D02*
X040500Y017336D01*
X040500Y017435D02*
X039000Y017435D01*
X039000Y017533D02*
X040500Y017533D01*
X040500Y017632D02*
X039000Y017632D01*
X039000Y017730D02*
X040500Y017730D01*
X040500Y017829D02*
X039000Y017829D01*
X039000Y017927D02*
X040500Y017927D01*
X040500Y018026D02*
X039000Y018026D01*
X039000Y018124D02*
X040500Y018124D01*
X040500Y018223D02*
X039000Y018223D01*
X039000Y018321D02*
X040500Y018321D01*
X040500Y018420D02*
X039000Y018420D01*
X039000Y018518D02*
X040414Y018518D01*
X040315Y018617D02*
X039000Y018617D01*
X039000Y018715D02*
X040217Y018715D01*
X040118Y018814D02*
X039000Y018814D01*
X039000Y018912D02*
X040020Y018912D01*
X039921Y019011D02*
X039000Y019011D01*
X039000Y019109D02*
X039823Y019109D01*
X039724Y019208D02*
X039000Y019208D01*
X039000Y019306D02*
X039626Y019306D01*
X039527Y019405D02*
X039000Y019405D01*
X039000Y019503D02*
X039429Y019503D01*
X039330Y019602D02*
X039000Y019602D01*
X039000Y019700D02*
X039232Y019700D01*
X039133Y019799D02*
X039000Y019799D01*
X039000Y019897D02*
X039035Y019897D01*
X042500Y018321D02*
X044611Y018321D01*
X044709Y018223D02*
X042500Y018223D01*
X042500Y018124D02*
X044808Y018124D01*
X044906Y018026D02*
X042500Y018026D01*
X042500Y017927D02*
X045051Y017927D01*
X045458Y017336D02*
X042615Y017336D01*
X042615Y017238D02*
X042908Y017238D01*
X042809Y017139D02*
X042615Y017139D01*
X042615Y017041D02*
X042715Y017041D01*
X042715Y016942D02*
X042615Y016942D01*
X042615Y016844D02*
X042715Y016844D01*
X042715Y016745D02*
X042615Y016745D01*
X042615Y016647D02*
X042774Y016647D01*
X042872Y016548D02*
X042615Y016548D01*
X042615Y016450D02*
X042809Y016450D01*
X042710Y016351D02*
X042615Y016351D01*
X043095Y016942D02*
X043155Y016942D01*
X043155Y016905D02*
X043155Y017285D01*
X043295Y017285D01*
X043535Y017045D01*
X043535Y016905D01*
X043155Y016905D01*
X043155Y017041D02*
X043095Y017041D01*
X043095Y017139D02*
X043155Y017139D01*
X043155Y017238D02*
X043095Y017238D01*
X043342Y017238D02*
X045295Y017238D01*
X045196Y017139D02*
X043441Y017139D01*
X043535Y017041D02*
X045098Y017041D01*
X044999Y016942D02*
X043535Y016942D01*
X043535Y016844D02*
X044901Y016844D01*
X044802Y016745D02*
X043535Y016745D01*
X043476Y016647D02*
X044704Y016647D01*
X044605Y016548D02*
X043378Y016548D01*
X043441Y016450D02*
X044507Y016450D01*
X045203Y015760D02*
X046495Y015760D01*
X046495Y015662D02*
X045105Y015662D01*
X045006Y015563D02*
X046546Y015563D01*
X046635Y015465D02*
X044908Y015465D01*
X045302Y015859D02*
X046495Y015859D01*
X046495Y015957D02*
X045400Y015957D01*
X045499Y016056D02*
X046495Y016056D01*
X046513Y016154D02*
X045597Y016154D01*
X045696Y016253D02*
X046612Y016253D01*
X046710Y016351D02*
X045794Y016351D01*
X046635Y015366D02*
X043525Y015366D01*
X043623Y015268D02*
X046627Y015268D01*
X046528Y015169D02*
X043722Y015169D01*
X043755Y015071D02*
X046495Y015071D01*
X046495Y014972D02*
X043755Y014972D01*
X043755Y014874D02*
X046495Y014874D01*
X046495Y014775D02*
X043755Y014775D01*
X043755Y014677D02*
X046495Y014677D01*
X046531Y014578D02*
X043719Y014578D01*
X043620Y014480D02*
X045339Y014480D01*
X045240Y014381D02*
X043615Y014381D01*
X043615Y014283D02*
X044715Y014283D01*
X044616Y014184D02*
X043615Y014184D01*
X043615Y014086D02*
X044518Y014086D01*
X045911Y014480D02*
X046630Y014480D01*
X046728Y014381D02*
X046010Y014381D01*
X046108Y014283D02*
X046827Y014283D01*
X047423Y014283D02*
X047833Y014283D01*
X047793Y014381D02*
X047522Y014381D01*
X047874Y014184D02*
X046207Y014184D01*
X046255Y014086D02*
X047954Y014086D01*
X048053Y013987D02*
X046255Y013987D01*
X046255Y013889D02*
X048178Y013889D01*
X048416Y013790D02*
X046255Y013790D01*
X047615Y015366D02*
X048116Y015366D01*
X048330Y015465D02*
X047615Y015465D01*
X047704Y015563D02*
X049507Y015563D01*
X049605Y015662D02*
X047755Y015662D01*
X047755Y015760D02*
X048411Y015760D01*
X048416Y015758D02*
X048498Y015736D01*
X048582Y015725D01*
X048586Y015725D01*
X048586Y016336D01*
X047975Y016336D01*
X047975Y016332D01*
X047986Y016248D01*
X048008Y016166D01*
X048041Y016087D01*
X048083Y016013D01*
X048135Y015946D01*
X048196Y015885D01*
X048263Y015833D01*
X048337Y015791D01*
X048416Y015758D01*
X048586Y015760D02*
X048664Y015760D01*
X048664Y015725D02*
X048668Y015725D01*
X048752Y015736D01*
X048834Y015758D01*
X048913Y015791D01*
X048987Y015833D01*
X049054Y015885D01*
X049115Y015946D01*
X049167Y016013D01*
X049209Y016087D01*
X049242Y016166D01*
X049264Y016248D01*
X049275Y016332D01*
X049275Y016336D01*
X048664Y016336D01*
X048664Y016414D01*
X048586Y016414D01*
X048586Y017025D01*
X048582Y017025D01*
X048498Y017014D01*
X048416Y016992D01*
X048337Y016959D01*
X048263Y016917D01*
X048196Y016865D01*
X048135Y016804D01*
X048083Y016737D01*
X048041Y016663D01*
X048008Y016584D01*
X047986Y016502D01*
X047975Y016418D01*
X047975Y016414D01*
X048586Y016414D01*
X048586Y016336D01*
X048664Y016336D01*
X048664Y015725D01*
X048664Y015859D02*
X048586Y015859D01*
X048586Y015957D02*
X048664Y015957D01*
X048664Y016056D02*
X048586Y016056D01*
X048586Y016154D02*
X048664Y016154D01*
X048664Y016253D02*
X048586Y016253D01*
X048586Y016351D02*
X047540Y016351D01*
X047590Y016450D02*
X047979Y016450D01*
X047998Y016548D02*
X047689Y016548D01*
X047755Y016647D02*
X048034Y016647D01*
X048090Y016745D02*
X047755Y016745D01*
X047755Y016844D02*
X048174Y016844D01*
X048307Y016942D02*
X047755Y016942D01*
X047755Y017041D02*
X050983Y017041D01*
X050810Y016942D02*
X048943Y016942D01*
X048913Y016959D02*
X048834Y016992D01*
X048752Y017014D01*
X048668Y017025D01*
X048664Y017025D01*
X048664Y016414D01*
X049275Y016414D01*
X049275Y016418D01*
X049264Y016502D01*
X049242Y016584D01*
X049209Y016663D01*
X049167Y016737D01*
X049115Y016804D01*
X049054Y016865D01*
X048987Y016917D01*
X048913Y016959D01*
X049076Y016844D02*
X050711Y016844D01*
X050636Y016745D02*
X049160Y016745D01*
X049216Y016647D02*
X050590Y016647D01*
X050492Y016548D02*
X049252Y016548D01*
X049271Y016450D02*
X050393Y016450D01*
X050295Y016351D02*
X048664Y016351D01*
X048664Y016450D02*
X048586Y016450D01*
X048586Y016548D02*
X048664Y016548D01*
X048664Y016647D02*
X048586Y016647D01*
X048586Y016745D02*
X048664Y016745D01*
X048664Y016844D02*
X048586Y016844D01*
X048586Y016942D02*
X048664Y016942D01*
X048804Y017238D02*
X052680Y017238D01*
X052680Y017336D02*
X049042Y017336D01*
X049185Y017435D02*
X052680Y017435D01*
X052680Y017533D02*
X049283Y017533D01*
X049371Y017632D02*
X051095Y017632D01*
X050858Y017730D02*
X049411Y017730D01*
X049452Y017829D02*
X050758Y017829D01*
X052139Y017632D02*
X052680Y017632D01*
X052680Y017730D02*
X052377Y017730D01*
X052476Y017829D02*
X052680Y017829D01*
X052680Y017927D02*
X052575Y017927D01*
X052620Y018026D02*
X052680Y018026D01*
X052680Y018124D02*
X052661Y018124D01*
X052679Y018518D02*
X052680Y018518D01*
X052680Y018617D02*
X052639Y018617D01*
X052598Y018715D02*
X052680Y018715D01*
X052680Y018814D02*
X052521Y018814D01*
X052423Y018912D02*
X052680Y018912D01*
X052680Y019011D02*
X052247Y019011D01*
X052680Y017139D02*
X047752Y017139D01*
X047653Y017238D02*
X048446Y017238D01*
X048208Y017336D02*
X047555Y017336D01*
X047456Y017435D02*
X048065Y017435D01*
X047967Y017533D02*
X042615Y017533D01*
X042615Y017435D02*
X046794Y017435D01*
X047798Y017829D02*
X042500Y017829D01*
X042560Y017730D02*
X047839Y017730D01*
X047879Y017632D02*
X042601Y017632D01*
X047638Y016253D02*
X047986Y016253D01*
X048013Y016154D02*
X047737Y016154D01*
X047755Y016056D02*
X048059Y016056D01*
X048126Y015957D02*
X047755Y015957D01*
X047755Y015859D02*
X048230Y015859D01*
X048839Y015760D02*
X049704Y015760D01*
X049802Y015859D02*
X049020Y015859D01*
X049124Y015957D02*
X049901Y015957D01*
X049999Y016056D02*
X049191Y016056D01*
X049237Y016154D02*
X050098Y016154D01*
X050196Y016253D02*
X049264Y016253D01*
X049408Y015465D02*
X048920Y015465D01*
X049134Y015366D02*
X049310Y015366D01*
X052251Y017041D02*
X052680Y017041D01*
X052680Y016942D02*
X052424Y016942D01*
X052523Y016844D02*
X052680Y016844D01*
X052680Y016745D02*
X052598Y016745D01*
X052639Y016647D02*
X052680Y016647D01*
X052680Y016548D02*
X052680Y016548D01*
X046614Y022557D02*
X044557Y022557D01*
X044655Y022655D02*
X046712Y022655D01*
X046811Y022754D02*
X044754Y022754D01*
X044852Y022852D02*
X046909Y022852D01*
X047008Y022951D02*
X044951Y022951D01*
X045049Y023049D02*
X047106Y023049D01*
X047205Y023148D02*
X045148Y023148D01*
X045246Y023246D02*
X047303Y023246D01*
X047402Y023345D02*
X045345Y023345D01*
X045443Y023443D02*
X047500Y023443D01*
X047599Y023542D02*
X045542Y023542D01*
X045640Y023640D02*
X047697Y023640D01*
X047796Y023739D02*
X045739Y023739D01*
X045837Y023837D02*
X047882Y023837D01*
X047885Y023936D02*
X045936Y023936D01*
X046034Y024034D02*
X047885Y024034D01*
X047885Y024133D02*
X046133Y024133D01*
X046231Y024231D02*
X047885Y024231D01*
X047885Y024330D02*
X046330Y024330D01*
X046428Y024428D02*
X047885Y024428D01*
X047885Y024527D02*
X046527Y024527D01*
X046625Y024625D02*
X047885Y024625D01*
X047885Y024724D02*
X046724Y024724D01*
X046822Y024822D02*
X047885Y024822D01*
X047885Y024921D02*
X046921Y024921D01*
X047019Y025019D02*
X047885Y025019D01*
X047885Y025118D02*
X047118Y025118D01*
X047216Y025216D02*
X047885Y025216D01*
X048865Y025906D02*
X049237Y025906D01*
X049138Y026004D02*
X048865Y026004D01*
X048865Y026103D02*
X049040Y026103D01*
X049035Y026201D02*
X048865Y026201D01*
X049470Y026201D02*
X049530Y026201D01*
X049530Y026103D02*
X049470Y026103D01*
X049470Y026004D02*
X049530Y026004D01*
X049530Y025906D02*
X049470Y025906D01*
X049470Y026398D02*
X049530Y026398D01*
X049530Y026497D02*
X049470Y026497D01*
X049470Y026595D02*
X049530Y026595D01*
X049530Y026694D02*
X049470Y026694D01*
X049990Y028270D02*
X051629Y028270D01*
X051727Y028368D02*
X049990Y028368D01*
X049010Y028467D02*
X048733Y028467D01*
X048831Y028565D02*
X048919Y028565D01*
X048936Y029452D02*
X048814Y029452D01*
X048740Y029550D02*
X049034Y029550D01*
X047760Y029353D02*
X047602Y029353D01*
X047700Y029255D02*
X047745Y029255D01*
X047717Y028762D02*
X047745Y028762D01*
X047820Y028664D02*
X047618Y028664D01*
X048218Y031225D02*
X052524Y031225D01*
X050061Y033687D02*
X048865Y033687D01*
X048865Y033589D02*
X049073Y033589D01*
X048974Y033490D02*
X048865Y033490D01*
X048771Y032505D02*
X048979Y032505D01*
X049077Y032407D02*
X048673Y032407D01*
X048077Y032407D02*
X047865Y032407D01*
X047865Y032505D02*
X047979Y032505D01*
X047880Y032604D02*
X047870Y032604D01*
X047142Y033983D02*
X046518Y033983D01*
X046623Y034081D02*
X047087Y034081D01*
X047046Y034180D02*
X046691Y034180D01*
X046737Y034278D02*
X047005Y034278D01*
X046985Y034377D02*
X046764Y034377D01*
X045073Y033589D02*
X044979Y033589D01*
X042947Y029747D02*
X041053Y029747D01*
X041157Y029649D02*
X043045Y029649D01*
X043144Y029550D02*
X041216Y029550D01*
X041243Y029452D02*
X043242Y029452D01*
X040550Y029550D02*
X040450Y029550D01*
X040450Y029649D02*
X040550Y029649D01*
X040550Y029747D02*
X040450Y029747D01*
X039766Y029255D02*
X039500Y029255D01*
X039500Y029156D02*
X039807Y029156D01*
X039881Y029058D02*
X039500Y029058D01*
X039500Y028959D02*
X039859Y028959D01*
X042434Y003251D02*
X042534Y003251D01*
X042534Y003152D02*
X042434Y003152D01*
X042434Y003054D02*
X042534Y003054D01*
X042534Y002955D02*
X042434Y002955D01*
X042434Y002857D02*
X042534Y002857D01*
X042534Y002758D02*
X042434Y002758D01*
X042434Y002660D02*
X042534Y002660D01*
X042534Y002364D02*
X042434Y002364D01*
X042434Y002266D02*
X042534Y002266D01*
X042534Y002167D02*
X042434Y002167D01*
X042434Y002069D02*
X042534Y002069D01*
X042534Y001970D02*
X042434Y001970D01*
X042434Y001872D02*
X042534Y001872D01*
X042534Y001773D02*
X042434Y001773D01*
X042434Y001675D02*
X042534Y001675D01*
X042655Y001675D02*
X045592Y001675D01*
X045514Y001773D02*
X042820Y001773D01*
X042905Y001872D02*
X044238Y001872D01*
X044139Y001970D02*
X042955Y001970D01*
X042981Y002069D02*
X044041Y002069D01*
X043942Y002167D02*
X042987Y002167D01*
X042987Y002266D02*
X043870Y002266D01*
X043870Y002364D02*
X042987Y002364D01*
X042314Y001675D02*
X041065Y001675D01*
X041143Y001773D02*
X042148Y001773D01*
X042064Y001872D02*
X041183Y001872D01*
X041224Y001970D02*
X042014Y001970D01*
X041988Y002069D02*
X041238Y002069D01*
X041238Y002167D02*
X041982Y002167D01*
X041982Y002266D02*
X041238Y002266D01*
X041238Y002364D02*
X041982Y002364D01*
X040966Y001576D02*
X045690Y001576D01*
X045870Y001478D02*
X040786Y001478D01*
X040245Y001478D02*
X027787Y001478D01*
X027827Y001576D02*
X040065Y001576D01*
X039967Y001675D02*
X027868Y001675D01*
X027909Y001773D02*
X039889Y001773D01*
X039848Y001872D02*
X039137Y001872D01*
X039236Y001970D02*
X039807Y001970D01*
X038613Y001872D02*
X027932Y001872D01*
X027932Y001970D02*
X038514Y001970D01*
X038416Y002069D02*
X027932Y002069D01*
X027932Y002167D02*
X038317Y002167D01*
X038245Y002266D02*
X027916Y002266D01*
X027875Y002364D02*
X038245Y002364D01*
X038245Y002463D02*
X027834Y002463D01*
X027793Y002561D02*
X038245Y002561D01*
X038245Y002660D02*
X027714Y002660D01*
X027616Y002758D02*
X038245Y002758D01*
X038341Y002857D02*
X027517Y002857D01*
X030304Y002955D02*
X038439Y002955D01*
X044762Y001872D02*
X045473Y001872D01*
X045432Y001970D02*
X044861Y001970D01*
D25*
X032825Y011750D02*
X032250Y011175D01*
X032825Y011750D02*
X033000Y011750D01*
X033500Y012250D01*
X033500Y028500D01*
X032875Y029125D01*
X032875Y029250D01*
X031875Y028625D02*
X031875Y032250D01*
X032875Y033250D01*
X032875Y033750D01*
X034750Y033750D01*
X032875Y033750D02*
X032875Y034250D01*
X032875Y035500D01*
X031700Y036675D01*
X030625Y036675D01*
X032875Y038250D02*
X034024Y038250D01*
X034781Y037492D01*
X043875Y029000D02*
X043875Y023750D01*
X053250Y031375D02*
X048094Y036531D01*
X048094Y036906D01*
X032250Y028250D02*
X031875Y028625D01*
X032250Y028250D02*
X032250Y015375D01*
X032225Y015350D01*
X030500Y015350D01*
X030475Y015375D01*
X028750Y015375D01*
X032250Y015375D02*
X032250Y012575D01*
X026000Y003500D02*
X022496Y007004D01*
X006498Y007004D01*
X008746Y007004D01*
X008750Y007000D01*
X006498Y007004D02*
X006494Y007000D01*
X002750Y007000D01*
X006498Y020004D02*
X008746Y020004D01*
X008750Y020000D01*
X026000Y003500D02*
X030000Y003500D01*
D26*
X048625Y014645D02*
X049395Y014645D01*
X051250Y016500D01*
X051742Y016500D01*
X051617Y016375D01*
X051742Y016500D02*
X052000Y016500D01*
X053250Y016039D02*
X051617Y014406D01*
X053250Y016039D02*
X053250Y031375D01*
X048094Y036906D02*
X048094Y037492D01*
X048000Y037586D01*
X048000Y038250D01*
X047500Y038750D01*
X042750Y038750D01*
X041492Y037492D01*
X038719Y037492D01*
X041750Y035000D02*
X034750Y035000D01*
X034750Y033750D01*
X041750Y035000D02*
X042250Y034500D01*
X042250Y031250D01*
X043875Y029625D01*
X043875Y029000D01*
X045375Y029000D01*
D27*
X048250Y029125D02*
X048375Y029000D01*
X048250Y029125D02*
X048250Y030500D01*
X047375Y031375D01*
X047375Y033000D01*
X048375Y033000D02*
X048375Y033980D01*
X047855Y034500D01*
X047855Y035355D01*
X047875Y035375D01*
X046125Y037125D01*
X046125Y037492D01*
X044250Y037399D02*
X044250Y036000D01*
X044395Y035855D01*
X044395Y034500D01*
X044375Y034480D01*
X044375Y033500D01*
X044875Y033000D01*
X045375Y033000D01*
X048375Y033000D02*
X049375Y033000D01*
X049375Y029000D02*
X049500Y028875D01*
X049500Y027700D01*
X048375Y026575D01*
X048375Y023625D01*
X045625Y020875D01*
X040000Y020875D01*
X038525Y022350D01*
X036500Y022350D01*
X036500Y021350D02*
X038275Y021350D01*
X042125Y017500D01*
X042125Y015375D01*
X042625Y014875D01*
X043125Y014875D01*
X043125Y013575D01*
X044700Y013575D01*
X045000Y013875D01*
X045625Y013875D01*
X047125Y014875D02*
X048395Y014875D01*
X048625Y014645D01*
X047125Y014875D02*
X047125Y015875D01*
X047125Y016875D02*
X045625Y016875D01*
X044625Y015875D01*
X043125Y015875D01*
X045250Y018375D02*
X043875Y019750D01*
X045250Y018375D02*
X048355Y018375D01*
X048625Y018105D01*
X048864Y018344D01*
X051617Y018344D01*
X040500Y023350D02*
X040500Y023375D01*
X040500Y023350D02*
X036500Y023350D01*
X036500Y024350D02*
X040500Y024350D01*
X040500Y024375D01*
X040500Y025350D02*
X040500Y025375D01*
X040500Y025350D02*
X036500Y025350D01*
X036500Y026350D02*
X040500Y026350D01*
X040500Y026375D01*
X040500Y027375D02*
X036375Y027375D01*
X035500Y026500D01*
X035500Y022350D01*
X034750Y021875D02*
X034750Y026625D01*
X036500Y028375D01*
X040500Y028375D01*
X034750Y021875D02*
X035275Y021350D01*
X035500Y021350D01*
X036500Y020350D02*
X037875Y020350D01*
X037875Y020375D01*
X037875Y019375D02*
X037875Y019350D01*
X036500Y019350D01*
X036500Y018350D02*
X037150Y018350D01*
X038625Y016875D01*
X038625Y008250D01*
X040375Y006500D01*
X044500Y006500D01*
X044500Y002500D02*
X046141Y002500D01*
X046266Y002375D01*
X046375Y002375D01*
X046250Y002500D01*
X046141Y002500D01*
X040516Y002500D02*
X038875Y002500D01*
X038875Y006500D02*
X038000Y007375D01*
X038000Y016625D01*
X037275Y017350D01*
X036500Y017350D01*
X036525Y016375D02*
X036500Y016350D01*
X036525Y016375D02*
X036875Y016375D01*
X037375Y015875D01*
X037375Y011500D01*
X034000Y008125D01*
X027125Y008125D01*
X026246Y009004D01*
X006498Y009004D01*
X006498Y008004D02*
X023871Y008004D01*
X027375Y004500D01*
X031000Y004500D01*
X033250Y009125D02*
X028000Y009125D01*
X026121Y011004D01*
X006498Y011004D01*
X006501Y016000D02*
X006498Y016004D01*
X006501Y016000D02*
X011750Y016000D01*
X016100Y020350D01*
X030500Y020350D01*
X030500Y019375D02*
X030500Y019350D01*
X030500Y019375D02*
X029125Y019375D01*
X029125Y018375D02*
X030500Y018375D01*
X030500Y018350D01*
X030500Y017375D02*
X030500Y017350D01*
X030500Y017375D02*
X029125Y017375D01*
X030500Y021350D02*
X015350Y021350D01*
X011000Y017000D01*
X006501Y017000D01*
X006498Y017004D01*
X006501Y018000D02*
X006498Y018004D01*
X006501Y018000D02*
X010250Y018000D01*
X014600Y022350D01*
X030500Y022350D01*
X030500Y023350D02*
X014100Y023350D01*
X009750Y019000D01*
X006501Y019000D01*
X006498Y019004D01*
X028250Y025500D02*
X028250Y032000D01*
X028750Y032500D01*
X030500Y032500D01*
X030500Y031500D02*
X029500Y031500D01*
X029000Y031000D01*
X029000Y026250D01*
X029900Y025350D01*
X030500Y025350D01*
X030500Y026350D02*
X030500Y028500D01*
X028250Y025500D02*
X029400Y024350D01*
X030500Y024350D01*
X035850Y015350D02*
X034250Y013750D01*
X034250Y010125D01*
X033250Y009125D01*
X035850Y015350D02*
X036500Y015350D01*
X049425Y027625D02*
X049500Y027700D01*
X051950Y027700D01*
X052000Y027750D01*
X044250Y037399D02*
X044156Y037492D01*
M02*
