%
M48
M72
T01C0.0236
T02C0.0240
T03C0.0320
T04C0.0354
T05C0.0400
T06C0.0433
T07C0.0470
T08C0.1102
T09C0.1260
%
T01
X8750Y7000
X8750Y20000
X25875Y27375
X26750Y27375
X29750Y29625
X26750Y31875
X25750Y31875
X28500Y37500
X28500Y38500
X37750Y33000
X33750Y30625
X41750Y22375
X45250Y26125
X45250Y27000
X47625Y24750
X49500Y22500
X50500Y22500
X39750Y14500
X28750Y12000
X28750Y11125
X35500Y4000
X35500Y3000
X51000Y8500
X52000Y8500
X2000Y33500
X2000Y34500
T02
X31000Y4500
X30000Y3500
X32000Y3500
T03
X38875Y2500
X38875Y6500
X44500Y6500
X44500Y2500
X45625Y11875
X45625Y13875
X47125Y14875
X47125Y15875
X47125Y16875
X43875Y19750
X43125Y16875
X43125Y15875
X43125Y14875
X43125Y13575
X43125Y12175
X32250Y12575
X32250Y11175
X28750Y13375
X28750Y15375
X43875Y23750
X49500Y26300
X49500Y27700
X49375Y29000
X48375Y29000
X47375Y29000
X45375Y29000
X43875Y29000
X43875Y31000
X45375Y33000
X47375Y33000
X48375Y33000
X49375Y33000
X52000Y27750
X52000Y25750
X40375Y33750
X38375Y33750
X38425Y31500
X39825Y31500
X32875Y33250
X32875Y34250
X30625Y36675
X30625Y38075
X32875Y38250
X32875Y29250
X2750Y9000
X2750Y7000
T04
X44395Y34500
X46125Y34500
X47855Y34500
X48625Y18105
X48625Y16375
X48625Y14645
T05
X40500Y22375
X40500Y23375
X40500Y24375
X40500Y25375
X40500Y26375
X40500Y27375
X40500Y28375
X40500Y29375
X36750Y33750
X35750Y33750
X34750Y33750
X30500Y33500
X30500Y32500
X30500Y31500
X30500Y30500
X30500Y28500
X37875Y20375
X37875Y19375
X29125Y19375
X29125Y18375
X29125Y17375
X6498Y17004
X6498Y16004
X6498Y15004
X6498Y14004
X6498Y13004
X6498Y12004
X6498Y11004
X6498Y10004
X6498Y9004
X6498Y8004
X6498Y7004
X6498Y6004
X6498Y18004
X6498Y19004
X6498Y20004
X6498Y21004
T06
X30500Y21350
X30500Y22350
X30500Y23350
X30500Y24350
X30500Y25350
X30500Y26350
X35500Y22350
X35500Y21350
X36500Y21350
X36500Y22350
X36500Y23350
X36500Y24350
X36500Y25350
X36500Y26350
X36500Y20350
X36500Y19350
X36500Y18350
X36500Y17350
X36500Y16350
X36500Y15350
X30500Y15350
X30500Y16350
X30500Y17350
X30500Y18350
X30500Y19350
X30500Y20350
T07
X51617Y18344
X51617Y16375
X51617Y14406
X48109Y2500
X46141Y2500
X42484Y2500
X40516Y2500
X38719Y37492
X36750Y37492
X34781Y37492
X44156Y37492
X46125Y37492
X48094Y37492
T08
X26931Y38642
X5277Y38642
X5277Y2027
X26931Y2027
T09
X2000Y2000
X2000Y38000
X52000Y38000
X52000Y2000
M30
