G75*
%MOIN*%
%OFA0B0*%
%FSLAX24Y24*%
%IPPOS*%
%LPD*%
%AMOC8*
5,1,8,0,0,1.08239X$1,22.5*
%
%ADD10C,0.0000*%
%ADD11R,0.0551X0.0394*%
%ADD12OC8,0.0520*%
%ADD13C,0.1000*%
%ADD14OC8,0.0630*%
%ADD15C,0.0630*%
%ADD16R,0.0394X0.0551*%
%ADD17C,0.0650*%
%ADD18R,0.0740X0.0740*%
%ADD19C,0.0740*%
%ADD20C,0.0440*%
%ADD21C,0.0600*%
%ADD22C,0.0705*%
%ADD23OC8,0.0600*%
%ADD24C,0.0520*%
%ADD25R,0.0396X0.0396*%
%ADD26C,0.0100*%
%ADD27C,0.0400*%
%ADD28C,0.0240*%
D10*
X000000Y000000D02*
X054000Y000000D01*
X054000Y040000D01*
X000000Y040000D01*
X000000Y000000D01*
X001370Y002000D02*
X001372Y002050D01*
X001378Y002100D01*
X001388Y002149D01*
X001402Y002197D01*
X001419Y002244D01*
X001440Y002289D01*
X001465Y002333D01*
X001493Y002374D01*
X001525Y002413D01*
X001559Y002450D01*
X001596Y002484D01*
X001636Y002514D01*
X001678Y002541D01*
X001722Y002565D01*
X001768Y002586D01*
X001815Y002602D01*
X001863Y002615D01*
X001913Y002624D01*
X001962Y002629D01*
X002013Y002630D01*
X002063Y002627D01*
X002112Y002620D01*
X002161Y002609D01*
X002209Y002594D01*
X002255Y002576D01*
X002300Y002554D01*
X002343Y002528D01*
X002384Y002499D01*
X002423Y002467D01*
X002459Y002432D01*
X002491Y002394D01*
X002521Y002354D01*
X002548Y002311D01*
X002571Y002267D01*
X002590Y002221D01*
X002606Y002173D01*
X002618Y002124D01*
X002626Y002075D01*
X002630Y002025D01*
X002630Y001975D01*
X002626Y001925D01*
X002618Y001876D01*
X002606Y001827D01*
X002590Y001779D01*
X002571Y001733D01*
X002548Y001689D01*
X002521Y001646D01*
X002491Y001606D01*
X002459Y001568D01*
X002423Y001533D01*
X002384Y001501D01*
X002343Y001472D01*
X002300Y001446D01*
X002255Y001424D01*
X002209Y001406D01*
X002161Y001391D01*
X002112Y001380D01*
X002063Y001373D01*
X002013Y001370D01*
X001962Y001371D01*
X001913Y001376D01*
X001863Y001385D01*
X001815Y001398D01*
X001768Y001414D01*
X001722Y001435D01*
X001678Y001459D01*
X001636Y001486D01*
X001596Y001516D01*
X001559Y001550D01*
X001525Y001587D01*
X001493Y001626D01*
X001465Y001667D01*
X001440Y001711D01*
X001419Y001756D01*
X001402Y001803D01*
X001388Y001851D01*
X001378Y001900D01*
X001372Y001950D01*
X001370Y002000D01*
X004726Y002027D02*
X004728Y002074D01*
X004734Y002120D01*
X004744Y002166D01*
X004757Y002211D01*
X004775Y002254D01*
X004796Y002296D01*
X004820Y002336D01*
X004848Y002373D01*
X004879Y002408D01*
X004913Y002441D01*
X004949Y002470D01*
X004988Y002496D01*
X005029Y002519D01*
X005072Y002538D01*
X005116Y002554D01*
X005161Y002566D01*
X005207Y002574D01*
X005254Y002578D01*
X005300Y002578D01*
X005347Y002574D01*
X005393Y002566D01*
X005438Y002554D01*
X005482Y002538D01*
X005525Y002519D01*
X005566Y002496D01*
X005605Y002470D01*
X005641Y002441D01*
X005675Y002408D01*
X005706Y002373D01*
X005734Y002336D01*
X005758Y002296D01*
X005779Y002254D01*
X005797Y002211D01*
X005810Y002166D01*
X005820Y002120D01*
X005826Y002074D01*
X005828Y002027D01*
X005826Y001980D01*
X005820Y001934D01*
X005810Y001888D01*
X005797Y001843D01*
X005779Y001800D01*
X005758Y001758D01*
X005734Y001718D01*
X005706Y001681D01*
X005675Y001646D01*
X005641Y001613D01*
X005605Y001584D01*
X005566Y001558D01*
X005525Y001535D01*
X005482Y001516D01*
X005438Y001500D01*
X005393Y001488D01*
X005347Y001480D01*
X005300Y001476D01*
X005254Y001476D01*
X005207Y001480D01*
X005161Y001488D01*
X005116Y001500D01*
X005072Y001516D01*
X005029Y001535D01*
X004988Y001558D01*
X004949Y001584D01*
X004913Y001613D01*
X004879Y001646D01*
X004848Y001681D01*
X004820Y001718D01*
X004796Y001758D01*
X004775Y001800D01*
X004757Y001843D01*
X004744Y001888D01*
X004734Y001934D01*
X004728Y001980D01*
X004726Y002027D01*
X026380Y002027D02*
X026382Y002074D01*
X026388Y002120D01*
X026398Y002166D01*
X026411Y002211D01*
X026429Y002254D01*
X026450Y002296D01*
X026474Y002336D01*
X026502Y002373D01*
X026533Y002408D01*
X026567Y002441D01*
X026603Y002470D01*
X026642Y002496D01*
X026683Y002519D01*
X026726Y002538D01*
X026770Y002554D01*
X026815Y002566D01*
X026861Y002574D01*
X026908Y002578D01*
X026954Y002578D01*
X027001Y002574D01*
X027047Y002566D01*
X027092Y002554D01*
X027136Y002538D01*
X027179Y002519D01*
X027220Y002496D01*
X027259Y002470D01*
X027295Y002441D01*
X027329Y002408D01*
X027360Y002373D01*
X027388Y002336D01*
X027412Y002296D01*
X027433Y002254D01*
X027451Y002211D01*
X027464Y002166D01*
X027474Y002120D01*
X027480Y002074D01*
X027482Y002027D01*
X027480Y001980D01*
X027474Y001934D01*
X027464Y001888D01*
X027451Y001843D01*
X027433Y001800D01*
X027412Y001758D01*
X027388Y001718D01*
X027360Y001681D01*
X027329Y001646D01*
X027295Y001613D01*
X027259Y001584D01*
X027220Y001558D01*
X027179Y001535D01*
X027136Y001516D01*
X027092Y001500D01*
X027047Y001488D01*
X027001Y001480D01*
X026954Y001476D01*
X026908Y001476D01*
X026861Y001480D01*
X026815Y001488D01*
X026770Y001500D01*
X026726Y001516D01*
X026683Y001535D01*
X026642Y001558D01*
X026603Y001584D01*
X026567Y001613D01*
X026533Y001646D01*
X026502Y001681D01*
X026474Y001718D01*
X026450Y001758D01*
X026429Y001800D01*
X026411Y001843D01*
X026398Y001888D01*
X026388Y001934D01*
X026382Y001980D01*
X026380Y002027D01*
X051370Y002000D02*
X051372Y002050D01*
X051378Y002100D01*
X051388Y002149D01*
X051402Y002197D01*
X051419Y002244D01*
X051440Y002289D01*
X051465Y002333D01*
X051493Y002374D01*
X051525Y002413D01*
X051559Y002450D01*
X051596Y002484D01*
X051636Y002514D01*
X051678Y002541D01*
X051722Y002565D01*
X051768Y002586D01*
X051815Y002602D01*
X051863Y002615D01*
X051913Y002624D01*
X051962Y002629D01*
X052013Y002630D01*
X052063Y002627D01*
X052112Y002620D01*
X052161Y002609D01*
X052209Y002594D01*
X052255Y002576D01*
X052300Y002554D01*
X052343Y002528D01*
X052384Y002499D01*
X052423Y002467D01*
X052459Y002432D01*
X052491Y002394D01*
X052521Y002354D01*
X052548Y002311D01*
X052571Y002267D01*
X052590Y002221D01*
X052606Y002173D01*
X052618Y002124D01*
X052626Y002075D01*
X052630Y002025D01*
X052630Y001975D01*
X052626Y001925D01*
X052618Y001876D01*
X052606Y001827D01*
X052590Y001779D01*
X052571Y001733D01*
X052548Y001689D01*
X052521Y001646D01*
X052491Y001606D01*
X052459Y001568D01*
X052423Y001533D01*
X052384Y001501D01*
X052343Y001472D01*
X052300Y001446D01*
X052255Y001424D01*
X052209Y001406D01*
X052161Y001391D01*
X052112Y001380D01*
X052063Y001373D01*
X052013Y001370D01*
X051962Y001371D01*
X051913Y001376D01*
X051863Y001385D01*
X051815Y001398D01*
X051768Y001414D01*
X051722Y001435D01*
X051678Y001459D01*
X051636Y001486D01*
X051596Y001516D01*
X051559Y001550D01*
X051525Y001587D01*
X051493Y001626D01*
X051465Y001667D01*
X051440Y001711D01*
X051419Y001756D01*
X051402Y001803D01*
X051388Y001851D01*
X051378Y001900D01*
X051372Y001950D01*
X051370Y002000D01*
X051370Y038000D02*
X051372Y038050D01*
X051378Y038100D01*
X051388Y038149D01*
X051402Y038197D01*
X051419Y038244D01*
X051440Y038289D01*
X051465Y038333D01*
X051493Y038374D01*
X051525Y038413D01*
X051559Y038450D01*
X051596Y038484D01*
X051636Y038514D01*
X051678Y038541D01*
X051722Y038565D01*
X051768Y038586D01*
X051815Y038602D01*
X051863Y038615D01*
X051913Y038624D01*
X051962Y038629D01*
X052013Y038630D01*
X052063Y038627D01*
X052112Y038620D01*
X052161Y038609D01*
X052209Y038594D01*
X052255Y038576D01*
X052300Y038554D01*
X052343Y038528D01*
X052384Y038499D01*
X052423Y038467D01*
X052459Y038432D01*
X052491Y038394D01*
X052521Y038354D01*
X052548Y038311D01*
X052571Y038267D01*
X052590Y038221D01*
X052606Y038173D01*
X052618Y038124D01*
X052626Y038075D01*
X052630Y038025D01*
X052630Y037975D01*
X052626Y037925D01*
X052618Y037876D01*
X052606Y037827D01*
X052590Y037779D01*
X052571Y037733D01*
X052548Y037689D01*
X052521Y037646D01*
X052491Y037606D01*
X052459Y037568D01*
X052423Y037533D01*
X052384Y037501D01*
X052343Y037472D01*
X052300Y037446D01*
X052255Y037424D01*
X052209Y037406D01*
X052161Y037391D01*
X052112Y037380D01*
X052063Y037373D01*
X052013Y037370D01*
X051962Y037371D01*
X051913Y037376D01*
X051863Y037385D01*
X051815Y037398D01*
X051768Y037414D01*
X051722Y037435D01*
X051678Y037459D01*
X051636Y037486D01*
X051596Y037516D01*
X051559Y037550D01*
X051525Y037587D01*
X051493Y037626D01*
X051465Y037667D01*
X051440Y037711D01*
X051419Y037756D01*
X051402Y037803D01*
X051388Y037851D01*
X051378Y037900D01*
X051372Y037950D01*
X051370Y038000D01*
X026380Y038642D02*
X026382Y038689D01*
X026388Y038735D01*
X026398Y038781D01*
X026411Y038826D01*
X026429Y038869D01*
X026450Y038911D01*
X026474Y038951D01*
X026502Y038988D01*
X026533Y039023D01*
X026567Y039056D01*
X026603Y039085D01*
X026642Y039111D01*
X026683Y039134D01*
X026726Y039153D01*
X026770Y039169D01*
X026815Y039181D01*
X026861Y039189D01*
X026908Y039193D01*
X026954Y039193D01*
X027001Y039189D01*
X027047Y039181D01*
X027092Y039169D01*
X027136Y039153D01*
X027179Y039134D01*
X027220Y039111D01*
X027259Y039085D01*
X027295Y039056D01*
X027329Y039023D01*
X027360Y038988D01*
X027388Y038951D01*
X027412Y038911D01*
X027433Y038869D01*
X027451Y038826D01*
X027464Y038781D01*
X027474Y038735D01*
X027480Y038689D01*
X027482Y038642D01*
X027480Y038595D01*
X027474Y038549D01*
X027464Y038503D01*
X027451Y038458D01*
X027433Y038415D01*
X027412Y038373D01*
X027388Y038333D01*
X027360Y038296D01*
X027329Y038261D01*
X027295Y038228D01*
X027259Y038199D01*
X027220Y038173D01*
X027179Y038150D01*
X027136Y038131D01*
X027092Y038115D01*
X027047Y038103D01*
X027001Y038095D01*
X026954Y038091D01*
X026908Y038091D01*
X026861Y038095D01*
X026815Y038103D01*
X026770Y038115D01*
X026726Y038131D01*
X026683Y038150D01*
X026642Y038173D01*
X026603Y038199D01*
X026567Y038228D01*
X026533Y038261D01*
X026502Y038296D01*
X026474Y038333D01*
X026450Y038373D01*
X026429Y038415D01*
X026411Y038458D01*
X026398Y038503D01*
X026388Y038549D01*
X026382Y038595D01*
X026380Y038642D01*
X004726Y038642D02*
X004728Y038689D01*
X004734Y038735D01*
X004744Y038781D01*
X004757Y038826D01*
X004775Y038869D01*
X004796Y038911D01*
X004820Y038951D01*
X004848Y038988D01*
X004879Y039023D01*
X004913Y039056D01*
X004949Y039085D01*
X004988Y039111D01*
X005029Y039134D01*
X005072Y039153D01*
X005116Y039169D01*
X005161Y039181D01*
X005207Y039189D01*
X005254Y039193D01*
X005300Y039193D01*
X005347Y039189D01*
X005393Y039181D01*
X005438Y039169D01*
X005482Y039153D01*
X005525Y039134D01*
X005566Y039111D01*
X005605Y039085D01*
X005641Y039056D01*
X005675Y039023D01*
X005706Y038988D01*
X005734Y038951D01*
X005758Y038911D01*
X005779Y038869D01*
X005797Y038826D01*
X005810Y038781D01*
X005820Y038735D01*
X005826Y038689D01*
X005828Y038642D01*
X005826Y038595D01*
X005820Y038549D01*
X005810Y038503D01*
X005797Y038458D01*
X005779Y038415D01*
X005758Y038373D01*
X005734Y038333D01*
X005706Y038296D01*
X005675Y038261D01*
X005641Y038228D01*
X005605Y038199D01*
X005566Y038173D01*
X005525Y038150D01*
X005482Y038131D01*
X005438Y038115D01*
X005393Y038103D01*
X005347Y038095D01*
X005300Y038091D01*
X005254Y038091D01*
X005207Y038095D01*
X005161Y038103D01*
X005116Y038115D01*
X005072Y038131D01*
X005029Y038150D01*
X004988Y038173D01*
X004949Y038199D01*
X004913Y038228D01*
X004879Y038261D01*
X004848Y038296D01*
X004820Y038333D01*
X004796Y038373D01*
X004775Y038415D01*
X004757Y038458D01*
X004744Y038503D01*
X004734Y038549D01*
X004728Y038595D01*
X004726Y038642D01*
X001370Y038000D02*
X001372Y038050D01*
X001378Y038100D01*
X001388Y038149D01*
X001402Y038197D01*
X001419Y038244D01*
X001440Y038289D01*
X001465Y038333D01*
X001493Y038374D01*
X001525Y038413D01*
X001559Y038450D01*
X001596Y038484D01*
X001636Y038514D01*
X001678Y038541D01*
X001722Y038565D01*
X001768Y038586D01*
X001815Y038602D01*
X001863Y038615D01*
X001913Y038624D01*
X001962Y038629D01*
X002013Y038630D01*
X002063Y038627D01*
X002112Y038620D01*
X002161Y038609D01*
X002209Y038594D01*
X002255Y038576D01*
X002300Y038554D01*
X002343Y038528D01*
X002384Y038499D01*
X002423Y038467D01*
X002459Y038432D01*
X002491Y038394D01*
X002521Y038354D01*
X002548Y038311D01*
X002571Y038267D01*
X002590Y038221D01*
X002606Y038173D01*
X002618Y038124D01*
X002626Y038075D01*
X002630Y038025D01*
X002630Y037975D01*
X002626Y037925D01*
X002618Y037876D01*
X002606Y037827D01*
X002590Y037779D01*
X002571Y037733D01*
X002548Y037689D01*
X002521Y037646D01*
X002491Y037606D01*
X002459Y037568D01*
X002423Y037533D01*
X002384Y037501D01*
X002343Y037472D01*
X002300Y037446D01*
X002255Y037424D01*
X002209Y037406D01*
X002161Y037391D01*
X002112Y037380D01*
X002063Y037373D01*
X002013Y037370D01*
X001962Y037371D01*
X001913Y037376D01*
X001863Y037385D01*
X001815Y037398D01*
X001768Y037414D01*
X001722Y037435D01*
X001678Y037459D01*
X001636Y037486D01*
X001596Y037516D01*
X001559Y037550D01*
X001525Y037587D01*
X001493Y037626D01*
X001465Y037667D01*
X001440Y037711D01*
X001419Y037756D01*
X001402Y037803D01*
X001388Y037851D01*
X001378Y037900D01*
X001372Y037950D01*
X001370Y038000D01*
D11*
X041192Y015249D03*
X042058Y014875D03*
X041192Y014501D03*
D12*
X043125Y014875D03*
X043125Y015875D03*
X043125Y016875D03*
X043875Y019750D03*
X047125Y016875D03*
X047125Y015875D03*
X047125Y014875D03*
X045625Y013875D03*
X045625Y011875D03*
X044500Y006500D03*
X044500Y002500D03*
X038875Y002500D03*
X038875Y006500D03*
X028750Y013375D03*
X028750Y015375D03*
X043875Y023750D03*
X043875Y029000D03*
X045375Y029000D03*
X047375Y029000D03*
X048375Y029000D03*
X049375Y029000D03*
X052000Y027750D03*
X052000Y025750D03*
X043875Y031000D03*
X045375Y033000D03*
X047375Y033000D03*
X048375Y033000D03*
X049375Y033000D03*
X040375Y033750D03*
X038375Y033750D03*
X032875Y034250D03*
X032875Y038250D03*
X002750Y009000D03*
X002750Y007000D03*
D13*
X044395Y034500D03*
X046125Y034500D03*
X047855Y034500D03*
X048625Y018105D03*
X048625Y016375D03*
X048625Y014645D03*
D14*
X043125Y012175D03*
X032250Y011175D03*
X049500Y026300D03*
X039825Y031500D03*
X030625Y038075D03*
D15*
X030625Y036675D03*
X038425Y031500D03*
X049500Y027700D03*
X043125Y013575D03*
X032250Y012575D03*
D16*
X046626Y026442D03*
X047374Y026442D03*
X047000Y027308D03*
D17*
X036500Y026350D03*
X036500Y025350D03*
X036500Y024350D03*
X036500Y023350D03*
X036500Y022350D03*
X036500Y021350D03*
X035500Y021350D03*
X035500Y022350D03*
X036500Y020350D03*
X036500Y019350D03*
X036500Y018350D03*
X036500Y017350D03*
X036500Y016350D03*
X036500Y015350D03*
X030500Y015350D03*
X030500Y016350D03*
X030500Y017350D03*
X030500Y018350D03*
X030500Y019350D03*
X030500Y020350D03*
X030500Y021350D03*
X030500Y022350D03*
X030500Y023350D03*
X030500Y024350D03*
X030500Y025350D03*
X030500Y026350D03*
D18*
X006498Y006004D03*
D19*
X006498Y007004D03*
X006498Y008004D03*
X006498Y009004D03*
X006498Y010004D03*
X006498Y011004D03*
X006498Y012004D03*
X006498Y013004D03*
X006498Y014004D03*
X006498Y015004D03*
X006498Y016004D03*
X006498Y017004D03*
X006498Y018004D03*
X006498Y019004D03*
X006498Y020004D03*
X006498Y021004D03*
D20*
X030000Y003500D03*
X031000Y004500D03*
X032000Y003500D03*
D21*
X029425Y017375D02*
X028825Y017375D01*
X028825Y018375D02*
X029425Y018375D01*
X029425Y019375D02*
X028825Y019375D01*
X037575Y019375D02*
X038175Y019375D01*
X038175Y020375D02*
X037575Y020375D01*
X040200Y022375D02*
X040800Y022375D01*
X040800Y023375D02*
X040200Y023375D01*
X040200Y024375D02*
X040800Y024375D01*
X040800Y025375D02*
X040200Y025375D01*
X040200Y026375D02*
X040800Y026375D01*
X040800Y027375D02*
X040200Y027375D01*
X040200Y028375D02*
X040800Y028375D01*
X040800Y029375D02*
X040200Y029375D01*
X036750Y033450D02*
X036750Y034050D01*
X035750Y034050D02*
X035750Y033450D01*
X034750Y033450D02*
X034750Y034050D01*
X030800Y033500D02*
X030200Y033500D01*
X030200Y032500D02*
X030800Y032500D01*
X030800Y031500D02*
X030200Y031500D01*
X030200Y030500D02*
X030800Y030500D01*
D22*
X034781Y037140D02*
X034781Y037845D01*
X036750Y037845D02*
X036750Y037140D01*
X038719Y037140D02*
X038719Y037845D01*
X044156Y037845D02*
X044156Y037140D01*
X046125Y037140D02*
X046125Y037845D01*
X048094Y037845D02*
X048094Y037140D01*
X051265Y018344D02*
X051970Y018344D01*
X051970Y016375D02*
X051265Y016375D01*
X051265Y014406D02*
X051970Y014406D01*
X048109Y002853D02*
X048109Y002148D01*
X046141Y002148D02*
X046141Y002853D01*
X042484Y002853D02*
X042484Y002148D01*
X040516Y002148D02*
X040516Y002853D01*
D23*
X030500Y028500D03*
D24*
X032875Y028990D02*
X032875Y029510D01*
X032875Y032990D02*
X032875Y033510D01*
D25*
X033750Y030625D03*
X029750Y029625D03*
X026750Y031875D03*
X025750Y031875D03*
X025875Y027375D03*
X026750Y027375D03*
X037750Y033000D03*
X045250Y027000D03*
X045250Y026125D03*
X047625Y024750D03*
X049500Y022500D03*
X050500Y022500D03*
X041750Y022375D03*
X039750Y014500D03*
X028750Y012000D03*
X028750Y011125D03*
X035500Y004000D03*
X035500Y003000D03*
X051000Y008500D03*
X052000Y008500D03*
X028500Y037500D03*
X028500Y038500D03*
X008750Y020000D03*
X008750Y007000D03*
X002000Y033500D03*
X002000Y034500D03*
D26*
X000500Y034475D02*
X032245Y034475D01*
X032245Y034511D02*
X032245Y033989D01*
X032354Y033880D01*
X032341Y033867D01*
X032245Y033635D01*
X032245Y033000D01*
X031248Y033000D01*
X031180Y033068D01*
X031047Y033123D01*
X031093Y033157D01*
X031143Y033207D01*
X031185Y033264D01*
X031217Y033327D01*
X031239Y033395D01*
X031248Y033450D01*
X030550Y033450D01*
X030550Y033550D01*
X030450Y033550D01*
X030450Y033950D01*
X030165Y033950D01*
X030095Y033939D01*
X030027Y033917D01*
X029964Y033885D01*
X029907Y033843D01*
X029857Y033793D01*
X029815Y033736D01*
X029783Y033673D01*
X029761Y033605D01*
X029752Y033550D01*
X030450Y033550D01*
X030450Y033450D01*
X029752Y033450D01*
X029761Y033395D01*
X029783Y033327D01*
X029815Y033264D01*
X029857Y033207D01*
X029907Y033157D01*
X029953Y033123D01*
X029820Y033068D01*
X029752Y033000D01*
X027750Y033000D01*
X027750Y031500D01*
X007000Y031500D01*
X007000Y021140D01*
X006980Y021203D01*
X006942Y021276D01*
X006894Y021343D01*
X006836Y021400D01*
X006770Y021449D01*
X006697Y021486D01*
X006619Y021511D01*
X006548Y021522D01*
X006548Y021054D01*
X006448Y021054D01*
X006448Y021522D01*
X006376Y021511D01*
X006298Y021486D01*
X006225Y021449D01*
X006159Y021400D01*
X006101Y021343D01*
X006053Y021276D01*
X000500Y021276D01*
X000500Y021178D02*
X006007Y021178D01*
X006016Y021203D02*
X005990Y021126D01*
X005979Y021054D01*
X006448Y021054D01*
X006448Y020954D01*
X005979Y020954D01*
X005990Y020882D01*
X000500Y020882D01*
X000500Y020784D02*
X006026Y020784D01*
X006016Y020804D02*
X006053Y020731D01*
X006101Y020665D01*
X006118Y020648D01*
X006078Y020631D01*
X005870Y020423D01*
X005758Y020151D01*
X005758Y019857D01*
X005870Y019585D01*
X005951Y019504D01*
X005870Y019423D01*
X005758Y019151D01*
X005758Y018857D01*
X005870Y018585D01*
X005951Y018504D01*
X005870Y018423D01*
X005758Y018151D01*
X005758Y017857D01*
X005870Y017585D01*
X005951Y017504D01*
X005870Y017423D01*
X005758Y017151D01*
X005758Y016857D01*
X005870Y016585D01*
X005951Y016504D01*
X005870Y016423D01*
X005758Y016151D01*
X005758Y015857D01*
X005870Y015585D01*
X005951Y015504D01*
X005870Y015423D01*
X005758Y015151D01*
X005758Y014857D01*
X005870Y014585D01*
X005951Y014504D01*
X005870Y014423D01*
X005758Y014151D01*
X005758Y013857D01*
X005870Y013585D01*
X005951Y013504D01*
X005870Y013423D01*
X005758Y013151D01*
X005758Y012857D01*
X005870Y012585D01*
X005951Y012504D01*
X005870Y012423D01*
X005758Y012151D01*
X005758Y011857D01*
X005870Y011585D01*
X005951Y011504D01*
X005870Y011423D01*
X005758Y011151D01*
X005758Y010857D01*
X005870Y010585D01*
X006078Y010376D01*
X006118Y010360D01*
X006101Y010343D01*
X006053Y010276D01*
X006016Y010203D01*
X005990Y010126D01*
X005979Y010054D01*
X006448Y010054D01*
X006448Y009954D01*
X005979Y009954D01*
X005990Y009882D01*
X006016Y009804D01*
X006053Y009731D01*
X006101Y009665D01*
X006118Y009648D01*
X006078Y009631D01*
X005870Y009423D01*
X005758Y009151D01*
X005758Y008857D01*
X005870Y008585D01*
X005951Y008504D01*
X005870Y008423D01*
X005758Y008151D01*
X005758Y007857D01*
X005870Y007585D01*
X005951Y007504D01*
X005870Y007423D01*
X005758Y007151D01*
X005758Y006857D01*
X005870Y006585D01*
X006001Y006454D01*
X005988Y006432D01*
X005978Y006394D01*
X005978Y006054D01*
X006448Y006054D01*
X006448Y005954D01*
X006548Y005954D01*
X006548Y005484D01*
X006887Y005484D01*
X006926Y005494D01*
X006960Y005514D01*
X006988Y005542D01*
X007000Y005563D01*
X007000Y000500D01*
X004000Y000500D01*
X004000Y004000D01*
X000500Y004000D01*
X000500Y036000D01*
X004000Y036000D01*
X004000Y039500D01*
X004743Y039504D01*
X004710Y039490D01*
X004428Y039209D01*
X004276Y038841D01*
X004276Y038442D01*
X004428Y038074D01*
X004710Y037793D01*
X005078Y037640D01*
X005476Y037640D01*
X005844Y037793D01*
X006126Y038074D01*
X006278Y038442D01*
X006278Y038841D01*
X006126Y039209D01*
X005844Y039490D01*
X005797Y039510D01*
X013200Y039550D01*
X026508Y039550D01*
X026364Y039490D01*
X026082Y039209D01*
X025930Y038841D01*
X025930Y038442D01*
X026082Y038074D01*
X026364Y037793D01*
X026732Y037640D01*
X027130Y037640D01*
X027498Y037793D01*
X027779Y038074D01*
X027932Y038442D01*
X027932Y038841D01*
X027779Y039209D01*
X027498Y039490D01*
X027354Y039550D01*
X050000Y039550D01*
X050000Y036000D01*
X053500Y036000D01*
X053500Y004000D01*
X050000Y004000D01*
X050000Y000500D01*
X007875Y000500D01*
X007875Y006125D01*
X011500Y006125D01*
X011500Y028000D01*
X030052Y028000D01*
X030222Y027830D01*
X030778Y027830D01*
X030948Y028000D01*
X031250Y028000D01*
X032465Y029215D01*
X032465Y028958D01*
X032475Y028894D01*
X032495Y028833D01*
X032524Y028775D01*
X032562Y028723D01*
X032608Y028677D01*
X032660Y028639D01*
X032718Y028610D01*
X032779Y028590D01*
X032843Y028580D01*
X032845Y028580D01*
X032845Y029220D01*
X032905Y029220D01*
X032905Y029280D01*
X033285Y029280D01*
X033285Y029500D01*
X037000Y029500D01*
X037000Y026833D01*
X036894Y026939D01*
X036638Y027045D01*
X036362Y027045D01*
X036106Y026939D01*
X035911Y026744D01*
X035805Y026488D01*
X035805Y026212D01*
X035911Y025956D01*
X036017Y025850D01*
X035911Y025744D01*
X035805Y025488D01*
X035805Y025212D01*
X035911Y024956D01*
X036017Y024850D01*
X035911Y024744D01*
X035805Y024488D01*
X035805Y024212D01*
X035911Y023956D01*
X036017Y023850D01*
X035911Y023744D01*
X035805Y023488D01*
X035805Y023212D01*
X035911Y022956D01*
X036017Y022850D01*
X036000Y022833D01*
X035894Y022939D01*
X035638Y023045D01*
X035362Y023045D01*
X035106Y022939D01*
X034911Y022744D01*
X034805Y022488D01*
X034805Y022212D01*
X034911Y021956D01*
X035017Y021850D01*
X034911Y021744D01*
X034805Y021488D01*
X034805Y021212D01*
X034911Y020956D01*
X035106Y020761D01*
X035362Y020655D01*
X035638Y020655D01*
X035894Y020761D01*
X036000Y020867D01*
X036017Y020850D01*
X035911Y020744D01*
X035805Y020488D01*
X031195Y020488D01*
X031089Y020744D01*
X030983Y020850D01*
X031089Y020956D01*
X031195Y021212D01*
X031195Y021488D01*
X031089Y021744D01*
X030983Y021850D01*
X031089Y021956D01*
X031195Y022212D01*
X031195Y022488D01*
X031089Y022744D01*
X030983Y022850D01*
X031089Y022956D01*
X031195Y023212D01*
X031195Y023488D01*
X031089Y023744D01*
X030983Y023850D01*
X031089Y023956D01*
X031195Y024212D01*
X031195Y024488D01*
X031089Y024744D01*
X030983Y024850D01*
X031089Y024956D01*
X031195Y025212D01*
X031195Y025488D01*
X031089Y025744D01*
X030983Y025850D01*
X031089Y025956D01*
X031195Y026212D01*
X031195Y026488D01*
X031089Y026744D01*
X030894Y026939D01*
X030638Y027045D01*
X030362Y027045D01*
X030106Y026939D01*
X029911Y026744D01*
X029805Y026488D01*
X029805Y026212D01*
X029911Y025956D01*
X030017Y025850D01*
X029911Y025744D01*
X029805Y025488D01*
X029805Y025212D01*
X029911Y024956D01*
X030017Y024850D01*
X029911Y024744D01*
X029805Y024488D01*
X029805Y024212D01*
X029911Y023956D01*
X030017Y023850D01*
X029911Y023744D01*
X029805Y023488D01*
X029805Y023212D01*
X029911Y022956D01*
X030017Y022850D01*
X029911Y022744D01*
X029805Y022488D01*
X029805Y022212D01*
X029911Y021956D01*
X030017Y021850D01*
X029911Y021744D01*
X029805Y021488D01*
X029805Y021212D01*
X029911Y020956D01*
X030017Y020850D01*
X029911Y020744D01*
X029805Y020488D01*
X011500Y020488D01*
X011500Y020390D02*
X029805Y020390D01*
X029805Y020488D02*
X029805Y020212D01*
X029911Y019956D01*
X030017Y019850D01*
X029957Y019790D01*
X029805Y019943D01*
X029558Y020045D01*
X028692Y020045D01*
X028445Y019943D01*
X028257Y019755D01*
X028155Y019508D01*
X028155Y019242D01*
X028257Y018995D01*
X028377Y018875D01*
X028257Y018755D01*
X028155Y018508D01*
X028155Y018242D01*
X028257Y017995D01*
X028377Y017875D01*
X028257Y017755D01*
X028155Y017508D01*
X028155Y017242D01*
X028257Y016995D01*
X028445Y016807D01*
X028692Y016705D01*
X029558Y016705D01*
X029805Y016807D01*
X029932Y016935D01*
X030106Y016761D01*
X030203Y016721D01*
X030191Y016712D01*
X030138Y016659D01*
X030094Y016599D01*
X030060Y016532D01*
X030037Y016461D01*
X030027Y016400D01*
X030450Y016400D01*
X030450Y016300D01*
X030027Y016300D01*
X030037Y016239D01*
X030060Y016168D01*
X030094Y016101D01*
X030138Y016041D01*
X030191Y015988D01*
X030203Y015979D01*
X030106Y015939D01*
X029911Y015744D01*
X029805Y015488D01*
X029805Y015212D01*
X029911Y014956D01*
X030106Y014761D01*
X030362Y014655D01*
X030638Y014655D01*
X030894Y014761D01*
X031089Y014956D01*
X031195Y015212D01*
X031195Y015488D01*
X031089Y015744D01*
X030894Y015939D01*
X030797Y015979D01*
X030809Y015988D01*
X030862Y016041D01*
X030906Y016101D01*
X030940Y016168D01*
X030963Y016239D01*
X030973Y016300D01*
X030550Y016300D01*
X030550Y016400D01*
X030973Y016400D01*
X030963Y016461D01*
X030940Y016532D01*
X030906Y016599D01*
X030862Y016659D01*
X030809Y016712D01*
X030797Y016721D01*
X030894Y016761D01*
X031089Y016956D01*
X031195Y017212D01*
X031195Y017488D01*
X031089Y017744D01*
X030983Y017850D01*
X031089Y017956D01*
X031195Y018212D01*
X031195Y018488D01*
X031089Y018744D01*
X030983Y018850D01*
X031089Y018956D01*
X031195Y019212D01*
X031195Y019488D01*
X031089Y019744D01*
X030983Y019850D01*
X031089Y019956D01*
X031195Y020212D01*
X031195Y020488D01*
X031195Y020390D02*
X035805Y020390D01*
X035805Y020488D02*
X035805Y020212D01*
X035911Y019956D01*
X036017Y019850D01*
X035911Y019744D01*
X035805Y019488D01*
X035805Y019212D01*
X035911Y018956D01*
X036017Y018850D01*
X035911Y018744D01*
X035805Y018488D01*
X035805Y018212D01*
X035911Y017956D01*
X036017Y017850D01*
X035911Y017744D01*
X035805Y017488D01*
X035805Y017212D01*
X035911Y016956D01*
X036017Y016850D01*
X035911Y016744D01*
X035805Y016488D01*
X035805Y016212D01*
X035911Y015956D01*
X036017Y015850D01*
X035911Y015744D01*
X035805Y015488D01*
X035805Y015212D01*
X035911Y014956D01*
X036106Y014761D01*
X036362Y014655D01*
X036638Y014655D01*
X036894Y014761D01*
X037000Y014867D01*
X037000Y012750D01*
X042500Y012750D01*
X042500Y013294D01*
X042544Y013187D01*
X042737Y012994D01*
X042989Y012890D01*
X043261Y012890D01*
X043513Y012994D01*
X043706Y013187D01*
X043810Y013439D01*
X043810Y013711D01*
X043706Y013963D01*
X043513Y014156D01*
X043297Y014245D01*
X043386Y014245D01*
X043755Y014614D01*
X043755Y015136D01*
X043516Y015375D01*
X043755Y015614D01*
X043755Y016136D01*
X043386Y016505D01*
X043335Y016505D01*
X043535Y016705D01*
X043535Y016845D01*
X043155Y016845D01*
X043155Y016905D01*
X043095Y016905D01*
X043095Y017285D01*
X042955Y017285D01*
X042715Y017045D01*
X042715Y016905D01*
X043095Y016905D01*
X043095Y016845D01*
X042715Y016845D01*
X042715Y016705D01*
X042915Y016505D01*
X042864Y016505D01*
X042495Y016136D01*
X042495Y015614D01*
X042734Y015375D01*
X042724Y015365D01*
X042564Y015365D01*
X042543Y015386D01*
X042407Y015442D01*
X041709Y015442D01*
X041618Y015404D01*
X041618Y015466D01*
X041607Y015504D01*
X041588Y015538D01*
X041560Y015566D01*
X041525Y015586D01*
X041487Y015596D01*
X041240Y015596D01*
X041240Y015375D01*
X041144Y015375D01*
X041144Y015596D01*
X041000Y015596D01*
X041000Y020000D01*
X043245Y020000D01*
X043245Y019489D01*
X043614Y019120D01*
X044136Y019120D01*
X044505Y019489D01*
X044505Y020000D01*
X048500Y020000D01*
X048500Y026818D01*
X049206Y026818D01*
X049386Y026893D01*
X049508Y027015D01*
X049636Y027015D01*
X049888Y027119D01*
X050081Y027312D01*
X050185Y027564D01*
X050185Y027836D01*
X050081Y028088D01*
X049888Y028281D01*
X049647Y028381D01*
X050005Y028739D01*
X050005Y029261D01*
X049636Y029630D01*
X049114Y029630D01*
X048875Y029391D01*
X048636Y029630D01*
X048114Y029630D01*
X047745Y029261D01*
X047745Y029210D01*
X047545Y029410D01*
X047405Y029410D01*
X047405Y029030D01*
X047345Y029030D01*
X047345Y029410D01*
X047205Y029410D01*
X046965Y029170D01*
X046965Y029030D01*
X047345Y029030D01*
X047345Y028970D01*
X046965Y028970D01*
X046965Y028830D01*
X047205Y028590D01*
X047345Y028590D01*
X047345Y028970D01*
X047405Y028970D01*
X047405Y028590D01*
X047545Y028590D01*
X047745Y028790D01*
X047745Y028739D01*
X048114Y028370D01*
X048636Y028370D01*
X048875Y028609D01*
X049114Y028370D01*
X049328Y028370D01*
X049112Y028281D01*
X048919Y028088D01*
X048815Y027836D01*
X048815Y027798D01*
X047506Y027798D01*
X047406Y027897D01*
X047270Y027954D01*
X046730Y027954D01*
X046594Y027897D01*
X046489Y027793D01*
X046472Y027750D01*
X046250Y027750D01*
X046250Y025000D01*
X044500Y023250D01*
X044266Y023250D01*
X044505Y023489D01*
X044505Y024011D01*
X044136Y024380D01*
X043614Y024380D01*
X043245Y024011D01*
X043245Y023489D01*
X043484Y023250D01*
X041470Y023250D01*
X041470Y023508D01*
X041368Y023755D01*
X041248Y023875D01*
X041368Y023995D01*
X041470Y024242D01*
X041470Y024508D01*
X041368Y024755D01*
X041248Y024875D01*
X041368Y024995D01*
X041470Y025242D01*
X041470Y025508D01*
X041368Y025755D01*
X041248Y025875D01*
X041368Y025995D01*
X041470Y026242D01*
X041470Y026508D01*
X041368Y026755D01*
X041248Y026875D01*
X041368Y026995D01*
X041470Y027242D01*
X041470Y027508D01*
X041368Y027755D01*
X041248Y027875D01*
X041368Y027995D01*
X041470Y028242D01*
X041470Y028508D01*
X041368Y028755D01*
X041180Y028943D01*
X041047Y028998D01*
X041093Y029032D01*
X041143Y029082D01*
X041185Y029139D01*
X041217Y029202D01*
X041239Y029270D01*
X041248Y029325D01*
X040550Y029325D01*
X040550Y029425D01*
X040450Y029425D01*
X040450Y029825D01*
X040165Y029825D01*
X040095Y029814D01*
X040027Y029792D01*
X039964Y029760D01*
X039907Y029718D01*
X039857Y029668D01*
X039815Y029611D01*
X039783Y029548D01*
X039761Y029480D01*
X039752Y029425D01*
X040450Y029425D01*
X040450Y029325D01*
X039752Y029325D01*
X039761Y029270D01*
X039783Y029202D01*
X039815Y029139D01*
X039857Y029082D01*
X039907Y029032D01*
X039953Y028998D01*
X039820Y028943D01*
X039750Y028873D01*
X039750Y031035D01*
X039795Y031035D01*
X039795Y031470D01*
X039855Y031470D01*
X039855Y031530D01*
X039795Y031530D01*
X039795Y031965D01*
X039750Y031965D01*
X039750Y035000D01*
X036000Y035000D01*
X036000Y034425D01*
X035986Y034435D01*
X035923Y034467D01*
X035855Y034489D01*
X035800Y034498D01*
X035800Y033800D01*
X035700Y033800D01*
X035700Y034498D01*
X035645Y034489D01*
X035577Y034467D01*
X035514Y034435D01*
X035457Y034393D01*
X035407Y034343D01*
X035373Y034297D01*
X035318Y034430D01*
X035130Y034618D01*
X034883Y034720D01*
X034617Y034720D01*
X034370Y034618D01*
X034182Y034430D01*
X034080Y034183D01*
X034080Y033317D01*
X034182Y033070D01*
X034252Y033000D01*
X033505Y033000D01*
X033505Y033635D01*
X033409Y033867D01*
X033396Y033880D01*
X033505Y033989D01*
X033505Y034511D01*
X033136Y034880D01*
X032614Y034880D01*
X032245Y034511D01*
X032308Y034574D02*
X000500Y034574D01*
X000500Y034672D02*
X032406Y034672D01*
X032505Y034771D02*
X000500Y034771D01*
X000500Y034869D02*
X032603Y034869D01*
X033147Y034869D02*
X036000Y034869D01*
X036000Y034771D02*
X033245Y034771D01*
X033344Y034672D02*
X034501Y034672D01*
X034326Y034574D02*
X033442Y034574D01*
X033505Y034475D02*
X034228Y034475D01*
X034160Y034377D02*
X033505Y034377D01*
X033505Y034278D02*
X034119Y034278D01*
X034080Y034180D02*
X033505Y034180D01*
X033505Y034081D02*
X034080Y034081D01*
X034080Y033983D02*
X033499Y033983D01*
X033400Y033884D02*
X034080Y033884D01*
X034080Y033786D02*
X033443Y033786D01*
X033484Y033687D02*
X034080Y033687D01*
X034080Y033589D02*
X033505Y033589D01*
X033505Y033490D02*
X034080Y033490D01*
X034080Y033392D02*
X033505Y033392D01*
X033505Y033293D02*
X034090Y033293D01*
X034131Y033195D02*
X033505Y033195D01*
X033505Y033096D02*
X034171Y033096D01*
X035700Y033884D02*
X035800Y033884D01*
X035800Y033983D02*
X035700Y033983D01*
X035700Y034081D02*
X035800Y034081D01*
X035800Y034180D02*
X035700Y034180D01*
X035700Y034278D02*
X035800Y034278D01*
X035800Y034377D02*
X035700Y034377D01*
X035700Y034475D02*
X035800Y034475D01*
X035898Y034475D02*
X036000Y034475D01*
X036000Y034574D02*
X035174Y034574D01*
X035272Y034475D02*
X035602Y034475D01*
X035440Y034377D02*
X035340Y034377D01*
X034999Y034672D02*
X036000Y034672D01*
X036000Y034968D02*
X000500Y034968D01*
X000500Y035066D02*
X043731Y035066D01*
X043657Y034993D02*
X043525Y034673D01*
X043525Y034327D01*
X043657Y034007D01*
X043902Y033762D01*
X044222Y033630D01*
X044568Y033630D01*
X044888Y033762D01*
X045133Y034007D01*
X045265Y034327D01*
X045265Y034673D01*
X045133Y034993D01*
X044888Y035238D01*
X044568Y035370D01*
X044222Y035370D01*
X043902Y035238D01*
X043657Y034993D01*
X043647Y034968D02*
X039750Y034968D01*
X039750Y034869D02*
X043606Y034869D01*
X043565Y034771D02*
X039750Y034771D01*
X039750Y034672D02*
X043525Y034672D01*
X043525Y034574D02*
X039750Y034574D01*
X039750Y034475D02*
X043525Y034475D01*
X043525Y034377D02*
X039750Y034377D01*
X039750Y034278D02*
X043545Y034278D01*
X043586Y034180D02*
X039750Y034180D01*
X039750Y034081D02*
X040126Y034081D01*
X040205Y034160D02*
X039965Y033920D01*
X039965Y033780D01*
X040345Y033780D01*
X040345Y034160D01*
X040205Y034160D01*
X040345Y034081D02*
X040405Y034081D01*
X040405Y034160D02*
X040545Y034160D01*
X040785Y033920D01*
X040785Y033780D01*
X040405Y033780D01*
X040405Y033720D01*
X040785Y033720D01*
X040785Y033580D01*
X040545Y033340D01*
X040405Y033340D01*
X040405Y033720D01*
X040345Y033720D01*
X040345Y033340D01*
X040205Y033340D01*
X039965Y033580D01*
X039965Y033720D01*
X040345Y033720D01*
X040345Y033780D01*
X040405Y033780D01*
X040405Y034160D01*
X040405Y033983D02*
X040345Y033983D01*
X040345Y033884D02*
X040405Y033884D01*
X040405Y033786D02*
X040345Y033786D01*
X040345Y033687D02*
X040405Y033687D01*
X040405Y033589D02*
X040345Y033589D01*
X040345Y033490D02*
X040405Y033490D01*
X040405Y033392D02*
X040345Y033392D01*
X040154Y033392D02*
X039750Y033392D01*
X039750Y033490D02*
X040055Y033490D01*
X039965Y033589D02*
X039750Y033589D01*
X039750Y033687D02*
X039965Y033687D01*
X039965Y033786D02*
X039750Y033786D01*
X039750Y033884D02*
X039965Y033884D01*
X040028Y033983D02*
X039750Y033983D01*
X039125Y033983D02*
X038722Y033983D01*
X038785Y033920D02*
X038545Y034160D01*
X038405Y034160D01*
X038405Y033780D01*
X038785Y033780D01*
X038785Y033920D01*
X038785Y033884D02*
X039125Y033884D01*
X039125Y033786D02*
X038785Y033786D01*
X038785Y033720D02*
X038405Y033720D01*
X038405Y033780D01*
X038345Y033780D01*
X038345Y034160D01*
X038205Y034160D01*
X037965Y033920D01*
X037965Y033780D01*
X038345Y033780D01*
X038345Y033720D01*
X038405Y033720D01*
X038405Y033340D01*
X038545Y033340D01*
X038785Y033580D01*
X038785Y033720D01*
X038785Y033687D02*
X039125Y033687D01*
X039125Y033589D02*
X038785Y033589D01*
X038695Y033490D02*
X039125Y033490D01*
X039125Y033392D02*
X038596Y033392D01*
X038405Y033392D02*
X038345Y033392D01*
X038345Y033340D02*
X038345Y033720D01*
X037965Y033720D01*
X037965Y033580D01*
X038205Y033340D01*
X038345Y033340D01*
X038345Y033490D02*
X038405Y033490D01*
X038405Y033589D02*
X038345Y033589D01*
X038345Y033687D02*
X038405Y033687D01*
X038405Y033786D02*
X038345Y033786D01*
X038345Y033884D02*
X038405Y033884D01*
X038405Y033983D02*
X038345Y033983D01*
X038345Y034081D02*
X038405Y034081D01*
X038624Y034081D02*
X039125Y034081D01*
X039125Y034180D02*
X037181Y034180D01*
X037189Y034155D02*
X037167Y034223D01*
X037135Y034286D01*
X037093Y034343D01*
X037061Y034375D01*
X039125Y034375D01*
X039125Y022500D01*
X039767Y022500D01*
X039761Y022480D01*
X039752Y022425D01*
X040450Y022425D01*
X040450Y022325D01*
X040550Y022325D01*
X040550Y022425D01*
X041248Y022425D01*
X041239Y022480D01*
X041233Y022500D01*
X044500Y022500D01*
X047250Y025250D01*
X047250Y026016D01*
X047326Y026016D01*
X047326Y026393D01*
X047422Y026393D01*
X047422Y026016D01*
X047591Y026016D01*
X047629Y026027D01*
X047663Y026046D01*
X047691Y026074D01*
X047711Y026108D01*
X047721Y026147D01*
X047721Y026394D01*
X047422Y026394D01*
X047422Y026490D01*
X047721Y026490D01*
X047721Y026625D01*
X048000Y026625D01*
X048000Y020625D01*
X040375Y020625D01*
X040375Y014625D01*
X040766Y014625D01*
X040766Y014549D01*
X041143Y014549D01*
X041143Y014453D01*
X040766Y014453D01*
X040766Y014284D01*
X040777Y014246D01*
X040796Y014212D01*
X040824Y014184D01*
X040858Y014164D01*
X040897Y014154D01*
X041144Y014154D01*
X041144Y014453D01*
X041240Y014453D01*
X041240Y014154D01*
X041487Y014154D01*
X041500Y014158D01*
X041500Y013875D01*
X037500Y013875D01*
X037500Y018705D01*
X038308Y018705D01*
X038555Y018807D01*
X038743Y018995D01*
X038845Y019242D01*
X038845Y019508D01*
X038743Y019755D01*
X038623Y019875D01*
X038743Y019995D01*
X038845Y020242D01*
X038845Y020508D01*
X038743Y020755D01*
X038555Y020943D01*
X038308Y021045D01*
X037500Y021045D01*
X037500Y021125D01*
X037750Y021125D01*
X037750Y030125D01*
X033037Y030125D01*
X033000Y030140D01*
X032750Y030140D01*
X032713Y030125D01*
X032500Y030125D01*
X032000Y029625D01*
X030250Y029625D01*
X029375Y028750D01*
X010750Y028750D01*
X010750Y006750D01*
X007875Y006750D01*
X007875Y030750D01*
X029825Y030750D01*
X029815Y030736D01*
X029783Y030673D01*
X029761Y030605D01*
X029752Y030550D01*
X030450Y030550D01*
X030450Y030450D01*
X030550Y030450D01*
X030550Y030550D01*
X031248Y030550D01*
X031239Y030605D01*
X031217Y030673D01*
X031185Y030736D01*
X031175Y030750D01*
X031750Y030750D01*
X031750Y032250D01*
X036500Y032250D01*
X036500Y033075D01*
X036514Y033065D01*
X036577Y033033D01*
X036645Y033011D01*
X036700Y033002D01*
X036700Y033700D01*
X036800Y033700D01*
X036800Y033800D01*
X037200Y033800D01*
X037200Y034085D01*
X037189Y034155D01*
X037200Y034081D02*
X038126Y034081D01*
X038028Y033983D02*
X037200Y033983D01*
X037200Y033884D02*
X037965Y033884D01*
X037965Y033786D02*
X036800Y033786D01*
X036800Y033700D02*
X037200Y033700D01*
X037200Y033415D01*
X037189Y033345D01*
X037167Y033277D01*
X037135Y033214D01*
X037093Y033157D01*
X037043Y033107D01*
X036986Y033065D01*
X036923Y033033D01*
X036855Y033011D01*
X036800Y033002D01*
X036800Y033700D01*
X036800Y033687D02*
X036700Y033687D01*
X036700Y033589D02*
X036800Y033589D01*
X036800Y033490D02*
X036700Y033490D01*
X036700Y033392D02*
X036800Y033392D01*
X036800Y033293D02*
X036700Y033293D01*
X036700Y033195D02*
X036800Y033195D01*
X036800Y033096D02*
X036700Y033096D01*
X036500Y032998D02*
X039125Y032998D01*
X039125Y033096D02*
X037028Y033096D01*
X037121Y033195D02*
X039125Y033195D01*
X039125Y033293D02*
X037172Y033293D01*
X037196Y033392D02*
X038154Y033392D01*
X038055Y033490D02*
X037200Y033490D01*
X037200Y033589D02*
X037965Y033589D01*
X037965Y033687D02*
X037200Y033687D01*
X037139Y034278D02*
X039125Y034278D01*
X039750Y033293D02*
X044777Y033293D01*
X044745Y033261D02*
X044745Y032739D01*
X045114Y032370D01*
X045636Y032370D01*
X046005Y032739D01*
X046005Y033261D01*
X045636Y033630D01*
X045114Y033630D01*
X044745Y033261D01*
X044745Y033195D02*
X039750Y033195D01*
X039750Y033096D02*
X044745Y033096D01*
X044745Y032998D02*
X039750Y032998D01*
X039750Y032899D02*
X044745Y032899D01*
X044745Y032801D02*
X039750Y032801D01*
X039750Y032702D02*
X044782Y032702D01*
X044880Y032604D02*
X039750Y032604D01*
X039750Y032505D02*
X044979Y032505D01*
X045077Y032407D02*
X039750Y032407D01*
X039750Y032308D02*
X053500Y032308D01*
X053500Y032210D02*
X039750Y032210D01*
X039750Y032111D02*
X053500Y032111D01*
X053500Y032013D02*
X039750Y032013D01*
X039795Y031914D02*
X039855Y031914D01*
X039855Y031965D02*
X039855Y031530D01*
X040290Y031530D01*
X040290Y031693D01*
X040018Y031965D01*
X039855Y031965D01*
X039855Y031816D02*
X039795Y031816D01*
X039795Y031717D02*
X039855Y031717D01*
X039855Y031619D02*
X039795Y031619D01*
X039855Y031520D02*
X053500Y031520D01*
X053500Y031422D02*
X040290Y031422D01*
X040290Y031470D02*
X039855Y031470D01*
X039855Y031035D01*
X040018Y031035D01*
X040290Y031307D01*
X040290Y031470D01*
X040290Y031323D02*
X043618Y031323D01*
X043705Y031410D02*
X043465Y031170D01*
X043465Y031030D01*
X043845Y031030D01*
X043845Y031410D01*
X043705Y031410D01*
X043845Y031323D02*
X043905Y031323D01*
X043905Y031410D02*
X043905Y031030D01*
X043845Y031030D01*
X043845Y030970D01*
X043465Y030970D01*
X043465Y030830D01*
X043705Y030590D01*
X043845Y030590D01*
X043845Y030970D01*
X043905Y030970D01*
X043905Y031030D01*
X044285Y031030D01*
X044285Y031170D01*
X044045Y031410D01*
X043905Y031410D01*
X043905Y031225D02*
X043845Y031225D01*
X043845Y031126D02*
X043905Y031126D01*
X043905Y031028D02*
X053500Y031028D01*
X053500Y031126D02*
X044285Y031126D01*
X044230Y031225D02*
X053500Y031225D01*
X053500Y031323D02*
X044132Y031323D01*
X044285Y030970D02*
X043905Y030970D01*
X043905Y030590D01*
X044045Y030590D01*
X044285Y030830D01*
X044285Y030970D01*
X044285Y030929D02*
X053500Y030929D01*
X053500Y030831D02*
X044285Y030831D01*
X044187Y030732D02*
X053500Y030732D01*
X053500Y030634D02*
X044088Y030634D01*
X043905Y030634D02*
X043845Y030634D01*
X043845Y030732D02*
X043905Y030732D01*
X043905Y030831D02*
X043845Y030831D01*
X043845Y030929D02*
X043905Y030929D01*
X043845Y031028D02*
X039750Y031028D01*
X039750Y030929D02*
X043465Y030929D01*
X043465Y030831D02*
X039750Y030831D01*
X039750Y030732D02*
X043563Y030732D01*
X043662Y030634D02*
X039750Y030634D01*
X039750Y030535D02*
X053500Y030535D01*
X053500Y030437D02*
X039750Y030437D01*
X039750Y030338D02*
X053500Y030338D01*
X053500Y030240D02*
X039750Y030240D01*
X039750Y030141D02*
X053500Y030141D01*
X053500Y030043D02*
X039750Y030043D01*
X039750Y029944D02*
X053500Y029944D01*
X053500Y029846D02*
X039750Y029846D01*
X039750Y029747D02*
X039947Y029747D01*
X039843Y029649D02*
X039750Y029649D01*
X039750Y029550D02*
X039784Y029550D01*
X039757Y029452D02*
X039750Y029452D01*
X039750Y029353D02*
X040450Y029353D01*
X040450Y029452D02*
X040550Y029452D01*
X040550Y029425D02*
X040550Y029825D01*
X040835Y029825D01*
X040905Y029814D01*
X040973Y029792D01*
X041036Y029760D01*
X041093Y029718D01*
X041143Y029668D01*
X041185Y029611D01*
X041217Y029548D01*
X041239Y029480D01*
X041248Y029425D01*
X040550Y029425D01*
X040550Y029353D02*
X043337Y029353D01*
X043245Y029261D02*
X043614Y029630D01*
X044136Y029630D01*
X044505Y029261D01*
X044505Y028739D01*
X044136Y028370D01*
X043614Y028370D01*
X043245Y028739D01*
X043245Y029261D01*
X043245Y029255D02*
X041234Y029255D01*
X041193Y029156D02*
X043245Y029156D01*
X043245Y029058D02*
X041119Y029058D01*
X041141Y028959D02*
X043245Y028959D01*
X043245Y028861D02*
X041262Y028861D01*
X041360Y028762D02*
X043245Y028762D01*
X043320Y028664D02*
X041406Y028664D01*
X041446Y028565D02*
X043419Y028565D01*
X043517Y028467D02*
X041470Y028467D01*
X041470Y028368D02*
X049323Y028368D01*
X049101Y028270D02*
X041470Y028270D01*
X041441Y028171D02*
X049002Y028171D01*
X048913Y028073D02*
X041400Y028073D01*
X041347Y027974D02*
X048872Y027974D01*
X048831Y027876D02*
X047428Y027876D01*
X046572Y027876D02*
X041248Y027876D01*
X041345Y027777D02*
X046483Y027777D01*
X046250Y027679D02*
X041399Y027679D01*
X041440Y027580D02*
X046250Y027580D01*
X046250Y027482D02*
X041470Y027482D01*
X041470Y027383D02*
X046250Y027383D01*
X046250Y027285D02*
X041470Y027285D01*
X041447Y027186D02*
X046250Y027186D01*
X046250Y027088D02*
X041406Y027088D01*
X041362Y026989D02*
X046250Y026989D01*
X046250Y026891D02*
X041263Y026891D01*
X041330Y026792D02*
X046250Y026792D01*
X046250Y026694D02*
X041393Y026694D01*
X041434Y026595D02*
X046250Y026595D01*
X046250Y026497D02*
X041470Y026497D01*
X041470Y026398D02*
X046250Y026398D01*
X046250Y026300D02*
X041470Y026300D01*
X041453Y026201D02*
X046250Y026201D01*
X046250Y026103D02*
X041412Y026103D01*
X041372Y026004D02*
X046250Y026004D01*
X046250Y025906D02*
X041278Y025906D01*
X041315Y025807D02*
X046250Y025807D01*
X046250Y025709D02*
X041387Y025709D01*
X041428Y025610D02*
X046250Y025610D01*
X046250Y025512D02*
X041469Y025512D01*
X041470Y025413D02*
X046250Y025413D01*
X046250Y025315D02*
X041470Y025315D01*
X041459Y025216D02*
X046250Y025216D01*
X046250Y025118D02*
X041419Y025118D01*
X041378Y025019D02*
X046250Y025019D01*
X046171Y024921D02*
X041293Y024921D01*
X041300Y024822D02*
X046072Y024822D01*
X045974Y024724D02*
X041381Y024724D01*
X041422Y024625D02*
X045875Y024625D01*
X045777Y024527D02*
X041462Y024527D01*
X041470Y024428D02*
X045678Y024428D01*
X045580Y024330D02*
X044186Y024330D01*
X044285Y024231D02*
X045481Y024231D01*
X045383Y024133D02*
X044383Y024133D01*
X044482Y024034D02*
X045284Y024034D01*
X045186Y023936D02*
X044505Y023936D01*
X044505Y023837D02*
X045087Y023837D01*
X044989Y023739D02*
X044505Y023739D01*
X044505Y023640D02*
X044890Y023640D01*
X044792Y023542D02*
X044505Y023542D01*
X044459Y023443D02*
X044693Y023443D01*
X044595Y023345D02*
X044361Y023345D01*
X044852Y022852D02*
X048000Y022852D01*
X048000Y022754D02*
X044754Y022754D01*
X044655Y022655D02*
X048000Y022655D01*
X048000Y022557D02*
X044557Y022557D01*
X044951Y022951D02*
X048000Y022951D01*
X048000Y023049D02*
X045049Y023049D01*
X045148Y023148D02*
X048000Y023148D01*
X048000Y023246D02*
X045246Y023246D01*
X045345Y023345D02*
X048000Y023345D01*
X048000Y023443D02*
X045443Y023443D01*
X045542Y023542D02*
X048000Y023542D01*
X048000Y023640D02*
X045640Y023640D01*
X045739Y023739D02*
X048000Y023739D01*
X048000Y023837D02*
X045837Y023837D01*
X045936Y023936D02*
X048000Y023936D01*
X048000Y024034D02*
X046034Y024034D01*
X046133Y024133D02*
X048000Y024133D01*
X048000Y024231D02*
X046231Y024231D01*
X046330Y024330D02*
X048000Y024330D01*
X048000Y024428D02*
X046428Y024428D01*
X046527Y024527D02*
X048000Y024527D01*
X048000Y024625D02*
X046625Y024625D01*
X046724Y024724D02*
X048000Y024724D01*
X048000Y024822D02*
X046822Y024822D01*
X046921Y024921D02*
X048000Y024921D01*
X048000Y025019D02*
X047019Y025019D01*
X047118Y025118D02*
X048000Y025118D01*
X048000Y025216D02*
X047216Y025216D01*
X047250Y025315D02*
X048000Y025315D01*
X048000Y025413D02*
X047250Y025413D01*
X047250Y025512D02*
X048000Y025512D01*
X048000Y025610D02*
X047250Y025610D01*
X047250Y025709D02*
X048000Y025709D01*
X048000Y025807D02*
X047250Y025807D01*
X047250Y025906D02*
X048000Y025906D01*
X048000Y026004D02*
X047250Y026004D01*
X047326Y026103D02*
X047422Y026103D01*
X047422Y026201D02*
X047326Y026201D01*
X047326Y026300D02*
X047422Y026300D01*
X047422Y026398D02*
X048000Y026398D01*
X048000Y026300D02*
X047721Y026300D01*
X047721Y026201D02*
X048000Y026201D01*
X048000Y026103D02*
X047707Y026103D01*
X047721Y026497D02*
X048000Y026497D01*
X048000Y026595D02*
X047721Y026595D01*
X048500Y026595D02*
X049137Y026595D01*
X049039Y026497D02*
X048500Y026497D01*
X048500Y026398D02*
X049035Y026398D01*
X049035Y026330D02*
X049470Y026330D01*
X049470Y026765D01*
X049307Y026765D01*
X049035Y026493D01*
X049035Y026330D01*
X049035Y026270D02*
X049035Y026107D01*
X049307Y025835D01*
X049470Y025835D01*
X049470Y026270D01*
X049035Y026270D01*
X049035Y026201D02*
X048500Y026201D01*
X048500Y026103D02*
X049040Y026103D01*
X049138Y026004D02*
X048500Y026004D01*
X048500Y025906D02*
X049237Y025906D01*
X049470Y025906D02*
X049530Y025906D01*
X049530Y025835D02*
X049693Y025835D01*
X049965Y026107D01*
X049965Y026270D01*
X049530Y026270D01*
X049530Y026330D01*
X049470Y026330D01*
X049470Y026270D01*
X049530Y026270D01*
X049530Y025835D01*
X049530Y026004D02*
X049470Y026004D01*
X049470Y026103D02*
X049530Y026103D01*
X049530Y026201D02*
X049470Y026201D01*
X049470Y026300D02*
X048500Y026300D01*
X048500Y026694D02*
X049236Y026694D01*
X049470Y026694D02*
X049530Y026694D01*
X049530Y026765D02*
X049530Y026330D01*
X049965Y026330D01*
X049965Y026493D01*
X049693Y026765D01*
X049530Y026765D01*
X049530Y026595D02*
X049470Y026595D01*
X049470Y026497D02*
X049530Y026497D01*
X049530Y026398D02*
X049470Y026398D01*
X049530Y026300D02*
X053500Y026300D01*
X053500Y026398D02*
X049965Y026398D01*
X049961Y026497D02*
X053500Y026497D01*
X053500Y026595D02*
X049863Y026595D01*
X049764Y026694D02*
X053500Y026694D01*
X053500Y026792D02*
X048500Y026792D01*
X049381Y026891D02*
X053500Y026891D01*
X053500Y026989D02*
X049482Y026989D01*
X049811Y027088D02*
X053500Y027088D01*
X053500Y027186D02*
X052327Y027186D01*
X052261Y027120D02*
X052630Y027489D01*
X052630Y028011D01*
X052261Y028380D01*
X051739Y028380D01*
X051370Y028011D01*
X051370Y027489D01*
X051739Y027120D01*
X052261Y027120D01*
X052426Y027285D02*
X053500Y027285D01*
X053500Y027383D02*
X052524Y027383D01*
X052623Y027482D02*
X053500Y027482D01*
X053500Y027580D02*
X052630Y027580D01*
X052630Y027679D02*
X053500Y027679D01*
X053500Y027777D02*
X052630Y027777D01*
X052630Y027876D02*
X053500Y027876D01*
X053500Y027974D02*
X052630Y027974D01*
X052568Y028073D02*
X053500Y028073D01*
X053500Y028171D02*
X052470Y028171D01*
X052371Y028270D02*
X053500Y028270D01*
X053500Y028368D02*
X052273Y028368D01*
X051727Y028368D02*
X049677Y028368D01*
X049733Y028467D02*
X053500Y028467D01*
X053500Y028565D02*
X049831Y028565D01*
X049930Y028664D02*
X053500Y028664D01*
X053500Y028762D02*
X050005Y028762D01*
X050005Y028861D02*
X053500Y028861D01*
X053500Y028959D02*
X050005Y028959D01*
X050005Y029058D02*
X053500Y029058D01*
X053500Y029156D02*
X050005Y029156D01*
X050005Y029255D02*
X053500Y029255D01*
X053500Y029353D02*
X049913Y029353D01*
X049814Y029452D02*
X053500Y029452D01*
X053500Y029550D02*
X049716Y029550D01*
X049034Y029550D02*
X048716Y029550D01*
X048814Y029452D02*
X048936Y029452D01*
X048919Y028565D02*
X048831Y028565D01*
X048733Y028467D02*
X049017Y028467D01*
X049899Y028270D02*
X051629Y028270D01*
X051530Y028171D02*
X049998Y028171D01*
X050087Y028073D02*
X051432Y028073D01*
X051370Y027974D02*
X050128Y027974D01*
X050169Y027876D02*
X051370Y027876D01*
X051370Y027777D02*
X050185Y027777D01*
X050185Y027679D02*
X051370Y027679D01*
X051370Y027580D02*
X050185Y027580D01*
X050151Y027482D02*
X051377Y027482D01*
X051476Y027383D02*
X050110Y027383D01*
X050053Y027285D02*
X051574Y027285D01*
X051673Y027186D02*
X049955Y027186D01*
X049965Y026201D02*
X053500Y026201D01*
X053500Y026103D02*
X052227Y026103D01*
X052170Y026160D02*
X052030Y026160D01*
X052030Y025780D01*
X051970Y025780D01*
X051970Y026160D01*
X051830Y026160D01*
X051590Y025920D01*
X051590Y025780D01*
X051970Y025780D01*
X051970Y025720D01*
X051590Y025720D01*
X051590Y025580D01*
X051830Y025340D01*
X051970Y025340D01*
X051970Y025720D01*
X052030Y025720D01*
X052030Y025780D01*
X052410Y025780D01*
X052410Y025920D01*
X052170Y026160D01*
X052030Y026103D02*
X051970Y026103D01*
X051970Y026004D02*
X052030Y026004D01*
X052030Y025906D02*
X051970Y025906D01*
X051970Y025807D02*
X052030Y025807D01*
X052030Y025720D02*
X052410Y025720D01*
X052410Y025580D01*
X052170Y025340D01*
X052030Y025340D01*
X052030Y025720D01*
X052030Y025709D02*
X051970Y025709D01*
X051970Y025610D02*
X052030Y025610D01*
X052030Y025512D02*
X051970Y025512D01*
X051970Y025413D02*
X052030Y025413D01*
X052243Y025413D02*
X053500Y025413D01*
X053500Y025315D02*
X048500Y025315D01*
X048500Y025413D02*
X051757Y025413D01*
X051659Y025512D02*
X048500Y025512D01*
X048500Y025610D02*
X051590Y025610D01*
X051590Y025709D02*
X048500Y025709D01*
X048500Y025807D02*
X051590Y025807D01*
X051590Y025906D02*
X049763Y025906D01*
X049862Y026004D02*
X051674Y026004D01*
X051773Y026103D02*
X049960Y026103D01*
X048500Y025216D02*
X053500Y025216D01*
X053500Y025118D02*
X048500Y025118D01*
X048500Y025019D02*
X053500Y025019D01*
X053500Y024921D02*
X048500Y024921D01*
X048500Y024822D02*
X053500Y024822D01*
X053500Y024724D02*
X048500Y024724D01*
X048500Y024625D02*
X053500Y024625D01*
X053500Y024527D02*
X048500Y024527D01*
X048500Y024428D02*
X053500Y024428D01*
X053500Y024330D02*
X048500Y024330D01*
X048500Y024231D02*
X053500Y024231D01*
X053500Y024133D02*
X048500Y024133D01*
X048500Y024034D02*
X053500Y024034D01*
X053500Y023936D02*
X048500Y023936D01*
X048500Y023837D02*
X053500Y023837D01*
X053500Y023739D02*
X048500Y023739D01*
X048500Y023640D02*
X053500Y023640D01*
X053500Y023542D02*
X048500Y023542D01*
X048500Y023443D02*
X053500Y023443D01*
X053500Y023345D02*
X048500Y023345D01*
X048500Y023246D02*
X053500Y023246D01*
X053500Y023148D02*
X048500Y023148D01*
X048500Y023049D02*
X053500Y023049D01*
X053500Y022951D02*
X048500Y022951D01*
X048500Y022852D02*
X053500Y022852D01*
X053500Y022754D02*
X048500Y022754D01*
X048500Y022655D02*
X053500Y022655D01*
X053500Y022557D02*
X048500Y022557D01*
X048500Y022458D02*
X053500Y022458D01*
X053500Y022360D02*
X048500Y022360D01*
X048500Y022261D02*
X053500Y022261D01*
X053500Y022163D02*
X048500Y022163D01*
X048500Y022064D02*
X053500Y022064D01*
X053500Y021966D02*
X048500Y021966D01*
X048500Y021867D02*
X053500Y021867D01*
X053500Y021769D02*
X048500Y021769D01*
X048500Y021670D02*
X053500Y021670D01*
X053500Y021572D02*
X048500Y021572D01*
X048500Y021473D02*
X053500Y021473D01*
X053500Y021375D02*
X048500Y021375D01*
X048500Y021276D02*
X053500Y021276D01*
X053500Y021178D02*
X048500Y021178D01*
X048500Y021079D02*
X053500Y021079D01*
X053500Y020981D02*
X048500Y020981D01*
X048500Y020882D02*
X053500Y020882D01*
X053500Y020784D02*
X048500Y020784D01*
X048500Y020685D02*
X053500Y020685D01*
X053500Y020587D02*
X048500Y020587D01*
X048500Y020488D02*
X053500Y020488D01*
X053500Y020390D02*
X048500Y020390D01*
X048500Y020291D02*
X053500Y020291D01*
X053500Y020193D02*
X048500Y020193D01*
X048500Y020094D02*
X053500Y020094D01*
X053500Y019996D02*
X044505Y019996D01*
X044505Y019897D02*
X053500Y019897D01*
X053500Y019799D02*
X044505Y019799D01*
X044505Y019700D02*
X053500Y019700D01*
X053500Y019602D02*
X044505Y019602D01*
X044505Y019503D02*
X053500Y019503D01*
X053500Y019405D02*
X044421Y019405D01*
X044322Y019306D02*
X053500Y019306D01*
X053500Y019208D02*
X044224Y019208D01*
X043526Y019208D02*
X041000Y019208D01*
X041000Y019306D02*
X043428Y019306D01*
X043329Y019405D02*
X041000Y019405D01*
X041000Y019503D02*
X043245Y019503D01*
X043245Y019602D02*
X041000Y019602D01*
X041000Y019700D02*
X043245Y019700D01*
X043245Y019799D02*
X041000Y019799D01*
X041000Y019897D02*
X043245Y019897D01*
X043245Y019996D02*
X041000Y019996D01*
X040375Y019996D02*
X038743Y019996D01*
X038784Y020094D02*
X040375Y020094D01*
X040375Y020193D02*
X038825Y020193D01*
X038845Y020291D02*
X040375Y020291D01*
X040375Y020390D02*
X038845Y020390D01*
X038845Y020488D02*
X040375Y020488D01*
X040375Y020587D02*
X038813Y020587D01*
X038772Y020685D02*
X048000Y020685D01*
X048000Y020784D02*
X038714Y020784D01*
X038615Y020882D02*
X048000Y020882D01*
X048000Y020981D02*
X038464Y020981D01*
X037750Y021178D02*
X048000Y021178D01*
X048000Y021276D02*
X037750Y021276D01*
X037750Y021375D02*
X048000Y021375D01*
X048000Y021473D02*
X037750Y021473D01*
X037750Y021572D02*
X048000Y021572D01*
X048000Y021670D02*
X037750Y021670D01*
X037750Y021769D02*
X048000Y021769D01*
X048000Y021867D02*
X037750Y021867D01*
X037750Y021966D02*
X040012Y021966D01*
X040027Y021958D02*
X040095Y021936D01*
X040165Y021925D01*
X040450Y021925D01*
X040450Y022325D01*
X039752Y022325D01*
X039761Y022270D01*
X039783Y022202D01*
X039815Y022139D01*
X039857Y022082D01*
X039907Y022032D01*
X039964Y021990D01*
X040027Y021958D01*
X039875Y022064D02*
X037750Y022064D01*
X037750Y022163D02*
X039803Y022163D01*
X039764Y022261D02*
X037750Y022261D01*
X037750Y022360D02*
X040450Y022360D01*
X040450Y022261D02*
X040550Y022261D01*
X040550Y022325D02*
X040550Y021925D01*
X040835Y021925D01*
X040905Y021936D01*
X040973Y021958D01*
X041036Y021990D01*
X041093Y022032D01*
X041143Y022082D01*
X041185Y022139D01*
X041217Y022202D01*
X041239Y022270D01*
X041248Y022325D01*
X040550Y022325D01*
X040550Y022360D02*
X048000Y022360D01*
X048000Y022458D02*
X041242Y022458D01*
X041236Y022261D02*
X048000Y022261D01*
X048000Y022163D02*
X041197Y022163D01*
X041125Y022064D02*
X048000Y022064D01*
X048000Y021966D02*
X040988Y021966D01*
X040550Y021966D02*
X040450Y021966D01*
X040450Y022064D02*
X040550Y022064D01*
X040550Y022163D02*
X040450Y022163D01*
X039758Y022458D02*
X037750Y022458D01*
X037750Y022557D02*
X039125Y022557D01*
X039125Y022655D02*
X037750Y022655D01*
X037750Y022754D02*
X039125Y022754D01*
X039125Y022852D02*
X037750Y022852D01*
X037750Y022951D02*
X039125Y022951D01*
X039125Y023049D02*
X037750Y023049D01*
X037750Y023148D02*
X039125Y023148D01*
X039125Y023246D02*
X037750Y023246D01*
X037750Y023345D02*
X039125Y023345D01*
X039125Y023443D02*
X037750Y023443D01*
X037750Y023542D02*
X039125Y023542D01*
X039125Y023640D02*
X037750Y023640D01*
X037750Y023739D02*
X039125Y023739D01*
X039125Y023837D02*
X037750Y023837D01*
X037750Y023936D02*
X039125Y023936D01*
X039125Y024034D02*
X037750Y024034D01*
X037750Y024133D02*
X039125Y024133D01*
X039125Y024231D02*
X037750Y024231D01*
X037750Y024330D02*
X039125Y024330D01*
X039125Y024428D02*
X037750Y024428D01*
X037750Y024527D02*
X039125Y024527D01*
X039125Y024625D02*
X037750Y024625D01*
X037750Y024724D02*
X039125Y024724D01*
X039125Y024822D02*
X037750Y024822D01*
X037750Y024921D02*
X039125Y024921D01*
X039125Y025019D02*
X037750Y025019D01*
X037750Y025118D02*
X039125Y025118D01*
X039125Y025216D02*
X037750Y025216D01*
X037750Y025315D02*
X039125Y025315D01*
X039125Y025413D02*
X037750Y025413D01*
X037750Y025512D02*
X039125Y025512D01*
X039125Y025610D02*
X037750Y025610D01*
X037750Y025709D02*
X039125Y025709D01*
X039125Y025807D02*
X037750Y025807D01*
X037750Y025906D02*
X039125Y025906D01*
X039125Y026004D02*
X037750Y026004D01*
X037750Y026103D02*
X039125Y026103D01*
X039125Y026201D02*
X037750Y026201D01*
X037750Y026300D02*
X039125Y026300D01*
X039125Y026398D02*
X037750Y026398D01*
X037750Y026497D02*
X039125Y026497D01*
X039125Y026595D02*
X037750Y026595D01*
X037750Y026694D02*
X039125Y026694D01*
X039125Y026792D02*
X037750Y026792D01*
X037750Y026891D02*
X039125Y026891D01*
X039125Y026989D02*
X037750Y026989D01*
X037750Y027088D02*
X039125Y027088D01*
X039125Y027186D02*
X037750Y027186D01*
X037750Y027285D02*
X039125Y027285D01*
X039125Y027383D02*
X037750Y027383D01*
X037750Y027482D02*
X039125Y027482D01*
X039125Y027580D02*
X037750Y027580D01*
X037750Y027679D02*
X039125Y027679D01*
X039125Y027777D02*
X037750Y027777D01*
X037750Y027876D02*
X039125Y027876D01*
X039125Y027974D02*
X037750Y027974D01*
X037750Y028073D02*
X039125Y028073D01*
X039125Y028171D02*
X037750Y028171D01*
X037750Y028270D02*
X039125Y028270D01*
X039125Y028368D02*
X037750Y028368D01*
X037750Y028467D02*
X039125Y028467D01*
X039125Y028565D02*
X037750Y028565D01*
X037750Y028664D02*
X039125Y028664D01*
X039125Y028762D02*
X037750Y028762D01*
X037750Y028861D02*
X039125Y028861D01*
X039125Y028959D02*
X037750Y028959D01*
X037750Y029058D02*
X039125Y029058D01*
X039125Y029156D02*
X037750Y029156D01*
X037750Y029255D02*
X039125Y029255D01*
X039125Y029353D02*
X037750Y029353D01*
X037750Y029452D02*
X039125Y029452D01*
X039125Y029550D02*
X037750Y029550D01*
X037750Y029649D02*
X039125Y029649D01*
X039125Y029747D02*
X037750Y029747D01*
X037750Y029846D02*
X039125Y029846D01*
X039125Y029944D02*
X037750Y029944D01*
X037750Y030043D02*
X039125Y030043D01*
X039125Y030141D02*
X031072Y030141D01*
X031093Y030157D02*
X031143Y030207D01*
X031185Y030264D01*
X031217Y030327D01*
X031239Y030395D01*
X031248Y030450D01*
X030550Y030450D01*
X030550Y030050D01*
X030835Y030050D01*
X030905Y030061D01*
X030973Y030083D01*
X031036Y030115D01*
X031093Y030157D01*
X031167Y030240D02*
X039125Y030240D01*
X039125Y030338D02*
X031221Y030338D01*
X031246Y030437D02*
X039125Y030437D01*
X039125Y030535D02*
X030550Y030535D01*
X030550Y030437D02*
X030450Y030437D01*
X030450Y030450D02*
X030450Y030050D01*
X030165Y030050D01*
X030095Y030061D01*
X030027Y030083D01*
X029964Y030115D01*
X029907Y030157D01*
X029857Y030207D01*
X029815Y030264D01*
X029783Y030327D01*
X029761Y030395D01*
X029752Y030450D01*
X030450Y030450D01*
X030450Y030535D02*
X007875Y030535D01*
X007875Y030437D02*
X029754Y030437D01*
X029779Y030338D02*
X007875Y030338D01*
X007875Y030240D02*
X029833Y030240D01*
X029928Y030141D02*
X007875Y030141D01*
X007875Y030043D02*
X032418Y030043D01*
X032319Y029944D02*
X007875Y029944D01*
X007875Y029846D02*
X032221Y029846D01*
X032122Y029747D02*
X007875Y029747D01*
X007875Y029649D02*
X032024Y029649D01*
X032905Y029255D02*
X037000Y029255D01*
X037000Y029353D02*
X033285Y029353D01*
X033285Y029452D02*
X037000Y029452D01*
X037000Y029156D02*
X033285Y029156D01*
X033285Y029220D02*
X032905Y029220D01*
X032905Y028580D01*
X032907Y028580D01*
X032971Y028590D01*
X033032Y028610D01*
X033090Y028639D01*
X033142Y028677D01*
X033188Y028723D01*
X033226Y028775D01*
X033255Y028833D01*
X033275Y028894D01*
X033285Y028958D01*
X033285Y029220D01*
X033285Y029058D02*
X037000Y029058D01*
X037000Y028959D02*
X033285Y028959D01*
X033264Y028861D02*
X037000Y028861D01*
X037000Y028762D02*
X033216Y028762D01*
X033123Y028664D02*
X037000Y028664D01*
X037000Y028565D02*
X031815Y028565D01*
X031717Y028467D02*
X037000Y028467D01*
X037000Y028368D02*
X031618Y028368D01*
X031520Y028270D02*
X037000Y028270D01*
X037000Y028171D02*
X031421Y028171D01*
X031323Y028073D02*
X037000Y028073D01*
X037000Y027974D02*
X030922Y027974D01*
X030823Y027876D02*
X037000Y027876D01*
X037000Y027777D02*
X011500Y027777D01*
X011500Y027679D02*
X037000Y027679D01*
X037000Y027580D02*
X011500Y027580D01*
X011500Y027482D02*
X037000Y027482D01*
X037000Y027383D02*
X011500Y027383D01*
X011500Y027285D02*
X037000Y027285D01*
X037000Y027186D02*
X011500Y027186D01*
X011500Y027088D02*
X037000Y027088D01*
X037000Y026989D02*
X036773Y026989D01*
X036942Y026891D02*
X037000Y026891D01*
X036227Y026989D02*
X030773Y026989D01*
X030942Y026891D02*
X036058Y026891D01*
X035959Y026792D02*
X031041Y026792D01*
X031110Y026694D02*
X035890Y026694D01*
X035849Y026595D02*
X031151Y026595D01*
X031191Y026497D02*
X035809Y026497D01*
X035805Y026398D02*
X031195Y026398D01*
X031195Y026300D02*
X035805Y026300D01*
X035810Y026201D02*
X031190Y026201D01*
X031150Y026103D02*
X035850Y026103D01*
X035891Y026004D02*
X031109Y026004D01*
X031038Y025906D02*
X035962Y025906D01*
X035974Y025807D02*
X031026Y025807D01*
X031104Y025709D02*
X035896Y025709D01*
X035856Y025610D02*
X031144Y025610D01*
X031185Y025512D02*
X035815Y025512D01*
X035805Y025413D02*
X031195Y025413D01*
X031195Y025315D02*
X035805Y025315D01*
X035805Y025216D02*
X031195Y025216D01*
X031156Y025118D02*
X035844Y025118D01*
X035885Y025019D02*
X031115Y025019D01*
X031053Y024921D02*
X035947Y024921D01*
X035989Y024822D02*
X031011Y024822D01*
X031097Y024724D02*
X035903Y024724D01*
X035862Y024625D02*
X031138Y024625D01*
X031179Y024527D02*
X035821Y024527D01*
X035805Y024428D02*
X031195Y024428D01*
X031195Y024330D02*
X035805Y024330D01*
X035805Y024231D02*
X031195Y024231D01*
X031162Y024133D02*
X035838Y024133D01*
X035879Y024034D02*
X031121Y024034D01*
X031068Y023936D02*
X035932Y023936D01*
X036004Y023837D02*
X030996Y023837D01*
X031091Y023739D02*
X035909Y023739D01*
X035868Y023640D02*
X031132Y023640D01*
X031173Y023542D02*
X035827Y023542D01*
X035805Y023443D02*
X031195Y023443D01*
X031195Y023345D02*
X035805Y023345D01*
X035805Y023246D02*
X031195Y023246D01*
X031168Y023148D02*
X035832Y023148D01*
X035873Y023049D02*
X031127Y023049D01*
X031083Y022951D02*
X035134Y022951D01*
X035019Y022852D02*
X030985Y022852D01*
X031079Y022754D02*
X034921Y022754D01*
X034874Y022655D02*
X031126Y022655D01*
X031166Y022557D02*
X034834Y022557D01*
X034805Y022458D02*
X031195Y022458D01*
X031195Y022360D02*
X034805Y022360D01*
X034805Y022261D02*
X031195Y022261D01*
X031174Y022163D02*
X034826Y022163D01*
X034866Y022064D02*
X031134Y022064D01*
X031093Y021966D02*
X034907Y021966D01*
X035000Y021867D02*
X031000Y021867D01*
X031064Y021769D02*
X034936Y021769D01*
X034881Y021670D02*
X031119Y021670D01*
X031160Y021572D02*
X034840Y021572D01*
X034805Y021473D02*
X031195Y021473D01*
X031195Y021375D02*
X034805Y021375D01*
X034805Y021276D02*
X031195Y021276D01*
X031181Y021178D02*
X034819Y021178D01*
X034860Y021079D02*
X031140Y021079D01*
X031099Y020981D02*
X034901Y020981D01*
X034985Y020882D02*
X031015Y020882D01*
X031049Y020784D02*
X035084Y020784D01*
X035290Y020685D02*
X031113Y020685D01*
X031154Y020587D02*
X035846Y020587D01*
X035887Y020685D02*
X035710Y020685D01*
X035916Y020784D02*
X035951Y020784D01*
X035805Y020291D02*
X031195Y020291D01*
X031187Y020193D02*
X035813Y020193D01*
X035854Y020094D02*
X031146Y020094D01*
X031105Y019996D02*
X035895Y019996D01*
X035970Y019897D02*
X031030Y019897D01*
X031034Y019799D02*
X035966Y019799D01*
X035893Y019700D02*
X031107Y019700D01*
X031148Y019602D02*
X035852Y019602D01*
X035811Y019503D02*
X031189Y019503D01*
X031195Y019405D02*
X035805Y019405D01*
X035805Y019306D02*
X031195Y019306D01*
X031193Y019208D02*
X035807Y019208D01*
X035848Y019109D02*
X031152Y019109D01*
X031111Y019011D02*
X035889Y019011D01*
X035955Y018912D02*
X031045Y018912D01*
X031019Y018814D02*
X035981Y018814D01*
X035899Y018715D02*
X031101Y018715D01*
X031142Y018617D02*
X035858Y018617D01*
X035818Y018518D02*
X031182Y018518D01*
X031195Y018420D02*
X035805Y018420D01*
X035805Y018321D02*
X031195Y018321D01*
X031195Y018223D02*
X035805Y018223D01*
X035842Y018124D02*
X031158Y018124D01*
X031118Y018026D02*
X035882Y018026D01*
X035940Y017927D02*
X031060Y017927D01*
X031004Y017829D02*
X035996Y017829D01*
X035905Y017730D02*
X031095Y017730D01*
X031135Y017632D02*
X035865Y017632D01*
X035824Y017533D02*
X031176Y017533D01*
X031195Y017435D02*
X035805Y017435D01*
X035805Y017336D02*
X031195Y017336D01*
X031195Y017238D02*
X035805Y017238D01*
X035835Y017139D02*
X031165Y017139D01*
X031124Y017041D02*
X035876Y017041D01*
X035925Y016942D02*
X031075Y016942D01*
X030976Y016844D02*
X036011Y016844D01*
X035912Y016745D02*
X030855Y016745D01*
X030871Y016647D02*
X035871Y016647D01*
X035830Y016548D02*
X030932Y016548D01*
X030965Y016450D02*
X035805Y016450D01*
X035805Y016351D02*
X030550Y016351D01*
X030450Y016351D02*
X011500Y016351D01*
X011500Y016253D02*
X030035Y016253D01*
X030067Y016154D02*
X011500Y016154D01*
X011500Y016056D02*
X030127Y016056D01*
X030150Y015957D02*
X029059Y015957D01*
X029011Y016005D02*
X028489Y016005D01*
X028120Y015636D01*
X028120Y015114D01*
X028489Y014745D01*
X029011Y014745D01*
X029380Y015114D01*
X029380Y015636D01*
X029011Y016005D01*
X029157Y015859D02*
X030026Y015859D01*
X029927Y015760D02*
X029256Y015760D01*
X029354Y015662D02*
X029877Y015662D01*
X029836Y015563D02*
X029380Y015563D01*
X029380Y015465D02*
X029805Y015465D01*
X029805Y015366D02*
X029380Y015366D01*
X029380Y015268D02*
X029805Y015268D01*
X029823Y015169D02*
X029380Y015169D01*
X029336Y015071D02*
X029864Y015071D01*
X029905Y014972D02*
X029238Y014972D01*
X029139Y014874D02*
X029994Y014874D01*
X030092Y014775D02*
X029041Y014775D01*
X028459Y014775D02*
X011500Y014775D01*
X011500Y014677D02*
X030310Y014677D01*
X030690Y014677D02*
X036310Y014677D01*
X036092Y014775D02*
X030908Y014775D01*
X031006Y014874D02*
X035994Y014874D01*
X035905Y014972D02*
X031095Y014972D01*
X031136Y015071D02*
X035864Y015071D01*
X035823Y015169D02*
X031177Y015169D01*
X031195Y015268D02*
X035805Y015268D01*
X035805Y015366D02*
X031195Y015366D01*
X031195Y015465D02*
X035805Y015465D01*
X035836Y015563D02*
X031164Y015563D01*
X031123Y015662D02*
X035877Y015662D01*
X035927Y015760D02*
X031073Y015760D01*
X030974Y015859D02*
X036009Y015859D01*
X035911Y015957D02*
X030850Y015957D01*
X030873Y016056D02*
X035870Y016056D01*
X035829Y016154D02*
X030933Y016154D01*
X030965Y016253D02*
X035805Y016253D01*
X037500Y016253D02*
X040375Y016253D01*
X040375Y016351D02*
X037500Y016351D01*
X037500Y016450D02*
X040375Y016450D01*
X040375Y016548D02*
X037500Y016548D01*
X037500Y016647D02*
X040375Y016647D01*
X040375Y016745D02*
X037500Y016745D01*
X037500Y016844D02*
X040375Y016844D01*
X040375Y016942D02*
X037500Y016942D01*
X037500Y017041D02*
X040375Y017041D01*
X040375Y017139D02*
X037500Y017139D01*
X037500Y017238D02*
X040375Y017238D01*
X040375Y017336D02*
X037500Y017336D01*
X037500Y017435D02*
X040375Y017435D01*
X040375Y017533D02*
X037500Y017533D01*
X037500Y017632D02*
X040375Y017632D01*
X040375Y017730D02*
X037500Y017730D01*
X037500Y017829D02*
X040375Y017829D01*
X040375Y017927D02*
X037500Y017927D01*
X037500Y018026D02*
X040375Y018026D01*
X040375Y018124D02*
X037500Y018124D01*
X037500Y018223D02*
X040375Y018223D01*
X040375Y018321D02*
X037500Y018321D01*
X037500Y018420D02*
X040375Y018420D01*
X040375Y018518D02*
X037500Y018518D01*
X037500Y018617D02*
X040375Y018617D01*
X040375Y018715D02*
X038333Y018715D01*
X038561Y018814D02*
X040375Y018814D01*
X040375Y018912D02*
X038660Y018912D01*
X038749Y019011D02*
X040375Y019011D01*
X040375Y019109D02*
X038790Y019109D01*
X038831Y019208D02*
X040375Y019208D01*
X040375Y019306D02*
X038845Y019306D01*
X038845Y019405D02*
X040375Y019405D01*
X040375Y019503D02*
X038845Y019503D01*
X038806Y019602D02*
X040375Y019602D01*
X040375Y019700D02*
X038766Y019700D01*
X038699Y019799D02*
X040375Y019799D01*
X040375Y019897D02*
X038645Y019897D01*
X037500Y021079D02*
X048000Y021079D01*
X048452Y018975D02*
X048132Y018843D01*
X047887Y018598D01*
X047755Y018278D01*
X047755Y017932D01*
X047887Y017612D01*
X048132Y017367D01*
X048452Y017235D01*
X048798Y017235D01*
X049118Y017367D01*
X049363Y017612D01*
X049495Y017932D01*
X049495Y018278D01*
X049363Y018598D01*
X049118Y018843D01*
X048798Y018975D01*
X048452Y018975D01*
X048300Y018912D02*
X041000Y018912D01*
X041000Y018814D02*
X048103Y018814D01*
X048005Y018715D02*
X041000Y018715D01*
X041000Y018617D02*
X047906Y018617D01*
X047854Y018518D02*
X041000Y018518D01*
X041000Y018420D02*
X047814Y018420D01*
X047773Y018321D02*
X041000Y018321D01*
X041000Y018223D02*
X047755Y018223D01*
X047755Y018124D02*
X041000Y018124D01*
X041000Y018026D02*
X047755Y018026D01*
X047757Y017927D02*
X041000Y017927D01*
X041000Y017829D02*
X047798Y017829D01*
X047839Y017730D02*
X041000Y017730D01*
X041000Y017632D02*
X047879Y017632D01*
X047967Y017533D02*
X041000Y017533D01*
X041000Y017435D02*
X046794Y017435D01*
X046864Y017505D02*
X046495Y017136D01*
X046495Y016614D01*
X046734Y016375D01*
X046495Y016136D01*
X046495Y015614D01*
X046734Y015375D01*
X046495Y015136D01*
X046495Y014614D01*
X046864Y014245D01*
X047386Y014245D01*
X047755Y014614D01*
X047755Y015136D01*
X047516Y015375D01*
X047755Y015614D01*
X047755Y016136D01*
X047516Y016375D01*
X047755Y016614D01*
X047755Y017136D01*
X047386Y017505D01*
X046864Y017505D01*
X046695Y017336D02*
X041000Y017336D01*
X041000Y017238D02*
X042908Y017238D01*
X042809Y017139D02*
X041000Y017139D01*
X041000Y017041D02*
X042715Y017041D01*
X042715Y016942D02*
X041000Y016942D01*
X041000Y016844D02*
X042715Y016844D01*
X042715Y016745D02*
X041000Y016745D01*
X041000Y016647D02*
X042774Y016647D01*
X042872Y016548D02*
X041000Y016548D01*
X041000Y016450D02*
X042809Y016450D01*
X042710Y016351D02*
X041000Y016351D01*
X041000Y016253D02*
X042612Y016253D01*
X042513Y016154D02*
X041000Y016154D01*
X041000Y016056D02*
X042495Y016056D01*
X042495Y015957D02*
X041000Y015957D01*
X041000Y015859D02*
X042495Y015859D01*
X042495Y015760D02*
X041000Y015760D01*
X041000Y015662D02*
X042495Y015662D01*
X042546Y015563D02*
X041562Y015563D01*
X041618Y015465D02*
X042645Y015465D01*
X042725Y015366D02*
X042563Y015366D01*
X043525Y015366D02*
X046725Y015366D01*
X046645Y015465D02*
X043605Y015465D01*
X043704Y015563D02*
X046546Y015563D01*
X046495Y015662D02*
X043755Y015662D01*
X043755Y015760D02*
X046495Y015760D01*
X046495Y015859D02*
X043755Y015859D01*
X043755Y015957D02*
X046495Y015957D01*
X046495Y016056D02*
X043755Y016056D01*
X043737Y016154D02*
X046513Y016154D01*
X046612Y016253D02*
X043638Y016253D01*
X043540Y016351D02*
X046710Y016351D01*
X046660Y016450D02*
X043441Y016450D01*
X043378Y016548D02*
X046561Y016548D01*
X046495Y016647D02*
X043476Y016647D01*
X043535Y016745D02*
X046495Y016745D01*
X046495Y016844D02*
X043535Y016844D01*
X043535Y016905D02*
X043535Y017045D01*
X043295Y017285D01*
X043155Y017285D01*
X043155Y016905D01*
X043535Y016905D01*
X043535Y016942D02*
X046495Y016942D01*
X046495Y017041D02*
X043535Y017041D01*
X043441Y017139D02*
X046498Y017139D01*
X046597Y017238D02*
X043342Y017238D01*
X043155Y017238D02*
X043095Y017238D01*
X043095Y017139D02*
X043155Y017139D01*
X043155Y017041D02*
X043095Y017041D01*
X043095Y016942D02*
X043155Y016942D01*
X043623Y015268D02*
X046627Y015268D01*
X046528Y015169D02*
X043722Y015169D01*
X043755Y015071D02*
X046495Y015071D01*
X046495Y014972D02*
X043755Y014972D01*
X043755Y014874D02*
X046495Y014874D01*
X046495Y014775D02*
X043755Y014775D01*
X043755Y014677D02*
X046495Y014677D01*
X046531Y014578D02*
X043719Y014578D01*
X043620Y014480D02*
X045339Y014480D01*
X045364Y014505D02*
X044995Y014136D01*
X044995Y013614D01*
X045364Y013245D01*
X045886Y013245D01*
X046255Y013614D01*
X046255Y014136D01*
X045886Y014505D01*
X045364Y014505D01*
X045240Y014381D02*
X043522Y014381D01*
X043423Y014283D02*
X045142Y014283D01*
X045043Y014184D02*
X043445Y014184D01*
X043583Y014086D02*
X044995Y014086D01*
X044995Y013987D02*
X043682Y013987D01*
X043737Y013889D02*
X044995Y013889D01*
X044995Y013790D02*
X043777Y013790D01*
X043810Y013692D02*
X044995Y013692D01*
X045016Y013593D02*
X043810Y013593D01*
X043810Y013495D02*
X045115Y013495D01*
X045213Y013396D02*
X043792Y013396D01*
X043752Y013298D02*
X045312Y013298D01*
X045938Y013298D02*
X053500Y013298D01*
X053500Y013396D02*
X046037Y013396D01*
X046135Y013495D02*
X053500Y013495D01*
X053500Y013593D02*
X046234Y013593D01*
X046255Y013692D02*
X051103Y013692D01*
X051121Y013684D02*
X052113Y013684D01*
X052379Y013794D01*
X052582Y013997D01*
X052692Y014263D01*
X052692Y014550D01*
X052582Y014816D01*
X052379Y015019D01*
X052113Y015129D01*
X051121Y015129D01*
X050855Y015019D01*
X050652Y014816D01*
X050542Y014550D01*
X050542Y014263D01*
X050652Y013997D01*
X050855Y013794D01*
X051121Y013684D01*
X050865Y013790D02*
X048834Y013790D01*
X048798Y013775D02*
X049118Y013907D01*
X049363Y014152D01*
X049495Y014472D01*
X049495Y014818D01*
X049363Y015138D01*
X049118Y015383D01*
X048798Y015515D01*
X048452Y015515D01*
X048132Y015383D01*
X047887Y015138D01*
X047755Y014818D01*
X047755Y014472D01*
X047887Y014152D01*
X048132Y013907D01*
X048452Y013775D01*
X048798Y013775D01*
X049072Y013889D02*
X050761Y013889D01*
X050662Y013987D02*
X049197Y013987D01*
X049296Y014086D02*
X050616Y014086D01*
X050575Y014184D02*
X049376Y014184D01*
X049417Y014283D02*
X050542Y014283D01*
X050542Y014381D02*
X049457Y014381D01*
X049495Y014480D02*
X050542Y014480D01*
X050554Y014578D02*
X049495Y014578D01*
X049495Y014677D02*
X050594Y014677D01*
X050635Y014775D02*
X049495Y014775D01*
X049472Y014874D02*
X050710Y014874D01*
X050808Y014972D02*
X049431Y014972D01*
X049390Y015071D02*
X050980Y015071D01*
X051121Y015653D02*
X052113Y015653D01*
X052379Y015762D01*
X052582Y015966D01*
X052692Y016231D01*
X052692Y016519D01*
X052582Y016784D01*
X052379Y016988D01*
X052113Y017097D01*
X051121Y017097D01*
X050855Y016988D01*
X050652Y016784D01*
X050542Y016519D01*
X050542Y016231D01*
X050652Y015966D01*
X050855Y015762D01*
X051121Y015653D01*
X051099Y015662D02*
X047755Y015662D01*
X047755Y015760D02*
X048411Y015760D01*
X048416Y015758D02*
X048498Y015736D01*
X048582Y015725D01*
X048586Y015725D01*
X048586Y016336D01*
X047975Y016336D01*
X047975Y016332D01*
X047986Y016248D01*
X048008Y016166D01*
X048041Y016087D01*
X048083Y016013D01*
X048135Y015946D01*
X048196Y015885D01*
X048263Y015833D01*
X048337Y015791D01*
X048416Y015758D01*
X048586Y015760D02*
X048664Y015760D01*
X048664Y015725D02*
X048668Y015725D01*
X048752Y015736D01*
X048834Y015758D01*
X048913Y015791D01*
X048987Y015833D01*
X049054Y015885D01*
X049115Y015946D01*
X049167Y016013D01*
X049209Y016087D01*
X049242Y016166D01*
X049264Y016248D01*
X049275Y016332D01*
X049275Y016336D01*
X048664Y016336D01*
X048664Y016414D01*
X048586Y016414D01*
X048586Y017025D01*
X048582Y017025D01*
X048498Y017014D01*
X048416Y016992D01*
X048337Y016959D01*
X048263Y016917D01*
X048196Y016865D01*
X048135Y016804D01*
X048083Y016737D01*
X048041Y016663D01*
X048008Y016584D01*
X047986Y016502D01*
X047975Y016418D01*
X047975Y016414D01*
X048586Y016414D01*
X048586Y016336D01*
X048664Y016336D01*
X048664Y015725D01*
X048664Y015859D02*
X048586Y015859D01*
X048586Y015957D02*
X048664Y015957D01*
X048664Y016056D02*
X048586Y016056D01*
X048586Y016154D02*
X048664Y016154D01*
X048664Y016253D02*
X048586Y016253D01*
X048586Y016351D02*
X047540Y016351D01*
X047590Y016450D02*
X047979Y016450D01*
X047998Y016548D02*
X047689Y016548D01*
X047755Y016647D02*
X048034Y016647D01*
X048090Y016745D02*
X047755Y016745D01*
X047755Y016844D02*
X048174Y016844D01*
X048307Y016942D02*
X047755Y016942D01*
X047755Y017041D02*
X050983Y017041D01*
X050810Y016942D02*
X048943Y016942D01*
X048913Y016959D02*
X048834Y016992D01*
X048752Y017014D01*
X048668Y017025D01*
X048664Y017025D01*
X048664Y016414D01*
X049275Y016414D01*
X049275Y016418D01*
X049264Y016502D01*
X049242Y016584D01*
X049209Y016663D01*
X049167Y016737D01*
X049115Y016804D01*
X049054Y016865D01*
X048987Y016917D01*
X048913Y016959D01*
X049076Y016844D02*
X050711Y016844D01*
X050636Y016745D02*
X049160Y016745D01*
X049216Y016647D02*
X050595Y016647D01*
X050554Y016548D02*
X049252Y016548D01*
X049271Y016450D02*
X050542Y016450D01*
X050542Y016351D02*
X048664Y016351D01*
X048664Y016450D02*
X048586Y016450D01*
X048586Y016548D02*
X048664Y016548D01*
X048664Y016647D02*
X048586Y016647D01*
X048586Y016745D02*
X048664Y016745D01*
X048664Y016844D02*
X048586Y016844D01*
X048586Y016942D02*
X048664Y016942D01*
X048804Y017238D02*
X053500Y017238D01*
X053500Y017336D02*
X049042Y017336D01*
X049185Y017435D02*
X053500Y017435D01*
X053500Y017533D02*
X049283Y017533D01*
X049371Y017632D02*
X051095Y017632D01*
X051121Y017621D02*
X052113Y017621D01*
X052379Y017731D01*
X052582Y017934D01*
X052692Y018200D01*
X052692Y018487D01*
X052582Y018753D01*
X052379Y018956D01*
X052113Y019066D01*
X051121Y019066D01*
X050855Y018956D01*
X050652Y018753D01*
X050542Y018487D01*
X050542Y018200D01*
X050652Y017934D01*
X050855Y017731D01*
X051121Y017621D01*
X050858Y017730D02*
X049411Y017730D01*
X049452Y017829D02*
X050758Y017829D01*
X050659Y017927D02*
X049493Y017927D01*
X049495Y018026D02*
X050614Y018026D01*
X050573Y018124D02*
X049495Y018124D01*
X049495Y018223D02*
X050542Y018223D01*
X050542Y018321D02*
X049477Y018321D01*
X049436Y018420D02*
X050542Y018420D01*
X050555Y018518D02*
X049396Y018518D01*
X049344Y018617D02*
X050596Y018617D01*
X050636Y018715D02*
X049245Y018715D01*
X049147Y018814D02*
X050713Y018814D01*
X050811Y018912D02*
X048950Y018912D01*
X048065Y017435D02*
X047456Y017435D01*
X047555Y017336D02*
X048208Y017336D01*
X048446Y017238D02*
X047653Y017238D01*
X047752Y017139D02*
X053500Y017139D01*
X053500Y017041D02*
X052251Y017041D01*
X052424Y016942D02*
X053500Y016942D01*
X053500Y016844D02*
X052523Y016844D01*
X052598Y016745D02*
X053500Y016745D01*
X053500Y016647D02*
X052639Y016647D01*
X052680Y016548D02*
X053500Y016548D01*
X053500Y016450D02*
X052692Y016450D01*
X052692Y016351D02*
X053500Y016351D01*
X053500Y016253D02*
X052692Y016253D01*
X052660Y016154D02*
X053500Y016154D01*
X053500Y016056D02*
X052619Y016056D01*
X052573Y015957D02*
X053500Y015957D01*
X053500Y015859D02*
X052475Y015859D01*
X052373Y015760D02*
X053500Y015760D01*
X053500Y015662D02*
X052135Y015662D01*
X052254Y015071D02*
X053500Y015071D01*
X053500Y015169D02*
X049331Y015169D01*
X049233Y015268D02*
X053500Y015268D01*
X053500Y015366D02*
X049134Y015366D01*
X048920Y015465D02*
X053500Y015465D01*
X053500Y015563D02*
X047704Y015563D01*
X047605Y015465D02*
X048330Y015465D01*
X048116Y015366D02*
X047525Y015366D01*
X047623Y015268D02*
X048017Y015268D01*
X047919Y015169D02*
X047722Y015169D01*
X047755Y015071D02*
X047860Y015071D01*
X047819Y014972D02*
X047755Y014972D01*
X047755Y014874D02*
X047778Y014874D01*
X047755Y014775D02*
X047755Y014775D01*
X047755Y014677D02*
X047755Y014677D01*
X047755Y014578D02*
X047719Y014578D01*
X047755Y014480D02*
X047620Y014480D01*
X047522Y014381D02*
X047793Y014381D01*
X047833Y014283D02*
X047423Y014283D01*
X047874Y014184D02*
X046207Y014184D01*
X046255Y014086D02*
X047954Y014086D01*
X048053Y013987D02*
X046255Y013987D01*
X046255Y013889D02*
X048178Y013889D01*
X048416Y013790D02*
X046255Y013790D01*
X046108Y014283D02*
X046827Y014283D01*
X046728Y014381D02*
X046010Y014381D01*
X045911Y014480D02*
X046630Y014480D01*
X047755Y015859D02*
X048230Y015859D01*
X048126Y015957D02*
X047755Y015957D01*
X047755Y016056D02*
X048059Y016056D01*
X048013Y016154D02*
X047737Y016154D01*
X047638Y016253D02*
X047986Y016253D01*
X048839Y015760D02*
X050861Y015760D01*
X050759Y015859D02*
X049020Y015859D01*
X049124Y015957D02*
X050661Y015957D01*
X050615Y016056D02*
X049191Y016056D01*
X049237Y016154D02*
X050574Y016154D01*
X050542Y016253D02*
X049264Y016253D01*
X052139Y017632D02*
X053500Y017632D01*
X053500Y017730D02*
X052377Y017730D01*
X052476Y017829D02*
X053500Y017829D01*
X053500Y017927D02*
X052575Y017927D01*
X052620Y018026D02*
X053500Y018026D01*
X053500Y018124D02*
X052661Y018124D01*
X052692Y018223D02*
X053500Y018223D01*
X053500Y018321D02*
X052692Y018321D01*
X052692Y018420D02*
X053500Y018420D01*
X053500Y018518D02*
X052679Y018518D01*
X052639Y018617D02*
X053500Y018617D01*
X053500Y018715D02*
X052598Y018715D01*
X052521Y018814D02*
X053500Y018814D01*
X053500Y018912D02*
X052423Y018912D01*
X052247Y019011D02*
X053500Y019011D01*
X053500Y019109D02*
X041000Y019109D01*
X041000Y019011D02*
X050987Y019011D01*
X052426Y014972D02*
X053500Y014972D01*
X053500Y014874D02*
X052524Y014874D01*
X052599Y014775D02*
X053500Y014775D01*
X053500Y014677D02*
X052640Y014677D01*
X052681Y014578D02*
X053500Y014578D01*
X053500Y014480D02*
X052692Y014480D01*
X052692Y014381D02*
X053500Y014381D01*
X053500Y014283D02*
X052692Y014283D01*
X052660Y014184D02*
X053500Y014184D01*
X053500Y014086D02*
X052619Y014086D01*
X052572Y013987D02*
X053500Y013987D01*
X053500Y013889D02*
X052473Y013889D01*
X052369Y013790D02*
X053500Y013790D01*
X053500Y013692D02*
X052132Y013692D01*
X053500Y013199D02*
X043711Y013199D01*
X043619Y013101D02*
X053500Y013101D01*
X053500Y013002D02*
X043521Y013002D01*
X043294Y012904D02*
X053500Y012904D01*
X053500Y012805D02*
X042500Y012805D01*
X042500Y012904D02*
X042956Y012904D01*
X042729Y013002D02*
X042500Y013002D01*
X042500Y013101D02*
X042631Y013101D01*
X042539Y013199D02*
X042500Y013199D01*
X042932Y012640D02*
X042660Y012368D01*
X042660Y012205D01*
X043095Y012205D01*
X043095Y012640D01*
X042932Y012640D01*
X042900Y012608D02*
X032935Y012608D01*
X032935Y012510D02*
X042802Y012510D01*
X042703Y012411D02*
X032924Y012411D01*
X032935Y012439D02*
X032831Y012187D01*
X032638Y011994D01*
X032386Y011890D01*
X032114Y011890D01*
X031862Y011994D01*
X031669Y012187D01*
X031565Y012439D01*
X031565Y012711D01*
X031669Y012963D01*
X031862Y013156D01*
X032114Y013260D01*
X032386Y013260D01*
X032638Y013156D01*
X032831Y012963D01*
X032935Y012711D01*
X032935Y012439D01*
X032883Y012313D02*
X042660Y012313D01*
X042660Y012214D02*
X032842Y012214D01*
X032759Y012116D02*
X042660Y012116D01*
X042660Y012145D02*
X042660Y011982D01*
X042932Y011710D01*
X043095Y011710D01*
X043095Y012145D01*
X042660Y012145D01*
X042660Y012017D02*
X032661Y012017D01*
X032455Y011919D02*
X042724Y011919D01*
X042822Y011820D02*
X011500Y011820D01*
X011500Y011722D02*
X042921Y011722D01*
X043095Y011722D02*
X043155Y011722D01*
X043155Y011710D02*
X043318Y011710D01*
X043590Y011982D01*
X043590Y012145D01*
X043155Y012145D01*
X043155Y012205D01*
X043095Y012205D01*
X043095Y012145D01*
X043155Y012145D01*
X043155Y011710D01*
X043155Y011820D02*
X043095Y011820D01*
X043095Y011919D02*
X043155Y011919D01*
X043155Y012017D02*
X043095Y012017D01*
X043095Y012116D02*
X043155Y012116D01*
X043155Y012205D02*
X043590Y012205D01*
X043590Y012368D01*
X043318Y012640D01*
X043155Y012640D01*
X043155Y012205D01*
X043155Y012214D02*
X043095Y012214D01*
X043095Y012313D02*
X043155Y012313D01*
X043155Y012411D02*
X043095Y012411D01*
X043095Y012510D02*
X043155Y012510D01*
X043155Y012608D02*
X043095Y012608D01*
X043350Y012608D02*
X053500Y012608D01*
X053500Y012510D02*
X043448Y012510D01*
X043547Y012411D02*
X053500Y012411D01*
X053500Y012313D02*
X043590Y012313D01*
X043590Y012214D02*
X045384Y012214D01*
X045455Y012285D02*
X045215Y012045D01*
X045215Y011905D01*
X045595Y011905D01*
X045595Y012285D01*
X045455Y012285D01*
X045595Y012214D02*
X045655Y012214D01*
X045655Y012285D02*
X045655Y011905D01*
X045595Y011905D01*
X045595Y011845D01*
X045215Y011845D01*
X045215Y011705D01*
X045455Y011465D01*
X045595Y011465D01*
X045595Y011845D01*
X045655Y011845D01*
X045655Y011905D01*
X046035Y011905D01*
X046035Y012045D01*
X045795Y012285D01*
X045655Y012285D01*
X045655Y012116D02*
X045595Y012116D01*
X045595Y012017D02*
X045655Y012017D01*
X045655Y011919D02*
X045595Y011919D01*
X045655Y011845D02*
X046035Y011845D01*
X046035Y011705D01*
X045795Y011465D01*
X045655Y011465D01*
X045655Y011845D01*
X045655Y011820D02*
X045595Y011820D01*
X045595Y011722D02*
X045655Y011722D01*
X045655Y011623D02*
X045595Y011623D01*
X045595Y011525D02*
X045655Y011525D01*
X045854Y011525D02*
X053500Y011525D01*
X053500Y011623D02*
X045953Y011623D01*
X046035Y011722D02*
X053500Y011722D01*
X053500Y011820D02*
X046035Y011820D01*
X046035Y011919D02*
X053500Y011919D01*
X053500Y012017D02*
X046035Y012017D01*
X045964Y012116D02*
X053500Y012116D01*
X053500Y012214D02*
X045866Y012214D01*
X045286Y012116D02*
X043590Y012116D01*
X043590Y012017D02*
X045215Y012017D01*
X045215Y011919D02*
X043526Y011919D01*
X043428Y011820D02*
X045215Y011820D01*
X045215Y011722D02*
X043329Y011722D01*
X045297Y011623D02*
X032460Y011623D01*
X032443Y011640D02*
X032280Y011640D01*
X032280Y011205D01*
X032220Y011205D01*
X032220Y011640D01*
X032057Y011640D01*
X031785Y011368D01*
X031785Y011205D01*
X032220Y011205D01*
X032220Y011145D01*
X031785Y011145D01*
X031785Y010982D01*
X032057Y010710D01*
X032220Y010710D01*
X032220Y011145D01*
X032280Y011145D01*
X032280Y011205D01*
X032715Y011205D01*
X032715Y011368D01*
X032443Y011640D01*
X032558Y011525D02*
X045396Y011525D01*
X041500Y013889D02*
X037500Y013889D01*
X037500Y013987D02*
X041500Y013987D01*
X041500Y014086D02*
X037500Y014086D01*
X037500Y014184D02*
X040824Y014184D01*
X040767Y014283D02*
X037500Y014283D01*
X037500Y014381D02*
X040766Y014381D01*
X040766Y014578D02*
X037500Y014578D01*
X037500Y014480D02*
X041143Y014480D01*
X041144Y014381D02*
X041240Y014381D01*
X041240Y014283D02*
X041144Y014283D01*
X041144Y014184D02*
X041240Y014184D01*
X040375Y014677D02*
X037500Y014677D01*
X037500Y014775D02*
X040375Y014775D01*
X040375Y014874D02*
X037500Y014874D01*
X037500Y014972D02*
X040375Y014972D01*
X040375Y015071D02*
X037500Y015071D01*
X037500Y015169D02*
X040375Y015169D01*
X040375Y015268D02*
X037500Y015268D01*
X037500Y015366D02*
X040375Y015366D01*
X040375Y015465D02*
X037500Y015465D01*
X037500Y015563D02*
X040375Y015563D01*
X040375Y015662D02*
X037500Y015662D01*
X037500Y015760D02*
X040375Y015760D01*
X040375Y015859D02*
X037500Y015859D01*
X037500Y015957D02*
X040375Y015957D01*
X040375Y016056D02*
X037500Y016056D01*
X037500Y016154D02*
X040375Y016154D01*
X041144Y015563D02*
X041240Y015563D01*
X041240Y015465D02*
X041144Y015465D01*
X037000Y014775D02*
X036908Y014775D01*
X037000Y014677D02*
X036690Y014677D01*
X037000Y014578D02*
X011500Y014578D01*
X011500Y014480D02*
X037000Y014480D01*
X037000Y014381D02*
X011500Y014381D01*
X011500Y014283D02*
X037000Y014283D01*
X037000Y014184D02*
X011500Y014184D01*
X011500Y014086D02*
X037000Y014086D01*
X037000Y013987D02*
X011500Y013987D01*
X011500Y013889D02*
X037000Y013889D01*
X037000Y013790D02*
X011500Y013790D01*
X011500Y013692D02*
X028487Y013692D01*
X028580Y013785D02*
X028340Y013545D01*
X028340Y013405D01*
X028720Y013405D01*
X028720Y013785D01*
X028580Y013785D01*
X028720Y013692D02*
X028780Y013692D01*
X028780Y013785D02*
X028780Y013405D01*
X028720Y013405D01*
X028720Y013345D01*
X028340Y013345D01*
X028340Y013205D01*
X028580Y012965D01*
X028720Y012965D01*
X028720Y013345D01*
X028780Y013345D01*
X028780Y013405D01*
X029160Y013405D01*
X029160Y013545D01*
X028920Y013785D01*
X028780Y013785D01*
X028780Y013593D02*
X028720Y013593D01*
X028720Y013495D02*
X028780Y013495D01*
X028780Y013396D02*
X037000Y013396D01*
X037000Y013298D02*
X029160Y013298D01*
X029160Y013345D02*
X028780Y013345D01*
X028780Y012965D01*
X028920Y012965D01*
X029160Y013205D01*
X029160Y013345D01*
X029154Y013199D02*
X031967Y013199D01*
X031807Y013101D02*
X029055Y013101D01*
X028957Y013002D02*
X031708Y013002D01*
X031645Y012904D02*
X011500Y012904D01*
X011500Y013002D02*
X028543Y013002D01*
X028445Y013101D02*
X011500Y013101D01*
X011500Y013199D02*
X028346Y013199D01*
X028340Y013298D02*
X011500Y013298D01*
X011500Y013396D02*
X028720Y013396D01*
X028720Y013298D02*
X028780Y013298D01*
X028780Y013199D02*
X028720Y013199D01*
X028720Y013101D02*
X028780Y013101D01*
X028780Y013002D02*
X028720Y013002D01*
X028340Y013495D02*
X011500Y013495D01*
X011500Y013593D02*
X028388Y013593D01*
X029013Y013692D02*
X037000Y013692D01*
X037000Y013593D02*
X029112Y013593D01*
X029160Y013495D02*
X037000Y013495D01*
X037000Y013199D02*
X032533Y013199D01*
X032693Y013101D02*
X037000Y013101D01*
X037000Y013002D02*
X032792Y013002D01*
X032855Y012904D02*
X037000Y012904D01*
X037000Y012805D02*
X032896Y012805D01*
X032935Y012707D02*
X053500Y012707D01*
X053500Y011426D02*
X032657Y011426D01*
X032715Y011328D02*
X053500Y011328D01*
X053500Y011229D02*
X032715Y011229D01*
X032715Y011145D02*
X032280Y011145D01*
X032280Y010710D01*
X032443Y010710D01*
X032715Y010982D01*
X032715Y011145D01*
X032715Y011131D02*
X053500Y011131D01*
X053500Y011032D02*
X032715Y011032D01*
X032666Y010934D02*
X053500Y010934D01*
X053500Y010835D02*
X032568Y010835D01*
X032469Y010737D02*
X053500Y010737D01*
X053500Y010638D02*
X011500Y010638D01*
X011500Y010540D02*
X053500Y010540D01*
X053500Y010441D02*
X011500Y010441D01*
X011500Y010343D02*
X053500Y010343D01*
X053500Y010244D02*
X011500Y010244D01*
X011500Y010146D02*
X053500Y010146D01*
X053500Y010047D02*
X011500Y010047D01*
X011500Y009949D02*
X053500Y009949D01*
X053500Y009850D02*
X011500Y009850D01*
X011500Y009752D02*
X053500Y009752D01*
X053500Y009653D02*
X011500Y009653D01*
X011500Y009555D02*
X053500Y009555D01*
X053500Y009456D02*
X011500Y009456D01*
X011500Y009358D02*
X053500Y009358D01*
X053500Y009259D02*
X011500Y009259D01*
X011500Y009161D02*
X053500Y009161D01*
X053500Y009062D02*
X011500Y009062D01*
X011500Y008964D02*
X053500Y008964D01*
X053500Y008865D02*
X011500Y008865D01*
X011500Y008767D02*
X053500Y008767D01*
X053500Y008668D02*
X011500Y008668D01*
X011500Y008570D02*
X053500Y008570D01*
X053500Y008471D02*
X011500Y008471D01*
X011500Y008373D02*
X053500Y008373D01*
X053500Y008274D02*
X011500Y008274D01*
X011500Y008176D02*
X053500Y008176D01*
X053500Y008077D02*
X011500Y008077D01*
X011500Y007979D02*
X053500Y007979D01*
X053500Y007880D02*
X011500Y007880D01*
X011500Y007782D02*
X053500Y007782D01*
X053500Y007683D02*
X011500Y007683D01*
X011500Y007585D02*
X053500Y007585D01*
X053500Y007486D02*
X011500Y007486D01*
X011500Y007388D02*
X053500Y007388D01*
X053500Y007289D02*
X011500Y007289D01*
X011500Y007191D02*
X053500Y007191D01*
X053500Y007092D02*
X044799Y007092D01*
X044761Y007130D02*
X044239Y007130D01*
X043870Y006761D01*
X043870Y006239D01*
X044239Y005870D01*
X044761Y005870D01*
X045130Y006239D01*
X045130Y006761D01*
X044761Y007130D01*
X044897Y006994D02*
X053500Y006994D01*
X053500Y006895D02*
X044996Y006895D01*
X045094Y006797D02*
X053500Y006797D01*
X053500Y006698D02*
X045130Y006698D01*
X045130Y006600D02*
X053500Y006600D01*
X053500Y006501D02*
X045130Y006501D01*
X045130Y006403D02*
X053500Y006403D01*
X053500Y006304D02*
X045130Y006304D01*
X045096Y006206D02*
X053500Y006206D01*
X053500Y006107D02*
X044998Y006107D01*
X044899Y006009D02*
X053500Y006009D01*
X053500Y005910D02*
X044801Y005910D01*
X044199Y005910D02*
X039176Y005910D01*
X039136Y005870D02*
X039505Y006239D01*
X039505Y006761D01*
X039136Y007130D01*
X038614Y007130D01*
X038245Y006761D01*
X038245Y006239D01*
X038614Y005870D01*
X039136Y005870D01*
X039274Y006009D02*
X044101Y006009D01*
X044002Y006107D02*
X039373Y006107D01*
X039471Y006206D02*
X043904Y006206D01*
X043870Y006304D02*
X039505Y006304D01*
X039505Y006403D02*
X043870Y006403D01*
X043870Y006501D02*
X039505Y006501D01*
X039505Y006600D02*
X043870Y006600D01*
X043870Y006698D02*
X039505Y006698D01*
X039469Y006797D02*
X043906Y006797D01*
X044004Y006895D02*
X039371Y006895D01*
X039272Y006994D02*
X044103Y006994D01*
X044201Y007092D02*
X039174Y007092D01*
X038576Y007092D02*
X011500Y007092D01*
X011500Y006994D02*
X038478Y006994D01*
X038379Y006895D02*
X011500Y006895D01*
X011500Y006797D02*
X038281Y006797D01*
X038245Y006698D02*
X011500Y006698D01*
X011500Y006600D02*
X038245Y006600D01*
X038245Y006501D02*
X011500Y006501D01*
X011500Y006403D02*
X038245Y006403D01*
X038245Y006304D02*
X011500Y006304D01*
X011500Y006206D02*
X038279Y006206D01*
X038377Y006107D02*
X007875Y006107D01*
X007875Y006009D02*
X038476Y006009D01*
X038574Y005910D02*
X007875Y005910D01*
X007875Y005812D02*
X053500Y005812D01*
X053500Y005713D02*
X007875Y005713D01*
X007875Y005615D02*
X053500Y005615D01*
X053500Y005516D02*
X007875Y005516D01*
X007875Y005418D02*
X053500Y005418D01*
X053500Y005319D02*
X007875Y005319D01*
X007875Y005221D02*
X053500Y005221D01*
X053500Y005122D02*
X007875Y005122D01*
X007875Y005024D02*
X030722Y005024D01*
X030666Y005000D02*
X030500Y004834D01*
X030410Y004617D01*
X030410Y004383D01*
X030500Y004166D01*
X030666Y004000D01*
X030883Y003910D01*
X031117Y003910D01*
X031334Y004000D01*
X031500Y004166D01*
X031590Y004383D01*
X031590Y004617D01*
X031500Y004834D01*
X031334Y005000D01*
X031117Y005090D01*
X030883Y005090D01*
X030666Y005000D01*
X030591Y004925D02*
X007875Y004925D01*
X007875Y004827D02*
X030497Y004827D01*
X030456Y004728D02*
X007875Y004728D01*
X007875Y004630D02*
X030415Y004630D01*
X030410Y004531D02*
X007875Y004531D01*
X007875Y004433D02*
X030410Y004433D01*
X030430Y004334D02*
X007875Y004334D01*
X007875Y004236D02*
X030471Y004236D01*
X030529Y004137D02*
X007875Y004137D01*
X007875Y004039D02*
X029758Y004039D01*
X029666Y004000D02*
X029883Y004090D01*
X030117Y004090D01*
X030334Y004000D01*
X030500Y003834D01*
X030590Y003617D01*
X030590Y003383D01*
X030500Y003166D01*
X030334Y003000D01*
X030117Y002910D01*
X029883Y002910D01*
X029666Y003000D01*
X029500Y003166D01*
X029410Y003383D01*
X029410Y003617D01*
X029500Y003834D01*
X029666Y004000D01*
X029606Y003940D02*
X007875Y003940D01*
X007875Y003842D02*
X029507Y003842D01*
X029462Y003743D02*
X007875Y003743D01*
X007875Y003645D02*
X029421Y003645D01*
X029410Y003546D02*
X007875Y003546D01*
X007875Y003448D02*
X029410Y003448D01*
X029424Y003349D02*
X007875Y003349D01*
X007875Y003251D02*
X029465Y003251D01*
X029514Y003152D02*
X007875Y003152D01*
X007875Y003054D02*
X029612Y003054D01*
X029774Y002955D02*
X027307Y002955D01*
X027130Y003029D02*
X026732Y003029D01*
X026364Y002876D01*
X026082Y002595D01*
X025930Y002227D01*
X025930Y001828D01*
X026082Y001460D01*
X026364Y001179D01*
X026732Y001026D01*
X027130Y001026D01*
X027498Y001179D01*
X027779Y001460D01*
X027932Y001828D01*
X027932Y002227D01*
X027779Y002595D01*
X027498Y002876D01*
X027130Y003029D01*
X027517Y002857D02*
X038341Y002857D01*
X038245Y002761D02*
X038245Y002239D01*
X038614Y001870D01*
X039136Y001870D01*
X039505Y002239D01*
X039505Y002761D01*
X039136Y003130D01*
X038614Y003130D01*
X038245Y002761D01*
X038245Y002758D02*
X027616Y002758D01*
X027714Y002660D02*
X038245Y002660D01*
X038245Y002561D02*
X027793Y002561D01*
X027834Y002463D02*
X038245Y002463D01*
X038245Y002364D02*
X027875Y002364D01*
X027916Y002266D02*
X038245Y002266D01*
X038317Y002167D02*
X027932Y002167D01*
X027932Y002069D02*
X038416Y002069D01*
X038514Y001970D02*
X027932Y001970D01*
X027932Y001872D02*
X038613Y001872D01*
X039137Y001872D02*
X039848Y001872D01*
X039807Y001970D02*
X039236Y001970D01*
X039334Y002069D02*
X039793Y002069D01*
X039793Y002004D02*
X039903Y001738D01*
X040106Y001535D01*
X040372Y001425D01*
X040659Y001425D01*
X040925Y001535D01*
X041128Y001738D01*
X041238Y002004D01*
X041238Y002996D01*
X041128Y003262D01*
X040925Y003465D01*
X040659Y003575D01*
X040372Y003575D01*
X040106Y003465D01*
X039903Y003262D01*
X039793Y002996D01*
X039793Y002004D01*
X039793Y002167D02*
X039433Y002167D01*
X039505Y002266D02*
X039793Y002266D01*
X039793Y002364D02*
X039505Y002364D01*
X039505Y002463D02*
X039793Y002463D01*
X039793Y002561D02*
X039505Y002561D01*
X039505Y002660D02*
X039793Y002660D01*
X039793Y002758D02*
X039505Y002758D01*
X039409Y002857D02*
X039793Y002857D01*
X039793Y002955D02*
X039311Y002955D01*
X039212Y003054D02*
X039817Y003054D01*
X039858Y003152D02*
X032127Y003152D01*
X032108Y003144D02*
X032175Y003172D01*
X032236Y003213D01*
X032287Y003264D01*
X032328Y003325D01*
X032356Y003392D01*
X032370Y003464D01*
X032370Y003490D01*
X032010Y003490D01*
X032010Y003510D01*
X031990Y003510D01*
X031990Y003870D01*
X031964Y003870D01*
X031892Y003856D01*
X031825Y003828D01*
X031764Y003787D01*
X031713Y003736D01*
X031672Y003675D01*
X031644Y003608D01*
X031630Y003536D01*
X031630Y003510D01*
X031990Y003510D01*
X031990Y003490D01*
X031630Y003490D01*
X031630Y003464D01*
X031644Y003392D01*
X031672Y003325D01*
X031713Y003264D01*
X031764Y003213D01*
X031825Y003172D01*
X031892Y003144D01*
X031964Y003130D01*
X031990Y003130D01*
X031990Y003490D01*
X032010Y003490D01*
X032010Y003130D01*
X032036Y003130D01*
X032108Y003144D01*
X032010Y003152D02*
X031990Y003152D01*
X031990Y003251D02*
X032010Y003251D01*
X032010Y003349D02*
X031990Y003349D01*
X031990Y003448D02*
X032010Y003448D01*
X032010Y003510D02*
X032370Y003510D01*
X032370Y003536D01*
X032356Y003608D01*
X032328Y003675D01*
X032287Y003736D01*
X032236Y003787D01*
X032175Y003828D01*
X032108Y003856D01*
X032036Y003870D01*
X032010Y003870D01*
X032010Y003510D01*
X032010Y003546D02*
X031990Y003546D01*
X031990Y003645D02*
X032010Y003645D01*
X032010Y003743D02*
X031990Y003743D01*
X031990Y003842D02*
X032010Y003842D01*
X032142Y003842D02*
X050000Y003842D01*
X050000Y003940D02*
X031190Y003940D01*
X031373Y004039D02*
X053500Y004039D01*
X053500Y004137D02*
X031471Y004137D01*
X031529Y004236D02*
X053500Y004236D01*
X053500Y004334D02*
X031570Y004334D01*
X031590Y004433D02*
X053500Y004433D01*
X053500Y004531D02*
X031590Y004531D01*
X031585Y004630D02*
X053500Y004630D01*
X053500Y004728D02*
X031544Y004728D01*
X031503Y004827D02*
X053500Y004827D01*
X053500Y004925D02*
X031409Y004925D01*
X031278Y005024D02*
X053500Y005024D01*
X050000Y003743D02*
X032280Y003743D01*
X032341Y003645D02*
X050000Y003645D01*
X050000Y003546D02*
X046354Y003546D01*
X046284Y003575D02*
X045997Y003575D01*
X045731Y003465D01*
X045528Y003262D01*
X045418Y002996D01*
X045418Y002004D01*
X045528Y001738D01*
X045731Y001535D01*
X045997Y001425D01*
X046284Y001425D01*
X046550Y001535D01*
X046753Y001738D01*
X046863Y002004D01*
X046863Y002996D01*
X046753Y003262D01*
X046550Y003465D01*
X046284Y003575D01*
X046568Y003448D02*
X050000Y003448D01*
X050000Y003349D02*
X048187Y003349D01*
X048159Y003349D02*
X048059Y003349D01*
X048059Y003353D02*
X047992Y003343D01*
X047916Y003318D01*
X047846Y003282D01*
X047782Y003236D01*
X047726Y003180D01*
X047679Y003116D01*
X047644Y003045D01*
X047619Y002970D01*
X047607Y002892D01*
X047607Y002550D01*
X048059Y002550D01*
X048059Y002450D01*
X047607Y002450D01*
X047607Y002108D01*
X047619Y002030D01*
X047644Y001955D01*
X047679Y001884D01*
X047726Y001820D01*
X047782Y001764D01*
X047846Y001718D01*
X047916Y001682D01*
X047992Y001657D01*
X048059Y001647D01*
X048059Y002450D01*
X048159Y002450D01*
X048159Y001647D01*
X048227Y001657D01*
X048302Y001682D01*
X048373Y001718D01*
X048437Y001764D01*
X048493Y001820D01*
X048539Y001884D01*
X048575Y001955D01*
X048599Y002030D01*
X048612Y002108D01*
X048612Y002450D01*
X048159Y002450D01*
X048159Y002550D01*
X048059Y002550D01*
X048059Y003353D01*
X048032Y003349D02*
X046666Y003349D01*
X046758Y003251D02*
X047802Y003251D01*
X047706Y003152D02*
X046799Y003152D01*
X046840Y003054D02*
X047648Y003054D01*
X047617Y002955D02*
X046863Y002955D01*
X046863Y002857D02*
X047607Y002857D01*
X047607Y002758D02*
X046863Y002758D01*
X046863Y002660D02*
X047607Y002660D01*
X047607Y002561D02*
X046863Y002561D01*
X046863Y002463D02*
X048059Y002463D01*
X048059Y002561D02*
X048159Y002561D01*
X048159Y002550D02*
X048159Y003353D01*
X048227Y003343D01*
X048302Y003318D01*
X048373Y003282D01*
X048437Y003236D01*
X048493Y003180D01*
X048539Y003116D01*
X048575Y003045D01*
X048599Y002970D01*
X048612Y002892D01*
X048612Y002550D01*
X048159Y002550D01*
X048159Y002463D02*
X050000Y002463D01*
X050000Y002561D02*
X048612Y002561D01*
X048612Y002660D02*
X050000Y002660D01*
X050000Y002758D02*
X048612Y002758D01*
X048612Y002857D02*
X050000Y002857D01*
X050000Y002955D02*
X048602Y002955D01*
X048571Y003054D02*
X050000Y003054D01*
X050000Y003152D02*
X048513Y003152D01*
X048416Y003251D02*
X050000Y003251D01*
X050000Y002364D02*
X048612Y002364D01*
X048612Y002266D02*
X050000Y002266D01*
X050000Y002167D02*
X048612Y002167D01*
X048606Y002069D02*
X050000Y002069D01*
X050000Y001970D02*
X048580Y001970D01*
X048530Y001872D02*
X050000Y001872D01*
X050000Y001773D02*
X048445Y001773D01*
X048280Y001675D02*
X050000Y001675D01*
X050000Y001576D02*
X046591Y001576D01*
X046690Y001675D02*
X047939Y001675D01*
X048059Y001675D02*
X048159Y001675D01*
X048159Y001773D02*
X048059Y001773D01*
X048059Y001872D02*
X048159Y001872D01*
X048159Y001970D02*
X048059Y001970D01*
X048059Y002069D02*
X048159Y002069D01*
X048159Y002167D02*
X048059Y002167D01*
X048059Y002266D02*
X048159Y002266D01*
X048159Y002364D02*
X048059Y002364D01*
X048059Y002660D02*
X048159Y002660D01*
X048159Y002758D02*
X048059Y002758D01*
X048059Y002857D02*
X048159Y002857D01*
X048159Y002955D02*
X048059Y002955D01*
X048059Y003054D02*
X048159Y003054D01*
X048159Y003152D02*
X048059Y003152D01*
X048059Y003251D02*
X048159Y003251D01*
X047607Y002364D02*
X046863Y002364D01*
X046863Y002266D02*
X047607Y002266D01*
X047607Y002167D02*
X046863Y002167D01*
X046863Y002069D02*
X047613Y002069D01*
X047639Y001970D02*
X046849Y001970D01*
X046808Y001872D02*
X047689Y001872D01*
X047773Y001773D02*
X046768Y001773D01*
X046411Y001478D02*
X050000Y001478D01*
X050000Y001379D02*
X027698Y001379D01*
X027787Y001478D02*
X040245Y001478D01*
X040065Y001576D02*
X027827Y001576D01*
X027868Y001675D02*
X039967Y001675D01*
X039889Y001773D02*
X027909Y001773D01*
X027600Y001281D02*
X050000Y001281D01*
X050000Y001182D02*
X027501Y001182D01*
X027268Y001084D02*
X050000Y001084D01*
X050000Y000985D02*
X007875Y000985D01*
X007875Y000887D02*
X050000Y000887D01*
X050000Y000788D02*
X007875Y000788D01*
X007875Y000690D02*
X050000Y000690D01*
X050000Y000591D02*
X007875Y000591D01*
X007875Y001084D02*
X026593Y001084D01*
X026360Y001182D02*
X007875Y001182D01*
X007875Y001281D02*
X026262Y001281D01*
X026163Y001379D02*
X007875Y001379D01*
X007875Y001478D02*
X026075Y001478D01*
X026034Y001576D02*
X007875Y001576D01*
X007875Y001675D02*
X025993Y001675D01*
X025952Y001773D02*
X007875Y001773D01*
X007875Y001872D02*
X025930Y001872D01*
X025930Y001970D02*
X007875Y001970D01*
X007875Y002069D02*
X025930Y002069D01*
X025930Y002167D02*
X007875Y002167D01*
X007875Y002266D02*
X025946Y002266D01*
X025986Y002364D02*
X007875Y002364D01*
X007875Y002463D02*
X026027Y002463D01*
X026068Y002561D02*
X007875Y002561D01*
X007875Y002660D02*
X026147Y002660D01*
X026245Y002758D02*
X007875Y002758D01*
X007875Y002857D02*
X026344Y002857D01*
X026554Y002955D02*
X007875Y002955D01*
X007000Y002955D02*
X005654Y002955D01*
X005476Y003029D02*
X005078Y003029D01*
X004710Y002876D01*
X004428Y002595D01*
X004276Y002227D01*
X004276Y001828D01*
X004428Y001460D01*
X004710Y001179D01*
X005078Y001026D01*
X005476Y001026D01*
X005844Y001179D01*
X006126Y001460D01*
X006278Y001828D01*
X006278Y002227D01*
X006126Y002595D01*
X005844Y002876D01*
X005476Y003029D01*
X005864Y002857D02*
X007000Y002857D01*
X007000Y002758D02*
X005962Y002758D01*
X006061Y002660D02*
X007000Y002660D01*
X007000Y002561D02*
X006140Y002561D01*
X006181Y002463D02*
X007000Y002463D01*
X007000Y002364D02*
X006221Y002364D01*
X006262Y002266D02*
X007000Y002266D01*
X007000Y002167D02*
X006278Y002167D01*
X006278Y002069D02*
X007000Y002069D01*
X007000Y001970D02*
X006278Y001970D01*
X006278Y001872D02*
X007000Y001872D01*
X007000Y001773D02*
X006255Y001773D01*
X006215Y001675D02*
X007000Y001675D01*
X007000Y001576D02*
X006174Y001576D01*
X006133Y001478D02*
X007000Y001478D01*
X007000Y001379D02*
X006045Y001379D01*
X005946Y001281D02*
X007000Y001281D01*
X007000Y001182D02*
X005848Y001182D01*
X005615Y001084D02*
X007000Y001084D01*
X007000Y000985D02*
X004000Y000985D01*
X004000Y000887D02*
X007000Y000887D01*
X007000Y000788D02*
X004000Y000788D01*
X004000Y000690D02*
X007000Y000690D01*
X007000Y000591D02*
X004000Y000591D01*
X004000Y001084D02*
X004940Y001084D01*
X004707Y001182D02*
X004000Y001182D01*
X004000Y001281D02*
X004608Y001281D01*
X004510Y001379D02*
X004000Y001379D01*
X004000Y001478D02*
X004421Y001478D01*
X004380Y001576D02*
X004000Y001576D01*
X004000Y001675D02*
X004340Y001675D01*
X004299Y001773D02*
X004000Y001773D01*
X004000Y001872D02*
X004276Y001872D01*
X004276Y001970D02*
X004000Y001970D01*
X004000Y002069D02*
X004276Y002069D01*
X004276Y002167D02*
X004000Y002167D01*
X004000Y002266D02*
X004292Y002266D01*
X004333Y002364D02*
X004000Y002364D01*
X004000Y002463D02*
X004374Y002463D01*
X004415Y002561D02*
X004000Y002561D01*
X004000Y002660D02*
X004493Y002660D01*
X004592Y002758D02*
X004000Y002758D01*
X004000Y002857D02*
X004690Y002857D01*
X004900Y002955D02*
X004000Y002955D01*
X004000Y003054D02*
X007000Y003054D01*
X007000Y003152D02*
X004000Y003152D01*
X004000Y003251D02*
X007000Y003251D01*
X007000Y003349D02*
X004000Y003349D01*
X004000Y003448D02*
X007000Y003448D01*
X007000Y003546D02*
X004000Y003546D01*
X004000Y003645D02*
X007000Y003645D01*
X007000Y003743D02*
X004000Y003743D01*
X004000Y003842D02*
X007000Y003842D01*
X007000Y003940D02*
X004000Y003940D01*
X006008Y005542D02*
X006036Y005514D01*
X006070Y005494D01*
X006108Y005484D01*
X006448Y005484D01*
X006448Y005954D01*
X005978Y005954D01*
X005978Y005614D01*
X005988Y005576D01*
X006008Y005542D01*
X006033Y005516D02*
X000500Y005516D01*
X000500Y005418D02*
X007000Y005418D01*
X007000Y005516D02*
X006962Y005516D01*
X007000Y005319D02*
X000500Y005319D01*
X000500Y005221D02*
X007000Y005221D01*
X007000Y005122D02*
X000500Y005122D01*
X000500Y005024D02*
X007000Y005024D01*
X007000Y004925D02*
X000500Y004925D01*
X000500Y004827D02*
X007000Y004827D01*
X007000Y004728D02*
X000500Y004728D01*
X000500Y004630D02*
X007000Y004630D01*
X007000Y004531D02*
X000500Y004531D01*
X000500Y004433D02*
X007000Y004433D01*
X007000Y004334D02*
X000500Y004334D01*
X000500Y004236D02*
X007000Y004236D01*
X007000Y004137D02*
X000500Y004137D01*
X000500Y004039D02*
X007000Y004039D01*
X006548Y005516D02*
X006448Y005516D01*
X006448Y005615D02*
X006548Y005615D01*
X006548Y005713D02*
X006448Y005713D01*
X006448Y005812D02*
X006548Y005812D01*
X006548Y005910D02*
X006448Y005910D01*
X006448Y006009D02*
X000500Y006009D01*
X000500Y006107D02*
X005978Y006107D01*
X005978Y006206D02*
X000500Y006206D01*
X000500Y006304D02*
X005978Y006304D01*
X005980Y006403D02*
X003043Y006403D01*
X003011Y006370D02*
X003380Y006739D01*
X003380Y007261D01*
X003011Y007630D01*
X002489Y007630D01*
X002120Y007261D01*
X002120Y006739D01*
X002489Y006370D01*
X003011Y006370D01*
X003142Y006501D02*
X005954Y006501D01*
X005864Y006600D02*
X003240Y006600D01*
X003339Y006698D02*
X005823Y006698D01*
X005783Y006797D02*
X003380Y006797D01*
X003380Y006895D02*
X005758Y006895D01*
X005758Y006994D02*
X003380Y006994D01*
X003380Y007092D02*
X005758Y007092D01*
X005774Y007191D02*
X003380Y007191D01*
X003352Y007289D02*
X005815Y007289D01*
X005856Y007388D02*
X003253Y007388D01*
X003155Y007486D02*
X005933Y007486D01*
X005870Y007585D02*
X003056Y007585D01*
X002444Y007585D02*
X000500Y007585D01*
X000500Y007683D02*
X005830Y007683D01*
X005789Y007782D02*
X000500Y007782D01*
X000500Y007880D02*
X005758Y007880D01*
X005758Y007979D02*
X000500Y007979D01*
X000500Y008077D02*
X005758Y008077D01*
X005768Y008176D02*
X000500Y008176D01*
X000500Y008274D02*
X005809Y008274D01*
X005849Y008373D02*
X000500Y008373D01*
X000500Y008471D02*
X005918Y008471D01*
X005885Y008570D02*
X000500Y008570D01*
X000500Y008668D02*
X002502Y008668D01*
X002580Y008590D02*
X002340Y008830D01*
X002340Y008970D01*
X002720Y008970D01*
X002720Y009030D01*
X002720Y009410D01*
X002580Y009410D01*
X002340Y009170D01*
X002340Y009030D01*
X002720Y009030D01*
X002780Y009030D01*
X002780Y009410D01*
X002920Y009410D01*
X003160Y009170D01*
X003160Y009030D01*
X002780Y009030D01*
X002780Y008970D01*
X003160Y008970D01*
X003160Y008830D01*
X002920Y008590D01*
X002780Y008590D01*
X002780Y008970D01*
X002720Y008970D01*
X002720Y008590D01*
X002580Y008590D01*
X002720Y008668D02*
X002780Y008668D01*
X002780Y008767D02*
X002720Y008767D01*
X002720Y008865D02*
X002780Y008865D01*
X002780Y008964D02*
X002720Y008964D01*
X002720Y009062D02*
X002780Y009062D01*
X002780Y009161D02*
X002720Y009161D01*
X002720Y009259D02*
X002780Y009259D01*
X002780Y009358D02*
X002720Y009358D01*
X002528Y009358D02*
X000500Y009358D01*
X000500Y009456D02*
X005903Y009456D01*
X005843Y009358D02*
X002972Y009358D01*
X003071Y009259D02*
X005802Y009259D01*
X005762Y009161D02*
X003160Y009161D01*
X003160Y009062D02*
X005758Y009062D01*
X005758Y008964D02*
X003160Y008964D01*
X003160Y008865D02*
X005758Y008865D01*
X005795Y008767D02*
X003096Y008767D01*
X002998Y008668D02*
X005836Y008668D01*
X006002Y009555D02*
X000500Y009555D01*
X000500Y009653D02*
X006113Y009653D01*
X006043Y009752D02*
X000500Y009752D01*
X000500Y009850D02*
X006001Y009850D01*
X005980Y009949D02*
X000500Y009949D01*
X000500Y010047D02*
X006448Y010047D01*
X006101Y010343D02*
X000500Y010343D01*
X000500Y010441D02*
X006014Y010441D01*
X005915Y010540D02*
X000500Y010540D01*
X000500Y010638D02*
X005848Y010638D01*
X005807Y010737D02*
X000500Y010737D01*
X000500Y010835D02*
X005767Y010835D01*
X005758Y010934D02*
X000500Y010934D01*
X000500Y011032D02*
X005758Y011032D01*
X005758Y011131D02*
X000500Y011131D01*
X000500Y011229D02*
X005790Y011229D01*
X005831Y011328D02*
X000500Y011328D01*
X000500Y011426D02*
X005873Y011426D01*
X005930Y011525D02*
X000500Y011525D01*
X000500Y011623D02*
X005854Y011623D01*
X005814Y011722D02*
X000500Y011722D01*
X000500Y011820D02*
X005773Y011820D01*
X005758Y011919D02*
X000500Y011919D01*
X000500Y012017D02*
X005758Y012017D01*
X005758Y012116D02*
X000500Y012116D01*
X000500Y012214D02*
X005784Y012214D01*
X005825Y012313D02*
X000500Y012313D01*
X000500Y012411D02*
X005865Y012411D01*
X005945Y012510D02*
X000500Y012510D01*
X000500Y012608D02*
X005861Y012608D01*
X005820Y012707D02*
X000500Y012707D01*
X000500Y012805D02*
X005779Y012805D01*
X005758Y012904D02*
X000500Y012904D01*
X000500Y013002D02*
X005758Y013002D01*
X005758Y013101D02*
X000500Y013101D01*
X000500Y013199D02*
X005778Y013199D01*
X005818Y013298D02*
X000500Y013298D01*
X000500Y013396D02*
X005859Y013396D01*
X005942Y013495D02*
X000500Y013495D01*
X000500Y013593D02*
X005867Y013593D01*
X005826Y013692D02*
X000500Y013692D01*
X000500Y013790D02*
X005785Y013790D01*
X005758Y013889D02*
X000500Y013889D01*
X000500Y013987D02*
X005758Y013987D01*
X005758Y014086D02*
X000500Y014086D01*
X000500Y014184D02*
X005771Y014184D01*
X005812Y014283D02*
X000500Y014283D01*
X000500Y014381D02*
X005853Y014381D01*
X005927Y014480D02*
X000500Y014480D01*
X000500Y014578D02*
X005877Y014578D01*
X005832Y014677D02*
X000500Y014677D01*
X000500Y014775D02*
X005791Y014775D01*
X005758Y014874D02*
X000500Y014874D01*
X000500Y014972D02*
X005758Y014972D01*
X005758Y015071D02*
X000500Y015071D01*
X000500Y015169D02*
X005765Y015169D01*
X005806Y015268D02*
X000500Y015268D01*
X000500Y015366D02*
X005847Y015366D01*
X005912Y015465D02*
X000500Y015465D01*
X000500Y015563D02*
X005892Y015563D01*
X005838Y015662D02*
X000500Y015662D01*
X000500Y015760D02*
X005798Y015760D01*
X005758Y015859D02*
X000500Y015859D01*
X000500Y015957D02*
X005758Y015957D01*
X005758Y016056D02*
X000500Y016056D01*
X000500Y016154D02*
X005759Y016154D01*
X005800Y016253D02*
X000500Y016253D01*
X000500Y016351D02*
X005841Y016351D01*
X005897Y016450D02*
X000500Y016450D01*
X000500Y016548D02*
X005907Y016548D01*
X005845Y016647D02*
X000500Y016647D01*
X000500Y016745D02*
X005804Y016745D01*
X005763Y016844D02*
X000500Y016844D01*
X000500Y016942D02*
X005758Y016942D01*
X005758Y017041D02*
X000500Y017041D01*
X000500Y017139D02*
X005758Y017139D01*
X005793Y017238D02*
X000500Y017238D01*
X000500Y017336D02*
X005834Y017336D01*
X005882Y017435D02*
X000500Y017435D01*
X000500Y017533D02*
X005922Y017533D01*
X005851Y017632D02*
X000500Y017632D01*
X000500Y017730D02*
X005810Y017730D01*
X005769Y017829D02*
X000500Y017829D01*
X000500Y017927D02*
X005758Y017927D01*
X005758Y018026D02*
X000500Y018026D01*
X000500Y018124D02*
X005758Y018124D01*
X005787Y018223D02*
X000500Y018223D01*
X000500Y018321D02*
X005828Y018321D01*
X005869Y018420D02*
X000500Y018420D01*
X000500Y018518D02*
X005937Y018518D01*
X005857Y018617D02*
X000500Y018617D01*
X000500Y018715D02*
X005816Y018715D01*
X005775Y018814D02*
X000500Y018814D01*
X000500Y018912D02*
X005758Y018912D01*
X005758Y019011D02*
X000500Y019011D01*
X000500Y019109D02*
X005758Y019109D01*
X005781Y019208D02*
X000500Y019208D01*
X000500Y019306D02*
X005822Y019306D01*
X005863Y019405D02*
X000500Y019405D01*
X000500Y019503D02*
X005950Y019503D01*
X005863Y019602D02*
X000500Y019602D01*
X000500Y019700D02*
X005822Y019700D01*
X005782Y019799D02*
X000500Y019799D01*
X000500Y019897D02*
X005758Y019897D01*
X005758Y019996D02*
X000500Y019996D01*
X000500Y020094D02*
X005758Y020094D01*
X005775Y020193D02*
X000500Y020193D01*
X000500Y020291D02*
X005816Y020291D01*
X005856Y020390D02*
X000500Y020390D01*
X000500Y020488D02*
X005935Y020488D01*
X006034Y020587D02*
X000500Y020587D01*
X000500Y020685D02*
X006086Y020685D01*
X006016Y020804D02*
X005990Y020882D01*
X005983Y021079D02*
X000500Y021079D01*
X000500Y020981D02*
X006448Y020981D01*
X006448Y021079D02*
X006548Y021079D01*
X006548Y021178D02*
X006448Y021178D01*
X006448Y021276D02*
X006548Y021276D01*
X006548Y021375D02*
X006448Y021375D01*
X006448Y021473D02*
X006548Y021473D01*
X006722Y021473D02*
X007000Y021473D01*
X007000Y021375D02*
X006862Y021375D01*
X006943Y021276D02*
X007000Y021276D01*
X006988Y021178D02*
X007000Y021178D01*
X007000Y021572D02*
X000500Y021572D01*
X000500Y021670D02*
X007000Y021670D01*
X007000Y021769D02*
X000500Y021769D01*
X000500Y021867D02*
X007000Y021867D01*
X007000Y021966D02*
X000500Y021966D01*
X000500Y022064D02*
X007000Y022064D01*
X007000Y022163D02*
X000500Y022163D01*
X000500Y022261D02*
X007000Y022261D01*
X007000Y022360D02*
X000500Y022360D01*
X000500Y022458D02*
X007000Y022458D01*
X007000Y022557D02*
X000500Y022557D01*
X000500Y022655D02*
X007000Y022655D01*
X007000Y022754D02*
X000500Y022754D01*
X000500Y022852D02*
X007000Y022852D01*
X007000Y022951D02*
X000500Y022951D01*
X000500Y023049D02*
X007000Y023049D01*
X007000Y023148D02*
X000500Y023148D01*
X000500Y023246D02*
X007000Y023246D01*
X007000Y023345D02*
X000500Y023345D01*
X000500Y023443D02*
X007000Y023443D01*
X007000Y023542D02*
X000500Y023542D01*
X000500Y023640D02*
X007000Y023640D01*
X007000Y023739D02*
X000500Y023739D01*
X000500Y023837D02*
X007000Y023837D01*
X007000Y023936D02*
X000500Y023936D01*
X000500Y024034D02*
X007000Y024034D01*
X007000Y024133D02*
X000500Y024133D01*
X000500Y024231D02*
X007000Y024231D01*
X007000Y024330D02*
X000500Y024330D01*
X000500Y024428D02*
X007000Y024428D01*
X007000Y024527D02*
X000500Y024527D01*
X000500Y024625D02*
X007000Y024625D01*
X007000Y024724D02*
X000500Y024724D01*
X000500Y024822D02*
X007000Y024822D01*
X007000Y024921D02*
X000500Y024921D01*
X000500Y025019D02*
X007000Y025019D01*
X007000Y025118D02*
X000500Y025118D01*
X000500Y025216D02*
X007000Y025216D01*
X007000Y025315D02*
X000500Y025315D01*
X000500Y025413D02*
X007000Y025413D01*
X007000Y025512D02*
X000500Y025512D01*
X000500Y025610D02*
X007000Y025610D01*
X007000Y025709D02*
X000500Y025709D01*
X000500Y025807D02*
X007000Y025807D01*
X007000Y025906D02*
X000500Y025906D01*
X000500Y026004D02*
X007000Y026004D01*
X007000Y026103D02*
X000500Y026103D01*
X000500Y026201D02*
X007000Y026201D01*
X007000Y026300D02*
X000500Y026300D01*
X000500Y026398D02*
X007000Y026398D01*
X007000Y026497D02*
X000500Y026497D01*
X000500Y026595D02*
X007000Y026595D01*
X007000Y026694D02*
X000500Y026694D01*
X000500Y026792D02*
X007000Y026792D01*
X007000Y026891D02*
X000500Y026891D01*
X000500Y026989D02*
X007000Y026989D01*
X007000Y027088D02*
X000500Y027088D01*
X000500Y027186D02*
X007000Y027186D01*
X007000Y027285D02*
X000500Y027285D01*
X000500Y027383D02*
X007000Y027383D01*
X007000Y027482D02*
X000500Y027482D01*
X000500Y027580D02*
X007000Y027580D01*
X007000Y027679D02*
X000500Y027679D01*
X000500Y027777D02*
X007000Y027777D01*
X007000Y027876D02*
X000500Y027876D01*
X000500Y027974D02*
X007000Y027974D01*
X007000Y028073D02*
X000500Y028073D01*
X000500Y028171D02*
X007000Y028171D01*
X007000Y028270D02*
X000500Y028270D01*
X000500Y028368D02*
X007000Y028368D01*
X007000Y028467D02*
X000500Y028467D01*
X000500Y028565D02*
X007000Y028565D01*
X007000Y028664D02*
X000500Y028664D01*
X000500Y028762D02*
X007000Y028762D01*
X007000Y028861D02*
X000500Y028861D01*
X000500Y028959D02*
X007000Y028959D01*
X007000Y029058D02*
X000500Y029058D01*
X000500Y029156D02*
X007000Y029156D01*
X007000Y029255D02*
X000500Y029255D01*
X000500Y029353D02*
X007000Y029353D01*
X007000Y029452D02*
X000500Y029452D01*
X000500Y029550D02*
X007000Y029550D01*
X007000Y029649D02*
X000500Y029649D01*
X000500Y029747D02*
X007000Y029747D01*
X007000Y029846D02*
X000500Y029846D01*
X000500Y029944D02*
X007000Y029944D01*
X007000Y030043D02*
X000500Y030043D01*
X000500Y030141D02*
X007000Y030141D01*
X007000Y030240D02*
X000500Y030240D01*
X000500Y030338D02*
X007000Y030338D01*
X007000Y030437D02*
X000500Y030437D01*
X000500Y030535D02*
X007000Y030535D01*
X007000Y030634D02*
X000500Y030634D01*
X000500Y030732D02*
X007000Y030732D01*
X007000Y030831D02*
X000500Y030831D01*
X000500Y030929D02*
X007000Y030929D01*
X007000Y031028D02*
X000500Y031028D01*
X000500Y031126D02*
X007000Y031126D01*
X007000Y031225D02*
X000500Y031225D01*
X000500Y031323D02*
X007000Y031323D01*
X007000Y031422D02*
X000500Y031422D01*
X000500Y031520D02*
X027750Y031520D01*
X027750Y031619D02*
X000500Y031619D01*
X000500Y031717D02*
X027750Y031717D01*
X027750Y031816D02*
X000500Y031816D01*
X000500Y031914D02*
X027750Y031914D01*
X027750Y032013D02*
X000500Y032013D01*
X000500Y032111D02*
X027750Y032111D01*
X027750Y032210D02*
X000500Y032210D01*
X000500Y032308D02*
X027750Y032308D01*
X027750Y032407D02*
X000500Y032407D01*
X000500Y032505D02*
X027750Y032505D01*
X027750Y032604D02*
X000500Y032604D01*
X000500Y032702D02*
X027750Y032702D01*
X027750Y032801D02*
X000500Y032801D01*
X000500Y032899D02*
X027750Y032899D01*
X027750Y032998D02*
X000500Y032998D01*
X000500Y033096D02*
X029888Y033096D01*
X029869Y033195D02*
X000500Y033195D01*
X000500Y033293D02*
X029800Y033293D01*
X029762Y033392D02*
X000500Y033392D01*
X000500Y033490D02*
X030450Y033490D01*
X030450Y033589D02*
X030550Y033589D01*
X030550Y033550D02*
X030550Y033950D01*
X030835Y033950D01*
X030905Y033939D01*
X030973Y033917D01*
X031036Y033885D01*
X031093Y033843D01*
X031143Y033793D01*
X031185Y033736D01*
X031217Y033673D01*
X031239Y033605D01*
X031248Y033550D01*
X030550Y033550D01*
X030550Y033490D02*
X032245Y033490D01*
X032245Y033392D02*
X031238Y033392D01*
X031200Y033293D02*
X032245Y033293D01*
X032245Y033195D02*
X031131Y033195D01*
X031112Y033096D02*
X032245Y033096D01*
X032245Y033589D02*
X031242Y033589D01*
X031210Y033687D02*
X032266Y033687D01*
X032307Y033786D02*
X031149Y033786D01*
X031037Y033884D02*
X032350Y033884D01*
X032251Y033983D02*
X000500Y033983D01*
X000500Y034081D02*
X032245Y034081D01*
X032245Y034180D02*
X000500Y034180D01*
X000500Y034278D02*
X032245Y034278D01*
X032245Y034377D02*
X000500Y034377D01*
X000500Y033884D02*
X029963Y033884D01*
X029851Y033786D02*
X000500Y033786D01*
X000500Y033687D02*
X029790Y033687D01*
X029758Y033589D02*
X000500Y033589D01*
X000500Y035165D02*
X043829Y035165D01*
X043964Y035263D02*
X000500Y035263D01*
X000500Y035362D02*
X044202Y035362D01*
X044588Y035362D02*
X047662Y035362D01*
X047682Y035370D02*
X047362Y035238D01*
X047117Y034993D01*
X046985Y034673D01*
X046985Y034327D01*
X047117Y034007D01*
X047362Y033762D01*
X047682Y033630D01*
X048028Y033630D01*
X048348Y033762D01*
X048593Y034007D01*
X048725Y034327D01*
X048725Y034673D01*
X048593Y034993D01*
X048348Y035238D01*
X048028Y035370D01*
X047682Y035370D01*
X047424Y035263D02*
X044826Y035263D01*
X044961Y035165D02*
X047289Y035165D01*
X047191Y035066D02*
X046445Y035066D01*
X046413Y035084D02*
X046334Y035117D01*
X046252Y035139D01*
X046168Y035150D01*
X046164Y035150D01*
X046164Y034539D01*
X046775Y034539D01*
X046775Y034543D01*
X046764Y034627D01*
X046742Y034709D01*
X046709Y034788D01*
X046667Y034862D01*
X046615Y034929D01*
X046554Y034990D01*
X046487Y035042D01*
X046413Y035084D01*
X046577Y034968D02*
X047107Y034968D01*
X047066Y034869D02*
X046661Y034869D01*
X046716Y034771D02*
X047025Y034771D01*
X046985Y034672D02*
X046752Y034672D01*
X046771Y034574D02*
X046985Y034574D01*
X046985Y034475D02*
X046164Y034475D01*
X046164Y034461D02*
X046164Y034539D01*
X046086Y034539D01*
X046086Y035150D01*
X046082Y035150D01*
X045998Y035139D01*
X045916Y035117D01*
X045837Y035084D01*
X045763Y035042D01*
X045696Y034990D01*
X045635Y034929D01*
X045583Y034862D01*
X045541Y034788D01*
X045508Y034709D01*
X045486Y034627D01*
X045475Y034543D01*
X045475Y034539D01*
X046086Y034539D01*
X046086Y034461D01*
X046164Y034461D01*
X046775Y034461D01*
X046775Y034457D01*
X046764Y034373D01*
X046742Y034291D01*
X046709Y034212D01*
X046667Y034138D01*
X046615Y034071D01*
X046554Y034010D01*
X046487Y033958D01*
X046413Y033916D01*
X046334Y033883D01*
X046252Y033861D01*
X046168Y033850D01*
X046164Y033850D01*
X046164Y034461D01*
X046086Y034461D02*
X046086Y033850D01*
X046082Y033850D01*
X045998Y033861D01*
X045916Y033883D01*
X045837Y033916D01*
X045763Y033958D01*
X045696Y034010D01*
X045635Y034071D01*
X045583Y034138D01*
X045541Y034212D01*
X045508Y034291D01*
X045486Y034373D01*
X045475Y034457D01*
X045475Y034461D01*
X046086Y034461D01*
X046086Y034475D02*
X045265Y034475D01*
X045265Y034377D02*
X045486Y034377D01*
X045513Y034278D02*
X045245Y034278D01*
X045204Y034180D02*
X045559Y034180D01*
X045627Y034081D02*
X045163Y034081D01*
X045108Y033983D02*
X045732Y033983D01*
X045913Y033884D02*
X045009Y033884D01*
X044911Y033786D02*
X047339Y033786D01*
X047241Y033884D02*
X046337Y033884D01*
X046164Y033884D02*
X046086Y033884D01*
X046086Y033983D02*
X046164Y033983D01*
X046164Y034081D02*
X046086Y034081D01*
X046086Y034180D02*
X046164Y034180D01*
X046164Y034278D02*
X046086Y034278D01*
X046086Y034377D02*
X046164Y034377D01*
X046164Y034574D02*
X046086Y034574D01*
X046086Y034672D02*
X046164Y034672D01*
X046164Y034771D02*
X046086Y034771D01*
X046086Y034869D02*
X046164Y034869D01*
X046164Y034968D02*
X046086Y034968D01*
X046086Y035066D02*
X046164Y035066D01*
X045805Y035066D02*
X045059Y035066D01*
X045143Y034968D02*
X045673Y034968D01*
X045589Y034869D02*
X045184Y034869D01*
X045225Y034771D02*
X045534Y034771D01*
X045498Y034672D02*
X045265Y034672D01*
X045265Y034574D02*
X045479Y034574D01*
X044706Y033687D02*
X047544Y033687D01*
X047636Y033630D02*
X047114Y033630D01*
X046745Y033261D01*
X046745Y032739D01*
X047114Y032370D01*
X047636Y032370D01*
X047875Y032609D01*
X048114Y032370D01*
X048636Y032370D01*
X048875Y032609D01*
X049114Y032370D01*
X049636Y032370D01*
X050005Y032739D01*
X050005Y033261D01*
X049636Y033630D01*
X049114Y033630D01*
X048875Y033391D01*
X048636Y033630D01*
X048114Y033630D01*
X047875Y033391D01*
X047636Y033630D01*
X047677Y033589D02*
X048073Y033589D01*
X048166Y033687D02*
X053500Y033687D01*
X053500Y033589D02*
X049677Y033589D01*
X049776Y033490D02*
X053500Y033490D01*
X053500Y033392D02*
X049874Y033392D01*
X049973Y033293D02*
X053500Y033293D01*
X053500Y033195D02*
X050005Y033195D01*
X050005Y033096D02*
X053500Y033096D01*
X053500Y032998D02*
X050005Y032998D01*
X050005Y032899D02*
X053500Y032899D01*
X053500Y032801D02*
X050005Y032801D01*
X049968Y032702D02*
X053500Y032702D01*
X053500Y032604D02*
X049870Y032604D01*
X049771Y032505D02*
X053500Y032505D01*
X053500Y032407D02*
X049673Y032407D01*
X049077Y032407D02*
X048673Y032407D01*
X048771Y032505D02*
X048979Y032505D01*
X048880Y032604D02*
X048870Y032604D01*
X048874Y033392D02*
X048876Y033392D01*
X048974Y033490D02*
X048776Y033490D01*
X048677Y033589D02*
X049073Y033589D01*
X048568Y033983D02*
X053500Y033983D01*
X053500Y034081D02*
X048623Y034081D01*
X048664Y034180D02*
X053500Y034180D01*
X053500Y034278D02*
X048705Y034278D01*
X048725Y034377D02*
X053500Y034377D01*
X053500Y034475D02*
X048725Y034475D01*
X048725Y034574D02*
X053500Y034574D01*
X053500Y034672D02*
X048725Y034672D01*
X048685Y034771D02*
X053500Y034771D01*
X053500Y034869D02*
X048644Y034869D01*
X048603Y034968D02*
X053500Y034968D01*
X053500Y035066D02*
X048519Y035066D01*
X048421Y035165D02*
X053500Y035165D01*
X053500Y035263D02*
X048286Y035263D01*
X048048Y035362D02*
X053500Y035362D01*
X053500Y035460D02*
X000500Y035460D01*
X000500Y035559D02*
X053500Y035559D01*
X053500Y035657D02*
X000500Y035657D01*
X000500Y035756D02*
X053500Y035756D01*
X053500Y035854D02*
X000500Y035854D01*
X000500Y035953D02*
X053500Y035953D01*
X053500Y033884D02*
X048469Y033884D01*
X048371Y033786D02*
X053500Y033786D01*
X053500Y031914D02*
X040069Y031914D01*
X040167Y031816D02*
X053500Y031816D01*
X053500Y031717D02*
X040266Y031717D01*
X040290Y031619D02*
X053500Y031619D01*
X053500Y029747D02*
X041053Y029747D01*
X041157Y029649D02*
X053500Y029649D01*
X053500Y026004D02*
X052326Y026004D01*
X052410Y025906D02*
X053500Y025906D01*
X053500Y025807D02*
X052410Y025807D01*
X052410Y025709D02*
X053500Y025709D01*
X053500Y025610D02*
X052410Y025610D01*
X052341Y025512D02*
X053500Y025512D01*
X048017Y028467D02*
X045733Y028467D01*
X045636Y028370D02*
X045114Y028370D01*
X044745Y028739D01*
X044745Y029261D01*
X045114Y029630D01*
X045636Y029630D01*
X046005Y029261D01*
X046005Y028739D01*
X045636Y028370D01*
X045831Y028565D02*
X047919Y028565D01*
X047820Y028664D02*
X047618Y028664D01*
X047717Y028762D02*
X047745Y028762D01*
X047405Y028762D02*
X047345Y028762D01*
X047345Y028664D02*
X047405Y028664D01*
X047405Y028861D02*
X047345Y028861D01*
X047345Y028959D02*
X047405Y028959D01*
X047405Y029058D02*
X047345Y029058D01*
X047345Y029156D02*
X047405Y029156D01*
X047405Y029255D02*
X047345Y029255D01*
X047345Y029353D02*
X047405Y029353D01*
X047602Y029353D02*
X047837Y029353D01*
X047745Y029255D02*
X047700Y029255D01*
X047936Y029452D02*
X045814Y029452D01*
X045716Y029550D02*
X048034Y029550D01*
X047148Y029353D02*
X045913Y029353D01*
X046005Y029255D02*
X047050Y029255D01*
X046965Y029156D02*
X046005Y029156D01*
X046005Y029058D02*
X046965Y029058D01*
X046965Y028959D02*
X046005Y028959D01*
X046005Y028861D02*
X046965Y028861D01*
X047033Y028762D02*
X046005Y028762D01*
X045930Y028664D02*
X047132Y028664D01*
X045017Y028467D02*
X044233Y028467D01*
X044331Y028565D02*
X044919Y028565D01*
X044820Y028664D02*
X044430Y028664D01*
X044505Y028762D02*
X044745Y028762D01*
X044745Y028861D02*
X044505Y028861D01*
X044505Y028959D02*
X044745Y028959D01*
X044745Y029058D02*
X044505Y029058D01*
X044505Y029156D02*
X044745Y029156D01*
X044745Y029255D02*
X044505Y029255D01*
X044413Y029353D02*
X044837Y029353D01*
X044936Y029452D02*
X044314Y029452D01*
X044216Y029550D02*
X045034Y029550D01*
X043534Y029550D02*
X041216Y029550D01*
X041243Y029452D02*
X043436Y029452D01*
X043465Y031126D02*
X040109Y031126D01*
X040207Y031225D02*
X043520Y031225D01*
X045673Y032407D02*
X047077Y032407D01*
X046979Y032505D02*
X045771Y032505D01*
X045870Y032604D02*
X046880Y032604D01*
X046782Y032702D02*
X045968Y032702D01*
X046005Y032801D02*
X046745Y032801D01*
X046745Y032899D02*
X046005Y032899D01*
X046005Y032998D02*
X046745Y032998D01*
X046745Y033096D02*
X046005Y033096D01*
X046005Y033195D02*
X046745Y033195D01*
X046777Y033293D02*
X045973Y033293D01*
X045874Y033392D02*
X046876Y033392D01*
X046974Y033490D02*
X045776Y033490D01*
X045677Y033589D02*
X047073Y033589D01*
X047142Y033983D02*
X046518Y033983D01*
X046623Y034081D02*
X047087Y034081D01*
X047046Y034180D02*
X046691Y034180D01*
X046737Y034278D02*
X047005Y034278D01*
X046985Y034377D02*
X046764Y034377D01*
X047776Y033490D02*
X047974Y033490D01*
X047876Y033392D02*
X047874Y033392D01*
X047870Y032604D02*
X047880Y032604D01*
X047979Y032505D02*
X047771Y032505D01*
X047673Y032407D02*
X048077Y032407D01*
X045073Y033589D02*
X040785Y033589D01*
X040785Y033687D02*
X044084Y033687D01*
X043879Y033786D02*
X040785Y033786D01*
X040785Y033884D02*
X043781Y033884D01*
X043682Y033983D02*
X040722Y033983D01*
X040624Y034081D02*
X043627Y034081D01*
X044876Y033392D02*
X040596Y033392D01*
X040695Y033490D02*
X044974Y033490D01*
X044300Y036417D02*
X044566Y036527D01*
X044769Y036730D01*
X044879Y036996D01*
X044879Y037988D01*
X044769Y038254D01*
X044566Y038457D01*
X044300Y038567D01*
X044013Y038567D01*
X043747Y038457D01*
X043544Y038254D01*
X043434Y037988D01*
X043434Y036996D01*
X043544Y036730D01*
X043747Y036527D01*
X044013Y036417D01*
X044300Y036417D01*
X044368Y036445D02*
X045914Y036445D01*
X045981Y036417D02*
X045716Y036527D01*
X045512Y036730D01*
X045403Y036996D01*
X045403Y037988D01*
X045512Y038254D01*
X045716Y038457D01*
X045981Y038567D01*
X046269Y038567D01*
X046534Y038457D01*
X046738Y038254D01*
X046847Y037988D01*
X046847Y036996D01*
X046738Y036730D01*
X046534Y036527D01*
X046269Y036417D01*
X045981Y036417D01*
X045699Y036544D02*
X044582Y036544D01*
X044681Y036642D02*
X045601Y036642D01*
X045508Y036741D02*
X044773Y036741D01*
X044814Y036839D02*
X045467Y036839D01*
X045427Y036938D02*
X044855Y036938D01*
X044879Y037036D02*
X045403Y037036D01*
X045403Y037135D02*
X044879Y037135D01*
X044879Y037233D02*
X045403Y037233D01*
X045403Y037332D02*
X044879Y037332D01*
X044879Y037430D02*
X045403Y037430D01*
X045403Y037529D02*
X044879Y037529D01*
X044879Y037627D02*
X045403Y037627D01*
X045403Y037726D02*
X044879Y037726D01*
X044879Y037824D02*
X045403Y037824D01*
X045403Y037923D02*
X044879Y037923D01*
X044865Y038021D02*
X045416Y038021D01*
X045457Y038120D02*
X044825Y038120D01*
X044784Y038218D02*
X045498Y038218D01*
X045575Y038317D02*
X044706Y038317D01*
X044608Y038415D02*
X045674Y038415D01*
X045852Y038514D02*
X044429Y038514D01*
X043884Y038514D02*
X038991Y038514D01*
X038862Y038567D02*
X039128Y038457D01*
X039331Y038254D01*
X039441Y037988D01*
X039441Y036996D01*
X039331Y036730D01*
X039128Y036527D01*
X038862Y036417D01*
X038575Y036417D01*
X038309Y036527D01*
X038106Y036730D01*
X037996Y036996D01*
X037996Y037988D01*
X038106Y038254D01*
X038309Y038457D01*
X038575Y038567D01*
X038862Y038567D01*
X039170Y038415D02*
X043705Y038415D01*
X043607Y038317D02*
X039268Y038317D01*
X039346Y038218D02*
X043529Y038218D01*
X043488Y038120D02*
X039387Y038120D01*
X039427Y038021D02*
X043448Y038021D01*
X043434Y037923D02*
X039441Y037923D01*
X039441Y037824D02*
X043434Y037824D01*
X043434Y037726D02*
X039441Y037726D01*
X039441Y037627D02*
X043434Y037627D01*
X043434Y037529D02*
X039441Y037529D01*
X039441Y037430D02*
X043434Y037430D01*
X043434Y037332D02*
X039441Y037332D01*
X039441Y037233D02*
X043434Y037233D01*
X043434Y037135D02*
X039441Y037135D01*
X039441Y037036D02*
X043434Y037036D01*
X043458Y036938D02*
X039417Y036938D01*
X039376Y036839D02*
X043499Y036839D01*
X043540Y036741D02*
X039335Y036741D01*
X039243Y036642D02*
X043632Y036642D01*
X043731Y036544D02*
X039144Y036544D01*
X038930Y036445D02*
X043945Y036445D01*
X046336Y036445D02*
X047882Y036445D01*
X047950Y036417D02*
X048237Y036417D01*
X048503Y036527D01*
X048706Y036730D01*
X048816Y036996D01*
X048816Y037988D01*
X048706Y038254D01*
X048503Y038457D01*
X048237Y038567D01*
X047950Y038567D01*
X047684Y038457D01*
X047481Y038254D01*
X047371Y037988D01*
X047371Y036996D01*
X047481Y036730D01*
X047684Y036527D01*
X047950Y036417D01*
X047668Y036544D02*
X046551Y036544D01*
X046649Y036642D02*
X047569Y036642D01*
X047477Y036741D02*
X046742Y036741D01*
X046783Y036839D02*
X047436Y036839D01*
X047395Y036938D02*
X046823Y036938D01*
X046847Y037036D02*
X047371Y037036D01*
X047371Y037135D02*
X046847Y037135D01*
X046847Y037233D02*
X047371Y037233D01*
X047371Y037332D02*
X046847Y037332D01*
X046847Y037430D02*
X047371Y037430D01*
X047371Y037529D02*
X046847Y037529D01*
X046847Y037627D02*
X047371Y037627D01*
X047371Y037726D02*
X046847Y037726D01*
X046847Y037824D02*
X047371Y037824D01*
X047371Y037923D02*
X046847Y037923D01*
X046834Y038021D02*
X047385Y038021D01*
X047425Y038120D02*
X046793Y038120D01*
X046752Y038218D02*
X047466Y038218D01*
X047544Y038317D02*
X046675Y038317D01*
X046576Y038415D02*
X047642Y038415D01*
X047821Y038514D02*
X046398Y038514D01*
X048366Y038514D02*
X050000Y038514D01*
X050000Y038612D02*
X033404Y038612D01*
X033502Y038514D02*
X034509Y038514D01*
X034638Y038567D02*
X034372Y038457D01*
X034169Y038254D01*
X034059Y037988D01*
X034059Y036996D01*
X034169Y036730D01*
X034372Y036527D01*
X034638Y036417D01*
X034925Y036417D01*
X035191Y036527D01*
X035394Y036730D01*
X035504Y036996D01*
X035504Y037988D01*
X035394Y038254D01*
X035191Y038457D01*
X034925Y038567D01*
X034638Y038567D01*
X034330Y038415D02*
X033505Y038415D01*
X033505Y038511D02*
X033136Y038880D01*
X032614Y038880D01*
X032245Y038511D01*
X032245Y037989D01*
X032614Y037620D01*
X033136Y037620D01*
X033505Y037989D01*
X033505Y038511D01*
X033505Y038317D02*
X034232Y038317D01*
X034154Y038218D02*
X033505Y038218D01*
X033505Y038120D02*
X034113Y038120D01*
X034073Y038021D02*
X033505Y038021D01*
X033439Y037923D02*
X034059Y037923D01*
X034059Y037824D02*
X033340Y037824D01*
X033242Y037726D02*
X034059Y037726D01*
X034059Y037627D02*
X033143Y037627D01*
X032607Y037627D02*
X030835Y037627D01*
X030818Y037610D02*
X031090Y037882D01*
X031090Y038045D01*
X030655Y038045D01*
X030655Y038105D01*
X030595Y038105D01*
X030595Y038540D01*
X030432Y038540D01*
X030160Y038268D01*
X030160Y038105D01*
X030595Y038105D01*
X030595Y038045D01*
X030160Y038045D01*
X030160Y037882D01*
X030432Y037610D01*
X030595Y037610D01*
X030595Y038045D01*
X030655Y038045D01*
X030655Y037610D01*
X030818Y037610D01*
X030933Y037726D02*
X032508Y037726D01*
X032410Y037824D02*
X031032Y037824D01*
X031090Y037923D02*
X032311Y037923D01*
X032245Y038021D02*
X031090Y038021D01*
X031090Y038105D02*
X030655Y038105D01*
X030655Y038540D01*
X030818Y038540D01*
X031090Y038268D01*
X031090Y038105D01*
X031090Y038120D02*
X032245Y038120D01*
X032245Y038218D02*
X031090Y038218D01*
X031041Y038317D02*
X032245Y038317D01*
X032245Y038415D02*
X030943Y038415D01*
X030844Y038514D02*
X032248Y038514D01*
X032346Y038612D02*
X027932Y038612D01*
X027932Y038514D02*
X030406Y038514D01*
X030307Y038415D02*
X027921Y038415D01*
X027880Y038317D02*
X030209Y038317D01*
X030160Y038218D02*
X027839Y038218D01*
X027798Y038120D02*
X030160Y038120D01*
X030160Y038021D02*
X027726Y038021D01*
X027628Y037923D02*
X030160Y037923D01*
X030218Y037824D02*
X027529Y037824D01*
X027336Y037726D02*
X030317Y037726D01*
X030415Y037627D02*
X004000Y037627D01*
X004000Y037529D02*
X034059Y037529D01*
X034059Y037430D02*
X004000Y037430D01*
X004000Y037332D02*
X030420Y037332D01*
X030489Y037360D02*
X030237Y037256D01*
X030044Y037063D01*
X029940Y036811D01*
X029940Y036539D01*
X030044Y036287D01*
X030237Y036094D01*
X030489Y035990D01*
X030761Y035990D01*
X031013Y036094D01*
X031206Y036287D01*
X031310Y036539D01*
X031310Y036811D01*
X031206Y037063D01*
X031013Y037256D01*
X030761Y037360D01*
X030489Y037360D01*
X030595Y037627D02*
X030655Y037627D01*
X030655Y037726D02*
X030595Y037726D01*
X030595Y037824D02*
X030655Y037824D01*
X030655Y037923D02*
X030595Y037923D01*
X030595Y038021D02*
X030655Y038021D01*
X030655Y038120D02*
X030595Y038120D01*
X030595Y038218D02*
X030655Y038218D01*
X030655Y038317D02*
X030595Y038317D01*
X030595Y038415D02*
X030655Y038415D01*
X030655Y038514D02*
X030595Y038514D01*
X030830Y037332D02*
X034059Y037332D01*
X034059Y037233D02*
X031036Y037233D01*
X031134Y037135D02*
X034059Y037135D01*
X034059Y037036D02*
X031217Y037036D01*
X031258Y036938D02*
X034083Y036938D01*
X034124Y036839D02*
X031298Y036839D01*
X031310Y036741D02*
X034165Y036741D01*
X034257Y036642D02*
X031310Y036642D01*
X031310Y036544D02*
X034356Y036544D01*
X034570Y036445D02*
X031271Y036445D01*
X031230Y036347D02*
X050000Y036347D01*
X050000Y036445D02*
X048305Y036445D01*
X048519Y036544D02*
X050000Y036544D01*
X050000Y036642D02*
X048618Y036642D01*
X048710Y036741D02*
X050000Y036741D01*
X050000Y036839D02*
X048751Y036839D01*
X048792Y036938D02*
X050000Y036938D01*
X050000Y037036D02*
X048816Y037036D01*
X048816Y037135D02*
X050000Y037135D01*
X050000Y037233D02*
X048816Y037233D01*
X048816Y037332D02*
X050000Y037332D01*
X050000Y037430D02*
X048816Y037430D01*
X048816Y037529D02*
X050000Y037529D01*
X050000Y037627D02*
X048816Y037627D01*
X048816Y037726D02*
X050000Y037726D01*
X050000Y037824D02*
X048816Y037824D01*
X048816Y037923D02*
X050000Y037923D01*
X050000Y038021D02*
X048802Y038021D01*
X048762Y038120D02*
X050000Y038120D01*
X050000Y038218D02*
X048721Y038218D01*
X048643Y038317D02*
X050000Y038317D01*
X050000Y038415D02*
X048545Y038415D01*
X050000Y038711D02*
X033305Y038711D01*
X033207Y038809D02*
X050000Y038809D01*
X050000Y038908D02*
X027904Y038908D01*
X027932Y038809D02*
X032543Y038809D01*
X032445Y038711D02*
X027932Y038711D01*
X027863Y039006D02*
X050000Y039006D01*
X050000Y039105D02*
X027823Y039105D01*
X027782Y039203D02*
X050000Y039203D01*
X050000Y039302D02*
X027687Y039302D01*
X027588Y039400D02*
X050000Y039400D01*
X050000Y039499D02*
X027478Y039499D01*
X026384Y039499D02*
X005824Y039499D01*
X005935Y039400D02*
X026273Y039400D01*
X026175Y039302D02*
X006033Y039302D01*
X006128Y039203D02*
X026080Y039203D01*
X026039Y039105D02*
X006169Y039105D01*
X006210Y039006D02*
X025998Y039006D01*
X025957Y038908D02*
X006251Y038908D01*
X006278Y038809D02*
X025930Y038809D01*
X025930Y038711D02*
X006278Y038711D01*
X006278Y038612D02*
X025930Y038612D01*
X025930Y038514D02*
X006278Y038514D01*
X006267Y038415D02*
X025941Y038415D01*
X025982Y038317D02*
X006226Y038317D01*
X006185Y038218D02*
X026022Y038218D01*
X026063Y038120D02*
X006145Y038120D01*
X006073Y038021D02*
X026135Y038021D01*
X026234Y037923D02*
X005974Y037923D01*
X005876Y037824D02*
X026332Y037824D01*
X026526Y037726D02*
X005682Y037726D01*
X004872Y037726D02*
X004000Y037726D01*
X004000Y037824D02*
X004679Y037824D01*
X004580Y037923D02*
X004000Y037923D01*
X004000Y038021D02*
X004482Y038021D01*
X004410Y038120D02*
X004000Y038120D01*
X004000Y038218D02*
X004369Y038218D01*
X004328Y038317D02*
X004000Y038317D01*
X004000Y038415D02*
X004287Y038415D01*
X004276Y038514D02*
X004000Y038514D01*
X004000Y038612D02*
X004276Y038612D01*
X004276Y038711D02*
X004000Y038711D01*
X004000Y038809D02*
X004276Y038809D01*
X004304Y038908D02*
X004000Y038908D01*
X004000Y039006D02*
X004344Y039006D01*
X004385Y039105D02*
X004000Y039105D01*
X004000Y039203D02*
X004426Y039203D01*
X004521Y039302D02*
X004000Y039302D01*
X004000Y039400D02*
X004620Y039400D01*
X004730Y039499D02*
X004000Y039499D01*
X004000Y037233D02*
X030214Y037233D01*
X030116Y037135D02*
X004000Y037135D01*
X004000Y037036D02*
X030033Y037036D01*
X029992Y036938D02*
X004000Y036938D01*
X004000Y036839D02*
X029952Y036839D01*
X029940Y036741D02*
X004000Y036741D01*
X004000Y036642D02*
X029940Y036642D01*
X029940Y036544D02*
X004000Y036544D01*
X004000Y036445D02*
X029979Y036445D01*
X030020Y036347D02*
X004000Y036347D01*
X004000Y036248D02*
X030083Y036248D01*
X030182Y036150D02*
X004000Y036150D01*
X004000Y036051D02*
X030341Y036051D01*
X030909Y036051D02*
X050000Y036051D01*
X050000Y036150D02*
X031068Y036150D01*
X031167Y036248D02*
X050000Y036248D01*
X040550Y029747D02*
X040450Y029747D01*
X040450Y029649D02*
X040550Y029649D01*
X040550Y029550D02*
X040450Y029550D01*
X039766Y029255D02*
X039750Y029255D01*
X039750Y029156D02*
X039807Y029156D01*
X039750Y029058D02*
X039881Y029058D01*
X039859Y028959D02*
X039750Y028959D01*
X039125Y030634D02*
X031230Y030634D01*
X031187Y030732D02*
X039125Y030732D01*
X039125Y030831D02*
X031750Y030831D01*
X031750Y030929D02*
X039125Y030929D01*
X039125Y031028D02*
X031750Y031028D01*
X031750Y031126D02*
X038149Y031126D01*
X038122Y031145D02*
X038181Y031102D01*
X038247Y031069D01*
X038316Y031046D01*
X038388Y031035D01*
X038395Y031035D01*
X038395Y031470D01*
X038455Y031470D01*
X038455Y031530D01*
X038890Y031530D01*
X038890Y031537D01*
X038879Y031609D01*
X038856Y031678D01*
X038823Y031744D01*
X038780Y031803D01*
X038728Y031855D01*
X038669Y031898D01*
X038603Y031931D01*
X038534Y031954D01*
X038462Y031965D01*
X038455Y031965D01*
X038455Y031530D01*
X038395Y031530D01*
X038395Y031965D01*
X038388Y031965D01*
X038316Y031954D01*
X038247Y031931D01*
X038181Y031898D01*
X038122Y031855D01*
X038070Y031803D01*
X038027Y031744D01*
X037994Y031678D01*
X037971Y031609D01*
X037960Y031537D01*
X037960Y031530D01*
X038395Y031530D01*
X038395Y031470D01*
X037960Y031470D01*
X037960Y031463D01*
X037971Y031391D01*
X037994Y031322D01*
X038027Y031256D01*
X038070Y031197D01*
X038122Y031145D01*
X038050Y031225D02*
X031750Y031225D01*
X031750Y031323D02*
X037994Y031323D01*
X037967Y031422D02*
X031750Y031422D01*
X031750Y031520D02*
X038395Y031520D01*
X038455Y031520D02*
X039125Y031520D01*
X039125Y031422D02*
X038883Y031422D01*
X038879Y031391D02*
X038890Y031463D01*
X038890Y031470D01*
X038455Y031470D01*
X038455Y031035D01*
X038462Y031035D01*
X038534Y031046D01*
X038603Y031069D01*
X038669Y031102D01*
X038728Y031145D01*
X038780Y031197D01*
X038823Y031256D01*
X038856Y031322D01*
X038879Y031391D01*
X038856Y031323D02*
X039125Y031323D01*
X039125Y031225D02*
X038800Y031225D01*
X038701Y031126D02*
X039125Y031126D01*
X039125Y031619D02*
X038875Y031619D01*
X038836Y031717D02*
X039125Y031717D01*
X039125Y031816D02*
X038767Y031816D01*
X038637Y031914D02*
X039125Y031914D01*
X039125Y032013D02*
X031750Y032013D01*
X031750Y032111D02*
X039125Y032111D01*
X039125Y032210D02*
X031750Y032210D01*
X031750Y031914D02*
X038213Y031914D01*
X038083Y031816D02*
X031750Y031816D01*
X031750Y031717D02*
X038014Y031717D01*
X037975Y031619D02*
X031750Y031619D01*
X030550Y030338D02*
X030450Y030338D01*
X030450Y030240D02*
X030550Y030240D01*
X030550Y030141D02*
X030450Y030141D01*
X029770Y030634D02*
X007875Y030634D01*
X007875Y030732D02*
X029813Y030732D01*
X030175Y029550D02*
X007875Y029550D01*
X007875Y029452D02*
X030077Y029452D01*
X029978Y029353D02*
X007875Y029353D01*
X007875Y029255D02*
X029880Y029255D01*
X029781Y029156D02*
X007875Y029156D01*
X007875Y029058D02*
X029683Y029058D01*
X029584Y028959D02*
X007875Y028959D01*
X007875Y028861D02*
X029486Y028861D01*
X029387Y028762D02*
X007875Y028762D01*
X007875Y028664D02*
X010750Y028664D01*
X010750Y028565D02*
X007875Y028565D01*
X007875Y028467D02*
X010750Y028467D01*
X010750Y028368D02*
X007875Y028368D01*
X007875Y028270D02*
X010750Y028270D01*
X010750Y028171D02*
X007875Y028171D01*
X007875Y028073D02*
X010750Y028073D01*
X010750Y027974D02*
X007875Y027974D01*
X007875Y027876D02*
X010750Y027876D01*
X010750Y027777D02*
X007875Y027777D01*
X007875Y027679D02*
X010750Y027679D01*
X010750Y027580D02*
X007875Y027580D01*
X007875Y027482D02*
X010750Y027482D01*
X010750Y027383D02*
X007875Y027383D01*
X007875Y027285D02*
X010750Y027285D01*
X010750Y027186D02*
X007875Y027186D01*
X007875Y027088D02*
X010750Y027088D01*
X010750Y026989D02*
X007875Y026989D01*
X007875Y026891D02*
X010750Y026891D01*
X010750Y026792D02*
X007875Y026792D01*
X007875Y026694D02*
X010750Y026694D01*
X010750Y026595D02*
X007875Y026595D01*
X007875Y026497D02*
X010750Y026497D01*
X010750Y026398D02*
X007875Y026398D01*
X007875Y026300D02*
X010750Y026300D01*
X010750Y026201D02*
X007875Y026201D01*
X007875Y026103D02*
X010750Y026103D01*
X010750Y026004D02*
X007875Y026004D01*
X007875Y025906D02*
X010750Y025906D01*
X010750Y025807D02*
X007875Y025807D01*
X007875Y025709D02*
X010750Y025709D01*
X010750Y025610D02*
X007875Y025610D01*
X007875Y025512D02*
X010750Y025512D01*
X010750Y025413D02*
X007875Y025413D01*
X007875Y025315D02*
X010750Y025315D01*
X010750Y025216D02*
X007875Y025216D01*
X007875Y025118D02*
X010750Y025118D01*
X010750Y025019D02*
X007875Y025019D01*
X007875Y024921D02*
X010750Y024921D01*
X010750Y024822D02*
X007875Y024822D01*
X007875Y024724D02*
X010750Y024724D01*
X010750Y024625D02*
X007875Y024625D01*
X007875Y024527D02*
X010750Y024527D01*
X010750Y024428D02*
X007875Y024428D01*
X007875Y024330D02*
X010750Y024330D01*
X010750Y024231D02*
X007875Y024231D01*
X007875Y024133D02*
X010750Y024133D01*
X010750Y024034D02*
X007875Y024034D01*
X007875Y023936D02*
X010750Y023936D01*
X010750Y023837D02*
X007875Y023837D01*
X007875Y023739D02*
X010750Y023739D01*
X010750Y023640D02*
X007875Y023640D01*
X007875Y023542D02*
X010750Y023542D01*
X010750Y023443D02*
X007875Y023443D01*
X007875Y023345D02*
X010750Y023345D01*
X010750Y023246D02*
X007875Y023246D01*
X007875Y023148D02*
X010750Y023148D01*
X010750Y023049D02*
X007875Y023049D01*
X007875Y022951D02*
X010750Y022951D01*
X010750Y022852D02*
X007875Y022852D01*
X007875Y022754D02*
X010750Y022754D01*
X010750Y022655D02*
X007875Y022655D01*
X007875Y022557D02*
X010750Y022557D01*
X010750Y022458D02*
X007875Y022458D01*
X007875Y022360D02*
X010750Y022360D01*
X010750Y022261D02*
X007875Y022261D01*
X007875Y022163D02*
X010750Y022163D01*
X010750Y022064D02*
X007875Y022064D01*
X007875Y021966D02*
X010750Y021966D01*
X010750Y021867D02*
X007875Y021867D01*
X007875Y021769D02*
X010750Y021769D01*
X010750Y021670D02*
X007875Y021670D01*
X007875Y021572D02*
X010750Y021572D01*
X010750Y021473D02*
X007875Y021473D01*
X007875Y021375D02*
X010750Y021375D01*
X010750Y021276D02*
X007875Y021276D01*
X007875Y021178D02*
X010750Y021178D01*
X010750Y021079D02*
X007875Y021079D01*
X007875Y020981D02*
X010750Y020981D01*
X010750Y020882D02*
X007875Y020882D01*
X007875Y020784D02*
X010750Y020784D01*
X010750Y020685D02*
X007875Y020685D01*
X007875Y020587D02*
X010750Y020587D01*
X010750Y020488D02*
X007875Y020488D01*
X007875Y020390D02*
X010750Y020390D01*
X010750Y020291D02*
X007875Y020291D01*
X007875Y020193D02*
X010750Y020193D01*
X010750Y020094D02*
X007875Y020094D01*
X007875Y019996D02*
X010750Y019996D01*
X010750Y019897D02*
X007875Y019897D01*
X007875Y019799D02*
X010750Y019799D01*
X010750Y019700D02*
X007875Y019700D01*
X007875Y019602D02*
X010750Y019602D01*
X010750Y019503D02*
X007875Y019503D01*
X007875Y019405D02*
X010750Y019405D01*
X010750Y019306D02*
X007875Y019306D01*
X007875Y019208D02*
X010750Y019208D01*
X010750Y019109D02*
X007875Y019109D01*
X007875Y019011D02*
X010750Y019011D01*
X010750Y018912D02*
X007875Y018912D01*
X007875Y018814D02*
X010750Y018814D01*
X010750Y018715D02*
X007875Y018715D01*
X007875Y018617D02*
X010750Y018617D01*
X010750Y018518D02*
X007875Y018518D01*
X007875Y018420D02*
X010750Y018420D01*
X010750Y018321D02*
X007875Y018321D01*
X007875Y018223D02*
X010750Y018223D01*
X010750Y018124D02*
X007875Y018124D01*
X007875Y018026D02*
X010750Y018026D01*
X010750Y017927D02*
X007875Y017927D01*
X007875Y017829D02*
X010750Y017829D01*
X010750Y017730D02*
X007875Y017730D01*
X007875Y017632D02*
X010750Y017632D01*
X010750Y017533D02*
X007875Y017533D01*
X007875Y017435D02*
X010750Y017435D01*
X010750Y017336D02*
X007875Y017336D01*
X007875Y017238D02*
X010750Y017238D01*
X010750Y017139D02*
X007875Y017139D01*
X007875Y017041D02*
X010750Y017041D01*
X010750Y016942D02*
X007875Y016942D01*
X007875Y016844D02*
X010750Y016844D01*
X010750Y016745D02*
X007875Y016745D01*
X007875Y016647D02*
X010750Y016647D01*
X010750Y016548D02*
X007875Y016548D01*
X007875Y016450D02*
X010750Y016450D01*
X010750Y016351D02*
X007875Y016351D01*
X007875Y016253D02*
X010750Y016253D01*
X010750Y016154D02*
X007875Y016154D01*
X007875Y016056D02*
X010750Y016056D01*
X010750Y015957D02*
X007875Y015957D01*
X007875Y015859D02*
X010750Y015859D01*
X010750Y015760D02*
X007875Y015760D01*
X007875Y015662D02*
X010750Y015662D01*
X010750Y015563D02*
X007875Y015563D01*
X007875Y015465D02*
X010750Y015465D01*
X010750Y015366D02*
X007875Y015366D01*
X007875Y015268D02*
X010750Y015268D01*
X010750Y015169D02*
X007875Y015169D01*
X007875Y015071D02*
X010750Y015071D01*
X010750Y014972D02*
X007875Y014972D01*
X007875Y014874D02*
X010750Y014874D01*
X010750Y014775D02*
X007875Y014775D01*
X007875Y014677D02*
X010750Y014677D01*
X010750Y014578D02*
X007875Y014578D01*
X007875Y014480D02*
X010750Y014480D01*
X010750Y014381D02*
X007875Y014381D01*
X007875Y014283D02*
X010750Y014283D01*
X010750Y014184D02*
X007875Y014184D01*
X007875Y014086D02*
X010750Y014086D01*
X010750Y013987D02*
X007875Y013987D01*
X007875Y013889D02*
X010750Y013889D01*
X010750Y013790D02*
X007875Y013790D01*
X007875Y013692D02*
X010750Y013692D01*
X010750Y013593D02*
X007875Y013593D01*
X007875Y013495D02*
X010750Y013495D01*
X010750Y013396D02*
X007875Y013396D01*
X007875Y013298D02*
X010750Y013298D01*
X010750Y013199D02*
X007875Y013199D01*
X007875Y013101D02*
X010750Y013101D01*
X010750Y013002D02*
X007875Y013002D01*
X007875Y012904D02*
X010750Y012904D01*
X010750Y012805D02*
X007875Y012805D01*
X007875Y012707D02*
X010750Y012707D01*
X010750Y012608D02*
X007875Y012608D01*
X007875Y012510D02*
X010750Y012510D01*
X010750Y012411D02*
X007875Y012411D01*
X007875Y012313D02*
X010750Y012313D01*
X010750Y012214D02*
X007875Y012214D01*
X007875Y012116D02*
X010750Y012116D01*
X010750Y012017D02*
X007875Y012017D01*
X007875Y011919D02*
X010750Y011919D01*
X010750Y011820D02*
X007875Y011820D01*
X007875Y011722D02*
X010750Y011722D01*
X010750Y011623D02*
X007875Y011623D01*
X007875Y011525D02*
X010750Y011525D01*
X010750Y011426D02*
X007875Y011426D01*
X007875Y011328D02*
X010750Y011328D01*
X010750Y011229D02*
X007875Y011229D01*
X007875Y011131D02*
X010750Y011131D01*
X010750Y011032D02*
X007875Y011032D01*
X007875Y010934D02*
X010750Y010934D01*
X010750Y010835D02*
X007875Y010835D01*
X007875Y010737D02*
X010750Y010737D01*
X010750Y010638D02*
X007875Y010638D01*
X007875Y010540D02*
X010750Y010540D01*
X010750Y010441D02*
X007875Y010441D01*
X007875Y010343D02*
X010750Y010343D01*
X010750Y010244D02*
X007875Y010244D01*
X007875Y010146D02*
X010750Y010146D01*
X010750Y010047D02*
X007875Y010047D01*
X007875Y009949D02*
X010750Y009949D01*
X010750Y009850D02*
X007875Y009850D01*
X007875Y009752D02*
X010750Y009752D01*
X010750Y009653D02*
X007875Y009653D01*
X007875Y009555D02*
X010750Y009555D01*
X010750Y009456D02*
X007875Y009456D01*
X007875Y009358D02*
X010750Y009358D01*
X010750Y009259D02*
X007875Y009259D01*
X007875Y009161D02*
X010750Y009161D01*
X010750Y009062D02*
X007875Y009062D01*
X007875Y008964D02*
X010750Y008964D01*
X010750Y008865D02*
X007875Y008865D01*
X007875Y008767D02*
X010750Y008767D01*
X010750Y008668D02*
X007875Y008668D01*
X007875Y008570D02*
X010750Y008570D01*
X010750Y008471D02*
X007875Y008471D01*
X007875Y008373D02*
X010750Y008373D01*
X010750Y008274D02*
X007875Y008274D01*
X007875Y008176D02*
X010750Y008176D01*
X010750Y008077D02*
X007875Y008077D01*
X007875Y007979D02*
X010750Y007979D01*
X010750Y007880D02*
X007875Y007880D01*
X007875Y007782D02*
X010750Y007782D01*
X010750Y007683D02*
X007875Y007683D01*
X007875Y007585D02*
X010750Y007585D01*
X010750Y007486D02*
X007875Y007486D01*
X007875Y007388D02*
X010750Y007388D01*
X010750Y007289D02*
X007875Y007289D01*
X007875Y007191D02*
X010750Y007191D01*
X010750Y007092D02*
X007875Y007092D01*
X007875Y006994D02*
X010750Y006994D01*
X010750Y006895D02*
X007875Y006895D01*
X007875Y006797D02*
X010750Y006797D01*
X011500Y010737D02*
X032031Y010737D01*
X031932Y010835D02*
X011500Y010835D01*
X011500Y010934D02*
X031834Y010934D01*
X031785Y011032D02*
X011500Y011032D01*
X011500Y011131D02*
X031785Y011131D01*
X031785Y011229D02*
X011500Y011229D01*
X011500Y011328D02*
X031785Y011328D01*
X031843Y011426D02*
X011500Y011426D01*
X011500Y011525D02*
X031942Y011525D01*
X032040Y011623D02*
X011500Y011623D01*
X011500Y011919D02*
X032045Y011919D01*
X031839Y012017D02*
X011500Y012017D01*
X011500Y012116D02*
X031741Y012116D01*
X031658Y012214D02*
X011500Y012214D01*
X011500Y012313D02*
X031617Y012313D01*
X031576Y012411D02*
X011500Y012411D01*
X011500Y012510D02*
X031565Y012510D01*
X031565Y012608D02*
X011500Y012608D01*
X011500Y012707D02*
X031565Y012707D01*
X031604Y012805D02*
X011500Y012805D01*
X011500Y014874D02*
X028361Y014874D01*
X028262Y014972D02*
X011500Y014972D01*
X011500Y015071D02*
X028164Y015071D01*
X028120Y015169D02*
X011500Y015169D01*
X011500Y015268D02*
X028120Y015268D01*
X028120Y015366D02*
X011500Y015366D01*
X011500Y015465D02*
X028120Y015465D01*
X028120Y015563D02*
X011500Y015563D01*
X011500Y015662D02*
X028146Y015662D01*
X028244Y015760D02*
X011500Y015760D01*
X011500Y015859D02*
X028343Y015859D01*
X028441Y015957D02*
X011500Y015957D01*
X011500Y016450D02*
X030035Y016450D01*
X030068Y016548D02*
X011500Y016548D01*
X011500Y016647D02*
X030129Y016647D01*
X030145Y016745D02*
X029655Y016745D01*
X029841Y016844D02*
X030024Y016844D01*
X028595Y016745D02*
X011500Y016745D01*
X011500Y016844D02*
X028409Y016844D01*
X028310Y016942D02*
X011500Y016942D01*
X011500Y017041D02*
X028238Y017041D01*
X028198Y017139D02*
X011500Y017139D01*
X011500Y017238D02*
X028157Y017238D01*
X028155Y017336D02*
X011500Y017336D01*
X011500Y017435D02*
X028155Y017435D01*
X028165Y017533D02*
X011500Y017533D01*
X011500Y017632D02*
X028206Y017632D01*
X028247Y017730D02*
X011500Y017730D01*
X011500Y017829D02*
X028331Y017829D01*
X028325Y017927D02*
X011500Y017927D01*
X011500Y018026D02*
X028245Y018026D01*
X028204Y018124D02*
X011500Y018124D01*
X011500Y018223D02*
X028163Y018223D01*
X028155Y018321D02*
X011500Y018321D01*
X011500Y018420D02*
X028155Y018420D01*
X028159Y018518D02*
X011500Y018518D01*
X011500Y018617D02*
X028200Y018617D01*
X028241Y018715D02*
X011500Y018715D01*
X011500Y018814D02*
X028316Y018814D01*
X028340Y018912D02*
X011500Y018912D01*
X011500Y019011D02*
X028251Y019011D01*
X028210Y019109D02*
X011500Y019109D01*
X011500Y019208D02*
X028169Y019208D01*
X028155Y019306D02*
X011500Y019306D01*
X011500Y019405D02*
X028155Y019405D01*
X028155Y019503D02*
X011500Y019503D01*
X011500Y019602D02*
X028194Y019602D01*
X028234Y019700D02*
X011500Y019700D01*
X011500Y019799D02*
X028301Y019799D01*
X028400Y019897D02*
X011500Y019897D01*
X011500Y019996D02*
X028572Y019996D01*
X029678Y019996D02*
X029895Y019996D01*
X029854Y020094D02*
X011500Y020094D01*
X011500Y020193D02*
X029813Y020193D01*
X029805Y020291D02*
X011500Y020291D01*
X011500Y020587D02*
X029846Y020587D01*
X029887Y020685D02*
X011500Y020685D01*
X011500Y020784D02*
X029951Y020784D01*
X029985Y020882D02*
X011500Y020882D01*
X011500Y020981D02*
X029901Y020981D01*
X029860Y021079D02*
X011500Y021079D01*
X011500Y021178D02*
X029819Y021178D01*
X029805Y021276D02*
X011500Y021276D01*
X011500Y021375D02*
X029805Y021375D01*
X029805Y021473D02*
X011500Y021473D01*
X011500Y021572D02*
X029840Y021572D01*
X029881Y021670D02*
X011500Y021670D01*
X011500Y021769D02*
X029936Y021769D01*
X030000Y021867D02*
X011500Y021867D01*
X011500Y021966D02*
X029907Y021966D01*
X029866Y022064D02*
X011500Y022064D01*
X011500Y022163D02*
X029826Y022163D01*
X029805Y022261D02*
X011500Y022261D01*
X011500Y022360D02*
X029805Y022360D01*
X029805Y022458D02*
X011500Y022458D01*
X011500Y022557D02*
X029834Y022557D01*
X029874Y022655D02*
X011500Y022655D01*
X011500Y022754D02*
X029921Y022754D01*
X030015Y022852D02*
X011500Y022852D01*
X011500Y022951D02*
X029917Y022951D01*
X029873Y023049D02*
X011500Y023049D01*
X011500Y023148D02*
X029832Y023148D01*
X029805Y023246D02*
X011500Y023246D01*
X011500Y023345D02*
X029805Y023345D01*
X029805Y023443D02*
X011500Y023443D01*
X011500Y023542D02*
X029827Y023542D01*
X029868Y023640D02*
X011500Y023640D01*
X011500Y023739D02*
X029909Y023739D01*
X030004Y023837D02*
X011500Y023837D01*
X011500Y023936D02*
X029932Y023936D01*
X029879Y024034D02*
X011500Y024034D01*
X011500Y024133D02*
X029838Y024133D01*
X029805Y024231D02*
X011500Y024231D01*
X011500Y024330D02*
X029805Y024330D01*
X029805Y024428D02*
X011500Y024428D01*
X011500Y024527D02*
X029821Y024527D01*
X029862Y024625D02*
X011500Y024625D01*
X011500Y024724D02*
X029903Y024724D01*
X029989Y024822D02*
X011500Y024822D01*
X011500Y024921D02*
X029947Y024921D01*
X029885Y025019D02*
X011500Y025019D01*
X011500Y025118D02*
X029844Y025118D01*
X029805Y025216D02*
X011500Y025216D01*
X011500Y025315D02*
X029805Y025315D01*
X029805Y025413D02*
X011500Y025413D01*
X011500Y025512D02*
X029815Y025512D01*
X029856Y025610D02*
X011500Y025610D01*
X011500Y025709D02*
X029896Y025709D01*
X029974Y025807D02*
X011500Y025807D01*
X011500Y025906D02*
X029962Y025906D01*
X029891Y026004D02*
X011500Y026004D01*
X011500Y026103D02*
X029850Y026103D01*
X029810Y026201D02*
X011500Y026201D01*
X011500Y026300D02*
X029805Y026300D01*
X029805Y026398D02*
X011500Y026398D01*
X011500Y026497D02*
X029809Y026497D01*
X029849Y026595D02*
X011500Y026595D01*
X011500Y026694D02*
X029890Y026694D01*
X029959Y026792D02*
X011500Y026792D01*
X011500Y026891D02*
X030058Y026891D01*
X030227Y026989D02*
X011500Y026989D01*
X011500Y027876D02*
X030177Y027876D01*
X030078Y027974D02*
X011500Y027974D01*
X006273Y021473D02*
X000500Y021473D01*
X000500Y021375D02*
X006133Y021375D01*
X006053Y021276D02*
X006016Y021203D01*
X006036Y010244D02*
X000500Y010244D01*
X000500Y010146D02*
X005997Y010146D01*
X002429Y009259D02*
X000500Y009259D01*
X000500Y009161D02*
X002340Y009161D01*
X002340Y009062D02*
X000500Y009062D01*
X000500Y008964D02*
X002340Y008964D01*
X002340Y008865D02*
X000500Y008865D01*
X000500Y008767D02*
X002404Y008767D01*
X002345Y007486D02*
X000500Y007486D01*
X000500Y007388D02*
X002247Y007388D01*
X002148Y007289D02*
X000500Y007289D01*
X000500Y007191D02*
X002120Y007191D01*
X002120Y007092D02*
X000500Y007092D01*
X000500Y006994D02*
X002120Y006994D01*
X002120Y006895D02*
X000500Y006895D01*
X000500Y006797D02*
X002120Y006797D01*
X002161Y006698D02*
X000500Y006698D01*
X000500Y006600D02*
X002260Y006600D01*
X002358Y006501D02*
X000500Y006501D01*
X000500Y006403D02*
X002457Y006403D01*
X000500Y005910D02*
X005978Y005910D01*
X005978Y005812D02*
X000500Y005812D01*
X000500Y005713D02*
X005978Y005713D01*
X005978Y005615D02*
X000500Y005615D01*
X030242Y004039D02*
X030627Y004039D01*
X030810Y003940D02*
X030394Y003940D01*
X030493Y003842D02*
X031858Y003842D01*
X031720Y003743D02*
X030538Y003743D01*
X030579Y003645D02*
X031659Y003645D01*
X031632Y003546D02*
X030590Y003546D01*
X030590Y003448D02*
X031633Y003448D01*
X031662Y003349D02*
X030576Y003349D01*
X030535Y003251D02*
X031726Y003251D01*
X031873Y003152D02*
X030486Y003152D01*
X030388Y003054D02*
X038538Y003054D01*
X038439Y002955D02*
X030226Y002955D01*
X032274Y003251D02*
X039899Y003251D01*
X039990Y003349D02*
X032338Y003349D01*
X032367Y003448D02*
X040089Y003448D01*
X040302Y003546D02*
X032368Y003546D01*
X040729Y003546D02*
X045927Y003546D01*
X045714Y003448D02*
X040943Y003448D01*
X041041Y003349D02*
X042407Y003349D01*
X042434Y003349D02*
X042534Y003349D01*
X042534Y003353D02*
X042534Y002550D01*
X042434Y002550D01*
X042434Y002450D01*
X041982Y002450D01*
X041982Y002108D01*
X041994Y002030D01*
X042019Y001955D01*
X042054Y001884D01*
X042101Y001820D01*
X042157Y001764D01*
X042221Y001718D01*
X042291Y001682D01*
X042367Y001657D01*
X042434Y001647D01*
X042434Y002450D01*
X042534Y002450D01*
X042534Y001647D01*
X042602Y001657D01*
X042677Y001682D01*
X042748Y001718D01*
X042812Y001764D01*
X042868Y001820D01*
X042914Y001884D01*
X042950Y001955D01*
X042974Y002030D01*
X042987Y002108D01*
X042987Y002450D01*
X042534Y002450D01*
X042534Y002550D01*
X042987Y002550D01*
X042987Y002892D01*
X042974Y002970D01*
X042950Y003045D01*
X042914Y003116D01*
X042868Y003180D01*
X042812Y003236D01*
X042748Y003282D01*
X042677Y003318D01*
X042602Y003343D01*
X042534Y003353D01*
X042562Y003349D02*
X045615Y003349D01*
X045524Y003251D02*
X042791Y003251D01*
X042888Y003152D02*
X045483Y003152D01*
X045442Y003054D02*
X044837Y003054D01*
X044761Y003130D02*
X044239Y003130D01*
X043870Y002761D01*
X043870Y002239D01*
X044239Y001870D01*
X044761Y001870D01*
X045130Y002239D01*
X045130Y002761D01*
X044761Y003130D01*
X044936Y002955D02*
X045418Y002955D01*
X045418Y002857D02*
X045034Y002857D01*
X045130Y002758D02*
X045418Y002758D01*
X045418Y002660D02*
X045130Y002660D01*
X045130Y002561D02*
X045418Y002561D01*
X045418Y002463D02*
X045130Y002463D01*
X045130Y002364D02*
X045418Y002364D01*
X045418Y002266D02*
X045130Y002266D01*
X045058Y002167D02*
X045418Y002167D01*
X045418Y002069D02*
X044959Y002069D01*
X044861Y001970D02*
X045432Y001970D01*
X045473Y001872D02*
X044762Y001872D01*
X044238Y001872D02*
X042905Y001872D01*
X042955Y001970D02*
X044139Y001970D01*
X044041Y002069D02*
X042981Y002069D01*
X042987Y002167D02*
X043942Y002167D01*
X043870Y002266D02*
X042987Y002266D01*
X042987Y002364D02*
X043870Y002364D01*
X043870Y002463D02*
X042534Y002463D01*
X042534Y002561D02*
X042434Y002561D01*
X042434Y002550D02*
X042434Y003353D01*
X042367Y003343D01*
X042291Y003318D01*
X042221Y003282D01*
X042157Y003236D01*
X042101Y003180D01*
X042054Y003116D01*
X042019Y003045D01*
X041994Y002970D01*
X041982Y002892D01*
X041982Y002550D01*
X042434Y002550D01*
X042434Y002463D02*
X041238Y002463D01*
X041238Y002561D02*
X041982Y002561D01*
X041982Y002660D02*
X041238Y002660D01*
X041238Y002758D02*
X041982Y002758D01*
X041982Y002857D02*
X041238Y002857D01*
X041238Y002955D02*
X041992Y002955D01*
X042023Y003054D02*
X041215Y003054D01*
X041174Y003152D02*
X042081Y003152D01*
X042177Y003251D02*
X041133Y003251D01*
X041238Y002364D02*
X041982Y002364D01*
X041982Y002266D02*
X041238Y002266D01*
X041238Y002167D02*
X041982Y002167D01*
X041988Y002069D02*
X041238Y002069D01*
X041224Y001970D02*
X042014Y001970D01*
X042064Y001872D02*
X041183Y001872D01*
X041143Y001773D02*
X042148Y001773D01*
X042314Y001675D02*
X041065Y001675D01*
X040966Y001576D02*
X045690Y001576D01*
X045592Y001675D02*
X042655Y001675D01*
X042534Y001675D02*
X042434Y001675D01*
X042434Y001773D02*
X042534Y001773D01*
X042534Y001872D02*
X042434Y001872D01*
X042434Y001970D02*
X042534Y001970D01*
X042534Y002069D02*
X042434Y002069D01*
X042434Y002167D02*
X042534Y002167D01*
X042534Y002266D02*
X042434Y002266D01*
X042434Y002364D02*
X042534Y002364D01*
X042534Y002660D02*
X042434Y002660D01*
X042434Y002758D02*
X042534Y002758D01*
X042534Y002857D02*
X042434Y002857D01*
X042434Y002955D02*
X042534Y002955D01*
X042534Y003054D02*
X042434Y003054D01*
X042434Y003152D02*
X042534Y003152D01*
X042534Y003251D02*
X042434Y003251D01*
X042946Y003054D02*
X044163Y003054D01*
X044064Y002955D02*
X042977Y002955D01*
X042987Y002857D02*
X043966Y002857D01*
X043870Y002758D02*
X042987Y002758D01*
X042987Y002660D02*
X043870Y002660D01*
X043870Y002561D02*
X042987Y002561D01*
X042820Y001773D02*
X045514Y001773D01*
X045870Y001478D02*
X040786Y001478D01*
X032280Y010737D02*
X032220Y010737D01*
X032220Y010835D02*
X032280Y010835D01*
X032280Y010934D02*
X032220Y010934D01*
X032220Y011032D02*
X032280Y011032D01*
X032280Y011131D02*
X032220Y011131D01*
X032220Y011229D02*
X032280Y011229D01*
X032280Y011328D02*
X032220Y011328D01*
X032220Y011426D02*
X032280Y011426D01*
X032280Y011525D02*
X032220Y011525D01*
X032220Y011623D02*
X032280Y011623D01*
X029966Y019799D02*
X029949Y019799D01*
X029970Y019897D02*
X029850Y019897D01*
X035866Y022951D02*
X035917Y022951D01*
X035981Y022852D02*
X036015Y022852D01*
X041285Y023837D02*
X043245Y023837D01*
X043245Y023739D02*
X041375Y023739D01*
X041415Y023640D02*
X043245Y023640D01*
X043245Y023542D02*
X041456Y023542D01*
X041470Y023443D02*
X043291Y023443D01*
X043389Y023345D02*
X041470Y023345D01*
X041308Y023936D02*
X043245Y023936D01*
X043268Y024034D02*
X041384Y024034D01*
X041425Y024133D02*
X043367Y024133D01*
X043465Y024231D02*
X041466Y024231D01*
X041470Y024330D02*
X043564Y024330D01*
X039855Y031126D02*
X039795Y031126D01*
X039795Y031225D02*
X039855Y031225D01*
X039855Y031323D02*
X039795Y031323D01*
X039795Y031422D02*
X039855Y031422D01*
X039125Y032308D02*
X036500Y032308D01*
X036500Y032407D02*
X039125Y032407D01*
X039125Y032505D02*
X036500Y032505D01*
X036500Y032604D02*
X039125Y032604D01*
X039125Y032702D02*
X036500Y032702D01*
X036500Y032801D02*
X039125Y032801D01*
X039125Y032899D02*
X036500Y032899D01*
X038395Y031914D02*
X038455Y031914D01*
X038455Y031816D02*
X038395Y031816D01*
X038395Y031717D02*
X038455Y031717D01*
X038455Y031619D02*
X038395Y031619D01*
X038395Y031422D02*
X038455Y031422D01*
X038455Y031323D02*
X038395Y031323D01*
X038395Y031225D02*
X038455Y031225D01*
X038455Y031126D02*
X038395Y031126D01*
X032905Y029156D02*
X032845Y029156D01*
X032845Y029058D02*
X032905Y029058D01*
X032905Y028959D02*
X032845Y028959D01*
X032845Y028861D02*
X032905Y028861D01*
X032905Y028762D02*
X032845Y028762D01*
X032845Y028664D02*
X032905Y028664D01*
X032627Y028664D02*
X031914Y028664D01*
X032012Y028762D02*
X032534Y028762D01*
X032486Y028861D02*
X032111Y028861D01*
X032209Y028959D02*
X032465Y028959D01*
X032465Y029058D02*
X032308Y029058D01*
X032406Y029156D02*
X032465Y029156D01*
X030550Y033687D02*
X030450Y033687D01*
X030450Y033786D02*
X030550Y033786D01*
X030550Y033884D02*
X030450Y033884D01*
X034993Y036445D02*
X038507Y036445D01*
X038293Y036544D02*
X035207Y036544D01*
X035306Y036642D02*
X036679Y036642D01*
X036700Y036642D02*
X036800Y036642D01*
X036800Y036639D02*
X036868Y036649D01*
X036943Y036674D01*
X037013Y036710D01*
X037077Y036756D01*
X037133Y036812D01*
X037180Y036876D01*
X037216Y036947D01*
X037240Y037022D01*
X037252Y037100D01*
X037252Y037442D01*
X036800Y037442D01*
X036800Y036639D01*
X036821Y036642D02*
X038194Y036642D01*
X038102Y036741D02*
X037056Y036741D01*
X037153Y036839D02*
X038061Y036839D01*
X038020Y036938D02*
X037211Y036938D01*
X037242Y037036D02*
X037996Y037036D01*
X037996Y037135D02*
X037252Y037135D01*
X037252Y037233D02*
X037996Y037233D01*
X037996Y037332D02*
X037252Y037332D01*
X037252Y037430D02*
X037996Y037430D01*
X037996Y037529D02*
X036800Y037529D01*
X036800Y037542D02*
X037252Y037542D01*
X037252Y037884D01*
X037240Y037962D01*
X037216Y038038D01*
X037180Y038108D01*
X037133Y038172D01*
X037077Y038228D01*
X037013Y038274D01*
X036943Y038310D01*
X036868Y038335D01*
X036800Y038345D01*
X036800Y037542D01*
X036800Y037442D01*
X036700Y037442D01*
X036700Y036639D01*
X036632Y036649D01*
X036557Y036674D01*
X036487Y036710D01*
X036423Y036756D01*
X036367Y036812D01*
X036320Y036876D01*
X036284Y036947D01*
X036260Y037022D01*
X036248Y037100D01*
X036248Y037442D01*
X036700Y037442D01*
X036700Y037542D01*
X036248Y037542D01*
X036248Y037884D01*
X036260Y037962D01*
X036284Y038038D01*
X036320Y038108D01*
X036367Y038172D01*
X036423Y038228D01*
X036487Y038274D01*
X036557Y038310D01*
X036632Y038335D01*
X036700Y038345D01*
X036700Y037542D01*
X036800Y037542D01*
X036800Y037627D02*
X036700Y037627D01*
X036700Y037529D02*
X035504Y037529D01*
X035504Y037627D02*
X036248Y037627D01*
X036248Y037726D02*
X035504Y037726D01*
X035504Y037824D02*
X036248Y037824D01*
X036254Y037923D02*
X035504Y037923D01*
X035490Y038021D02*
X036279Y038021D01*
X036329Y038120D02*
X035450Y038120D01*
X035409Y038218D02*
X036413Y038218D01*
X036576Y038317D02*
X035331Y038317D01*
X035233Y038415D02*
X038267Y038415D01*
X038169Y038317D02*
X036924Y038317D01*
X036800Y038317D02*
X036700Y038317D01*
X036700Y038218D02*
X036800Y038218D01*
X036800Y038120D02*
X036700Y038120D01*
X036700Y038021D02*
X036800Y038021D01*
X036800Y037923D02*
X036700Y037923D01*
X036700Y037824D02*
X036800Y037824D01*
X036800Y037726D02*
X036700Y037726D01*
X036700Y037430D02*
X036800Y037430D01*
X036800Y037332D02*
X036700Y037332D01*
X036700Y037233D02*
X036800Y037233D01*
X036800Y037135D02*
X036700Y037135D01*
X036700Y037036D02*
X036800Y037036D01*
X036800Y036938D02*
X036700Y036938D01*
X036700Y036839D02*
X036800Y036839D01*
X036800Y036741D02*
X036700Y036741D01*
X036444Y036741D02*
X035398Y036741D01*
X035439Y036839D02*
X036347Y036839D01*
X036289Y036938D02*
X035480Y036938D01*
X035504Y037036D02*
X036258Y037036D01*
X036248Y037135D02*
X035504Y037135D01*
X035504Y037233D02*
X036248Y037233D01*
X036248Y037332D02*
X035504Y037332D01*
X035504Y037430D02*
X036248Y037430D01*
X037252Y037627D02*
X037996Y037627D01*
X037996Y037726D02*
X037252Y037726D01*
X037252Y037824D02*
X037996Y037824D01*
X037996Y037923D02*
X037246Y037923D01*
X037221Y038021D02*
X038010Y038021D01*
X038050Y038120D02*
X037171Y038120D01*
X037087Y038218D02*
X038091Y038218D01*
X038446Y038514D02*
X035054Y038514D01*
D27*
X045375Y026500D02*
X045433Y026442D01*
X046626Y026442D01*
X043125Y016875D02*
X043000Y016750D01*
X041250Y016750D01*
X041192Y016692D01*
X041192Y015249D01*
D28*
X042058Y014875D02*
X043125Y014875D01*
X047000Y027308D02*
X049108Y027308D01*
X049500Y027700D01*
M02*
