G75*
%MOIN*%
%OFA0B0*%
%FSLAX24Y24*%
%IPPOS*%
%LPD*%
%AMOC8*
5,1,8,0,0,1.08239X$1,22.5*
%
%ADD10C,0.0000*%
%ADD11C,0.0520*%
%ADD12C,0.0600*%
%ADD13R,0.0433X0.0394*%
%ADD14OC8,0.0630*%
%ADD15C,0.0630*%
%ADD16R,0.0354X0.0276*%
%ADD17R,0.0276X0.0354*%
%ADD18OC8,0.0520*%
%ADD19C,0.0240*%
%ADD20C,0.0400*%
%ADD21C,0.0160*%
%ADD22C,0.0100*%
%ADD23R,0.0396X0.0396*%
%ADD24C,0.0396*%
D10*
X000000Y000000D02*
X000000Y006496D01*
X017000Y006500D01*
X017000Y000000D01*
X000000Y000000D01*
D11*
X001990Y001250D02*
X002510Y001250D01*
X002510Y002250D02*
X001990Y002250D01*
X001990Y003250D02*
X002510Y003250D01*
X002510Y004250D02*
X001990Y004250D01*
X004990Y004250D02*
X005510Y004250D01*
X005510Y003250D02*
X004990Y003250D01*
X004990Y002250D02*
X005510Y002250D01*
X005510Y001250D02*
X004990Y001250D01*
X008740Y002250D02*
X009260Y002250D01*
X009260Y003250D02*
X008740Y003250D01*
X008740Y004250D02*
X009260Y004250D01*
X009260Y005250D02*
X008740Y005250D01*
X011740Y005250D02*
X012260Y005250D01*
X012260Y004250D02*
X011740Y004250D01*
X011740Y003250D02*
X012260Y003250D01*
X012260Y002250D02*
X011740Y002250D01*
D12*
X013375Y001175D02*
X013375Y000575D01*
X014375Y000575D02*
X014375Y001175D01*
X015375Y001175D02*
X015375Y000575D01*
X014675Y002250D02*
X014075Y002250D01*
X014075Y003250D02*
X014675Y003250D01*
X014675Y004250D02*
X014075Y004250D01*
X014075Y005250D02*
X014675Y005250D01*
X007925Y002250D02*
X007325Y002250D01*
X007325Y001250D02*
X007925Y001250D01*
X001175Y002250D02*
X000575Y002250D01*
X000575Y003250D02*
X001175Y003250D01*
X001175Y004250D02*
X000575Y004250D01*
X000575Y005250D02*
X001175Y005250D01*
D13*
X006250Y004085D03*
X007125Y004085D03*
X007125Y003415D03*
X006250Y003415D03*
D14*
X015750Y004250D03*
D15*
X015750Y003250D03*
D16*
X011875Y001256D03*
X011875Y000744D03*
D17*
X003756Y005000D03*
X003244Y005000D03*
X012869Y005250D03*
X013381Y005250D03*
D18*
X006250Y005250D03*
X005250Y005250D03*
D19*
X006250Y005250D02*
X006250Y004085D01*
X007125Y004085D02*
X007960Y004085D01*
X008125Y004250D01*
X009000Y004250D01*
D20*
X011000Y004875D02*
X011000Y000625D01*
X011750Y000625D01*
X011869Y000744D01*
X011875Y000744D01*
X011750Y000625D02*
X013125Y000625D01*
X013375Y000875D01*
X011000Y000625D02*
X010875Y000500D01*
X006625Y000500D01*
X003250Y000500D01*
X003250Y004250D01*
X003000Y004250D01*
X003000Y005000D01*
X003244Y005000D01*
X003000Y004250D02*
X002250Y004250D01*
X011000Y004875D02*
X011375Y005250D01*
X012000Y005250D01*
X012250Y005250D01*
X012000Y005250D02*
X012869Y005250D01*
D21*
X007125Y003415D02*
X007125Y003125D01*
X006625Y002625D01*
X006625Y000500D01*
X006000Y001750D02*
X006250Y002000D01*
X006250Y003415D01*
D22*
X005771Y003737D02*
X005619Y003800D01*
X004881Y003800D01*
X004678Y003716D01*
X004524Y003562D01*
X004440Y003359D01*
X004440Y003141D01*
X004524Y002938D01*
X004678Y002784D01*
X004760Y002750D01*
X004678Y002716D01*
X004524Y002562D01*
X004440Y002359D01*
X004440Y002141D01*
X004524Y001938D01*
X004678Y001784D01*
X004760Y001750D01*
X004678Y001716D01*
X004524Y001562D01*
X004440Y001359D01*
X004440Y001141D01*
X004502Y000990D01*
X003740Y000990D01*
X003740Y004347D01*
X003665Y004528D01*
X003581Y004612D01*
X003628Y004659D01*
X003634Y004673D01*
X003737Y004673D01*
X003737Y004981D01*
X003775Y004981D01*
X003775Y005019D01*
X004044Y005019D01*
X004044Y005197D01*
X004033Y005235D01*
X004014Y005269D01*
X003986Y005297D01*
X003952Y005317D01*
X003913Y005327D01*
X003775Y005327D01*
X003775Y005019D01*
X003737Y005019D01*
X003737Y005327D01*
X003634Y005327D01*
X003628Y005341D01*
X003546Y005423D01*
X003440Y005467D01*
X003397Y005467D01*
X003342Y005490D01*
X002903Y005490D01*
X002722Y005415D01*
X002585Y005278D01*
X002510Y005097D01*
X002510Y004800D01*
X001881Y004800D01*
X001678Y004716D01*
X001611Y004649D01*
X001509Y004750D01*
X001326Y004826D01*
X001348Y004833D01*
X001411Y004865D01*
X001468Y004907D01*
X001518Y004957D01*
X001560Y005014D01*
X001592Y005077D01*
X001614Y005145D01*
X001623Y005200D01*
X000925Y005200D01*
X000925Y005300D01*
X000825Y005300D01*
X000825Y005700D01*
X000540Y005700D01*
X000470Y005689D01*
X000402Y005667D01*
X000339Y005635D01*
X000290Y005599D01*
X000290Y006206D01*
X016710Y006210D01*
X016710Y000290D01*
X015896Y000290D01*
X015965Y000458D01*
X015965Y001292D01*
X015875Y001509D01*
X015709Y001675D01*
X015492Y001765D01*
X015258Y001765D01*
X015041Y001675D01*
X014875Y001509D01*
X014799Y001326D01*
X014792Y001348D01*
X014760Y001411D01*
X014718Y001468D01*
X014668Y001518D01*
X014611Y001560D01*
X014548Y001592D01*
X014480Y001614D01*
X014425Y001623D01*
X014425Y000925D01*
X014325Y000925D01*
X014325Y001623D01*
X014270Y001614D01*
X014202Y001592D01*
X014139Y001560D01*
X014082Y001518D01*
X014032Y001468D01*
X013990Y001411D01*
X013958Y001348D01*
X013951Y001326D01*
X013875Y001509D01*
X013709Y001675D01*
X013492Y001765D01*
X013258Y001765D01*
X013041Y001675D01*
X012875Y001509D01*
X012785Y001292D01*
X012785Y001115D01*
X012229Y001115D01*
X012216Y001128D01*
X012202Y001134D01*
X012202Y001237D01*
X011894Y001237D01*
X011894Y001275D01*
X011856Y001275D01*
X011856Y001544D01*
X011678Y001544D01*
X011640Y001533D01*
X011606Y001514D01*
X011578Y001486D01*
X011558Y001452D01*
X011548Y001413D01*
X011548Y001275D01*
X011856Y001275D01*
X011856Y001237D01*
X011548Y001237D01*
X011548Y001134D01*
X011534Y001128D01*
X011521Y001115D01*
X011490Y001115D01*
X011490Y001925D01*
X011525Y001899D01*
X011583Y001870D01*
X011644Y001850D01*
X011708Y001840D01*
X011970Y001840D01*
X011970Y002220D01*
X012030Y002220D01*
X012030Y002280D01*
X011970Y002280D01*
X011970Y002660D01*
X011708Y002660D01*
X011644Y002650D01*
X011583Y002630D01*
X011525Y002601D01*
X011490Y002575D01*
X011490Y002758D01*
X011491Y002758D01*
X011490Y002758D02*
X011631Y002700D01*
X012369Y002700D01*
X012572Y002784D01*
X012726Y002938D01*
X012810Y003141D01*
X012810Y003359D01*
X012726Y003562D01*
X012572Y003716D01*
X012490Y003750D01*
X012572Y003784D01*
X012726Y003938D01*
X012810Y004141D01*
X012810Y004359D01*
X012726Y004562D01*
X012572Y004716D01*
X012490Y004750D01*
X012514Y004760D01*
X012967Y004760D01*
X013022Y004783D01*
X013065Y004783D01*
X013171Y004827D01*
X013253Y004909D01*
X013259Y004923D01*
X013362Y004923D01*
X013362Y005231D01*
X013400Y005231D01*
X013400Y005269D01*
X013669Y005269D01*
X013669Y005300D01*
X014325Y005300D01*
X014325Y005700D01*
X014040Y005700D01*
X013970Y005689D01*
X013902Y005667D01*
X013839Y005635D01*
X013782Y005593D01*
X013732Y005543D01*
X013690Y005486D01*
X013669Y005444D01*
X013669Y005447D01*
X013658Y005485D01*
X013639Y005519D01*
X013611Y005547D01*
X013577Y005567D01*
X013538Y005577D01*
X013400Y005577D01*
X013400Y005269D01*
X013362Y005269D01*
X013362Y005577D01*
X013259Y005577D01*
X013253Y005591D01*
X013171Y005673D01*
X013065Y005717D01*
X013022Y005717D01*
X012967Y005740D01*
X012514Y005740D01*
X012369Y005800D01*
X011631Y005800D01*
X011486Y005740D01*
X011278Y005740D01*
X011097Y005665D01*
X010585Y005153D01*
X010510Y004972D01*
X010510Y000990D01*
X008292Y000990D01*
X008310Y001014D01*
X008342Y001077D01*
X008364Y001145D01*
X008373Y001200D01*
X007675Y001200D01*
X007675Y001300D01*
X008373Y001300D01*
X008364Y001355D01*
X008342Y001423D01*
X008310Y001486D01*
X008268Y001543D01*
X008218Y001593D01*
X008161Y001635D01*
X008098Y001667D01*
X008076Y001674D01*
X008259Y001750D01*
X008361Y001851D01*
X008428Y001784D01*
X008631Y001700D01*
X009369Y001700D01*
X009572Y001784D01*
X009726Y001938D01*
X009810Y002141D01*
X009810Y002359D01*
X009726Y002562D01*
X009572Y002716D01*
X009490Y002750D01*
X009572Y002784D01*
X009726Y002938D01*
X009810Y003141D01*
X009810Y003359D01*
X009726Y003562D01*
X009572Y003716D01*
X009490Y003750D01*
X009572Y003784D01*
X009726Y003938D01*
X009810Y004141D01*
X009810Y004359D01*
X009726Y004562D01*
X009572Y004716D01*
X009490Y004750D01*
X009572Y004784D01*
X009726Y004938D01*
X009810Y005141D01*
X009810Y005359D01*
X009726Y005562D01*
X009572Y005716D01*
X009369Y005800D01*
X008631Y005800D01*
X008428Y005716D01*
X008274Y005562D01*
X008190Y005359D01*
X008190Y005141D01*
X008274Y004938D01*
X008428Y004784D01*
X008510Y004750D01*
X008428Y004716D01*
X008372Y004660D01*
X008043Y004660D01*
X007893Y004598D01*
X007790Y004495D01*
X007539Y004495D01*
X007506Y004527D01*
X007399Y004571D01*
X006851Y004571D01*
X006744Y004527D01*
X006688Y004471D01*
X006660Y004498D01*
X006660Y004882D01*
X006800Y005022D01*
X006800Y005478D01*
X006478Y005800D01*
X006022Y005800D01*
X005700Y005478D01*
X005700Y005022D01*
X005840Y004882D01*
X005840Y004498D01*
X005838Y004496D01*
X005823Y004517D01*
X005777Y004563D01*
X005725Y004601D01*
X005667Y004630D01*
X005606Y004650D01*
X005542Y004660D01*
X005280Y004660D01*
X005280Y004280D01*
X005220Y004280D01*
X005220Y004660D01*
X004958Y004660D01*
X004894Y004650D01*
X004833Y004630D01*
X004775Y004601D01*
X004723Y004563D01*
X004677Y004517D01*
X004639Y004465D01*
X004610Y004407D01*
X004590Y004346D01*
X004580Y004282D01*
X004580Y004280D01*
X005220Y004280D01*
X005220Y004220D01*
X005280Y004220D01*
X005280Y003840D01*
X005542Y003840D01*
X005606Y003850D01*
X005667Y003870D01*
X005725Y003899D01*
X005743Y003913D01*
X005743Y003830D01*
X005777Y003750D01*
X005771Y003737D01*
X005774Y003743D02*
X005757Y003743D01*
X005743Y003842D02*
X005552Y003842D01*
X005280Y003842D02*
X005220Y003842D01*
X005220Y003840D02*
X005220Y004220D01*
X004580Y004220D01*
X004580Y004218D01*
X004590Y004154D01*
X004610Y004093D01*
X004639Y004035D01*
X004677Y003983D01*
X004723Y003937D01*
X004775Y003899D01*
X004833Y003870D01*
X004894Y003850D01*
X004958Y003840D01*
X005220Y003840D01*
X005220Y003940D02*
X005280Y003940D01*
X005280Y004039D02*
X005220Y004039D01*
X005220Y004137D02*
X005280Y004137D01*
X005220Y004236D02*
X003740Y004236D01*
X003740Y004334D02*
X004588Y004334D01*
X004623Y004433D02*
X003705Y004433D01*
X003662Y004531D02*
X004691Y004531D01*
X004832Y004630D02*
X003599Y004630D01*
X003737Y004728D02*
X003775Y004728D01*
X003775Y004673D02*
X003913Y004673D01*
X003952Y004683D01*
X003986Y004703D01*
X004014Y004731D01*
X004033Y004765D01*
X004044Y004803D01*
X004044Y004981D01*
X003775Y004981D01*
X003775Y004673D01*
X004011Y004728D02*
X005840Y004728D01*
X005840Y004630D02*
X005668Y004630D01*
X005809Y004531D02*
X005840Y004531D01*
X005840Y004827D02*
X004044Y004827D01*
X004044Y004925D02*
X004995Y004925D01*
X005080Y004840D02*
X004840Y005080D01*
X004840Y005220D01*
X005220Y005220D01*
X005280Y005220D01*
X005280Y005280D01*
X005660Y005280D01*
X005660Y005420D01*
X005420Y005660D01*
X005280Y005660D01*
X005280Y005280D01*
X005220Y005280D01*
X005220Y005660D01*
X005080Y005660D01*
X004840Y005420D01*
X004840Y005280D01*
X005220Y005280D01*
X005220Y005220D01*
X005220Y004840D01*
X005080Y004840D01*
X005220Y004925D02*
X005280Y004925D01*
X005280Y004840D02*
X005420Y004840D01*
X005660Y005080D01*
X005660Y005220D01*
X005280Y005220D01*
X005280Y004840D01*
X005505Y004925D02*
X005797Y004925D01*
X005700Y005024D02*
X005603Y005024D01*
X005660Y005122D02*
X005700Y005122D01*
X005700Y005221D02*
X005280Y005221D01*
X005220Y005221D02*
X004037Y005221D01*
X004044Y005122D02*
X004840Y005122D01*
X004897Y005024D02*
X004044Y005024D01*
X003775Y005024D02*
X003737Y005024D01*
X003737Y005122D02*
X003775Y005122D01*
X003775Y005221D02*
X003737Y005221D01*
X003737Y005319D02*
X003775Y005319D01*
X003944Y005319D02*
X004840Y005319D01*
X004840Y005418D02*
X003552Y005418D01*
X002728Y005418D02*
X001594Y005418D01*
X001592Y005423D02*
X001560Y005486D01*
X001518Y005543D01*
X001468Y005593D01*
X001411Y005635D01*
X001348Y005667D01*
X001280Y005689D01*
X001210Y005700D01*
X000925Y005700D01*
X000925Y005300D01*
X001623Y005300D01*
X001614Y005355D01*
X001592Y005423D01*
X001538Y005516D02*
X004936Y005516D01*
X005035Y005615D02*
X001439Y005615D01*
X001620Y005319D02*
X002626Y005319D01*
X002561Y005221D02*
X000925Y005221D01*
X000925Y005319D02*
X000825Y005319D01*
X000825Y005418D02*
X000925Y005418D01*
X000925Y005516D02*
X000825Y005516D01*
X000825Y005615D02*
X000925Y005615D01*
X000311Y005615D02*
X000290Y005615D01*
X000290Y005713D02*
X005935Y005713D01*
X005837Y005615D02*
X005465Y005615D01*
X005564Y005516D02*
X005738Y005516D01*
X005700Y005418D02*
X005660Y005418D01*
X005660Y005319D02*
X005700Y005319D01*
X005280Y005319D02*
X005220Y005319D01*
X005220Y005418D02*
X005280Y005418D01*
X005280Y005516D02*
X005220Y005516D01*
X005220Y005615D02*
X005280Y005615D01*
X005280Y005122D02*
X005220Y005122D01*
X005220Y005024D02*
X005280Y005024D01*
X005280Y004630D02*
X005220Y004630D01*
X005220Y004531D02*
X005280Y004531D01*
X005280Y004433D02*
X005220Y004433D01*
X005220Y004334D02*
X005280Y004334D01*
X004720Y003940D02*
X003740Y003940D01*
X003740Y003842D02*
X004948Y003842D01*
X004743Y003743D02*
X003740Y003743D01*
X003740Y003645D02*
X004607Y003645D01*
X004517Y003546D02*
X003740Y003546D01*
X003740Y003448D02*
X004476Y003448D01*
X004440Y003349D02*
X003740Y003349D01*
X003740Y003251D02*
X004440Y003251D01*
X004440Y003152D02*
X003740Y003152D01*
X003740Y003054D02*
X004476Y003054D01*
X004517Y002955D02*
X003740Y002955D01*
X003740Y002857D02*
X004606Y002857D01*
X004741Y002758D02*
X003740Y002758D01*
X003740Y002660D02*
X004622Y002660D01*
X004524Y002561D02*
X003740Y002561D01*
X003740Y002463D02*
X004483Y002463D01*
X004442Y002364D02*
X003740Y002364D01*
X003740Y002266D02*
X004440Y002266D01*
X004440Y002167D02*
X003740Y002167D01*
X003740Y002069D02*
X004470Y002069D01*
X004511Y001970D02*
X003740Y001970D01*
X003740Y001872D02*
X004591Y001872D01*
X004704Y001773D02*
X003740Y001773D01*
X003740Y001675D02*
X004637Y001675D01*
X004538Y001576D02*
X003740Y001576D01*
X003740Y001478D02*
X004489Y001478D01*
X004448Y001379D02*
X003740Y001379D01*
X003740Y001281D02*
X004440Y001281D01*
X004440Y001182D02*
X003740Y001182D01*
X003740Y001084D02*
X004464Y001084D01*
X007675Y001281D02*
X010510Y001281D01*
X010510Y001379D02*
X008356Y001379D01*
X008314Y001478D02*
X010510Y001478D01*
X010510Y001576D02*
X008235Y001576D01*
X008077Y001675D02*
X010510Y001675D01*
X010510Y001773D02*
X009546Y001773D01*
X009659Y001872D02*
X010510Y001872D01*
X010510Y001970D02*
X009739Y001970D01*
X009780Y002069D02*
X010510Y002069D01*
X010510Y002167D02*
X009810Y002167D01*
X009810Y002266D02*
X010510Y002266D01*
X010510Y002364D02*
X009808Y002364D01*
X009767Y002463D02*
X010510Y002463D01*
X010510Y002561D02*
X009726Y002561D01*
X009628Y002660D02*
X010510Y002660D01*
X010510Y002758D02*
X009509Y002758D01*
X009644Y002857D02*
X010510Y002857D01*
X010510Y002955D02*
X009733Y002955D01*
X009774Y003054D02*
X010510Y003054D01*
X010510Y003152D02*
X009810Y003152D01*
X009810Y003251D02*
X010510Y003251D01*
X010510Y003349D02*
X009810Y003349D01*
X009774Y003448D02*
X010510Y003448D01*
X010510Y003546D02*
X009733Y003546D01*
X009643Y003645D02*
X010510Y003645D01*
X010510Y003743D02*
X009507Y003743D01*
X009629Y003842D02*
X010510Y003842D01*
X010510Y003940D02*
X009727Y003940D01*
X009768Y004039D02*
X010510Y004039D01*
X010510Y004137D02*
X009809Y004137D01*
X009810Y004236D02*
X010510Y004236D01*
X010510Y004334D02*
X009810Y004334D01*
X009780Y004433D02*
X010510Y004433D01*
X010510Y004531D02*
X009739Y004531D01*
X009658Y004630D02*
X010510Y004630D01*
X010510Y004728D02*
X009543Y004728D01*
X009614Y004827D02*
X010510Y004827D01*
X010510Y004925D02*
X009713Y004925D01*
X009761Y005024D02*
X010531Y005024D01*
X010572Y005122D02*
X009802Y005122D01*
X009810Y005221D02*
X010653Y005221D01*
X010751Y005319D02*
X009810Y005319D01*
X009786Y005418D02*
X010850Y005418D01*
X010948Y005516D02*
X009745Y005516D01*
X009673Y005615D02*
X011047Y005615D01*
X011212Y005713D02*
X009575Y005713D01*
X008425Y005713D02*
X006565Y005713D01*
X006663Y005615D02*
X008327Y005615D01*
X008255Y005516D02*
X006762Y005516D01*
X006800Y005418D02*
X008214Y005418D01*
X008190Y005319D02*
X006800Y005319D01*
X006800Y005221D02*
X008190Y005221D01*
X008198Y005122D02*
X006800Y005122D01*
X006800Y005024D02*
X008238Y005024D01*
X008287Y004925D02*
X006703Y004925D01*
X006660Y004827D02*
X008386Y004827D01*
X008457Y004728D02*
X006660Y004728D01*
X006660Y004630D02*
X007970Y004630D01*
X007826Y004531D02*
X007497Y004531D01*
X006753Y004531D02*
X006660Y004531D01*
X004638Y004039D02*
X003740Y004039D01*
X003740Y004137D02*
X004596Y004137D01*
X003775Y004827D02*
X003737Y004827D01*
X003737Y004925D02*
X003775Y004925D01*
X002520Y005122D02*
X001607Y005122D01*
X001565Y005024D02*
X002510Y005024D01*
X002510Y004925D02*
X001486Y004925D01*
X001328Y004827D02*
X002510Y004827D01*
X001707Y004728D02*
X001531Y004728D01*
X000290Y005812D02*
X016710Y005812D01*
X016710Y005910D02*
X000290Y005910D01*
X000290Y006009D02*
X016710Y006009D01*
X016710Y006107D02*
X000290Y006107D01*
X000290Y006206D02*
X016710Y006206D01*
X016710Y005713D02*
X013075Y005713D01*
X013230Y005615D02*
X013811Y005615D01*
X013712Y005516D02*
X013641Y005516D01*
X013400Y005516D02*
X013362Y005516D01*
X013362Y005418D02*
X013400Y005418D01*
X013400Y005319D02*
X013362Y005319D01*
X013400Y005231D02*
X013669Y005231D01*
X013669Y005200D01*
X014325Y005200D01*
X014325Y005300D01*
X014425Y005300D01*
X014425Y005700D01*
X014710Y005700D01*
X014780Y005689D01*
X014848Y005667D01*
X014911Y005635D01*
X014968Y005593D01*
X015018Y005543D01*
X015060Y005486D01*
X015092Y005423D01*
X015114Y005355D01*
X015123Y005300D01*
X014425Y005300D01*
X014425Y005200D01*
X015123Y005200D01*
X015114Y005145D01*
X015092Y005077D01*
X015060Y005014D01*
X015018Y004957D01*
X014968Y004907D01*
X014911Y004865D01*
X014848Y004833D01*
X014826Y004826D01*
X015009Y004750D01*
X015175Y004584D01*
X015265Y004367D01*
X015265Y004133D01*
X015175Y003916D01*
X015009Y003750D01*
X015175Y003584D01*
X015204Y003514D01*
X015237Y003593D01*
X015407Y003763D01*
X015529Y003813D01*
X015285Y004057D01*
X015285Y004220D01*
X015720Y004220D01*
X015720Y004280D01*
X015720Y004715D01*
X015557Y004715D01*
X015285Y004443D01*
X015285Y004280D01*
X015720Y004280D01*
X015780Y004280D01*
X015780Y004715D01*
X015943Y004715D01*
X016215Y004443D01*
X016215Y004280D01*
X015780Y004280D01*
X015780Y004220D01*
X016215Y004220D01*
X016215Y004057D01*
X015971Y003813D01*
X016093Y003763D01*
X016263Y003593D01*
X016355Y003370D01*
X016355Y003130D01*
X016263Y002907D01*
X016093Y002737D01*
X015870Y002645D01*
X015630Y002645D01*
X015407Y002737D01*
X015237Y002907D01*
X015204Y002986D01*
X015175Y002916D01*
X015009Y002750D01*
X015175Y002584D01*
X015265Y002367D01*
X015265Y002133D01*
X015175Y001916D01*
X015009Y001750D01*
X014792Y001660D01*
X013958Y001660D01*
X013741Y001750D01*
X013575Y001916D01*
X013485Y002133D01*
X013485Y002367D01*
X013575Y002584D01*
X013741Y002750D01*
X013575Y002916D01*
X013485Y003133D01*
X013485Y003367D01*
X013575Y003584D01*
X013741Y003750D01*
X013575Y003916D01*
X013485Y004133D01*
X013485Y004367D01*
X013575Y004584D01*
X013741Y004750D01*
X013924Y004826D01*
X013902Y004833D01*
X013839Y004865D01*
X013782Y004907D01*
X013732Y004957D01*
X013690Y005014D01*
X013669Y005056D01*
X013669Y005053D01*
X013658Y005015D01*
X013639Y004981D01*
X013611Y004953D01*
X013577Y004933D01*
X013538Y004923D01*
X013400Y004923D01*
X013400Y005231D01*
X013400Y005221D02*
X013362Y005221D01*
X013362Y005122D02*
X013400Y005122D01*
X013400Y005024D02*
X013362Y005024D01*
X013362Y004925D02*
X013400Y004925D01*
X013547Y004925D02*
X013764Y004925D01*
X013685Y005024D02*
X013661Y005024D01*
X013669Y005221D02*
X014325Y005221D01*
X014325Y005319D02*
X014425Y005319D01*
X014425Y005221D02*
X016710Y005221D01*
X016710Y005319D02*
X015120Y005319D01*
X015094Y005418D02*
X016710Y005418D01*
X016710Y005516D02*
X015038Y005516D01*
X014939Y005615D02*
X016710Y005615D01*
X016710Y005122D02*
X015107Y005122D01*
X015065Y005024D02*
X016710Y005024D01*
X016710Y004925D02*
X014986Y004925D01*
X014828Y004827D02*
X016710Y004827D01*
X016710Y004728D02*
X015031Y004728D01*
X015130Y004630D02*
X015472Y004630D01*
X015373Y004531D02*
X015197Y004531D01*
X015238Y004433D02*
X015285Y004433D01*
X015285Y004334D02*
X015265Y004334D01*
X015265Y004236D02*
X015720Y004236D01*
X015780Y004236D02*
X016710Y004236D01*
X016710Y004334D02*
X016215Y004334D01*
X016215Y004433D02*
X016710Y004433D01*
X016710Y004531D02*
X016127Y004531D01*
X016028Y004630D02*
X016710Y004630D01*
X015780Y004630D02*
X015720Y004630D01*
X015720Y004531D02*
X015780Y004531D01*
X015780Y004433D02*
X015720Y004433D01*
X015720Y004334D02*
X015780Y004334D01*
X016215Y004137D02*
X016710Y004137D01*
X016710Y004039D02*
X016196Y004039D01*
X016098Y003940D02*
X016710Y003940D01*
X016710Y003842D02*
X015999Y003842D01*
X016113Y003743D02*
X016710Y003743D01*
X016710Y003645D02*
X016211Y003645D01*
X016282Y003546D02*
X016710Y003546D01*
X016710Y003448D02*
X016323Y003448D01*
X016355Y003349D02*
X016710Y003349D01*
X016710Y003251D02*
X016355Y003251D01*
X016355Y003152D02*
X016710Y003152D01*
X016710Y003054D02*
X016323Y003054D01*
X016283Y002955D02*
X016710Y002955D01*
X016710Y002857D02*
X016212Y002857D01*
X016114Y002758D02*
X016710Y002758D01*
X016710Y002660D02*
X015905Y002660D01*
X015595Y002660D02*
X015100Y002660D01*
X015017Y002758D02*
X015386Y002758D01*
X015288Y002857D02*
X015116Y002857D01*
X015191Y002955D02*
X015217Y002955D01*
X015185Y002561D02*
X016710Y002561D01*
X016710Y002463D02*
X015226Y002463D01*
X015265Y002364D02*
X016710Y002364D01*
X016710Y002266D02*
X015265Y002266D01*
X015265Y002167D02*
X016710Y002167D01*
X016710Y002069D02*
X015238Y002069D01*
X015198Y001970D02*
X016710Y001970D01*
X016710Y001872D02*
X015131Y001872D01*
X015032Y001773D02*
X016710Y001773D01*
X016710Y001675D02*
X015710Y001675D01*
X015808Y001576D02*
X016710Y001576D01*
X016710Y001478D02*
X015888Y001478D01*
X015929Y001379D02*
X016710Y001379D01*
X016710Y001281D02*
X015965Y001281D01*
X015965Y001182D02*
X016710Y001182D01*
X016710Y001084D02*
X015965Y001084D01*
X015965Y000985D02*
X016710Y000985D01*
X016710Y000887D02*
X015965Y000887D01*
X015965Y000788D02*
X016710Y000788D01*
X016710Y000690D02*
X015965Y000690D01*
X015965Y000591D02*
X016710Y000591D01*
X016710Y000493D02*
X015965Y000493D01*
X015939Y000394D02*
X016710Y000394D01*
X016710Y000296D02*
X015898Y000296D01*
X014425Y000985D02*
X014325Y000985D01*
X014325Y001084D02*
X014425Y001084D01*
X014425Y001182D02*
X014325Y001182D01*
X014325Y001281D02*
X014425Y001281D01*
X014425Y001379D02*
X014325Y001379D01*
X014325Y001478D02*
X014425Y001478D01*
X014425Y001576D02*
X014325Y001576D01*
X014171Y001576D02*
X013808Y001576D01*
X013888Y001478D02*
X014041Y001478D01*
X013974Y001379D02*
X013929Y001379D01*
X013923Y001675D02*
X013710Y001675D01*
X013718Y001773D02*
X011490Y001773D01*
X011490Y001675D02*
X013040Y001675D01*
X012942Y001576D02*
X011490Y001576D01*
X011490Y001478D02*
X011573Y001478D01*
X011548Y001379D02*
X011490Y001379D01*
X011490Y001281D02*
X011548Y001281D01*
X011548Y001182D02*
X011490Y001182D01*
X011856Y001281D02*
X011894Y001281D01*
X011894Y001275D02*
X011894Y001544D01*
X012072Y001544D01*
X012110Y001533D01*
X012144Y001514D01*
X012172Y001486D01*
X012192Y001452D01*
X012202Y001413D01*
X012202Y001275D01*
X011894Y001275D01*
X011894Y001379D02*
X011856Y001379D01*
X011856Y001478D02*
X011894Y001478D01*
X012177Y001478D02*
X012862Y001478D01*
X012821Y001379D02*
X012202Y001379D01*
X012202Y001281D02*
X012785Y001281D01*
X012785Y001182D02*
X012202Y001182D01*
X012292Y001840D02*
X012030Y001840D01*
X012030Y002220D01*
X012670Y002220D01*
X012670Y002218D01*
X012660Y002154D01*
X012640Y002093D01*
X012611Y002035D01*
X012573Y001983D01*
X012527Y001937D01*
X012475Y001899D01*
X012417Y001870D01*
X012356Y001850D01*
X012292Y001840D01*
X012420Y001872D02*
X013619Y001872D01*
X013552Y001970D02*
X012560Y001970D01*
X012628Y002069D02*
X013512Y002069D01*
X013485Y002167D02*
X012662Y002167D01*
X012670Y002280D02*
X012670Y002282D01*
X012660Y002346D01*
X012640Y002407D01*
X012611Y002465D01*
X012573Y002517D01*
X012527Y002563D01*
X012475Y002601D01*
X012417Y002630D01*
X012356Y002650D01*
X012292Y002660D01*
X012030Y002660D01*
X012030Y002280D01*
X012670Y002280D01*
X012654Y002364D02*
X013485Y002364D01*
X013485Y002266D02*
X012030Y002266D01*
X012030Y002364D02*
X011970Y002364D01*
X011970Y002463D02*
X012030Y002463D01*
X012030Y002561D02*
X011970Y002561D01*
X011970Y002660D02*
X012030Y002660D01*
X011705Y002660D02*
X011490Y002660D01*
X012295Y002660D02*
X013650Y002660D01*
X013733Y002758D02*
X012509Y002758D01*
X012644Y002857D02*
X013634Y002857D01*
X013559Y002955D02*
X012733Y002955D01*
X012774Y003054D02*
X013518Y003054D01*
X013485Y003152D02*
X012810Y003152D01*
X012810Y003251D02*
X013485Y003251D01*
X013485Y003349D02*
X012810Y003349D01*
X012774Y003448D02*
X013518Y003448D01*
X013559Y003546D02*
X012733Y003546D01*
X012643Y003645D02*
X013635Y003645D01*
X013734Y003743D02*
X012507Y003743D01*
X012629Y003842D02*
X013649Y003842D01*
X013565Y003940D02*
X012727Y003940D01*
X012768Y004039D02*
X013524Y004039D01*
X013485Y004137D02*
X012809Y004137D01*
X012810Y004236D02*
X013485Y004236D01*
X013485Y004334D02*
X012810Y004334D01*
X012780Y004433D02*
X013512Y004433D01*
X013553Y004531D02*
X012739Y004531D01*
X012658Y004630D02*
X013620Y004630D01*
X013719Y004728D02*
X012543Y004728D01*
X013170Y004827D02*
X013922Y004827D01*
X014325Y005418D02*
X014425Y005418D01*
X014425Y005516D02*
X014325Y005516D01*
X014325Y005615D02*
X014425Y005615D01*
X015265Y004137D02*
X015285Y004137D01*
X015304Y004039D02*
X015226Y004039D01*
X015185Y003940D02*
X015402Y003940D01*
X015501Y003842D02*
X015101Y003842D01*
X015016Y003743D02*
X015387Y003743D01*
X015289Y003645D02*
X015115Y003645D01*
X015191Y003546D02*
X015218Y003546D01*
X013565Y002561D02*
X012529Y002561D01*
X012612Y002463D02*
X013524Y002463D01*
X014827Y001675D02*
X015040Y001675D01*
X014942Y001576D02*
X014579Y001576D01*
X014709Y001478D02*
X014862Y001478D01*
X014821Y001379D02*
X014776Y001379D01*
X012030Y001872D02*
X011970Y001872D01*
X011970Y001970D02*
X012030Y001970D01*
X012030Y002069D02*
X011970Y002069D01*
X011970Y002167D02*
X012030Y002167D01*
X011580Y001872D02*
X011490Y001872D01*
X010510Y001182D02*
X008370Y001182D01*
X008344Y001084D02*
X010510Y001084D01*
X008454Y001773D02*
X008282Y001773D01*
D23*
X009125Y001250D03*
X010125Y001250D03*
D24*
X006000Y001750D03*
M02*
