%
M48
M72
T01C0.0236
T02C0.0320
T03C0.0400
%
T01
X6000Y1750
X9125Y1250
X10125Y1250
T02
X2250Y1250
X2250Y2250
X2250Y3250
X2250Y4250
X5250Y4250
X5250Y3250
X5250Y2250
X5250Y1250
X9000Y2250
X9000Y3250
X9000Y4250
X9000Y5250
X6250Y5250
X5250Y5250
X12000Y5250
X12000Y4250
X12000Y3250
X12000Y2250
X15750Y3250
X15750Y4250
T03
X14375Y4250
X14375Y3250
X14375Y2250
X14375Y875
X13375Y875
X15375Y875
X7625Y1250
X7625Y2250
X14375Y5250
X875Y5250
X875Y4250
X875Y3250
X875Y2250
M30
